<?xml version="1.0" encoding="utf-8"?>
<!-- Generator: Adobe Illustrator 21.1.0, SVG Export Plug-In . SVG Version: 6.00 Build 0)  -->
<svg version="1.1" id="Guides" xmlns="http://www.w3.org/2000/svg" xmlns:xlink="http://www.w3.org/1999/xlink" x="0px" y="0px"
	 viewBox="0 0 525 525" style="enable-background:new 0 0 525 525;" xml:space="preserve">
<style type="text/css">
	.st0{fill:#2A2C2E;}
	.st1{fill:#FDFDFD;}
	.st2{fill:#0133A0;}
	.st3{fill:#FBD926;}
	.st4{fill:#C7102E;}
</style>
<path class="st0" d="M275.4,1.2c5.6,0.4,11.2,0.8,16.8,1.4c9.9,1.1,19.8,2.8,29.5,5.1c38.4,9,73,25.8,103.9,50.4
	c29.5,23.5,52.8,52.1,70,85.7c10.9,21.3,18.7,43.7,23.4,67.1c2.1,10.6,3.6,21.3,4.4,32.1c0.2,2.2,0.2,4.4,0.3,6.6
	c0,1.1-0.3,2.1,0.3,3.1c0,6,0,12.1,0,18.1c-0.4,1.5-0.3,3-0.3,4.5c-0.2,4.8-0.6,9.6-1.1,14.4c-1.1,10.9-2.9,21.6-5.4,32.3
	c-11,46.1-32.7,86.4-65.4,120.7c-35.2,36.9-77.6,61.5-127.1,73.8c-11.6,2.9-23.4,4.9-35.3,6.1c-5.8,0.6-11.7,0.9-17.5,1.3
	c-0.3,0-0.7,0.1-1,0.1c-2,0-3.9,0-5.9,0c-3.6,0-7.2,0-10.9,0c-3.5-0.2-6.9-0.5-10.4-0.7c-9-0.6-17.9-1.7-26.8-3.3
	c-16.9-3-33.3-7.6-49.3-13.9c-32.7-12.8-61.6-31.5-86.9-55.9c-21.2-20.5-38.5-44-51.8-70.4c-10.3-20.4-17.7-41.7-22.4-64
	c-2.8-13.3-4.5-26.7-5.2-40.2c0-0.3,0-0.7-0.1-1c-0.2-0.4,0-0.7,0-1.2c0-0.8,0.1-1.6-0.2-2.3c0-0.4,0.1-0.8,0.1-1.2
	c-0.3-4.5-0.2-9-0.1-13.5c0-0.8,0.3-1.6,0-2.4c0.3-0.9,0.2-1.8,0.2-2.7c0-0.5-0.2-1.1,0-1.5c0.1-0.3,0.1-0.7,0.1-1
	c0.3-5.2,0.7-10.4,1.3-15.6C4,221.6,6.1,210,8.9,198.5c10.1-40.3,28.8-76.2,56.1-107.5C96.6,55,135,29.2,180.5,14
	c13.6-4.5,27.5-7.8,41.7-10c9.1-1.4,18.2-2.2,27.4-2.8c1.2,0,2.4,0.2,3.5-0.3c6.4,0,12.8,0,19.2,0C273.3,1.5,274.4,1.2,275.4,1.2z
	 M262.5,519.2C403,519.2,519.1,405.4,519.4,263C519.7,122.2,406.2,7.8,266.2,5.8C123.1,3.8,7.8,118.7,5.8,258.5
	C3.8,401.4,119.2,519.1,262.5,519.2z"/>
<path class="st1" d="M262.5,519.2C119.2,519.1,3.8,401.4,5.8,258.5C7.8,118.7,123.1,3.8,266.2,5.8c140,2,253.5,116.4,253.2,257.2
	C519.1,405.4,403,519.2,262.5,519.2z M330,489.2c-1.8-1.7-3.5-3.4-5.3-5.1c-1.9-1.9-1.9-1.9-4.4-0.9c0,0-0.1,0.1-0.2,0.2
	c1.1,3.8,2.2,7.7,3.3,11.6c0.4,1.4,0.4,1.4,1.7,1c1.2-0.4,1.2-0.4,0.9-1.6c-0.2-0.6-0.3-1.2-0.5-1.8c-0.5-1.9-1.1-3.8-1.6-5.7
	c2.3,1.9,4.4,3.9,6.4,6c1,1.1,2,1.3,3.3,0.8c0.7-0.3,0.8-0.5,0.6-1.1c-1.1-3.8-2.2-7.7-3.3-11.5c-0.1-0.3-0.2-0.6-0.5-0.6
	c-0.7,0-1.4,0.2-2,0.6c-0.5,0.4-0.1,1,0,1.4c0.6,2.2,1.2,4.4,1.8,6.5C330.3,489,330.2,489.1,330,489.2z M374.6,447.6
	c-2.2-1.2-4.5-2.4-6.6-3.8c-1.3-0.8-2.3-0.8-3.4,0.1c-0.7,0.5-0.7,0.8-0.3,1.5c1.8,3,3.5,6,5.3,9c1.3,2.1,0.6,2.1,3,0.8
	c0.1-0.1,0.2-0.3,0.3-0.4c-1.5-2.5-2.9-5.1-4.4-7.6c0.6-0.2,0.9,0.2,1.3,0.4c2.2,1.3,4.5,2.5,6.6,3.8c1.1,0.7,1.9,0.7,3,0
	c0.9-0.7,1-0.7,0.4-1.7c-1.8-3.1-3.6-6.1-5.4-9.1c-0.3-0.5-0.5-1.1-1-1.4c-0.7,0.4-1.5,0.7-2.1,1.3c1.3,2.3,2.6,4.6,3.9,6.9
	C374.8,447.3,374.7,447.4,374.6,447.6z M457.5,262.5c0.2-106.5-85.9-194.4-194-194.9C155.7,67.1,68.3,153.9,67.7,261.4
	c-0.6,109,87.5,195.6,194.1,196C370.1,457.8,457.7,370,457.5,262.5z M26.8,315.4c0.3-0.8,1-0.9,1.5-1.2c6.9-3.9,13.9-7.7,20.8-11.6
	c3.1-1.7,6.3-3.5,9.4-5.2c0.5-0.3,1.2-0.4,1.1-1.3c-0.1-1-0.9-0.9-1.5-1.1c-0.1,0-0.1,0-0.2,0c-11.3-2.7-22.6-5.3-33.9-8
	c-0.4-0.1-0.8,0-1-0.6c1.2-0.2,2.4-0.4,3.6-0.5c8.5-1.3,17.1-2.6,25.6-3.9c1.8-0.3,3.1,0.5,3.7,2.2c0.3,0.9,0.6,1.8,0.7,2.7
	c0.1,0.7,0.4,0.9,1.1,0.8c0.8-0.1,1.2-0.3,1.1-1.3c-0.3-3.5-0.6-6.9-0.9-10.4c-0.1-1.8-0.3-3.6-0.5-5.4c0-0.3,0.1-0.7-0.4-0.9
	c-0.9-0.3-1.7,0.2-1.8,1.2c-0.1,0.6-0.1,1.3-0.2,1.9c-0.2,1.6-1.1,2.7-2.7,3c-0.4,0.1-0.8,0.2-1.2,0.2c-7.4,1.1-14.8,2.3-22.2,3.4
	c-2.2,0.3-4.5,0.7-6.7,1c-2,0.3-2.9-0.2-3.6-2.1c-0.2-0.6-0.5-1.2-0.6-1.8c-0.1-1.1-0.8-0.9-1.5-0.9c-0.9,0.1-0.7,0.7-0.7,1.3
	c0.6,3.7,1.2,7.5,1.7,11.2c0.1,0.7,0.4,0.9,1,0.9c1.2,0.1,2.4,0.2,3.6,0.5c6.2,1.3,12.3,2.7,18.5,4.1c2.9,0.6,5.7,1.3,8.6,1.9
	c-0.1,0.5-0.5,0.6-0.8,0.8c-2.2,1.2-4.3,2.5-6.5,3.7c-6.6,3.7-13.1,7.4-19.7,11.1c-0.8,0.5-1.2,0.9-0.9,1.9c0.3,1.1,0.3,2.2,0.5,3.3
	c0.4,2.8,0.9,5.6,1.3,8.4c0.1,0.7,0.4,0.8,1,0.8c0.9-0.1,1.1-0.4,1.2-1.3c0.1-4,1.4-5.5,5.4-6.2c0.3-0.1,0.6-0.1,0.9-0.1
	c5.9-0.9,11.8-1.8,17.7-2.7c2.4-0.3,4.7-0.8,7.1-0.8c2.4,0,3.6,0.8,4.5,3.1c0.2,0.5,0.5,1.1,0.6,1.6c0.2,1.1,0.9,0.8,1.6,0.8
	c0.9-0.1,0.7-0.8,0.6-1.3c-0.7-4.7-1.4-9.4-2.1-14.1c-0.1-0.6-0.2-1.1-1.1-1c-0.7,0.1-1.2,0.1-1.2,1.1c0,0.9-0.2,1.7-0.3,2.6
	c-0.2,1.9-1.3,3-3,3.7c-1.4,0.5-2.8,0.9-4.2,1.1c-5.2,0.8-10.3,1.6-15.5,2.4C33.2,314.5,30,314.9,26.8,315.4z M64.7,321.7
	c-0.3,0.1-0.6,0.2-0.8,0.3c-0.9,0.2-1.2,0.7-0.9,1.6c0.3,0.8,0.4,1.6,0.5,2.4c0.1,1.3-0.4,2.4-1.7,3c-0.4,0.2-0.7,0.3-1.1,0.5
	c-8.2,3.6-16.5,7.2-24.7,10.7c-3.8,1.6-4.1,1.5-6.3-1.9c-0.7-1.1-0.7-1.1-2-0.6c-0.2,0.1-0.3,0.2-0.5,0.3c1.7,3.8,3.3,7.7,5,11.5
	c0.2,0.5,0.5,0.6,1.1,0.5c1.3-0.3,2.6-0.5,4-0.5c8.7-0.3,17.4-0.7,26.1-1c0.4,0,0.9,0,1.2,0c-2.1,2.2-4.2,4.5-6.3,6.6
	c-5.2,5.1-10.4,10.2-15.6,15.2c-1.1,1-1.1,1.1-0.5,2.4c1.3,3,2.6,6,3.9,8.9c0.4,0.8,0.6,1.7,1.2,2.5c1.8-0.6,1.8-0.6,1.4-2.4
	c-0.7-3,0.2-4.9,2.9-6.4c0.4-0.2,0.8-0.4,1.3-0.6c6.4-2.8,12.8-5.5,19.2-8.3c1.5-0.7,3.1-1.3,4.7-1.7c1.8-0.4,3.2,0,4.3,1.4
	c0.5,0.6,1,1.3,1.4,2c0.5,1,1.1,0.5,1.7,0.3c0.8-0.3,0.5-0.7,0.3-1.2c-0.8-1.9-1.7-3.8-2.5-5.7c-1.1-2.5-2.2-5-3.3-7.5
	c-0.1-0.3-0.2-0.8-0.7-0.8c-0.9,0-1.5,0.8-1.4,1.6c0.1,0.6,0.1,1.2,0.3,1.7c0.6,2.4-0.3,4.1-2.3,5.3c-1.4,0.9-2.9,1.7-4.5,2.3
	c-6.9,3-13.8,6-20.8,9c-0.5,0.2-0.9,0.6-1.5,0.4c0.2-0.6,0.7-0.9,1.1-1.3c7.9-7.6,15.8-15.2,23.7-22.8c0.6-0.6,1.2-1.1,1.8-1.7
	c0.4-0.3,0.6-0.7,0.3-1.2c-0.3-0.6-0.6-0.8-1.2-0.7c-0.6,0.1-1.2,0-1.7,0.1c-11.1,0.3-22.3,0.6-33.4,0.9c-0.4,0-1,0.3-1.4-0.3
	c0.6-0.3,1-0.5,1.5-0.7c5.2-2.2,10.3-4.5,15.5-6.7c3.3-1.4,6.6-2.9,9.9-4.3c2.1-0.9,3.4-0.4,4.6,1.5c0.3,0.5,0.6,1,0.9,1.5
	c0.7,1.3,0.7,1.3,2.1,0.7c0.1-0.1,0.3-0.2,0.5-0.3C69.5,332.7,67.1,327.2,64.7,321.7z M248.3,58.1c2.1-0.1,4.1-0.2,6.1-0.3
	c3.1-0.2,6.3-0.3,9.4-0.4c1.4-0.1,1.4-0.1,1.4-1.4c0-0.8-0.3-1-1-1c-0.6,0-1.3-0.1-1.9-0.2c-1.9-0.4-2.6-1.2-2.8-3
	c-0.2-2.5-0.5-5.1-0.7-7.6c-0.6-6.2-1.1-12.4-1.7-18.6c-0.1-1.1-0.2-2.2-0.2-3.3c-0.1-1.9,0.4-2.6,2.2-3.2c0.6-0.2,1.2-0.5,1.8-0.5
	c0.9-0.1,1-0.5,0.9-1.3c-0.1-0.8-0.4-1-1.1-0.9c-5,0.3-10.1,0.5-15.1,0.8c-0.6,0-0.9,0.2-0.8,0.8c0.1,0.5-0.3,1.2,0.7,1.3
	c0.8,0.1,1.6,0.2,2.4,0.4c1.9,0.5,2.7,1.3,2.8,3.2c0.4,3.8,0.7,7.6,1.1,11.4c0.1,0.9-0.1,1.2-1.1,1.3c-1.9,0.1-3.7,0.3-5.5,0.5
	c-3.8,0.3-7.6,0.7-11.5,1c-0.8,0.1-1-0.2-1.1-0.9c0-0.9-0.1-1.9-0.2-2.8c-0.3-3.1-0.5-6.2-0.8-9.4c-0.1-1.9,0.4-2.6,2.2-3.2
	c0.7-0.2,1.3-0.5,2-0.6c0.7-0.1,0.9-0.4,0.7-1.1c-0.1-0.3-0.1-0.7-0.2-1c-0.4-0.2-0.8-0.1-1.1-0.1c-5,0.6-9.9,1.2-14.9,1.7
	c-0.8,0.1-0.9,0.4-0.9,1.1c0.1,0.8,0.3,1.2,1.1,1.2c0.4,0,0.8,0.1,1.2,0.2c2.7,0.4,3.4,1.3,3.7,4c0,0.3,0,0.7,0.1,1
	c0.3,3.2,0.6,6.4,0.8,9.5c0.5,5.9,1.1,11.8,1.6,17.7c0,0.5,0.1,1,0.1,1.6c0,1.2-0.6,2-1.6,2.4c-0.8,0.3-1.6,0.6-2.5,0.8
	c-0.9,0.2-0.8,0.7-0.7,1.4c0.1,0.7,0.3,1.1,1.2,1c2.6-0.5,5.2-0.8,7.7-1.2c2.3-0.4,4.6-0.8,6.9-1.1c0.7-0.1,0.9-0.5,0.9-1.2
	c0-0.8-0.3-1.2-1.1-1.1c-0.5,0-0.9-0.1-1.4-0.1c-2.4-0.4-3-1-3.3-3.3c-0.4-4.3-0.8-8.6-1.2-12.8c-0.1-0.9,0.2-1.1,1-1.1
	c3.6-0.3,7.2-0.6,10.8-1c2.1-0.2,4.2-0.3,6.2-0.5c0.6-0.1,1-0.1,1.1,0.7c0.4,4.5,0.8,9,1.2,13.5c0.1,1.7-0.5,2.6-2.2,3.1
	c-0.6,0.2-1.1,0.3-1.7,0.3c-0.9,0.1-1.3,0.5-1.2,1.5C248.2,57.5,248.2,57.7,248.3,58.1z M353,34.3c-0.2-0.1-0.3-0.2-0.4-0.3
	c-4.8-2-9.5-4-14.3-6c-0.7-0.3-1-0.1-1.3,0.5c-0.3,0.7-0.3,1.2,0.4,1.6c0.3,0.1,0.6,0.4,0.9,0.6c2.4,1.8,2.6,2.7,1.5,5.5
	c-3.5,8.5-7,16.9-10.6,25.4c-0.2,0.4-0.3,0.8-0.5,1.1c-0.8,1.5-1.7,2-3.4,1.7c-0.6-0.1-1.2-0.4-1.8-0.5c-1-0.3-1.1-0.2-1.5,0.8
	c-0.4,0.8,0.1,1,0.7,1.2c4.6,1.9,9.1,3.8,13.6,5.7c1.1,0.4,1.1,0.4,1.5-0.6c0.2-0.5,0.3-1-0.3-1.3c-0.4-0.2-0.8-0.5-1.2-0.7
	c-2.1-1.5-2.4-2.5-1.5-4.9c1.2-2.8,2.3-5.6,3.5-8.4c0.6-1.4,1.2-2.8,1.8-4.2c1.7,0.7,3.3,1.4,4.9,2.1c3.9,1.6,7.8,3.3,11.7,4.9
	c0.5,0.2,1.1,0.3,0.7,1.2c-1.8,4.3-3.6,8.6-5.4,12.8c-0.7,1.6-1.7,2-3.4,1.7c-0.7-0.1-1.3-0.4-2-0.6c-0.6-0.2-1-0.1-1.2,0.6
	c-0.1,0.4-0.5,0.7-0.2,1.2c1.6,0.7,3.3,1.5,5,2.3c3,1.3,6,2.7,9.1,4c0.4,0.2,0.7,0.5,1.1,0.1c0.7-0.6,0.7-1.6,0-2.1
	c-0.2-0.1-0.4-0.3-0.6-0.4c-2.4-1.9-2.7-2.8-1.5-5.7c2.2-5.2,4.4-10.5,6.6-15.7c1.4-3.5,2.9-7,4.3-10.4c0.9-2.1,1.6-2.4,3.8-2.1
	c0.5,0.1,0.9,0.2,1.4,0.3c1.3,0.3,1.3,0.3,1.8-1c0.1-0.2,0.1-0.3,0.1-0.5c-0.2-0.1-0.3-0.2-0.4-0.3c-4.8-2-9.5-4-14.3-6
	c-0.7-0.3-1-0.1-1.3,0.6c-0.3,0.7-0.3,1.1,0.4,1.5c0.6,0.3,1.1,0.8,1.7,1.3c1.5,1.4,1.7,2.2,0.9,4.2c-1.4,3.3-2.7,6.6-4.1,10
	c-0.5,1.1-0.5,1.1-1.6,0.7c-5.1-2.1-10.3-4.3-15.4-6.4c-1.1-0.5-1.1-0.5-0.7-1.6c1.3-3.3,2.7-6.5,4.1-9.8c0.2-0.4,0.4-0.9,0.6-1.3
	c0.6-1.1,1.4-1.7,2.7-1.4c0.8,0.1,1.6,0.2,2.4,0.5c0.8,0.3,1.2,0,1.4-0.7C352.8,34.9,352.9,34.6,353,34.3z M420.7,102.7
	c2,0.8,3.8,1.6,5.8,2c4.1,0.7,7.3-0.9,9.7-4.1c2.4-3,2.3-6.2,0.8-9.5c-1-2.2-2.4-3.9-4.1-5.6c-4.2-4.1-8.5-8.1-12.7-12.1
	c-0.3-0.3-0.6-0.8-1.1-0.8c-0.5,0.4-1,0.8-1.2,1.4c0.7,0.9,1.3,1.8,1.9,2.8c0.7,1.1,0.6,2.2-0.3,3.2c-0.6,0.7-1.2,1.3-1.8,1.9
	c-6.2,6.5-12.4,13-18.6,19.5c-1.9,2-2.8,2.1-5.1,0.4c-0.5-0.4-1.1-0.8-1.6-1.2c-0.6,0.5-1,1-1.3,1.7c4.1,3.9,8.2,7.8,12.4,11.7
	c0.3-0.3,0.5-0.4,0.6-0.6c0.7-0.6,0.8-1.1,0.1-1.8c-0.5-0.4-0.8-1-1.2-1.5c-1.1-1.6-1.1-2.4,0.1-3.9c0.3-0.3,0.5-0.6,0.8-0.9
	c2.2-2.3,4.3-4.5,6.5-6.8c1.8-1.8,1.7-1.8,3.6-0.1c0.8,0.7,1.1,1.4,1,2.5c-0.7,6.6-1.7,13.1-3,19.6c-0.2,1.1,0.1,1.7,0.8,2.4
	c1.9,1.8,3.8,3.6,5.7,5.4c1.3,1.2,1.3,1.2,2.5-0.1c0.1-0.1,0.1-0.2,0.1-0.3c-2.5-3.3-2.9-4.8-2.4-9c0.2-1.3,0.3-2.5,0.4-3.8
	C419.6,111,420.1,107,420.7,102.7z M448.6,170.8c-1.9,0.8-1.9,0.8-1.2,2.5c1.9,4.8,3.9,9.6,5.8,14.3c1.2,3,2.9,5.8,5.2,8.2
	c3.7,3.9,8.2,6.2,13.6,6.4c4.9,0.1,9.2-1.6,13.2-4.3c3.9-2.7,6.4-6.3,7.5-10.9c0.9-4.2,0.8-8.3-0.7-12.3c-2-5.7-4.3-11.3-6.4-16.9
	c-0.2-0.4-0.3-1.1-1.1-0.7c-0.6,0.3-1.4,0.4-1,1.4c0.1,0.3,0.1,0.6,0.1,0.9c0.5,2.9,0,3.8-2.8,4.9c-7.8,3-15.7,6-23.5,9
	c-1,0.4-2,0.8-3.1,1.2c-2,0.7-3.1,0.3-4.3-1.4C449.5,172.3,449.1,171.6,448.6,170.8z M413.4,401.7c0.2,0.3,0.3,0.4,0.4,0.5
	c0.9,0.9,0.8,1.2,2.1,0.2c0.6-0.4,1.2-0.7,1.8-1.1c1.8-1.2,3.5-1,5.2,0.1c1.3,0.9,2.5,1.9,3.7,3c4.8,4.6,9.6,9.3,14.4,13.9
	c0.3,0.3,0.7,0.4,0.6,1c-0.4,0-0.8-0.1-1.2-0.1c-3.2-0.4-6.4-0.8-9.7-1.3c-5.8-0.8-11.6-1.5-17.4-2.3c-3.8-0.5-7.6-1-11.4-1.5
	c-0.8-0.1-2.3,0.7-2.5,1.5c-0.2,0.8,0.6,1,1,1.4c7,6.7,14,13.5,20.9,20.2c1.1,1.1,2.2,2.3,3.1,3.6c0.9,1.3,1.1,2.5,0.3,3.9
	c-0.5,0.8-0.9,1.6-1.4,2.4c-0.4,0.5-0.4,0.9,0.1,1.3c0.3,0.2,0.5,0.6,1.1,0.7c3.8-3.9,7.6-7.9,11.4-11.8c-1.4-1.4-1.4-1.4-2.8-0.5
	c-0.7,0.4-1.4,0.8-2.1,1.2c-1.4,0.8-2.7,0.7-4.1-0.1c-1.5-0.9-2.8-2-4.1-3.2c-4.4-4.2-8.8-8.5-13.2-12.7c-0.2-0.2-0.6-0.4-0.6-1
	c1.7,0.2,3.4,0.5,5.1,0.7c10.5,1.4,20.9,2.7,31.4,4.2c0.9,0.1,1.5-0.1,2.1-0.8c2.1-2.2,4.2-4.4,6.3-6.5c0.3-0.3,0.7-0.6,0.8-1.1
	c-1.2-1.3-1.2-1.3-2.8-0.4c-0.7,0.4-1.4,0.7-2,1c-2,0.9-3.8,0.6-5.6-0.6c-0.5-0.3-0.9-0.7-1.3-1.1c-5-4.8-10.1-9.7-15.1-14.5
	c-1-1-2-2.1-2.9-3.2c-1.1-1.4-1.3-3-0.3-4.6c0.4-0.8,0.8-1.6,1.3-2.3c0.7-0.9-0.2-1.2-0.6-1.7c-0.5-0.6-0.8-0.1-1.1,0.2
	C420.7,394.1,417.1,397.9,413.4,401.7z M104.4,129.5c-1.1,0.7-2.1,1.4-3.2,2.1c-1.4,0.9-2.8,0.9-4.3,0.2c-1.5-0.7-2.8-1.7-4-2.8
	c-5.1-4.5-10.2-9-15.3-13.5c-0.3-0.2-0.8-0.4-0.5-1c6.7,0.6,13.4,1.1,20.1,1.7c6.1,0.5,12.3,1.1,18.4,1.6c0.5,0,1,0.1,1.6,0.1
	c0.6,0,2-1.1,2-1.7c0.1-0.3-0.2-0.5-0.4-0.7c-0.6-0.5-1.2-1.1-1.8-1.6c-7.1-6.2-14.1-12.5-21.2-18.7c-1-0.9-2-2-2.8-3.1
	c-0.9-1.2-1.1-2.4-0.4-3.8c0.4-0.8,0.8-1.6,1.2-2.3c0.5-1,0.5-1.1-0.4-1.8c-0.7-0.6-1,0-1.4,0.4c-2.3,2.6-4.6,5.2-6.9,7.8
	c-0.9,1-1.8,2.1-2.8,3.1c-0.2,0.2-0.5,0.5-0.3,0.7c0.3,0.4,0.7,0.8,1.1,1.1c0.4,0.3,0.6-0.1,0.9-0.3c0.8-0.5,1.7-1.1,2.5-1.6
	c1.5-1,3-0.9,4.6,0c1.5,0.9,2.9,2,4.2,3.1c4.4,3.9,8.8,7.8,13.2,11.6c0.3,0.3,0.8,0.5,0.9,1c-0.3,0.3-0.7,0.1-1,0.1
	c-3-0.2-6-0.5-9-0.8c-6-0.5-12-1.1-18.1-1.6c-3-0.3-5.9-0.5-8.9-0.8c-0.5,0-1-0.1-1.4,0.4c-2.4,2.8-4.8,5.5-7.2,8.2
	c1.3,1.5,1.3,1.5,2.8,0.5c0.3-0.2,0.6-0.3,0.9-0.5c3.3-1.8,5.4-1.6,8.2,0.9c5.3,4.6,10.5,9.3,15.8,14c1.1,1,2.2,2,3.1,3.3
	c0.9,1.2,1.1,2.5,0.4,3.9c-0.4,0.8-0.7,1.6-1.2,2.3c-0.6,0.9-0.6,0.8,0.5,1.8c0.7,0.7,1,0,1.4-0.4c1.4-1.6,2.8-3.2,4.3-4.8
	c2-2.3,4-4.5,6-6.8C105.5,130.2,105,129.8,104.4,129.5z M151.4,42.5c0.1,0.3,0.1,0.4,0.2,0.5c0.5,1.3,0.5,1.3,1.8,1.1
	c0.5,0,0.9-0.1,1.4-0.1c3.8-0.1,5.6,1,7,4.5c2.6,6.4,5.1,12.8,7.6,19.2c0.5,1.3,1,2.7,1.3,4.1c0.4,1.7,0.1,3.2-1.5,4.3
	c-0.7,0.5-1.3,1-2,1.5c-0.9,0.7-0.9,0.8-0.4,1.8c0.4,0.9,0.9,0.4,1.4,0.2c4.5-1.8,9.1-3.6,13.6-5.4c0.4-0.1,1-0.2,0.7-0.9
	c-0.3-0.5-0.1-1.5-1.3-1.2c-0.7,0.2-1.4,0.2-2.1,0.3c-2.5,0.5-4.3-0.4-5.5-2.6c-0.8-1.4-1.5-2.8-2-4.2c-2.4-6-4.8-12-7.1-17.9
	c-0.2-0.4-0.5-0.8-0.2-1.4c2.4,1.5,4.7,2.9,7.1,4.4c8.8,5.4,17.6,10.9,26.3,16.3c1,0.6,1.9,0.8,2.9,0.2c0.2-0.1,0.6-0.2,0.7-0.6
	c-0.2-0.5-0.4-1.1-0.6-1.7c-3.5-8.8-7-17.6-10.5-26.3c-0.6-1.6-1.1-3.2-1.5-4.8c-0.3-1.5,0-2.8,1.3-3.7c0.8-0.6,1.6-1.2,2.4-1.7
	c0.5-0.3,0.6-0.6,0.4-1.1c-0.4-1.1-0.5-1.2-1.6-0.8c-4.4,1.7-8.7,3.5-13.1,5.2c-0.4,0.2-0.9,0.3-1.2,0.7c0.6,1.7,0.6,1.7,2.4,1.5
	c0.7-0.1,1.4-0.2,2.1-0.2c1.8-0.3,3.1,0.6,4.1,2.1c1,1.5,1.7,3.2,2.4,4.8c2.2,5.4,4.3,10.8,6.4,16.2c0.2,0.5,0.5,0.9,0.4,1.6
	c-0.6-0.3-1-0.6-1.5-0.9c-5.7-3.6-11.4-7.1-17.1-10.7c-4.2-2.6-8.5-5.3-12.7-7.9c-0.5-0.3-1-0.8-1.7-0.5
	C158.2,39.8,154.8,41.1,151.4,42.5z M67.8,126.9c-1.7,0.1-2.8,0.1-4,0.3c-12.1,2.1-19.2,15-14.5,26.4c2.6,6.2,7.4,10.1,13.5,12.6
	c3.8,1.6,7.9,2.1,12,1.3c12.3-2.5,19.1-16.1,13.4-27.3C83.9,131.7,76.5,127.8,67.8,126.9z M142.4,94.2c9.1,0,19.6-7.3,19.2-19.9
	c-0.3-8.5-4.5-15.2-11.7-19.7c-6.3-3.9-12.9-3.9-19.3-0.2c-6.4,3.7-9.7,9.3-9.8,16.7c-0.1,9,6.2,18.2,14.5,21.6
	C137.5,93.7,139.9,94.2,142.4,94.2z M58.1,394.5c0,2.1,0.2,3.4,0.5,4.8c2.1,9.7,11.6,16.4,21.5,15c6.1-0.9,11.1-3.8,15-8.4
	c4.6-5.2,6.4-11.2,4.7-18.1c-2.5-9.6-11.9-15.8-21.6-14.2c-5.2,0.8-9.5,3.2-13.3,6.8C60.6,384.4,58.2,389.2,58.1,394.5z
	 M448.7,366.2c-0.6,0.1-1.8,0.1-2.8,0.2c-11.5,1.9-18.8,13.9-15,25c2.7,8,8.7,12.5,16.5,15c2.6,0.8,5.4,1,8.1,0.6
	c11.8-1.5,19.4-13.6,15.8-24.9C468.3,373.2,458.9,366.4,448.7,366.2z M398.8,72.6c-1.6-1.4-1.6-1.4-3-0.1c-0.1,0.1-0.3,0.2-0.4,0.3
	c-2.6,2.2-4.4,2.3-7.3,0.5c-0.3-0.2-0.6-0.4-0.9-0.6c-1-0.8-2.2-1.3-3.1-2.2c0.4-1.3,1.3-2.3,2-3.4c2-3.1,4.1-6.2,6.1-9.3
	c0.3-0.4,0.5-0.9,1.2-0.4c2.7,1.9,5.6,3.6,8.2,5.6c0.9,0.7,1.4,1.5,1.7,2.6c0.5,2.1,0.5,4.1,0.2,6.2c-0.2,1.2-0.1,1.4,1,2
	c0.4,0.2,0.6,0.2,0.9-0.2c1.7-2.6,3.4-5.1,5.1-7.6c-0.2-0.2-0.2-0.3-0.3-0.4c-8.4-5.6-16.8-11.2-25.2-16.8c-0.7-0.5-1-0.2-1.4,0.3
	c-0.4,0.6-0.5,1.1,0.2,1.6c0.5,0.3,0.8,0.8,1.2,1.2c1.8,2,1.8,2.9,0.4,5.1c-5.1,7.7-10.3,15.5-15.4,23.2c-0.2,0.2-0.3,0.5-0.5,0.7
	c-1.1,1.6-2.1,1.9-3.9,1.1c-0.6-0.2-1.2-0.5-1.7-0.8c-1.2-0.6-1.2-0.6-1.8,0.6c-0.1,0.2-0.2,0.4-0.3,0.7c0.5,0.3,0.9,0.6,1.3,0.9
	c7.2,4.7,14.3,9.5,21.5,14.2c1.5,1,3.1,2,4.6,3.1c0.4,0.3,0.7,0.5,1.2-0.1c2.3-3,4.5-6,6.8-9c-1.5-1.3-1.5-1.3-3.1-0.3
	c-1.6,1-3.2,1.8-4.9,2.7c-1.9,0.9-3.6,0.8-5.5-0.1c-2.4-1.2-4.6-2.7-6.7-4.3c-3.2-2.3-3.4-3.4-1.2-6.8c2-3.1,4.1-6.2,6.1-9.3
	c0.2-0.4,0.4-0.9,1-1c1.1,0.7,2.2,1.4,3.3,2.2c3.8,2.5,4.3,4.2,2.6,8.4c0,0.1,0,0.1-0.1,0.2c-0.5,1.1-0.7,1.1,0.6,1.9
	c0.2,0.1,0.4,0.4,0.9,0.2C393,81.3,395.9,77,398.8,72.6z M467.4,130.9c1.9,3.1,3.7,5.9,5.3,8.8c0.7,1.4,0.9,2.7,0.5,4.2
	c-0.5,1.8-1.2,3.5-2.4,5c-0.6,0.7-0.6,1.2,0,1.8c0.2,0.2,0.3,0.7,0.8,0.7c2.4-1.5,4.8-2.9,7.2-4.4c1-0.6,1-0.7,0.3-1.7
	c-5.1-8.2-10.2-16.5-15.3-24.7c-0.7-1.1-0.9-1.2-2-0.3c-0.3,0.2-0.5,0.4-0.3,0.9c0.2,0.5,0.4,1,0.6,1.5c1.1,3.1,0.8,3.8-2,5.6
	c-7.7,4.8-15.4,9.5-23.1,14.3c-0.4,0.3-0.9,0.6-1.4,0.8c-1.3,0.6-2.3,0.5-3.3-0.5c-0.6-0.6-1.2-1.3-1.7-2c-0.5-0.7-0.9-0.7-1.6-0.2
	c-0.2,0.2-0.5,0.3-0.7,0.5c0.1,0.6,0.5,1.1,0.8,1.6c1.6,2.7,3.3,5.3,4.9,8c3.7,6,7.4,11.9,11.1,17.9c1.1,1.8,0.9,1.5,2.5,0.6
	c2.6-1.4,5.1-2.7,7.7-4.1c0.4-0.2,1-0.4,1.3-0.8c-0.8-1.6-0.8-1.6-2.5-1.4c-1.8,0.2-3.7,0.3-5.6,0.4c-2.2,0.1-3.8-0.8-5.1-2.4
	c-1.9-2.5-3.5-5.1-4.9-7.8c-1.1-2.2-0.9-3.4,1.2-4.8c3.8-2.5,7.7-4.9,11.7-7.4c0.9,1.4,1.7,2.7,2.4,3.9c2.1,3.4,1.9,5.1-1,8
	c-0.1,0.1-0.2,0.2-0.4,0.4c-1.1,1-1.1,1-0.3,2.2c0.1,0.2,0.2,0.4,0.6,0.5c4.1-2.5,8.2-5.1,12.4-7.6c1.1-0.7,1.1-0.8,0.4-1.9
	c-0.4-0.6-0.7-0.6-1.3-0.4c-0.6,0.3-1.3,0.4-2,0.6c-2.7,0.6-4.2,0.1-5.7-2.1c-1.1-1.5-2-3.1-3.1-4.8
	C458.2,136.6,462.7,133.8,467.4,130.9z M323.3,24.9c-0.6-0.2-0.9-0.7-1.4-1c-8.8-6.6-23.3-5.8-30.1,6.3c-2.4,4.2-3.4,8.7-3.1,13.6
	c0.3,8.3,5.9,15.5,14,17.9c5.4,1.6,10.9,1.2,16.4,0.2c0.7-0.1,1-0.4,1.2-1.2c0.5-2.9,1-5.7,1.6-8.5c0.5-2.2,1.4-2.9,3.6-3
	c0.6,0,1.2,0,1.7,0c0.4,0,0.6-0.1,0.8-0.5c0.5-1.2,0.3-1.5-0.9-1.8c-5.1-1-10.2-2-15.4-3.1c-0.6-0.1-1-0.2-1.2,0.5
	c-0.3,1-0.2,1.4,0.6,1.7c1.1,0.3,2.1,0.6,3.1,1.1c1.8,0.9,2.3,1.8,2,3.8c-0.3,1.5-0.6,3-0.9,4.4c-0.8,4.2-1.3,4.6-5.6,4.9
	c-0.5,0-0.9,0-1.4,0c-6.5-0.6-11-4.5-12.2-11c-1.4-7.4,0.1-14.3,4.1-20.7c0.7-1.1,1.7-2.1,2.6-3c5.1-4.9,15.9-4.1,18.5,5.2
	c0.6,2,0.9,4.1,1,6.2c0.1,0.8,0.6,1.1,1.7,1.2c0.8,0.1,0.8-0.5,0.9-1c0.4-1.9,0.7-3.8,1-5.7c0.4-2.1,0.8-4.1,1.1-6.2
	c0.1-0.4,0.4-0.9-0.2-1.2c-0.7-0.4-1.9-0.3-2.5,0.3C323.9,24.4,323.7,24.8,323.3,24.9z M61.6,213.1c0.4-0.4,0.8-0.8,1.2-1.3
	c1.7-1.9,3.1-4.1,4-6.5c1.5-4.2,1.5-8.2-0.5-12.3c-2.7-5.5-12-9.3-18.1-2.9c-1.6,1.7-3.2,3.5-4.6,5.4c-1,1.3-2,2.5-3.1,3.8
	c-0.9,1-1.9,1.9-3.2,2.3c-2.6,1-5.1,0.7-7.2-1.2c-2-1.8-2.4-4.2-1.7-6.7c0.9-3.2,3-5.2,6-6.2c2.4-0.8,4.8-0.8,7.2-0.8
	c1.4,0,1.3,0,1.7-1.4c0.3-0.8,0-1-0.7-1.2c-1.2-0.3-2.5-0.7-3.7-1c-2.5-0.7-5-1.4-7.5-2.1c-0.4-0.1-0.8-0.3-1.1,0.2
	c-0.5,0.8-0.5,1.9,0.2,2.7c0.7,0.7,0.6,1.1-0.1,1.7c-0.8,0.7-1.5,1.5-2.1,2.3c-2.6,3.5-3.6,7.5-2.6,11.8c1.9,8.3,11.8,11.1,17.6,6.1
	c1.1-0.9,2-1.9,2.9-3c1.7-2.1,3.3-4.3,5-6.4c2.7-3.3,6.7-4.1,10.5-2.1c2.3,1.2,3.5,3,3.4,5.6c-0.2,4.7-2.3,8-6.6,10
	c-2.5,1.1-5.1,1.5-7.8,1.5c-1.3,0-1.3,0-1.7,1.4c-0.1,0.3-0.1,0.5-0.2,0.8c0.4,0.4,0.9,0.4,1.3,0.5c3.5,0.9,7.1,1.9,10.6,2.8
	c1.6,0.4,1.9,0.2,2.1-1.3c0.1-0.4,0-0.7-0.3-0.9C62.3,214,61.8,213.7,61.6,213.1z M27.1,236c-4.1,0.1-6.4-3.3-6.3-6.5
	c0.1-3.4,1.7-6,4.6-7.7c1.3-0.7,2.7-1.2,4.2-1.5c1.3-0.3,2.6-0.5,3.9-0.7c1.1-0.2,0.8-1.1,0.9-1.8c0.2-0.7-0.5-0.7-0.9-0.7
	c-3.9-0.5-7.8-1-11.7-1.5c-0.4,0-0.7-0.1-0.9,0.4c-0.4,0.9-0.2,2,0.6,2.6c0.8,0.6,0.7,1,0.1,1.7c-0.6,0.7-1,1.4-1.5,2.2
	c-1.9,3.2-2.6,6.6-1.8,10.2c1,4.5,3.5,7.7,8,8.9c4.7,1.2,8.7-0.1,11.7-4.1c1.1-1.4,2-3,2.9-4.6c1-1.8,1.9-3.6,3-5.3
	c2.2-3.5,6.2-4.7,10.1-3.3c2.4,0.9,3.8,2.6,4.1,5.2c0.1,1.3,0.1,2.7-0.2,4c-0.9,3.9-3.6,6.3-7.1,7.8c-1.8,0.8-3.7,1.2-5.7,1.5
	c-0.9,0.1-1.3,0.7-1.2,1.9c0,0.9,0.8,0.7,1.3,0.7c3.7,0.4,7.4,0.9,11.1,1.3c0.5,0.1,1.1,0.4,1.5-0.1c0.4-0.5,0.4-1.2,0.3-1.9
	c-0.1-0.6-0.6-0.8-1-1.1c-0.6-0.4-0.7-0.8-0.2-1.4c0.9-1.1,1.6-2.4,2.2-3.7c1.7-3.8,2.3-7.8,1.2-11.9c-1.6-5.7-6.3-9.1-12.2-9.1
	c-3.1,0-5.6,1.4-7.6,3.7c-1.8,2-3.1,4.4-4.4,6.7c-0.9,1.7-1.8,3.4-3,4.9C31.7,234.8,29.8,236.1,27.1,236z M462.7,221.6
	c0.1,4,1.2,8.3,4.4,11.9c3,3.3,6.7,4.8,11.1,3.9c4.8-0.9,9.7-1.8,14.5-2.7c2.7-0.5,5.5-1.1,8.3-1.2c2.1-0.1,3.5,0.8,4.2,2.7
	c0.3,0.7,0.5,1.4,0.8,2.1c0.3,0.8,0.9,0.5,1.5,0.4c0.6-0.1,0.7-0.4,0.6-1c-0.2-0.8-0.3-1.6-0.4-2.4c-0.8-4.1-1.6-8.2-2.3-12.3
	c-0.1-0.4,0-1.1-0.8-0.8c-0.6,0.2-1.5-0.1-1.4,1.1c0.1,0.9,0,1.7,0,2.6c-0.1,1.9-1,3.3-2.8,4c-1.4,0.5-2.7,1-4.2,1.2
	c-5.9,1.1-11.7,2.3-17.6,3.4c-5.5,1-10-1.8-11.6-7.1c-0.4-1.4-0.7-2.8-0.7-4.3c-0.1-3.7,1.8-6.8,5.3-8.3c0.9-0.4,1.8-0.7,2.8-0.9
	c4.8-0.9,9.6-1.8,14.4-2.7c2.8-0.5,5.7-1.1,8.5-1.6c1.6-0.3,2.5,0.2,3.2,1.7c0.3,0.6,0.5,1.3,0.8,1.9c0.5,1.2,0.4,1.1,1.5,0.9
	c1.1-0.2,0.7-0.8,0.6-1.4c-0.9-4.8-1.8-9.7-2.7-14.5c-0.2-0.9-0.6-1-1.3-0.8c-0.7,0.1-1,0.4-0.9,1.2c0.1,0.5,0,1-0.1,1.6
	c-0.3,2.4-0.9,3.1-3.3,3.5c-7.7,1.5-15.4,2.9-23.1,4.4c-3.8,0.7-6.5,3-8,6.5C463,216.6,462.7,218.7,462.7,221.6z M466.5,301.2
	c0-0.5,0-0.9,0-1.4c0-0.5-0.2-0.7-0.6-0.8c-1.2-0.3-1.4-0.2-1.6,1c-1,4.7-1.9,9.3-2.9,14c-0.1,0.7,0.1,1,0.7,1.2
	c0.6,0.2,1.2,0.5,1.6-0.4c1.1-2.5,3.2-3.5,5.7-4.1c8.4-1.8,16.8-3.7,25.2-5.5c3.4-0.7,6.8-1.5,10.2-2.2c0.4-0.1,1-0.1,1.3-0.5
	c0.6-0.9,0.3-2.1-0.7-2.7c-0.4-0.3-0.9-0.5-1.4-0.8c-9.7-5.7-19.5-11.3-29.2-17c-2.6-1.5-4.3-3.5-4.2-6.7c0-0.1,0-0.1,0-0.2
	c0-1-0.7-0.8-1.3-1c-0.6-0.1-0.8,0.3-0.8,0.8c-0.1,1-0.3,2.1-0.5,3.1c-0.5,3.4-1.1,6.9-1.6,10.3c-0.1,0.6-0.1,1.1,0.7,1.1
	c0.6,0,1.3,0.3,1.4-0.7c0.2-0.9,0.5-1.8,0.9-2.6c1-2,1.7-2.3,3.7-1.5c2.3,0.9,4.4,2.1,6.5,3.3c0.8,0.4,0.9,0.9,0.8,1.8
	c-0.7,3.9-1.3,7.9-1.8,11.9c-0.1,0.9-0.5,1.1-1.3,1.3c-2.3,0.4-4.7,0.9-7,1.4C466.8,304.8,466.5,304.6,466.5,301.2z M478.2,276.3
	c0.4-0.3,0.4-0.8,0.7-1.2c0.4-0.7,0.2-1-0.5-1.3c-1.8-0.7-3.4-1.7-4.8-3.1c-3.6-3.5-4.7-9.1-2.5-13.6c1.4-2.9,3.6-4.9,6.4-6.4
	c4.4-2.3,9.1-2.8,13.9-2.4c3.1,0.3,6.2,0.9,9,2.3c2.6,1.3,4.5,3.2,5.6,5.9c2,4.7,0.7,9.2-3.5,12.1c-0.9,0.6-1.8,1.1-2.7,1.5
	c-1.5,0.7-3.1,1.2-4.7,1.7c-0.9,0.3-1.1,0.8-0.9,2c0.1,0.8,0.7,0.6,1.2,0.6c2.6-0.1,5.1-0.2,7.7-0.3c1.9-0.1,3.8-0.2,5.7-0.3
	c0.2-1.4,0.2-2.6-1.3-3.1c-0.5-0.2-0.5-0.5-0.3-1c0.2-0.2,0.3-0.5,0.4-0.8c4.6-9.7,0.7-20.9-9-25.5c-5.5-2.6-11.2-2.9-17-1.6
	c-8.2,2-13.8,7.8-14.8,15.9C465.8,265.4,468.6,273.2,478.2,276.3z M83.5,429.2c0.5,0.6,0.6,1.4,0.8,2.1c3.3,8.7,12.5,13.9,21.6,11.8
	c9.2-2.2,15.2-8.1,18.1-17c1.5-4.7,0.9-9.3-1.4-13.7c-4.6-8.6-14.3-11.8-22.8-7.5c0.2,0.8,0.3,1.5,0.8,2.1c1.2-0.5,2.3-0.9,3.4-1.1
	c7-1.7,13.6,2.6,14.9,9.7c0.6,3.3-0.1,6.5-1.6,9.4c-3,6-7.8,10.3-13.9,13.1c-0.8,0.4-1.7,0.7-2.6,0.9c-4.1,0.8-7.7-0.1-10.7-3.2
	c-1.6-1.6-2.4-3.5-2.4-5.8c-0.1-2.2,0.4-4.3,1.3-6.3c0.6-1.3,1.2-2.7,1.9-3.9c0.6-1,0.3-1.1-0.7-2.1c-0.7-0.7-1,0.1-1.4,0.4
	c-1.9,2-3.8,4.1-5.7,6.1c-1,1-1.9,2-2.9,3.1c-0.2,0.2-0.5,0.4-0.3,0.9c0.5,0.8,1.5,1.3,2.5,1.1C82.8,429.4,83.2,429.3,83.5,429.2z
	 M454.5,335.8c1.8,0.8,1.7,0.8,2.6-0.8c0.3-0.5,0.6-1,0.9-1.5c1.4-2.2,2.2-2.6,4.8-1.7c3.8,1.2,7.5,2.4,11.2,3.7
	c5.9,1.9,11.9,3.9,17.8,5.9c1.3,0.4,1.3,0.4,0.9,1.6c-0.4,1.2-0.9,2.4-1.3,3.6c-0.5,1.6-1.6,2.5-3.1,3.1c-2.2,0.9-4.4,1.4-6.8,1.4
	c-1,0-1.1,0.7-1.2,1.3c-0.2,0.8,0.5,0.8,0.9,0.9c2.8,0.9,5.6,1.8,8.4,2.8c1,0.3,1.2,0,1.5-0.8c0.7-2.2,1.4-4.3,2.1-6.5
	c2.7-8.4,5.5-16.8,8.2-25.1c0.4-1.2,0.4-1.2-0.8-1.6c-2.8-0.9-5.6-1.8-8.4-2.8c-0.8-0.3-1.1,0-1.4,0.7c-0.3,0.7-0.1,1.1,0.5,1.6
	c2,1.5,3.7,3.4,4.8,5.6c0.4,0.7,0.7,1.5,0.6,2.3c-0.4,2.1-1,4.1-1.8,6.2c-0.3-0.1-0.6-0.1-0.8-0.2c-6.4-2.1-12.9-4.2-19.3-6.3
	c-3.6-1.2-7.3-2.4-10.9-3.6c-2.1-0.7-2.7-1.6-2.4-3.8c0.1-0.9,0.3-1.7,0.5-2.5c0.3-0.9-0.1-1.2-0.9-1.5c-1-0.4-1.1,0.2-1.3,0.9
	c-1.2,3.8-2.5,7.6-3.7,11.4C455.7,331.9,455,333.8,454.5,335.8z M268.9,17.9c0.7,0.2,1.3,0.3,1.8,0.4c0.6,0.2,1.2,0.3,1.8,0.5
	c2,0.7,2.4,1.4,2.4,3.5c0,1.4-0.1,2.8-0.1,4.2c-0.2,8.1-0.4,16.3-0.7,24.4c-0.1,2.6-0.8,3.4-3.4,3.7c-0.7,0.1-1.4,0.2-2.1,0.2
	c-0.7,0-0.9,0.4-0.8,1c0.1,0.6-0.1,1.3,0.9,1.3c5.6,0.1,11.2,0.2,16.7,0.3c0.7,0,1.1-0.2,1-1c0-0.7,0.1-1.3-0.9-1.3
	c-0.9,0-1.7-0.3-2.6-0.4c-1.4-0.3-2.2-1.2-2.6-2.5c-0.2-0.6-0.2-1.3-0.1-1.9c0.2-9.3,0.5-18.6,0.7-27.9c0-0.5,0.1-1,0.2-1.6
	c0.2-1.1,0.8-1.7,1.9-2c1.1-0.3,2.2-0.4,3.3-0.5c1,0,0.9-0.6,0.9-1.3c0.1-0.8-0.4-0.9-1.1-1c-5.4-0.1-10.8-0.3-16.2-0.4
	c-0.9,0-1.3,0.2-1.2,1.2C268.9,17.3,268.9,17.6,268.9,17.9z M443.5,359.8c1.7,1,1.7,1,2.7-0.4c0.2-0.3,0.5-0.7,0.7-1
	c1.7-2.1,2.6-2.4,5.1-1.2c8.4,4,16.7,8,25.1,12c0.4,0.2,0.7,0.3,1.1,0.6c1.4,0.8,1.8,1.6,1.4,3.2c-0.2,1-0.5,1.9-0.8,2.8
	c-0.4,1,0.3,1.1,0.9,1.5c0.7,0.4,0.9-0.1,1.1-0.6c2.6-4.9,5.1-9.9,7.7-14.8c0.3-0.5,0.5-0.9-0.2-1.2c-0.6-0.3-1.2-0.8-1.7,0.1
	c-0.4,0.6-0.9,1.2-1.4,1.7c-1.9,2.1-3,2.3-5.5,1.1c-7.6-3.7-15.3-7.3-22.9-11c-1.1-0.5-2.2-1-3.3-1.6c-1.3-0.7-1.8-1.7-1.4-3.2
	c0.3-0.9,0.6-1.9,1-2.8c0.4-0.9-0.2-1-0.8-1.4c-0.7-0.5-1-0.1-1.3,0.5C448.5,349.3,446,354.5,443.5,359.8z M76.1,172.7
	c-0.5,0.8-1,1.6-1.5,2.3c-1.6,2.3-2.5,2.5-5,1.4c-8-3.5-16.1-6.9-24.1-10.4c-0.9-0.4-1.7-0.7-2.5-1.1c-1.4-0.8-1.8-1.5-1.6-3.1
	c0.1-1,0.4-2.1,0.8-3c0.2-0.5,0-0.8-0.5-1.1c-1.1-0.5-1.1-0.6-1.6,0.6c-2,4.5-3.9,9.1-5.9,13.6c-0.3,0.7-0.6,1.5-0.9,2.2
	c0.3,0.2,0.5,0.3,0.7,0.4c0.7,0.4,1.3,0.4,1.8-0.5c0.5-1,1.3-1.9,2.2-2.7c0.8-0.7,1.6-1.1,2.7-0.6c0.4,0.2,0.9,0.3,1.3,0.5
	c4.3,1.8,8.5,3.7,12.8,5.5c4.4,1.9,8.8,3.8,13.3,5.7c2.1,0.9,2.6,1.9,1.9,4.1c-0.2,0.7-0.4,1.4-0.7,2.1c-0.2,0.5-0.1,0.9,0.4,1.1
	c1.3,0.5,1.2,0.6,1.7-0.7c1.9-4.4,3.8-8.8,5.7-13.3c0.3-0.8,0.8-1.5,0.9-2.5C77.4,173,76.8,172.8,76.1,172.7z M57.5,257.8
	c0.1,0,0.3,0,0.4,0c0-2.7,0-5.5,0-8.2c0-0.6,0-1.2-0.9-1.1c-0.7,0-1.3-0.1-1.3,0.9c0,0.7-0.2,1.4-0.4,2c-0.6,2.5-1.4,3.1-4,3.1
	c-5-0.1-10.1-0.2-15.1-0.4c-4.5-0.1-8.9-0.2-13.4-0.3c-2.3-0.1-2.9-0.7-3.3-3c-0.1-0.8-0.3-1.6-0.3-2.4c0-0.9-0.6-0.8-1.2-0.8
	c-0.6,0-1,0.1-1,0.9c0,1.3,0,2.7-0.1,4c-0.1,3.9-0.2,7.9-0.3,11.8c0,0.6-0.7,1.6,0.7,1.7c1.2,0.1,1.2,0.1,1.6-1.4
	c0.1-0.6,0.3-1.1,0.5-1.7c0.8-2.6,1.3-3,4-2.9c7.1,0.2,14.2,0.4,21.2,0.6c2.5,0.1,5,0.1,7.5,0.2c1.9,0.1,2.7,0.8,3,2.7
	c0.1,0.9,0.2,1.7,0.2,2.6c0,1,0.5,1,1.2,1c0.8,0,1-0.3,1-1C57.5,263.3,57.5,260.6,57.5,257.8z M308.8,472.6c0.3-0.5,0.6-0.8,0.8-1.2
	c1.1-2.3-0.5-5.1-3-5.3c-0.6-0.1-1.3,0-1.9,0.1c-1.9,0.3-3.8,0.7-5.6,1.1c-0.8,0.1-1,0.5-0.8,1.3c0.7,3.3,1.3,6.7,2,10.1
	c0.5,2.4,0.5,2.4,2.8,1.8c0.1,0,0.2-0.1,0.4-0.3c-0.3-1.3-0.5-2.7-0.8-4c-0.1-0.4-0.3-0.9,0.3-1c1.2-0.3,2.5-0.7,3.8-0.6
	c0.5,0.1,0.8,0.4,1,0.9c0.1,0.4,0.2,0.8,0.3,1.2c0.8,3,0.1,3,3.6,2.1c0.1,0,0.2-0.1,0.3-0.2c-0.7-0.7-0.9-1.6-1.1-2.5
	C310.6,474.6,310.3,473.2,308.8,472.6z M153.5,442.8c-0.1-3-1.6-4.8-4-5.9c-2.3-1.1-4.6-1-6.7,0.7c-1.5,1.3-2.6,2.9-3.1,4.9
	c-0.7,2.6,0.1,4.7,2.1,6.4c2.1,1.7,4.5,2.4,6.9,1.1C151.7,448.5,153.1,445.8,153.5,442.8z M223.5,471.8c0.1-3.5-1.9-5.9-5.4-6.6
	c-3.3-0.6-6,0.9-7.2,4.2c-0.5,1.3-0.7,2.6-0.7,3.9c0.1,3,1.9,5.3,4.9,6c3.2,0.8,5.9-0.4,7.4-3.2
	C223.2,474.8,223.5,473.3,223.5,471.8z M345.7,468.2c2.1-0.9,4-1.7,6-2.6c1.6-0.8,2.5-2.1,2.6-3.8c0.3-2.9-0.6-5.5-2.7-7.6
	c-1.4-1.5-3.2-1.8-5.1-1.2c-1.9,0.6-3.6,1.5-5.4,2.3c-0.7,0.3-0.7,0.6-0.4,1.2c0.6,1.4,1.2,2.9,1.9,4.3
	C343.5,463.2,344.6,465.6,345.7,468.2z M173.6,487.4c2.4,0.1,3.9-0.7,5.1-2.2c1-1.2,1.6-2.7,2-4.2c0.8-3.3-0.7-6.2-3.8-7.5
	c-3.2-1.3-6.3-0.3-8.1,2.6c-0.5,0.8-0.8,1.6-1.1,2.5C166.2,483.3,169.1,487.3,173.6,487.4z M254.8,470.4c-0.1,4.1-0.2,8.2-0.2,12.3
	c0,1.2,0,1.2,1.3,1.2c0.2,0,0.5,0,0.7,0c0.7,0.1,0.9-0.2,0.9-0.9c0-1.4,0.1-2.8,0.1-4.2c0-0.7,0.2-1,1-1c1.1,0.1,2.2,0.1,3.3,0
	c0.7,0,1,0.2,1,1c-0.1,1.3-0.1,2.7-0.1,4c0,0.3-0.1,0.7,0.2,1c0.2,0.2,2.1,0.3,2.4,0.2c0.5-0.3,0.4-0.8,0.4-1.2
	c0.1-3.7,0.1-7.4,0.1-11.1c0-1.2,0-1.2-1.2-1.3c-1.6-0.1-1.6-0.1-1.7,1.5c0,0.3,0,0.7,0,1c0,2.6,0,2.6-2.6,2.5
	c-0.9,0-1.9,0.4-2.5-0.2c-0.6-0.6-0.2-1.7-0.2-2.5C257.6,470.1,257.6,470.1,254.8,470.4z M257.7,490.5c-0.7,0-1.4,0-2,0
	c-0.6,0-0.8,0.2-0.8,0.8c0,4-0.1,8-0.1,12c0,0.7,0.3,0.9,0.9,0.9c0.3,0,0.6,0,0.9,0c0.8,0.1,1.2-0.2,1.1-1.1c-0.1-1.4,0-2.8,0-4.2
	c0-0.6,0.2-0.8,0.8-0.8c1.2,0,2.4,0,3.7,0c0.6,0,0.8,0.3,0.8,0.8c0,1.4-0.1,2.8-0.1,4.2c0,1.1,0,1.2,1.5,1.2c1.3,0,1.3,0,1.4-1.2
	c0.1-3,0.1-6,0.2-9c0-0.8,0-1.6,0-2.4c0.1-0.9-0.3-1.2-1.1-1.1c-0.2,0-0.5,0-0.7,0c-0.9-0.2-1.1,0.2-1.1,1.1c0,1.1-0.1,2.2-0.1,3.3
	c0,0.6-0.2,0.8-0.8,0.8c-1.2,0-2.3-0.1-3.5,0c-0.7,0-1-0.2-1-1C257.7,493.4,257.7,492.1,257.7,490.5z M314.9,478
	c3.2-0.8,6.1-1.7,9.1-2.4c1.1-0.3,0.8-0.8,0.6-1.5c-0.3-1.1-0.3-1.1-1.4-0.9c-1.3,0.3-2.6,0.7-3.9,1c-2.5,0.7-2.5,0.7-3.1-1.9
	c-0.1-0.7,0-0.9,0.7-1.1c1.4-0.3,2.7-0.7,4-1c1.6-0.4,1.6-0.4,1.1-2c-0.2-0.7-0.4-0.8-1.1-0.6c-1.5,0.4-3,0.8-4.5,1.2
	c-0.3,0.1-0.7,0.3-1,0c-0.5-0.6-0.6-1.4-0.6-2.1c0-0.5,0.7-0.5,1.1-0.6c1.9-0.5,3.8-1,5.7-1.5c-0.1-0.6-0.2-1-0.3-1.5
	c-0.1-0.8-0.5-0.9-1.2-0.7c-1.5,0.5-3,0.8-4.5,1.2c-1.4,0.4-2.8,0.7-4.2,1.1C312.6,469.2,313.7,473.5,314.9,478z M343.7,478.6
	c-0.1-0.4-0.2-0.8-0.3-1.1c-0.4-1.2-0.4-1.2-1.7-0.8c-2.5,0.8-4.9,1.7-7.4,2.6c-0.6,0.2-0.8,0.5-0.6,1.1c1.3,3.8,2.6,7.6,3.9,11.3
	c0.2,0.7,0.6,0.7,1.2,0.5c2.7-0.9,5.4-1.9,8-2.8c0.9-0.3,0.8-0.7,0.5-1.4c-0.3-0.7-0.4-1.4-1.4-0.9c-1.3,0.5-2.7,1-4.1,1.5
	c-2.1,0.7-2.1,0.7-2.8-1.4c-0.4-1.2-0.4-1.2,0.7-1.6c1.7-0.6,3.4-1.1,5.1-1.9c-0.1-0.3-0.2-0.6-0.3-0.9c-0.5-1.4-0.5-1.4-1.8-0.9
	c-1.4,0.5-2.7,1-4.1,1.4c-0.3,0.1-0.6,0.3-0.8,0.1c-0.5-0.6-0.7-1.3-0.8-2.1c-0.1-0.6,0.6-0.6,1-0.8
	C339.9,479.9,341.8,479.3,343.7,478.6z M355.9,475.3c-0.5-1.3-1.6-2.1-2.9-2.5c-2.1-0.5-5.4,0.8-6.6,2.7c-0.8,1.4-0.8,2.8-0.1,4.1
	c0.7,1.3,1.8,1.9,3.3,1.8c0.8-0.1,1.5-0.1,2.2-0.2c0.9-0.1,1.8-0.3,2.8-0.3c1.3,0,1.9,1.1,1.3,2.1c-0.8,1.5-3.6,2.1-4.9,0.9
	c-0.5-0.4-0.8-0.5-1.4-0.2c-0.5,0.3-1.1,0.3-1.6,0.8c0.5,1.3,1.4,2.1,2.7,2.4c2.3,0.6,5.9-0.7,7.3-2.7c1-1.4,0.9-2.9,0.2-4.4
	c-0.8-1.5-2.1-1.9-3.7-1.7c-0.9,0.1-1.7,0.2-2.6,0.3c-0.7,0.1-1.4,0.2-2.1,0.3c-0.6,0.1-1.1-0.2-1.4-0.8c-0.3-0.6,0-1.1,0.4-1.6
	c1-1.1,2.9-1.4,4-0.5c0.5,0.4,0.9,0.4,1.4,0.2C354.8,475.8,355.4,475.7,355.9,475.3z M204.9,462.4c-2.8-0.9-5.6-1.7-8.4-2.7
	c-0.9-0.3-1.2-0.1-1.5,0.8c-1.1,3.7-2.2,7.3-3.4,11c-0.2,0.8-0.2,1.1,0.7,1.4c2.7,0.8,5.3,1.6,8,2.5c1,0.4,1.1-0.2,1.4-0.9
	c0.3-0.8,0.4-1.2-0.7-1.5c-1.7-0.4-3.4-1-5.1-1.6c-0.4-0.1-1-0.1-0.9-0.6c0.2-0.9,0.5-1.8,0.8-2.6c0.1-0.3,0.4-0.2,0.6-0.2
	c0.6,0.2,1.1,0.4,1.7,0.5c1.4,0.4,2.7,1,4.1,1.2c0.2-0.5,0.3-0.9,0.4-1.2c0.4-0.8,0.1-1.1-0.7-1.3c-1.1-0.3-2.1-0.6-3.2-1
	c-2.3-0.7-2.3-0.7-1.4-3c0-0.1,0.2-0.2,0.3-0.3c1.5,0.5,3.1,0.9,4.6,1.4C204.4,464.8,204.4,464.8,204.9,462.4z M334.2,462.1
	c-0.6-1.7-1.6-2.6-3.2-2.8c-2.5-0.4-4.6,0.4-6.3,2.2c-1.1,1.2-1.1,2.8-0.4,4.2c0.6,1.5,1.8,2.1,3.3,2.1c0.9,0,1.8-0.1,2.8-0.2
	c0.8,0,1.5-0.2,2.3-0.1c1.2,0.1,1.6,1.3,0.9,2.2c-1,1.4-3.7,1.8-4.9,0.6c-0.5-0.5-0.9-0.6-1.4-0.3c-0.5,0.2-1.2,0.2-1.6,0.8
	c0.6,1.6,1.7,2.6,3.4,2.8c2.5,0.3,4.7-0.5,6.5-2.3c1.2-1.3,1.2-2.8,0.7-4.4c-0.6-1.6-1.9-2.1-3.4-2.2c-0.6,0-1.3,0.1-1.9,0.1
	c-1,0.1-2,0.1-3,0.2c-0.6,0-1-0.2-1.3-0.7c-0.3-0.6-0.1-1.1,0.3-1.6c1-1.1,3.1-1.3,4.2-0.3c0.5,0.5,0.8,0.5,1.4,0.3
	C333,462.5,333.5,462.4,334.2,462.1z M233.7,494c-1.9-0.3-3.7-0.5-5.4-0.8c-0.4-0.1-0.9,0-0.9-0.6c0-0.7,0-1.5,0.4-2
	c0.4-0.6,1.1-0.1,1.6-0.1c0.3,0,0.6,0.1,0.9,0.1c1.2,0.2,2.4,0.3,3.6,0.5c0.8,0.1,1.2-0.2,1.2-1c0-0.7,0.3-1.4-0.8-1.5
	c-2.7-0.3-5.3-0.7-7.9-1.1c-0.9-0.1-1.1,0.1-1.2,0.9c-0.5,3.9-1,7.7-1.6,11.5c-0.1,0.7,0.1,1,0.7,1.1c2.9,0.4,5.7,0.8,8.6,1.2
	c1.3,0.2,0.8-0.9,1.1-1.5c0.3-0.7-0.2-0.9-0.8-1c-1.4-0.2-2.9-0.4-4.3-0.6c-2.4-0.3-2.4-0.5-1.9-2.8c0.1-0.6,0.3-0.9,1.1-0.8
	c1.2,0.2,2.4,0.3,3.6,0.5C234,496.7,233.5,496.5,233.7,494z M278.1,469.9c-3,0.1-6.1,0.3-9.2,0.4c-0.6,0-0.7,0.4-0.7,0.9
	c0.2,3.9,0.4,7.9,0.6,11.8c0,0.8,0.3,1,1,0.9c2.8-0.2,5.7-0.3,8.5-0.4c1,0,0.9-0.6,0.9-1.3c0-0.6,0.1-1.3-1-1.2
	c-1.4,0.1-2.8,0.2-4.2,0.2c-3,0.1-2.4,0.6-2.6-2.5c0-0.7,0.2-0.9,0.9-0.9c1.4,0,2.9-0.2,4.3-0.2c1.4-0.1,1.4-0.1,1.3-1.1
	c-0.1-1.4-0.1-1.4-1.5-1.3c-1.3,0.1-2.7,0.1-4,0.3c-0.9,0.1-1.4-0.1-1.2-1.1c0-0.3,0-0.6,0-0.9c-0.1-0.6,0.2-0.8,0.8-0.9
	c1.4-0.1,2.9-0.2,4.3-0.2C278.6,472.3,278.6,472.3,278.1,469.9z M222.4,487.7c0.2-0.5-0.2-0.7-0.7-0.8c-0.3,0-0.6-0.1-0.8-0.2
	c-0.8-0.2-1.3-0.1-1.4,0.9c-0.1,0.7-0.3,1.4-0.4,2c-0.4,1.9-0.4,1.9-2.2,1.5c-1-0.2-2.4,0-2.9-0.8c-0.6-0.9,0.2-2.1,0.3-3.2
	c0.3-1.8,0.3-1.8-1.5-2.2c-0.7-0.2-1.1-0.1-1.2,0.7c-0.2,1.3-0.5,2.5-0.8,3.7c-0.5,2.5-1,5-1.5,7.5c-0.2,1.3-0.2,1.3,1.1,1.5
	c0.2,0,0.3,0.1,0.5,0.1c0.7,0.3,1,0.1,1.2-0.7c0.2-1.4,0.6-2.8,0.9-4.3c0.1-0.5,0.3-0.9,0.9-0.7c1.2,0.3,2.4,0.5,3.6,0.7
	c0.6,0.1,0.8,0.4,0.6,1.1c-0.3,1.3-0.6,2.7-0.8,4.1c-0.1,0.3-0.3,0.7,0.1,0.9c0.7,0.4,1.5,0.5,2.2,0.4c0.7,0,0.4-0.8,0.6-1.3
	c0.2-0.6,0.3-1.2,0.4-1.9C221.1,494.1,221.8,490.9,222.4,487.7z M361.6,445.6c-2.8,1.4-5.6,2.8-8.3,4.2c-0.6,0.3-0.4,0.7-0.1,1.1
	c1.3,2.5,2.5,5,3.8,7.5c0.7,1.3,1.3,2.6,2,3.9c3.2-1.6,6.2-3.1,9.2-4.7c-0.2-0.4-0.2-0.6-0.3-0.8c-0.9-1.7-0.7-1.5-2.1-0.7
	c-1.8,0.9-3.5,1.8-5.4,2.7c-0.5-1.1-1-2-1.5-3.1c2-1,3.9-2,5.8-3c-0.2-0.4-0.3-0.6-0.4-0.8c-0.7-1.4-0.7-1.4-2-0.7
	c-1.1,0.6-2.3,1.2-3.4,1.7c-1.2,0.6-1.2,0.6-1.8-0.5c-0.1-0.2-0.2-0.4-0.3-0.6c-0.3-0.5-0.2-0.8,0.4-1.1c1.3-0.6,2.6-1.3,3.9-2
	C362.9,447.7,362.9,447.7,361.6,445.6z M192,462.7c0.3-1.5,0.1-2.7-0.6-3.9c-1.6-2.6-6.7-4.7-10-0.9c-1.2,1.3-1.9,2.9-2.2,4.7
	c-0.7,4,1.3,6.8,5.3,7.5c2.4,0.4,4.5-0.7,5.6-3c-0.2-0.3-0.5-0.3-0.7-0.4c-1-0.5-1.7-0.6-2.7,0.3c-1.5,1.4-4.3,0.2-4.6-1.8
	c-0.4-2.4,0.4-4.5,2.3-6.1c1.8-1.5,4.5-0.5,4.8,1.8c0.1,1,0.6,1.3,1.3,1.5C191,462.5,191.4,462.8,192,462.7z M290.9,488.8
	c0.6,4.3,1.2,8.4,1.8,12.5c0.2,1.1,0.2,1.1,1.4,0.9c0.3,0,0.6-0.1,0.9-0.2c0.7,0,0.8-0.4,0.7-1c-0.2-1-0.3-2.1-0.5-3.1
	c-0.1-0.6,0-0.9,0.6-0.9c1.1-0.2,2.3-0.3,3.4-0.6c2.1-0.6,3.2-2.7,2.7-5c-0.4-2.3-2-3.7-4.2-3.5
	C295.4,488.1,293.2,488.5,290.9,488.8z M309.7,485.8c-1.7,0.2-3.7,0.7-5.7,1.1c-1.2,0.3-1.2,0.3-1,1.5c0.7,3.5,1.4,7.1,2.1,10.6
	c0.3,1.6,0.3,1.6,2,1.3c1.2-0.2,1.2-0.3,1-1.5c-0.1-0.6-0.3-1.3-0.4-1.9c-0.3-1.7-0.3-1.7,1.4-2.1c0.8-0.2,1.6-0.3,2.4-0.5
	c1.9-0.7,2.9-2.7,2.5-4.8C313.6,487.1,312.2,485.8,309.7,485.8z M247.5,498.8c0.6,0,1.2,0,1.7,0c2.2-0.2,3.8-2,3.8-4.4
	c0-2.4-1.4-4-3.7-4.3c-1.8-0.2-3.7-0.2-5.5-0.4c-0.8-0.1-1.1,0.2-1.1,1c-0.2,3.6-0.4,7.3-0.7,10.9c0,0.3,0,0.7,0,1
	c0,0.4,0.2,0.6,0.6,0.7c2,0.3,2.2,0.2,2.3-1.7c0-0.2,0-0.5,0.1-0.7C245.2,498.7,245.2,498.7,247.5,498.8z M297.1,472.7
	c0-2.9-1.8-4.7-4.5-4.5c-1.8,0.2-3.7,0.5-5.5,0.7c-0.6,0.1-1,0.3-0.8,1c0.1,0.5,0.1,0.9,0.2,1.4c0.4,3.2,0.9,6.4,1.3,9.6
	c0.2,1.7,0.2,1.7,1.9,1.5c0.1,0,0.2,0,0.3,0c0.7,0,0.9-0.3,0.8-1c-0.2-0.9-0.3-1.8-0.4-2.8c-0.2-1.3-0.2-1.3,1.2-1.4
	c0.7-0.1,1.4-0.2,2.1-0.3C295.8,476.5,297.1,475,297.1,472.7z M193.6,480.1c-2.7-0.9-5.4-1.8-8-2.7c-1.1-0.4-1.1-0.4-1.5,0.9
	c-1.1,3.1-2.1,6.3-3.2,9.4c-0.8,2.5-0.8,2.5,2,3.2c0.5-1.5,1.1-2.9,1.5-4.4c0.2-0.8,0.6-0.9,1.3-0.6c0.9,0.3,1.8,0.6,2.6,0.9
	c2.2,0.7,2.2,0.7,2.8-1.6c-1.8-0.6-3.7-1.3-5.5-2c0.1-0.3,0.1-0.4,0.2-0.6c0.7-2.2,0.7-2.2,3-1.5c1.4,0.4,2.8,1.1,4.3,1.3
	C193.2,481.6,193.6,481,193.6,480.1z M228.5,475.6c1.6,0.2,3.2,0.5,4.8,0.7c0.3,0,0.7,0.2,0.8-0.1c0.3-0.6,0.4-1.2,0.4-1.8
	c-0.1-0.6-0.7-0.5-1.1-0.6c-1.3-0.2-2.6-0.4-4-0.6c-0.5-0.1-0.9-0.3-0.7-0.9c0.1-0.3,0.1-0.6,0.2-0.9c0.2-1.3,0.2-1.3,1.5-1.1
	c1.5,0.2,3,0.4,4.5,0.7c0.9,0.2,1.2-0.2,1.2-1c0-0.2,0-0.3,0.1-0.5c0.2-0.6-0.1-0.9-0.6-1c-2.6-0.4-5.3-0.8-7.9-1.2
	c-0.7-0.1-1,0.1-1.1,0.8c-0.5,3.7-1.1,7.4-1.7,11.2c-0.2,1.5-0.2,1.5,1.3,1.7c1.3,0.1,1.3,0.1,1.5-1.2
	C228,478.5,227.9,477,228.5,475.6z M164.8,448.9c0.2-0.4,0.4-0.6,0.5-0.9c0.8-1.5,0.7-1.2-0.5-1.9c-2.1-1.2-4.1-2.3-6.2-3.4
	c-1.1-0.6-1.1-0.6-1.7,0.4c-1.8,3.2-3.6,6.5-5.4,9.7c-0.2,0.4-0.6,0.7-0.5,1.3c0.5,0.3,1.1,0.6,1.6,1c0.5,0.3,0.8,0.2,1.1-0.3
	c0.5-1,1.1-2,1.7-3c0.7-1.3,0.7-1.3,1.9-0.6c1.1,0.6,2.2,1.1,3.2,1.8c0.7,0.4,1.1,0.3,1.3-0.4c0.1-0.2,0.2-0.4,0.3-0.6
	c0.4-0.5,0.2-0.8-0.3-1.1c-0.8-0.4-1.5-0.8-2.3-1.2c-2.4-1.3-2.4-1.3-0.7-3.8C160.8,446.8,162.8,447.8,164.8,448.9z M176.2,451.8
	c-2.6-1.2-5.1-2.5-7.6-3.7c-1.1-0.5-1.1-0.5-1.6,0.6c-1.5,3.1-3,6.1-4.5,9.2c-1,2-1,2,1,2.9c0.2,0.1,0.4,0.3,0.7,0.1
	c0.9-1.5,1.4-3.3,2.6-4.8c1.5,0.7,3,1.4,4.4,2.1c0.3,0.1,0.7,0.4,0.9,0.1c0.4-0.5,0.8-1.1,0.8-1.7c0-0.5-0.6-0.6-1-0.8
	c-0.6-0.3-1.2-0.5-1.7-0.9c-0.8-0.4-1.7-0.6-2.4-1.3c0.4-0.9,0.7-1.8,1.3-2.5c1.5,0.7,2.9,1.4,4.3,2c1.8,0.9,1.6,1.3,2.6-1
	C176.1,452.1,176.1,452.1,176.2,451.8z M381.7,436.3c1-1,2.3-1.5,3.3-2.5c-0.4-0.7-0.7-1.4-1.4-1.9c-3,2-6,4.1-9.1,6.1
	c0.3,0.5,0.6,0.9,0.8,1.3c0.4,0.7,0.8,0.7,1.4,0.2c0.8-0.6,1.7-1.1,2.6-1.7c0.4,0.6,0.8,1.2,1.2,1.7c1.5,2.2,3,4.4,4.4,6.7
	c0.5,0.8,0.9,0.8,1.6,0.3c1.7-1.3,1.5-0.9,0.5-2.5C385.2,441.4,383.5,438.9,381.7,436.3z M253.1,472.5c0.1-0.5,0.1-0.9,0.2-1.2
	c0.2-0.8-0.1-1.2-1-1.2c-3.1-0.2-6.1-0.4-9.2-0.6c-0.6,0-0.8,0.1-0.9,0.7c-0.3,1.5-0.2,1.7,1.4,1.8c0.2,0,0.3,0,0.5,0
	c2.2,0.1,2.2-0.3,2,2.2c-0.2,2.7-0.4,5.3-0.6,8c-0.1,0.9,0.2,1.3,1.1,1.2c0.2,0,0.4,0,0.5,0c0.8,0.1,1.2-0.1,1.3-1.1
	c0.1-3,0.4-5.9,0.6-8.9c0.1-1.2,0.1-1.2,1.3-1.2C251.2,472.4,252.1,472.7,253.1,472.5z M205.7,486.1c1.2,0.3,2.1,0.5,3.1,0.8
	c0.3,0.1,0.6,0.3,0.8,0c0.4-0.6,0.6-1.3,0.6-2c0-0.5-0.6-0.4-1-0.5c-2.8-0.8-5.6-1.5-8.4-2.2c-1.3-0.3-1.4-0.2-1.7,1.2
	c-0.1,0.6-0.1,1,0.6,1.1c0.6,0.1,1.2,0.3,1.9,0.4c1.3,0.3,1.3,0.3,1,1.6c-0.7,2.6-1.3,5.2-2,7.7c-0.5,2-0.4,2.1,1.5,2.4
	c0.6,0.1,0.9,0,1-0.6c0.2-0.7,0.3-1.3,0.5-2C204.3,491.5,205,488.9,205.7,486.1z M277.1,503.7c2.1-0.1,4.1-0.3,6.1-0.4
	c1.5-0.1,1.5-0.1,1.4-1.6c0-0.9-0.4-1-1.2-0.9c-1.6,0.2-3.1,0.2-4.7,0.3c-0.7,0.1-1-0.2-1-0.8c-0.1-0.9-0.1-1.9-0.2-2.8
	c-0.1-2.1-0.3-4.3-0.4-6.4c0-0.7-0.3-1.1-1.1-1c-0.3,0-0.6,0.1-0.9,0c-0.8-0.1-1.1,0.3-1,1.1c0.3,3.5,0.4,7,0.7,10.4
	C275.1,504.3,274.7,503.7,277.1,503.7z M271.9,497.3c-0.1,0-0.2,0-0.3,0c0-1.9,0-3.8,0-5.7c0-1.2,0-1.2-1.3-1.2c-0.2,0-0.4,0-0.5,0
	c-1-0.1-1.2,0.4-1.1,1.2c0.1,2.4,0.1,4.9,0.2,7.3c0,1.4,0.1,2.9,0.2,4.3c0,0.7,0.3,0.9,0.9,0.9c0.2,0,0.3,0,0.5,0
	c1.4,0,1.4,0,1.4-1.4C271.9,500.9,271.9,499.1,271.9,497.3z M177.7,452.6c-0.2,0.5-0.5,1-0.7,1.5c-1.4,3.1-2.7,6.3-4.1,9.4
	c-0.7,1.7-0.7,1.7,1,2.4c0.1,0,0.1,0,0.2,0.1c0.6,0.4,0.9,0.1,1.2-0.5c1.7-3.9,3.4-7.7,5.1-11.6
	C179.4,453.2,178.6,452.9,177.7,452.6z M340.1,470.2c0.7-0.3,1.2-0.5,1.8-0.6c0.9-0.2,0.9-0.7,0.6-1.4c-1.4-3.6-2.7-7.1-4-10.7
	c-0.3-0.8-0.7-1.1-1.5-0.7c-0.3,0.1-0.5,0.2-0.8,0.3c-0.6,0.2-0.8,0.5-0.6,1.1C337.1,462.2,338.5,466.1,340.1,470.2z M285.5,490.6
	c0.4,3.5,0.7,7,1.1,10.5c0.2,1.9,0.2,1.9,2.1,1.6c0.1,0,0.1,0,0.2,0c0.7,0,0.9-0.3,0.8-1c-0.4-4-0.9-7.9-1.3-11.9
	c0-0.2,0-0.5-0.2-0.6c-0.7-0.3-1.5-0.1-2.2,0.1C285.2,489.5,285.6,490.2,285.5,490.6z M314.9,484.8c-0.1,0.4,0.1,0.8,0.2,1.2
	c0.8,3.6,1.7,7.1,2.5,10.7c0.3,1.3,0.3,1.3,1.8,1c0.1,0,0.1,0,0.2,0c1.2-0.3,1.2-0.3,0.9-1.4c-0.8-3.3-1.5-6.5-2.3-9.8
	c-0.6-2.6-0.6-2.6-3.2-1.6C315,484.6,315,484.7,314.9,484.8z"/>
<path class="st2" d="M457.5,262.5c0.2,107.6-87.4,195.3-195.7,194.9c-106.6-0.4-194.7-87-194.1-196
	c0.6-107.5,87.9-194.3,195.8-193.8C371.6,68.1,457.7,156,457.5,262.5z M72.4,262.5C72.3,365.9,156,451.9,261.2,452.7
	c105.4,0.8,191-84.3,191.6-189.1c0.6-106.4-85.7-190.9-189.5-191.3C158.2,71.9,72.2,157.2,72.4,262.5z"/>
<path class="st0" d="M26.8,315.4c3.2-0.5,6.4-0.9,9.5-1.4c5.2-0.8,10.3-1.6,15.5-2.4c1.4-0.2,2.8-0.5,4.2-1.1c1.7-0.7,2.8-1.8,3-3.7
	c0.1-0.9,0.3-1.7,0.3-2.6c0-0.9,0.6-0.9,1.2-1.1c0.9-0.2,1,0.4,1.1,1c0.7,4.7,1.4,9.4,2.1,14.1c0.1,0.5,0.3,1.2-0.6,1.3
	c-0.7,0.1-1.4,0.3-1.6-0.8c-0.1-0.6-0.3-1.1-0.6-1.6c-0.9-2.3-2.1-3.1-4.5-3.1c-2.4,0-4.7,0.5-7.1,0.8c-5.9,0.9-11.8,1.8-17.7,2.7
	c-0.3,0-0.6,0.1-0.9,0.1c-4,0.8-5.3,2.2-5.4,6.2c0,0.9-0.3,1.2-1.2,1.3c-0.6,0-0.9-0.1-1-0.8c-0.4-2.8-0.9-5.6-1.3-8.4
	c-0.2-1.1-0.2-2.2-0.5-3.3c-0.3-1,0.1-1.4,0.9-1.9c6.6-3.7,13.1-7.4,19.7-11.1c2.2-1.2,4.3-2.5,6.5-3.7c0.3-0.2,0.7-0.2,0.8-0.8
	c-2.9-0.7-5.7-1.3-8.6-1.9c-6.2-1.4-12.3-2.8-18.5-4.1c-1.2-0.3-2.4-0.4-3.6-0.5c-0.6-0.1-0.9-0.2-1-0.9c-0.5-3.7-1.1-7.5-1.7-11.2
	c-0.1-0.6-0.3-1.2,0.7-1.3c0.7-0.1,1.4-0.2,1.5,0.9c0.1,0.6,0.4,1.2,0.6,1.8c0.7,1.9,1.6,2.4,3.6,2.1c2.2-0.3,4.5-0.7,6.7-1
	c7.4-1.1,14.8-2.3,22.2-3.4c0.4-0.1,0.8-0.2,1.2-0.2c1.7-0.3,2.5-1.4,2.7-3c0.1-0.6,0.1-1.3,0.2-1.9c0.1-0.9,0.9-1.5,1.8-1.2
	c0.4,0.2,0.4,0.6,0.4,0.9c0.2,1.8,0.3,3.6,0.5,5.4c0.3,3.5,0.5,6.9,0.9,10.4c0.1,1-0.4,1.2-1.1,1.3c-0.7,0.1-0.9-0.1-1.1-0.8
	c-0.2-0.9-0.4-1.8-0.7-2.7c-0.6-1.7-1.9-2.5-3.7-2.2c-8.6,1.3-17.1,2.6-25.6,3.9c-1.2,0.2-2.4,0.4-3.6,0.5c0.2,0.6,0.6,0.5,1,0.6
	c11.3,2.7,22.6,5.3,33.9,8c0.1,0,0.1,0,0.2,0c0.6,0.2,1.4,0.1,1.5,1.1c0.1,0.9-0.6,1-1.1,1.3c-3.1,1.8-6.3,3.5-9.4,5.2
	c-6.9,3.9-13.9,7.7-20.8,11.6C27.8,314.5,27.1,314.6,26.8,315.4z"/>
<path class="st0" d="M64.7,321.7c2.4,5.5,4.8,11,7.1,16.4c-0.2,0.2-0.3,0.3-0.5,0.3c-1.3,0.6-1.3,0.6-2.1-0.7
	c-0.3-0.5-0.6-1-0.9-1.5c-1.2-1.9-2.5-2.3-4.6-1.5c-3.3,1.4-6.6,2.9-9.9,4.3c-5.2,2.2-10.3,4.5-15.5,6.7c-0.5,0.2-0.9,0.4-1.5,0.7
	c0.5,0.6,1,0.3,1.4,0.3c11.1-0.3,22.3-0.6,33.4-0.9c0.6,0,1.2,0,1.7-0.1c0.6-0.1,1,0.2,1.2,0.7c0.2,0.5,0,0.9-0.3,1.2
	c-0.6,0.6-1.2,1.1-1.8,1.7c-7.9,7.6-15.8,15.2-23.7,22.8c-0.4,0.4-0.9,0.7-1.1,1.3c0.6,0.2,1-0.2,1.5-0.4c6.9-3,13.8-6,20.8-9
	c1.5-0.7,3.1-1.4,4.5-2.3c2-1.3,2.8-3,2.3-5.3c-0.1-0.6-0.2-1.1-0.3-1.7c-0.1-0.9,0.5-1.6,1.4-1.6c0.6,0,0.6,0.5,0.7,0.8
	c1.1,2.5,2.2,5,3.3,7.5c0.8,1.9,1.6,3.8,2.5,5.7c0.2,0.5,0.5,1-0.3,1.2c-0.6,0.2-1.2,0.7-1.7-0.3c-0.4-0.7-0.9-1.4-1.4-2
	c-1.1-1.4-2.6-1.9-4.3-1.4c-1.6,0.4-3.2,1-4.7,1.7c-6.4,2.8-12.8,5.5-19.2,8.3c-0.4,0.2-0.8,0.4-1.3,0.6c-2.7,1.4-3.6,3.4-2.9,6.4
	c0.4,1.7,0.4,1.7-1.4,2.4c-0.6-0.7-0.8-1.6-1.2-2.5c-1.3-3-2.6-6-3.9-8.9c-0.6-1.3-0.6-1.3,0.5-2.4c5.2-5.1,10.4-10.1,15.6-15.2
	c2.1-2.1,4.2-4.3,6.3-6.6c-0.4,0-0.8,0-1.2,0c-8.7,0.3-17.4,0.7-26.1,1c-1.3,0-2.7,0.2-4,0.5c-0.6,0.1-0.9,0-1.1-0.5
	c-1.6-3.8-3.3-7.7-5-11.5c0.2-0.2,0.4-0.3,0.5-0.3c1.3-0.6,1.3-0.6,2,0.6c2.2,3.4,2.6,3.5,6.3,1.9c8.2-3.6,16.5-7.2,24.7-10.7
	c0.4-0.2,0.8-0.3,1.1-0.5c1.2-0.6,1.8-1.6,1.7-3c-0.1-0.8-0.2-1.6-0.5-2.4c-0.3-0.9-0.1-1.4,0.9-1.6
	C64.2,321.9,64.4,321.8,64.7,321.7z"/>
<path class="st0" d="M248.3,58.1c0-0.4,0-0.6-0.1-0.9c-0.2-0.9,0.3-1.4,1.2-1.5c0.6-0.1,1.1-0.2,1.7-0.3c1.7-0.5,2.3-1.3,2.2-3.1
	c-0.4-4.5-0.8-9-1.2-13.5c-0.1-0.8-0.5-0.8-1.1-0.7c-2.1,0.2-4.2,0.3-6.2,0.5c-3.6,0.3-7.2,0.7-10.8,1c-0.8,0.1-1.1,0.2-1,1.1
	c0.4,4.3,0.8,8.6,1.2,12.8c0.2,2.3,0.9,2.9,3.3,3.3c0.5,0.1,0.9,0.2,1.4,0.1c0.8-0.1,1.1,0.3,1.1,1.1c0,0.7-0.1,1-0.9,1.2
	c-2.3,0.3-4.6,0.8-6.9,1.1c-2.6,0.4-5.2,0.8-7.7,1.2c-0.9,0.2-1.1-0.3-1.2-1c-0.1-0.7-0.2-1.2,0.7-1.4c0.8-0.2,1.7-0.5,2.5-0.8
	c1.1-0.4,1.6-1.2,1.6-2.4c0-0.5,0-1-0.1-1.6c-0.5-5.9-1.1-11.8-1.6-17.7c-0.3-3.2-0.6-6.4-0.8-9.5c0-0.3,0-0.7-0.1-1
	c-0.2-2.7-1-3.6-3.7-4c-0.4-0.1-0.8-0.2-1.2-0.2c-0.8,0-1.1-0.4-1.1-1.2c-0.1-0.7,0.1-1,0.9-1.1c5-0.5,9.9-1.1,14.9-1.7
	c0.3,0,0.7-0.1,1.1,0.1c0.1,0.3,0.1,0.6,0.2,1c0.2,0.6,0,1-0.7,1.1c-0.7,0.1-1.3,0.4-2,0.6c-1.8,0.6-2.4,1.3-2.2,3.2
	c0.2,3.1,0.5,6.2,0.8,9.4c0.1,0.9,0.2,1.9,0.2,2.8c0,0.7,0.3,1,1.1,0.9c3.8-0.4,7.6-0.7,11.5-1c1.9-0.2,3.7-0.4,5.5-0.5
	c1,0,1.1-0.4,1.1-1.3c-0.4-3.8-0.7-7.6-1.1-11.4c-0.2-2-0.9-2.7-2.8-3.2c-0.8-0.2-1.6-0.3-2.4-0.4c-0.9-0.1-0.6-0.9-0.7-1.3
	c-0.1-0.6,0.2-0.8,0.8-0.8c5-0.3,10.1-0.5,15.1-0.8c0.7,0,1.1,0.2,1.1,0.9c0.1,0.8-0.1,1.2-0.9,1.3c-0.6,0.1-1.2,0.3-1.8,0.5
	c-1.8,0.6-2.3,1.3-2.2,3.2c0.1,1.1,0.1,2.2,0.2,3.3c0.5,6.2,1.1,12.4,1.7,18.6c0.2,2.5,0.4,5.1,0.7,7.6c0.2,1.9,0.9,2.6,2.8,3
	c0.6,0.1,1.3,0.2,1.9,0.2c0.7,0,1,0.2,1,1c0,1.2,0,1.3-1.4,1.4c-3.1,0.2-6.3,0.3-9.4,0.4C252.4,57.9,250.4,58,248.3,58.1z"/>
<path class="st0" d="M353,34.3c-0.1,0.3-0.2,0.6-0.3,0.8c-0.2,0.7-0.6,1-1.4,0.7c-0.8-0.3-1.6-0.3-2.4-0.5c-1.3-0.2-2.1,0.4-2.7,1.4
	c-0.2,0.4-0.4,0.8-0.6,1.3c-1.4,3.3-2.7,6.5-4.1,9.8c-0.5,1.1-0.5,1.1,0.7,1.6c5.1,2.2,10.3,4.3,15.4,6.4c1.1,0.5,1.1,0.4,1.6-0.7
	c1.4-3.3,2.8-6.6,4.1-10c0.8-2,0.6-2.8-0.9-4.2c-0.5-0.5-1.1-0.9-1.7-1.3c-0.7-0.4-0.8-0.8-0.4-1.5c0.3-0.7,0.6-0.9,1.3-0.6
	c4.7,2,9.5,4,14.3,6c0.2,0.1,0.3,0.2,0.4,0.3c0,0.2-0.1,0.3-0.1,0.5c-0.5,1.3-0.5,1.3-1.8,1c-0.5-0.1-0.9-0.2-1.4-0.3
	c-2.2-0.3-2.9,0-3.8,2.1c-1.5,3.5-2.9,7-4.3,10.4c-2.2,5.2-4.4,10.5-6.6,15.7c-1.2,2.9-1,3.8,1.5,5.7c0.2,0.1,0.4,0.3,0.6,0.4
	c0.7,0.5,0.7,1.5,0,2.1c-0.4,0.3-0.8,0-1.1-0.1c-3-1.3-6-2.7-9.1-4c-1.7-0.8-3.4-1.5-5-2.3c-0.3-0.5,0.1-0.9,0.2-1.2
	c0.2-0.7,0.6-0.8,1.2-0.6c0.7,0.2,1.3,0.5,2,0.6c1.7,0.4,2.7-0.1,3.4-1.7c1.8-4.3,3.6-8.6,5.4-12.8c0.4-0.9-0.2-1-0.7-1.2
	c-3.9-1.6-7.8-3.2-11.7-4.9c-1.6-0.7-3.2-1.3-4.9-2.1c-0.6,1.5-1.2,2.8-1.8,4.2c-1.2,2.8-2.3,5.6-3.5,8.4c-1,2.4-0.7,3.4,1.5,4.9
	c0.4,0.3,0.8,0.5,1.2,0.7c0.7,0.3,0.6,0.7,0.3,1.3c-0.4,1-0.4,1.1-1.5,0.6c-4.6-1.9-9.1-3.8-13.6-5.7c-0.6-0.2-1.1-0.4-0.7-1.2
	c0.4-1,0.5-1.1,1.5-0.8c0.6,0.2,1.2,0.4,1.8,0.5c1.7,0.3,2.7-0.1,3.4-1.7c0.2-0.4,0.3-0.8,0.5-1.1c3.5-8.5,7-16.9,10.6-25.4
	c1.2-2.8,0.9-3.7-1.5-5.5c-0.3-0.2-0.5-0.5-0.9-0.6c-0.8-0.4-0.7-0.8-0.4-1.6c0.3-0.7,0.6-0.9,1.3-0.5c4.7,2,9.5,4,14.3,6
	C352.7,34.1,352.8,34.2,353,34.3z"/>
<path class="st0" d="M420.7,102.7c-0.5,4.3-1.1,8.4-1.6,12.4c-0.2,1.3-0.3,2.5-0.4,3.8c-0.5,4.2-0.1,5.7,2.4,9c0,0.1,0,0.2-0.1,0.3
	c-1.2,1.3-1.2,1.3-2.5,0.1c-1.9-1.8-3.8-3.6-5.7-5.4c-0.8-0.7-1-1.3-0.8-2.4c1.3-6.5,2.3-13,3-19.6c0.1-1.1-0.2-1.8-1-2.5
	c-1.9-1.7-1.9-1.8-3.6,0.1c-2.2,2.3-4.3,4.5-6.5,6.8c-0.3,0.3-0.6,0.6-0.8,0.9c-1.2,1.5-1.3,2.3-0.1,3.9c0.4,0.5,0.7,1.1,1.2,1.5
	c0.8,0.7,0.7,1.2-0.1,1.8c-0.2,0.1-0.3,0.3-0.6,0.6c-4.1-3.9-8.3-7.8-12.4-11.7c0.3-0.7,0.7-1.1,1.3-1.7c0.5,0.4,1.1,0.8,1.6,1.2
	c2.2,1.6,3.2,1.6,5.1-0.4c6.2-6.5,12.4-13,18.6-19.5c0.6-0.6,1.2-1.3,1.8-1.9c0.9-1,1-2.1,0.3-3.2c-0.6-0.9-1.2-1.8-1.9-2.8
	c0.2-0.6,0.7-1,1.2-1.4c0.5,0,0.8,0.5,1.1,0.8c4.3,4,8.5,8.1,12.7,12.1c1.7,1.6,3.2,3.4,4.1,5.6c1.5,3.3,1.5,6.5-0.8,9.5
	c-2.5,3.1-5.6,4.8-9.7,4.1C424.5,104.3,422.7,103.5,420.7,102.7z M413.9,94.9c1.1,1,2.2,2.1,3.3,3.1c4.4,3.7,10.5,2.7,14-3
	c1.6-2.6,1.4-5.2-0.4-7.7c-1.4-1.9-3.3-3.3-5-5.1c-3.9,4-7.6,7.9-11.3,11.8C414.4,94.3,414.2,94.6,413.9,94.9z"/>
<path class="st0" d="M448.6,170.8c0.5,0.8,0.9,1.5,1.4,2.2c1.2,1.8,2.3,2.1,4.3,1.4c1-0.4,2.1-0.8,3.1-1.2c7.8-3,15.7-6,23.5-9
	c2.8-1.1,3.3-2,2.8-4.9c0-0.3,0-0.6-0.1-0.9c-0.4-1,0.4-1.1,1-1.4c0.8-0.4,0.9,0.2,1.1,0.7c2.2,5.6,4.4,11.2,6.4,16.9
	c1.4,4,1.6,8.2,0.7,12.3c-1.1,4.6-3.6,8.3-7.5,10.9c-4,2.7-8.3,4.4-13.2,4.3c-5.5-0.1-9.9-2.4-13.6-6.4c-2.3-2.4-3.9-5.2-5.2-8.2
	c-2-4.8-3.9-9.6-5.8-14.3C446.7,171.6,446.7,171.6,448.6,170.8z M489.9,178.1c0.1-2.8-1.2-5.5-2.4-8.3c-0.5-1.3-0.6-1.3-1.9-0.8
	c-6.2,2.4-12.4,4.8-18.7,7.2c-3.1,1.2-6.2,2.4-9.2,3.6c-2.6,1-3.3,2.3-2.8,5c0.4,2.2,1.3,4.2,2.6,6c2.2,3.1,5.1,4.9,8.9,5.1
	c7.6,0.4,14.2-2.1,19.5-7.5C488.7,185.7,490,182.3,489.9,178.1z"/>
<path class="st0" d="M413.4,401.7c3.7-3.8,7.3-7.6,10.9-11.4c0.3-0.3,0.6-0.8,1.1-0.2c0.4,0.5,1.3,0.7,0.6,1.7
	c-0.5,0.7-0.9,1.5-1.3,2.3c-0.9,1.6-0.7,3.1,0.3,4.6c0.9,1.2,1.9,2.2,2.9,3.2c5,4.8,10,9.7,15.1,14.5c0.4,0.4,0.9,0.8,1.3,1.1
	c1.7,1.2,3.6,1.5,5.6,0.6c0.7-0.3,1.4-0.6,2-1c1.6-0.9,1.5-0.9,2.8,0.4c-0.1,0.5-0.5,0.8-0.8,1.1c-2.1,2.2-4.2,4.3-6.3,6.5
	c-0.6,0.7-1.2,0.9-2.1,0.8c-10.5-1.4-20.9-2.8-31.4-4.2c-1.7-0.2-3.4-0.5-5.1-0.7c0,0.6,0.3,0.7,0.6,1c4.4,4.2,8.8,8.5,13.2,12.7
	c1.3,1.2,2.6,2.3,4.1,3.2c1.4,0.8,2.7,0.9,4.1,0.1c0.7-0.4,1.4-0.8,2.1-1.2c1.4-0.9,1.4-0.9,2.8,0.5c-3.8,3.9-7.6,7.9-11.4,11.8
	c-0.5-0.1-0.7-0.5-1.1-0.7c-0.5-0.4-0.5-0.8-0.1-1.3c0.5-0.7,0.9-1.6,1.4-2.4c0.8-1.4,0.6-2.7-0.3-3.9c-0.9-1.3-1.9-2.5-3.1-3.6
	c-7-6.7-14-13.5-20.9-20.2c-0.4-0.4-1.2-0.7-1-1.4c0.2-0.8,1.6-1.6,2.5-1.5c3.8,0.5,7.6,1,11.4,1.5c5.8,0.8,11.6,1.5,17.4,2.3
	c3.2,0.4,6.4,0.8,9.7,1.3c0.4,0.1,0.8,0.1,1.2,0.1c0.1-0.6-0.4-0.7-0.6-1c-4.8-4.6-9.6-9.3-14.4-13.9c-1.1-1.1-2.3-2.1-3.7-3
	c-1.7-1.1-3.4-1.3-5.2-0.1c-0.6,0.4-1.2,0.7-1.8,1.1c-1.3,1-1.3,0.7-2.1-0.2C413.7,402.1,413.6,402,413.4,401.7z"/>
<path class="st0" d="M104.4,129.5c0.5,0.4,1.1,0.7,1.4,1.4c-2,2.2-4,4.5-6,6.8c-1.4,1.6-2.8,3.2-4.3,4.8c-0.3,0.4-0.6,1.1-1.4,0.4
	c-1-1-1-0.9-0.5-1.8c0.4-0.7,0.8-1.6,1.2-2.3c0.7-1.4,0.5-2.7-0.4-3.9c-0.9-1.2-2-2.3-3.1-3.3c-5.3-4.7-10.5-9.3-15.8-14
	c-2.8-2.5-5-2.7-8.2-0.9c-0.3,0.2-0.6,0.3-0.9,0.5c-1.5,0.9-1.5,0.9-2.8-0.5c2.4-2.7,4.8-5.5,7.2-8.2c0.4-0.5,0.9-0.5,1.4-0.4
	c3,0.3,5.9,0.5,8.9,0.8c6,0.5,12,1.1,18.1,1.6c3,0.3,6,0.5,9,0.8c0.3,0,0.7,0.2,1-0.1c-0.1-0.5-0.6-0.7-0.9-1
	c-4.4-3.9-8.8-7.8-13.2-11.6c-1.3-1.2-2.7-2.2-4.2-3.1c-1.6-0.9-3-1-4.6,0c-0.8,0.6-1.6,1.1-2.5,1.6c-0.3,0.2-0.5,0.6-0.9,0.3
	c-0.4-0.3-0.8-0.6-1.1-1.1c-0.2-0.2,0.2-0.5,0.3-0.7c0.9-1,1.8-2.1,2.8-3.1c2.3-2.6,4.6-5.2,6.9-7.8c0.4-0.4,0.6-1.1,1.4-0.4
	c0.9,0.7,0.9,0.8,0.4,1.8c-0.4,0.8-0.8,1.6-1.2,2.3c-0.7,1.3-0.5,2.6,0.4,3.8c0.8,1.1,1.8,2.2,2.8,3.1c7,6.2,14.1,12.5,21.2,18.7
	c0.6,0.5,1.2,1.1,1.8,1.6c0.2,0.2,0.5,0.4,0.4,0.7c-0.1,0.5-1.5,1.7-2,1.7c-0.5,0-1,0-1.6-0.1c-6.1-0.5-12.3-1.1-18.4-1.6
	c-6.7-0.6-13.4-1.1-20.1-1.7c-0.3,0.6,0.3,0.8,0.5,1c5.1,4.5,10.2,9,15.3,13.5c1.2,1.1,2.5,2.1,4,2.8c1.5,0.7,2.9,0.8,4.3-0.2
	C102.3,130.9,103.4,130.2,104.4,129.5z"/>
<path class="st0" d="M151.4,42.5c3.5-1.4,6.9-2.7,10.2-4.1c0.8-0.3,1.2,0.2,1.7,0.5c4.2,2.6,8.5,5.3,12.7,7.9
	c5.7,3.6,11.4,7.1,17.1,10.7c0.5,0.3,1,0.6,1.5,0.9c0-0.7-0.2-1.1-0.4-1.6c-2.1-5.4-4.3-10.8-6.4-16.2c-0.7-1.7-1.4-3.3-2.4-4.8
	c-1-1.5-2.2-2.3-4.1-2.1c-0.7,0.1-1.4,0.1-2.1,0.2c-1.8,0.3-1.8,0.3-2.4-1.5c0.3-0.4,0.8-0.5,1.2-0.7c4.4-1.7,8.7-3.5,13.1-5.2
	c1.1-0.4,1.2-0.4,1.6,0.8c0.2,0.6,0.1,0.8-0.4,1.1c-0.8,0.5-1.6,1.1-2.4,1.7c-1.3,0.9-1.6,2.2-1.3,3.7c0.3,1.7,0.9,3.2,1.5,4.8
	c3.5,8.8,7,17.6,10.5,26.3c0.2,0.6,0.4,1.2,0.6,1.7c-0.2,0.4-0.5,0.4-0.7,0.6c-1,0.6-1.9,0.4-2.9-0.2c-8.8-5.5-17.5-10.9-26.3-16.3
	c-2.4-1.5-4.7-2.9-7.1-4.4c-0.4,0.6,0,1,0.2,1.4c2.4,6,4.7,12,7.1,17.9c0.6,1.5,1.2,2.9,2,4.2c1.3,2.2,3,3.1,5.5,2.6
	c0.7-0.1,1.4-0.2,2.1-0.3c1.1-0.3,1,0.7,1.3,1.2c0.3,0.7-0.3,0.7-0.7,0.9c-4.5,1.8-9,3.6-13.6,5.4c-0.5,0.2-1,0.6-1.4-0.2
	c-0.5-1-0.5-1.2,0.4-1.8c0.7-0.5,1.3-1,2-1.5c1.5-1.1,1.9-2.6,1.5-4.3c-0.3-1.4-0.8-2.8-1.3-4.1c-2.5-6.4-5.1-12.8-7.6-19.2
	c-1.4-3.5-3.2-4.6-7-4.5c-0.5,0-0.9,0-1.4,0.1c-1.3,0.1-1.3,0.1-1.8-1.1C151.5,43,151.5,42.8,151.4,42.5z"/>
<path class="st0" d="M67.8,126.9c8.7,0.9,16.1,4.8,20.4,13.2c5.7,11.2-1.1,24.9-13.4,27.3c-4.1,0.8-8.1,0.3-12-1.3
	c-6.1-2.5-10.9-6.4-13.5-12.6c-4.7-11.3,2.4-24.3,14.5-26.4C64.9,127.1,66.1,127.1,67.8,126.9z M74.6,162.5c9.3,0.4,13.7-8,11.8-14
	c-0.8-2.6-2.2-4.8-4-6.6c-4.3-4.4-9.5-7.4-15.5-9c-1.7-0.5-3.5-0.6-5.4-0.5c-7.5,0.5-11.5,8.2-10.1,13.4c0.8,2.8,2.2,5.1,4.2,7.1
	c3.9,4,8.6,6.8,13.9,8.7C71.3,162.2,73.1,162.5,74.6,162.5z"/>
<path class="st0" d="M142.4,94.2c-2.5,0-4.8-0.5-7.1-1.4c-8.3-3.4-14.6-12.7-14.5-21.6c0.1-7.4,3.4-13.1,9.8-16.7
	c6.4-3.7,13.1-3.7,19.3,0.2c7.2,4.5,11.4,11.1,11.7,19.7C162,86.9,151.5,94.3,142.4,94.2z M125.9,66.8c0,1.2,0.2,2.5,0.5,3.7
	c1.7,6.3,5.1,11.7,9.8,16.1c1.2,1.1,2.6,2,4,2.7c7.6,3.9,15.5-1.8,16.2-8.5c0.2-1.8,0.1-3.6-0.4-5.4c-1.9-7-5.7-12.8-11.3-17.4
	c-0.8-0.7-1.7-1.2-2.7-1.6C134.8,52.8,125.7,58.1,125.9,66.8z"/>
<path class="st0" d="M58.1,394.5c0.1-5.3,2.5-10.1,6.7-14.1c3.7-3.6,8.1-6,13.3-6.8c9.7-1.5,19.2,4.6,21.6,14.2
	c1.8,6.9-0.1,12.9-4.7,18.1c-4,4.5-8.9,7.5-15,8.4c-9.8,1.4-19.3-5.2-21.5-15C58.2,397.9,58.1,396.6,58.1,394.5z M96.6,389.6
	c0.4-3.9-2.8-9.6-8.4-10.9c-2.1-0.5-4.3-0.4-6.4,0.2c-7.5,2.1-13.5,6.5-18,13c-0.7,1-1.2,2.2-1.6,3.5c-0.5,1.6-0.7,3.3-0.4,5
	c1,5.1,4.8,8.7,9.9,9.3c1.6,0.2,3.2,0,4.7-0.4c7-2,12.8-6,17.3-11.7c0.9-1.1,1.5-2.3,2-3.6C96.3,392.3,96.7,391,96.6,389.6z"/>
<path class="st0" d="M448.7,366.2c10.2,0.2,19.6,7,22.5,15.9c3.6,11.3-4,23.4-15.8,24.9c-2.7,0.4-5.5,0.2-8.1-0.6
	c-7.7-2.5-13.8-7-16.5-15c-3.7-11.1,3.5-23,15-25C446.9,366.3,448.1,366.3,448.7,366.2z M457.4,402.1c6.5,0,11.7-5.4,11.2-11.8
	c-0.2-2.9-1.5-5.4-3.3-7.6c-3.8-4.6-8.6-7.9-14.2-10.1c-1.8-0.7-3.7-1.1-5.6-1.3c-8.8-0.7-13.7,7.7-11.8,13.9c0.8,2.7,2.2,5,4.2,7
	c3.9,4,8.4,6.9,13.6,8.8C453.4,401.7,455.4,402.1,457.4,402.1z"/>
<path class="st0" d="M398.8,72.6c-2.9,4.4-5.8,8.8-8.6,13c-0.5,0.2-0.7-0.1-0.9-0.2c-1.3-0.8-1.1-0.8-0.6-1.9c0-0.1,0-0.1,0.1-0.2
	c1.6-4.2,1.1-5.9-2.6-8.4c-1.1-0.7-2.2-1.5-3.3-2.2c-0.6,0.1-0.7,0.6-1,1c-2.1,3.1-4.1,6.2-6.1,9.3c-2.2,3.3-1.9,4.5,1.2,6.8
	c2.2,1.6,4.4,3.1,6.7,4.3c1.8,0.9,3.6,1,5.5,0.1c1.7-0.8,3.3-1.7,4.9-2.7c1.6-1,1.6-1,3.1,0.3c-2.3,3-4.6,6-6.8,9
	c-0.4,0.5-0.7,0.4-1.2,0.1c-1.5-1-3.1-2.1-4.6-3.1c-7.2-4.7-14.3-9.5-21.5-14.2c-0.4-0.3-0.8-0.6-1.3-0.9c0.1-0.3,0.2-0.5,0.3-0.7
	c0.7-1.1,0.7-1.1,1.8-0.6c0.6,0.3,1.1,0.6,1.7,0.8c1.8,0.7,2.7,0.5,3.9-1.1c0.2-0.2,0.3-0.5,0.5-0.7c5.1-7.7,10.3-15.5,15.4-23.2
	c1.5-2.2,1.4-3.1-0.4-5.1c-0.4-0.4-0.8-0.9-1.2-1.2c-0.7-0.5-0.6-1-0.2-1.6c0.4-0.6,0.7-0.8,1.4-0.3c8.4,5.6,16.8,11.2,25.2,16.8
	c0.1,0.1,0.1,0.2,0.3,0.4c-1.7,2.5-3.4,5.1-5.1,7.6c-0.2,0.4-0.5,0.4-0.9,0.2c-1.1-0.6-1.2-0.8-1-2c0.3-2.1,0.4-4.2-0.2-6.2
	c-0.3-1.1-0.8-1.9-1.7-2.6c-2.6-2-5.5-3.7-8.2-5.6c-0.7-0.5-0.9,0-1.2,0.4c-2,3.1-4.1,6.2-6.1,9.3c-0.7,1.1-1.7,2.1-2,3.4
	c0.9,0.9,2.1,1.4,3.1,2.2c0.3,0.2,0.6,0.4,0.9,0.6c2.9,1.8,4.6,1.7,7.3-0.5c0.1-0.1,0.3-0.2,0.4-0.3
	C397.2,71.2,397.2,71.2,398.8,72.6z"/>
<path class="st0" d="M467.4,130.9c-4.7,2.9-9.2,5.7-13.8,8.5c1.1,1.7,2,3.3,3.1,4.8c1.5,2.2,3,2.8,5.7,2.1c0.7-0.2,1.4-0.3,2-0.6
	c0.6-0.3,0.9-0.2,1.3,0.4c0.7,1.1,0.7,1.2-0.4,1.9c-4.1,2.6-8.3,5.1-12.4,7.6c-0.3-0.1-0.5-0.3-0.6-0.5c-0.8-1.2-0.8-1.2,0.3-2.2
	c0.1-0.1,0.3-0.2,0.4-0.4c2.8-2.9,3-4.6,1-8c-0.8-1.3-1.6-2.5-2.4-3.9c-4,2.5-7.9,4.9-11.7,7.4c-2.1,1.4-2.3,2.6-1.2,4.8
	c1.4,2.7,3,5.4,4.9,7.8c1.3,1.7,2.9,2.5,5.1,2.4c1.9-0.1,3.7-0.2,5.6-0.4c1.7-0.2,1.7-0.2,2.5,1.4c-0.3,0.5-0.8,0.6-1.3,0.8
	c-2.6,1.4-5.1,2.7-7.7,4.1c-1.6,0.9-1.4,1.1-2.5-0.6c-3.7-6-7.4-12-11.1-17.9c-1.6-2.7-3.3-5.3-4.9-8c-0.3-0.5-0.7-0.9-0.8-1.6
	c0.2-0.2,0.5-0.3,0.7-0.5c0.6-0.5,1.1-0.5,1.6,0.2c0.5,0.7,1.1,1.4,1.7,2c1,1,2,1.2,3.3,0.5c0.5-0.2,0.9-0.5,1.4-0.8
	c7.7-4.8,15.4-9.5,23.1-14.3c2.8-1.7,3-2.4,2-5.6c-0.2-0.5-0.3-1-0.6-1.5c-0.2-0.4,0-0.6,0.3-0.9c1-0.8,1.2-0.8,2,0.3
	c5.1,8.2,10.2,16.5,15.3,24.7c0.7,1.1,0.7,1.1-0.3,1.7c-2.4,1.5-4.8,3-7.2,4.4c-0.5-0.1-0.6-0.5-0.8-0.7c-0.5-0.6-0.5-1.2,0-1.8
	c1.2-1.5,1.9-3.2,2.4-5c0.5-1.5,0.3-2.8-0.5-4.2C471.1,136.8,469.2,134,467.4,130.9z"/>
<path class="st0" d="M323.3,24.9c0.4-0.1,0.6-0.5,0.9-0.8c0.6-0.6,1.8-0.7,2.5-0.3c0.6,0.3,0.3,0.8,0.2,1.2
	c-0.4,2.1-0.7,4.1-1.1,6.2c-0.3,1.9-0.7,3.8-1,5.7c-0.1,0.5,0,1.1-0.9,1c-1.2-0.1-1.7-0.4-1.7-1.2c-0.2-2.1-0.5-4.1-1-6.2
	c-2.6-9.2-13.3-10.1-18.5-5.2c-1,0.9-1.9,1.9-2.6,3c-3.9,6.4-5.5,13.3-4.1,20.7c1.2,6.5,5.7,10.3,12.2,11c0.5,0,0.9,0.1,1.4,0
	c4.3-0.3,4.7-0.7,5.6-4.9c0.3-1.5,0.6-3,0.9-4.4c0.3-2-0.1-2.9-2-3.8c-1-0.5-2-0.8-3.1-1.1c-0.8-0.3-0.9-0.6-0.6-1.7
	c0.2-0.7,0.6-0.6,1.2-0.5c5.1,1,10.2,2,15.4,3.1c1.2,0.2,1.4,0.6,0.9,1.8c-0.2,0.4-0.4,0.5-0.8,0.5c-0.6,0-1.2,0-1.7,0
	c-2.2,0-3.1,0.7-3.6,3c-0.6,2.8-1.2,5.7-1.6,8.5c-0.1,0.8-0.4,1.1-1.2,1.2c-5.5,1.1-10.9,1.4-16.4-0.2c-8-2.3-13.6-9.5-14-17.9
	c-0.2-4.8,0.8-9.4,3.1-13.6c6.8-12,21.3-12.9,30.1-6.3C322.4,24.3,322.7,24.8,323.3,24.9z"/>
<path class="st0" d="M61.6,213.1c0.2,0.6,0.7,0.9,1.1,1.4c0.2,0.3,0.3,0.5,0.3,0.9c-0.3,1.6-0.5,1.8-2.1,1.3
	c-3.5-0.9-7.1-1.9-10.6-2.8c-0.4-0.1-0.9-0.2-1.3-0.5c0.1-0.3,0.1-0.5,0.2-0.8c0.4-1.3,0.4-1.4,1.7-1.4c2.7,0,5.3-0.3,7.8-1.5
	c4.3-1.9,6.5-5.3,6.6-10c0.1-2.6-1.2-4.4-3.4-5.6c-3.8-1.9-7.8-1.1-10.5,2.1c-1.7,2.1-3.4,4.3-5,6.4c-0.9,1.1-1.8,2.1-2.9,3
	c-5.8,5-15.7,2.2-17.6-6.1c-1-4.3,0-8.3,2.6-11.8c0.6-0.8,1.3-1.6,2.1-2.3c0.6-0.6,0.7-1,0.1-1.7c-0.7-0.7-0.8-1.8-0.2-2.7
	c0.3-0.5,0.7-0.3,1.1-0.2c2.5,0.7,5,1.4,7.5,2.1c1.2,0.3,2.5,0.7,3.7,1c0.7,0.2,1,0.4,0.7,1.2c-0.5,1.3-0.4,1.3-1.7,1.4
	c-2.4,0-4.9,0-7.2,0.8c-3.1,1-5.2,3-6,6.2c-0.7,2.5-0.3,4.9,1.7,6.7c2.1,1.8,4.6,2.1,7.2,1.2c1.3-0.5,2.3-1.3,3.2-2.3
	c1.1-1.2,2.1-2.5,3.1-3.8c1.5-1.9,3-3.7,4.6-5.4c6.2-6.4,15.4-2.6,18.1,2.9c2,4.1,2,8.2,0.5,12.3c-0.9,2.4-2.3,4.6-4,6.5
	C62.4,212.2,62,212.7,61.6,213.1z"/>
<path class="st0" d="M27.1,236c2.7,0.1,4.6-1.2,6.1-3.2c1.2-1.5,2.1-3.2,3-4.9c1.3-2.3,2.6-4.7,4.4-6.7c2-2.3,4.5-3.7,7.6-3.7
	c5.9-0.1,10.5,3.4,12.2,9.1c1.2,4.1,0.5,8-1.2,11.9c-0.6,1.3-1.3,2.6-2.2,3.7c-0.5,0.6-0.4,1,0.2,1.4c0.4,0.3,1,0.5,1,1.1
	c0.1,0.6,0,1.3-0.3,1.9c-0.3,0.5-1,0.1-1.5,0.1c-3.7-0.4-7.4-0.8-11.1-1.3c-0.5-0.1-1.3,0.2-1.3-0.7c0-1.2,0.3-1.8,1.2-1.9
	c2-0.3,3.9-0.7,5.7-1.5c3.5-1.5,6.2-3.9,7.1-7.8c0.3-1.3,0.4-2.6,0.2-4c-0.3-2.6-1.7-4.3-4.1-5.2c-3.8-1.4-7.8-0.2-10.1,3.3
	c-1.1,1.7-2,3.5-3,5.3c-0.9,1.6-1.8,3.1-2.9,4.6c-3,3.9-7,5.3-11.7,4.1c-4.6-1.2-7.1-4.5-8-8.9c-0.8-3.6-0.1-7,1.8-10.2
	c0.4-0.7,0.9-1.5,1.5-2.2c0.6-0.7,0.6-1.1-0.1-1.7c-0.8-0.6-1-1.7-0.6-2.6c0.2-0.4,0.5-0.4,0.9-0.4c3.9,0.5,7.8,1,11.7,1.5
	c0.4,0.1,1,0,0.9,0.7c-0.1,0.7,0.2,1.6-0.9,1.8c-1.3,0.2-2.6,0.4-3.9,0.7c-1.5,0.3-2.9,0.8-4.2,1.5c-3,1.7-4.5,4.3-4.6,7.7
	C20.6,232.7,22.9,236.1,27.1,236z"/>
<path class="st0" d="M462.7,221.6c0-2.9,0.4-5,1.3-7.1c1.6-3.5,4.2-5.8,8-6.5c7.7-1.5,15.4-2.9,23.1-4.4c2.4-0.5,3-1.1,3.3-3.5
	c0.1-0.5,0.2-1.1,0.1-1.6c-0.1-0.8,0.2-1,0.9-1.2c0.7-0.2,1.2-0.1,1.3,0.8c0.9,4.9,1.8,9.7,2.7,14.5c0.1,0.6,0.4,1.2-0.6,1.4
	c-1.1,0.2-1.1,0.3-1.5-0.9c-0.2-0.6-0.5-1.3-0.8-1.9c-0.7-1.5-1.6-2-3.2-1.7c-2.9,0.5-5.7,1.1-8.5,1.6c-4.8,0.9-9.6,1.8-14.4,2.7
	c-1,0.2-1.9,0.5-2.8,0.9c-3.4,1.4-5.4,4.5-5.3,8.3c0.1,1.5,0.3,2.9,0.7,4.3c1.6,5.3,6.1,8.1,11.6,7.1c5.9-1.1,11.7-2.2,17.6-3.4
	c1.4-0.3,2.8-0.7,4.2-1.2c1.8-0.7,2.7-2.1,2.8-4c0-0.9,0.1-1.7,0-2.6c-0.1-1.2,0.8-0.9,1.4-1.1c0.7-0.2,0.7,0.4,0.8,0.8
	c0.8,4.1,1.6,8.2,2.3,12.3c0.2,0.8,0.3,1.6,0.4,2.4c0.1,0.6,0,0.9-0.6,1c-0.5,0.1-1.2,0.4-1.5-0.4c-0.3-0.7-0.5-1.4-0.8-2.1
	c-0.8-1.9-2.2-2.7-4.2-2.7c-2.8,0.1-5.5,0.7-8.3,1.2c-4.8,0.9-9.7,1.8-14.5,2.7c-4.5,0.8-8.1-0.7-11.1-3.9
	C463.9,229.9,462.7,225.6,462.7,221.6z"/>
<path class="st0" d="M466.5,301.2c0,3.4,0.3,3.6,3.6,2.9c2.3-0.5,4.7-1,7-1.4c0.8-0.1,1.2-0.4,1.3-1.3c0.5-4,1.2-7.9,1.8-11.9
	c0.1-0.9,0-1.4-0.8-1.8c-2.2-1.1-4.3-2.4-6.5-3.3c-2.1-0.8-2.7-0.5-3.7,1.5c-0.4,0.8-0.8,1.7-0.9,2.6c-0.2,1-0.8,0.7-1.4,0.7
	c-0.8,0-0.8-0.5-0.7-1.1c0.5-3.4,1.1-6.9,1.6-10.3c0.2-1,0.4-2.1,0.5-3.1c0.1-0.5,0.2-0.9,0.8-0.8c0.6,0.1,1.4,0,1.3,1
	c0,0.1,0,0.1,0,0.2c-0.1,3.1,1.6,5.2,4.2,6.7c9.8,5.6,19.5,11.3,29.2,17c0.5,0.3,0.9,0.5,1.4,0.8c1,0.6,1.3,1.8,0.7,2.7
	c-0.3,0.4-0.8,0.4-1.3,0.5c-3.4,0.8-6.8,1.5-10.2,2.2c-8.4,1.8-16.8,3.7-25.2,5.5c-2.5,0.5-4.6,1.6-5.7,4.1c-0.4,0.9-1,0.6-1.6,0.4
	c-0.6-0.2-0.8-0.5-0.7-1.2c1-4.7,1.9-9.3,2.9-14c0.3-1.2,0.5-1.3,1.6-1c0.5,0.1,0.7,0.4,0.6,0.8
	C466.5,300.2,466.5,300.7,466.5,301.2z M497,298.3c0-0.1,0.1-0.2,0.1-0.3c-4.7-2.7-9.4-5.4-14.2-8.2c-0.7,4.1-1.4,8-1.8,12
	C486.5,300.6,491.7,299.4,497,298.3z"/>
<path class="st0" d="M478.2,276.3c-9.5-3.1-12.4-10.9-11.5-18.4c1-8.1,6.5-13.9,14.8-15.9c5.8-1.4,11.5-1,17,1.6
	c9.7,4.6,13.7,15.8,9,25.5c-0.1,0.3-0.2,0.5-0.4,0.8c-0.3,0.4-0.2,0.8,0.3,1c1.5,0.5,1.5,1.7,1.3,3.1c-1.9,0.1-3.8,0.2-5.7,0.3
	c-2.6,0.1-5.1,0.2-7.7,0.3c-0.5,0-1.1,0.2-1.2-0.6c-0.2-1.2,0-1.8,0.9-2c1.6-0.5,3.2-1,4.7-1.7c1-0.4,1.9-0.9,2.7-1.5
	c4.2-2.9,5.5-7.4,3.5-12.1c-1.1-2.7-3.1-4.6-5.6-5.9c-2.8-1.5-5.9-2.1-9-2.3c-4.8-0.4-9.5,0.1-13.9,2.4c-2.8,1.5-5,3.5-6.4,6.4
	c-2.2,4.5-1.1,10.2,2.5,13.6c1.4,1.3,3,2.4,4.8,3.1c0.7,0.3,0.9,0.6,0.5,1.3C478.6,275.5,478.5,276,478.2,276.3z"/>
<path class="st0" d="M83.5,429.2c-0.3,0.1-0.7,0.2-1,0.2c-1,0.2-2-0.3-2.5-1.1c-0.2-0.4,0.1-0.6,0.3-0.9c0.9-1,1.9-2,2.9-3.1
	c1.9-2,3.8-4.1,5.7-6.1c0.3-0.4,0.6-1.1,1.4-0.4c1.1,1,1.3,1.1,0.7,2.1c-0.8,1.2-1.4,2.6-1.9,3.9c-0.9,2-1.4,4.1-1.3,6.3
	c0.1,2.3,0.9,4.2,2.4,5.8c3,3,6.6,3.9,10.7,3.2c0.9-0.2,1.8-0.5,2.6-0.9c6.1-2.8,10.8-7.1,13.9-13.1c1.5-2.9,2.2-6.1,1.6-9.4
	c-1.3-7.1-7.8-11.4-14.9-9.7c-1.1,0.3-2.2,0.7-3.4,1.1c-0.5-0.6-0.7-1.4-0.8-2.1c8.4-4.3,18.2-1.1,22.8,7.5c2.3,4.4,2.9,9,1.4,13.7
	c-2.9,8.9-8.9,14.9-18.1,17c-9,2.1-18.2-3.1-21.6-11.8C84.1,430.6,84,429.8,83.5,429.2z"/>
<path class="st0" d="M454.5,335.8c0.4-2,1.2-3.8,1.8-5.8c1.2-3.8,2.5-7.6,3.7-11.4c0.2-0.6,0.3-1.2,1.3-0.9c0.8,0.3,1.2,0.6,0.9,1.5
	c-0.3,0.8-0.4,1.7-0.5,2.5c-0.3,2.2,0.3,3.1,2.4,3.8c3.6,1.2,7.3,2.4,10.9,3.6c6.4,2.1,12.9,4.2,19.3,6.3c0.2,0.1,0.4,0.1,0.8,0.2
	c0.8-2,1.4-4.1,1.8-6.2c0.2-0.8-0.2-1.6-0.6-2.3c-1.2-2.2-2.9-4.1-4.8-5.6c-0.6-0.5-0.8-0.8-0.5-1.6c0.3-0.7,0.6-1,1.4-0.7
	c2.8,1,5.6,1.9,8.4,2.8c1.1,0.4,1.1,0.4,0.8,1.6c-2.7,8.4-5.5,16.8-8.2,25.1c-0.7,2.2-1.4,4.3-2.1,6.5c-0.2,0.8-0.5,1.1-1.5,0.8
	c-2.8-1-5.6-1.9-8.4-2.8c-0.4-0.1-1.2-0.1-0.9-0.9c0.2-0.7,0.2-1.3,1.2-1.3c2.3,0,4.6-0.5,6.8-1.4c1.5-0.6,2.6-1.5,3.1-3.1
	c0.4-1.2,0.9-2.4,1.3-3.6c0.4-1.2,0.4-1.2-0.9-1.6c-5.9-2-11.9-3.9-17.8-5.9c-3.7-1.2-7.5-2.5-11.2-3.7c-2.5-0.8-3.4-0.5-4.8,1.7
	c-0.3,0.5-0.6,1-0.9,1.5C456.3,336.6,456.3,336.6,454.5,335.8z"/>
<path class="st0" d="M268.9,17.9c0-0.4,0-0.6,0-0.8c-0.1-0.9,0.3-1.2,1.2-1.2c5.4,0.2,10.8,0.3,16.2,0.4c0.7,0,1.1,0.1,1.1,1
	c0,0.7,0,1.3-0.9,1.3c-1.1,0-2.2,0.2-3.3,0.5c-1.1,0.3-1.7,0.9-1.9,2c-0.1,0.5-0.2,1-0.2,1.6c-0.3,9.3-0.5,18.6-0.7,27.9
	c0,0.6-0.1,1.3,0.1,1.9c0.4,1.3,1.2,2.2,2.6,2.5c0.9,0.2,1.7,0.4,2.6,0.4c1,0,0.9,0.6,0.9,1.3c0,0.8-0.3,1-1,1
	c-5.6-0.1-11.1-0.3-16.7-0.3c-1,0-0.9-0.7-0.9-1.3c-0.1-0.6,0.1-1,0.8-1c0.7,0,1.4-0.1,2.1-0.2c2.5-0.3,3.3-1.1,3.4-3.7
	c0.2-8.1,0.4-16.3,0.7-24.4c0-1.4,0.1-2.8,0.1-4.2c0.1-2.1-0.3-2.8-2.4-3.5c-0.6-0.2-1.2-0.4-1.8-0.5
	C270.2,18.2,269.6,18.1,268.9,17.9z"/>
<path class="st0" d="M443.5,359.8c2.5-5.3,5-10.5,7.5-15.6c0.3-0.6,0.5-1,1.3-0.5c0.5,0.3,1.2,0.4,0.8,1.4c-0.4,0.9-0.7,1.8-1,2.8
	c-0.4,1.5,0.1,2.5,1.4,3.2c1.1,0.6,2.2,1.1,3.3,1.6c7.6,3.7,15.3,7.3,22.9,11c2.5,1.2,3.6,1,5.5-1.1c0.5-0.5,1.1-1.1,1.4-1.7
	c0.6-0.9,1.1-0.4,1.7-0.1c0.7,0.3,0.5,0.7,0.2,1.2c-2.6,4.9-5.1,9.9-7.7,14.8c-0.2,0.4-0.4,1-1.1,0.6c-0.6-0.3-1.3-0.4-0.9-1.5
	c0.4-0.9,0.6-1.9,0.8-2.8c0.4-1.6,0-2.4-1.4-3.2c-0.3-0.2-0.7-0.4-1.1-0.6c-8.4-4-16.7-8-25.1-12c-2.5-1.2-3.4-1-5.1,1.2
	c-0.3,0.3-0.5,0.6-0.7,1C445.2,360.8,445.2,360.8,443.5,359.8z"/>
<path class="st0" d="M76.1,172.7c0.7,0.1,1.2,0.3,1.8,0.7c-0.1,0.9-0.6,1.7-0.9,2.5c-1.9,4.4-3.8,8.8-5.7,13.3
	c-0.5,1.2-0.4,1.2-1.7,0.7c-0.5-0.2-0.6-0.6-0.4-1.1c0.3-0.7,0.5-1.4,0.7-2.1c0.6-2.3,0.2-3.2-1.9-4.1c-4.4-1.9-8.8-3.8-13.3-5.7
	c-4.3-1.8-8.5-3.7-12.8-5.5c-0.4-0.2-0.9-0.3-1.3-0.5c-1.1-0.5-1.9-0.2-2.7,0.6c-0.8,0.8-1.6,1.7-2.2,2.7c-0.5,0.9-1,0.9-1.8,0.5
	c-0.2-0.1-0.4-0.2-0.7-0.4c0.3-0.7,0.6-1.5,0.9-2.2c2-4.5,3.9-9.1,5.9-13.6c0.5-1.2,0.5-1.1,1.6-0.6c0.5,0.2,0.7,0.5,0.5,1.1
	c-0.4,1-0.6,2-0.8,3c-0.2,1.6,0.1,2.4,1.6,3.1c0.8,0.4,1.7,0.8,2.5,1.1c8,3.5,16.1,6.9,24.1,10.4c2.5,1.1,3.4,0.8,5-1.4
	C75.1,174.2,75.6,173.5,76.1,172.7z"/>
<path class="st0" d="M57.5,257.8c0,2.7,0,5.5,0,8.2c0,0.7-0.2,1-1,1c-0.7,0-1.2,0-1.2-1c0-0.9-0.1-1.7-0.2-2.6
	c-0.3-1.9-1.1-2.6-3-2.7c-2.5-0.1-5-0.1-7.5-0.2c-7.1-0.2-14.2-0.4-21.2-0.6c-2.7-0.1-3.1,0.3-4,2.9c-0.2,0.6-0.3,1.1-0.5,1.7
	c-0.4,1.5-0.4,1.5-1.6,1.4c-1.4-0.1-0.7-1.2-0.7-1.7c0-3.9,0.2-7.9,0.3-11.8c0-1.3,0.1-2.7,0.1-4c0-0.7,0.3-0.9,1-0.9
	c0.6,0,1.2,0,1.2,0.8c0,0.8,0.2,1.6,0.3,2.4c0.4,2.3,1,2.9,3.3,3c4.5,0.2,8.9,0.2,13.4,0.3c5,0.1,10.1,0.2,15.1,0.4
	c2.6,0.1,3.4-0.5,4-3.1c0.2-0.7,0.4-1.4,0.4-2c0-1,0.7-0.9,1.3-0.9c0.9,0,0.9,0.5,0.9,1.1c0,2.7,0,5.5,0,8.2
	C57.8,257.8,57.7,257.8,57.5,257.8z"/>
<path class="st0" d="M374.9,447.1c-1.3-2.3-2.6-4.5-3.9-6.9c0.6-0.6,1.4-1,2.1-1.3c0.6,0.4,0.7,1,1,1.4c1.8,3,3.6,6.1,5.4,9.1
	c0.6,1.1,0.6,1-0.4,1.7c-1,0.8-1.9,0.7-3,0c-2.2-1.4-4.4-2.6-6.6-3.8c-0.3-0.2-0.6-0.5-1.3-0.4c1.5,2.6,3,5.1,4.4,7.6
	c-0.1,0.2-0.2,0.3-0.3,0.4c-2.3,1.4-1.7,1.4-3-0.8c-1.8-3-3.5-6-5.3-9c-0.4-0.7-0.4-1,0.3-1.5c1.2-0.9,2.2-0.9,3.4-0.1
	c2.1,1.4,4.4,2.5,6.6,3.8c0.2,0.2,0.4,0.5,0.7,0.3c0.3-0.2-0.1-0.4-0.2-0.7C375.1,447.2,375,447.1,374.9,447.1z"/>
<path class="st0" d="M330.4,488.9c-0.6-2.2-1.2-4.4-1.8-6.5c-0.1-0.5-0.6-1.1,0-1.4c0.6-0.4,1.3-0.6,2-0.6c0.3,0,0.4,0.4,0.5,0.6
	c1.1,3.8,2.2,7.7,3.3,11.5c0.2,0.6,0,0.9-0.6,1.1c-1.4,0.5-2.3,0.3-3.3-0.8c-2-2.1-4.1-4.1-6.4-6c0.5,1.9,1.1,3.8,1.6,5.7
	c0.2,0.6,0.3,1.2,0.5,1.8c0.3,1.3,0.3,1.3-0.9,1.6c-1.3,0.4-1.3,0.4-1.7-1c-1.1-3.9-2.2-7.8-3.3-11.6c0.1-0.1,0.1-0.2,0.2-0.2
	c2.6-1,2.5-1,4.4,0.9c1.7,1.7,3.5,3.4,5.3,5.1c0.1,0.1,0.3,0.3,0.3,0.3C330.6,489.3,330.5,489.1,330.4,488.9z"/>
<path class="st0" d="M308.8,472.6c1.5,0.6,1.8,2,2.1,3.4c0.2,0.9,0.3,1.8,1.1,2.5c-0.1,0.1-0.2,0.2-0.3,0.2
	c-3.5,0.9-2.8,0.8-3.6-2.1c-0.1-0.4-0.2-0.8-0.3-1.2c-0.2-0.4-0.4-0.8-1-0.9c-1.3-0.1-2.5,0.3-3.8,0.6c-0.6,0.1-0.3,0.7-0.3,1
	c0.3,1.4,0.5,2.7,0.8,4c-0.2,0.1-0.3,0.2-0.4,0.3c-2.3,0.6-2.4,0.6-2.8-1.8c-0.7-3.4-1.3-6.7-2-10.1c-0.2-0.8,0-1.2,0.8-1.3
	c1.9-0.3,3.8-0.7,5.6-1.1c0.6-0.1,1.3-0.1,1.9-0.1c2.5,0.2,4.1,3.1,3,5.3C309.5,471.8,309.1,472.1,308.8,472.6z M307.2,470.3
	c0-1.1-0.6-1.8-1.7-1.8c-1.2,0-2.4,0.4-3.6,0.6c-0.3,0.1-0.5,0.3-0.4,0.6c0.2,0.8,0.3,1.7,0.5,2.5c0.1,0.3,0.4,0.4,0.7,0.3
	c1.1-0.2,2.1-0.4,3.2-0.7C306.7,471.7,307.2,471.2,307.2,470.3z"/>
<path class="st0" d="M153.5,442.8c-0.4,3-1.8,5.7-4.7,7.2c-2.5,1.3-4.9,0.6-6.9-1.1c-2-1.6-2.8-3.8-2.1-6.4c0.5-2,1.6-3.6,3.1-4.9
	c2-1.7,4.3-1.9,6.7-0.7C151.9,438,153.3,439.8,153.5,442.8z M150.6,442.9c0.1-1.7-0.5-2.8-1.7-3.5c-1.1-0.7-2.4-0.7-3.5,0
	c-1.8,1.1-2.8,2.8-3.1,4.8c-0.2,1.3,0.4,2.4,1.5,3.1c1.1,0.8,2.3,0.9,3.4,0.3C149.2,446.5,150.2,444.7,150.6,442.9z"/>
<path class="st0" d="M223.5,471.8c0,1.5-0.4,3-1.1,4.4c-1.4,2.8-4.1,3.9-7.4,3.2c-3-0.7-4.8-3-4.9-6c0-1.4,0.2-2.7,0.7-3.9
	c1.2-3.3,3.9-4.9,7.2-4.2C221.7,465.9,223.6,468.3,223.5,471.8z M220.6,472.1c0-0.6,0-0.9,0-1.2c-0.2-1.7-1.2-2.8-2.8-3.2
	c-1.5-0.4-3,0.3-3.8,1.8c-0.8,1.5-1.2,3-0.9,4.7c0.3,1.5,1.2,2.5,2.8,2.8c1.6,0.3,2.8-0.3,3.7-1.7
	C220.3,474.2,220.6,473,220.6,472.1z"/>
<path class="st0" d="M345.7,468.2c-1.1-2.5-2.2-5-3.2-7.4c-0.6-1.4-1.2-2.9-1.9-4.3c-0.3-0.6-0.3-0.9,0.4-1.2
	c1.8-0.7,3.6-1.6,5.4-2.3c1.9-0.7,3.7-0.3,5.1,1.2c2,2.1,3,4.7,2.7,7.6c-0.2,1.8-1.1,3.1-2.6,3.8
	C349.7,466.5,347.8,467.3,345.7,468.2z M351.5,461.2c0-1.5-0.7-3.4-1.6-4.6c-1-1.3-2-1.5-3.5-0.9c-0.5,0.2-1.1,0.5-1.6,0.7
	c-0.8,0.3-0.8,0.7-0.5,1.3c0.8,1.7,1.5,3.4,2.2,5.1c1.1,2.5,0.4,2.3,3.1,1.1C350.9,463.4,351.6,462.5,351.5,461.2z"/>
<path class="st0" d="M173.6,487.4c-4.4,0-7.3-4.1-5.9-8.7c0.3-0.9,0.6-1.7,1.1-2.5c1.8-3,4.9-4,8.1-2.6c3.1,1.3,4.6,4.1,3.8,7.5
	c-0.3,1.6-1,3-2,4.2C177.5,486.6,175.9,487.4,173.6,487.4z M170.1,480.8c0,1.9,0.7,3.2,2.2,3.7c1.4,0.6,2.8,0.3,3.9-0.9
	c1.1-1.2,1.7-2.8,1.8-4.4c0.1-1.5-0.8-2.8-2.2-3.4c-1.4-0.6-2.7-0.3-3.8,0.8C170.8,477.9,170.2,479.4,170.1,480.8z"/>
<path class="st0" d="M254.8,470.4c2.9-0.3,2.9-0.3,2.9,2.4c0,0.9-0.4,1.9,0.2,2.5c0.6,0.6,1.7,0.2,2.5,0.2c2.5,0.1,2.5,0,2.6-2.5
	c0-0.3,0-0.7,0-1c0-1.6,0-1.6,1.7-1.5c1.2,0.1,1.2,0.1,1.2,1.3c0,3.7-0.1,7.4-0.1,11.1c0,0.4,0.2,1-0.4,1.2c-0.3,0.2-2.2,0-2.4-0.2
	c-0.3-0.3-0.2-0.7-0.2-1c0-1.3,0-2.7,0.1-4c0-0.8-0.3-1-1-1c-1.1,0-2.2,0-3.3,0c-0.8,0-1,0.3-1,1c0,1.4-0.1,2.8-0.1,4.2
	c0,0.7-0.3,1-0.9,0.9c-0.2,0-0.5,0-0.7,0c-1.2-0.1-1.3-0.1-1.3-1.2C254.6,478.6,254.7,474.5,254.8,470.4z"/>
<path class="st0" d="M257.7,490.5c0,1.6,0,2.9,0,4.2c0,0.8,0.2,1,1,1c1.2,0,2.3,0,3.5,0c0.6,0,0.8-0.2,0.8-0.8
	c0-1.1,0.1-2.2,0.1-3.3c0-0.8,0.3-1.2,1.1-1.1c0.2,0,0.5,0.1,0.7,0c0.8-0.1,1.2,0.2,1.1,1.1c-0.1,0.8,0,1.6,0,2.4
	c-0.1,3-0.1,6-0.2,9c0,1.2-0.1,1.2-1.4,1.2c-1.5,0-1.5,0-1.5-1.2c0-1.4,0-2.8,0.1-4.2c0-0.6-0.2-0.8-0.8-0.8c-1.2,0-2.4,0-3.7,0
	c-0.6,0-0.8,0.2-0.8,0.8c0,1.4-0.1,2.8,0,4.2c0,0.9-0.3,1.1-1.1,1.1c-0.3,0-0.6-0.1-0.9,0c-0.6,0-0.9-0.2-0.9-0.9
	c0.1-4,0.1-8,0.1-12c0-0.6,0.3-0.8,0.8-0.8C256.4,490.5,257,490.5,257.7,490.5z"/>
<path class="st0" d="M314.9,478c-1.2-4.5-2.3-8.8-3.5-13.2c1.5-0.4,2.9-0.8,4.2-1.1c1.5-0.4,3-0.8,4.5-1.2c0.7-0.2,1.1-0.1,1.2,0.7
	c0.1,0.5,0.2,0.9,0.3,1.5c-1.9,0.5-3.8,1-5.7,1.5c-0.4,0.1-1.1,0.1-1.1,0.6c0.1,0.7,0.1,1.5,0.6,2.1c0.3,0.3,0.7,0.1,1,0
	c1.5-0.4,3-0.8,4.5-1.2c0.7-0.2,0.9,0,1.1,0.6c0.4,1.5,0.5,1.5-1.1,2c-1.3,0.4-2.7,0.7-4,1c-0.7,0.1-0.8,0.4-0.7,1.1
	c0.5,2.6,0.5,2.6,3.1,1.9c1.3-0.3,2.6-0.7,3.9-1c1.1-0.3,1.1-0.2,1.4,0.9c0.2,0.7,0.5,1.2-0.6,1.5C321,476.3,318.1,477.1,314.9,478z
	"/>
<path class="st0" d="M343.7,478.6c-1.9,0.7-3.8,1.3-5.6,2c-0.4,0.1-1.1,0.1-1,0.8c0.1,0.7,0.3,1.5,0.8,2.1c0.2,0.3,0.5,0,0.8-0.1
	c1.4-0.5,2.7-1,4.1-1.4c1.3-0.4,1.3-0.4,1.8,0.9c0.1,0.3,0.2,0.5,0.3,0.9c-1.7,0.8-3.4,1.2-5.1,1.9c-1.1,0.4-1.1,0.4-0.7,1.6
	c0.7,2.1,0.7,2.1,2.8,1.4c1.4-0.5,2.8-0.9,4.1-1.5c1-0.4,1.1,0.2,1.4,0.9c0.3,0.7,0.4,1.1-0.5,1.4c-2.7,0.9-5.4,1.8-8,2.8
	c-0.6,0.2-1,0.1-1.2-0.5c-1.3-3.8-2.6-7.6-3.9-11.3c-0.2-0.6,0-0.9,0.6-1.1c2.5-0.8,4.9-1.7,7.4-2.6c1.3-0.4,1.3-0.4,1.7,0.8
	C343.5,477.8,343.6,478.2,343.7,478.6z"/>
<path class="st0" d="M355.9,475.3c-0.5,0.5-1,0.5-1.6,0.8c-0.5,0.3-0.9,0.2-1.4-0.2c-1.1-0.9-3-0.6-4,0.5c-0.4,0.4-0.7,0.9-0.4,1.6
	c0.3,0.6,0.8,0.8,1.4,0.8c0.7-0.1,1.4-0.2,2.1-0.3c0.9-0.1,1.7-0.3,2.6-0.3c1.5-0.1,2.9,0.2,3.7,1.7c0.8,1.5,0.8,3-0.2,4.4
	c-1.4,2-5,3.3-7.3,2.7c-1.3-0.3-2.2-1.2-2.7-2.4c0.5-0.5,1.1-0.6,1.6-0.8c0.5-0.3,0.9-0.2,1.4,0.2c1.3,1.1,4,0.5,4.9-0.9
	c0.6-1.1,0-2.2-1.3-2.1c-0.9,0-1.8,0.2-2.8,0.3c-0.7,0.1-1.5,0.2-2.2,0.2c-1.5,0.1-2.6-0.5-3.3-1.8c-0.7-1.4-0.8-2.8,0.1-4.1
	c1.2-1.8,4.5-3.2,6.6-2.7C354.3,473.1,355.3,473.9,355.9,475.3z"/>
<path class="st0" d="M204.9,462.4c-0.5,2.4-0.5,2.4-2.7,1.7c-1.5-0.5-3.1-0.9-4.6-1.4c-0.1,0.1-0.2,0.2-0.3,0.3
	c-0.9,2.3-0.9,2.3,1.4,3c1.1,0.3,2.1,0.7,3.2,1c0.8,0.2,1.1,0.6,0.7,1.3c-0.2,0.4-0.3,0.8-0.4,1.2c-1.4-0.2-2.8-0.8-4.1-1.2
	c-0.6-0.1-1.1-0.3-1.7-0.5c-0.2-0.1-0.5-0.1-0.6,0.2c-0.3,0.9-0.6,1.7-0.8,2.6c-0.1,0.5,0.5,0.5,0.9,0.6c1.7,0.5,3.4,1.2,5.1,1.6
	c1,0.3,0.9,0.7,0.7,1.5c-0.2,0.7-0.3,1.3-1.4,0.9c-2.6-0.9-5.3-1.7-8-2.5c-0.9-0.2-0.9-0.6-0.7-1.4c1.2-3.6,2.3-7.3,3.4-11
	c0.3-0.8,0.5-1.1,1.5-0.8C199.2,460.7,202.1,461.5,204.9,462.4z"/>
<path class="st0" d="M334.2,462.1c-0.6,0.2-1.2,0.4-1.6,0.6c-0.5,0.2-0.9,0.2-1.4-0.3c-1.1-1-3.2-0.8-4.2,0.3
	c-0.4,0.5-0.6,1-0.3,1.6c0.2,0.6,0.7,0.8,1.3,0.7c1,0,2-0.1,3-0.2c0.6,0,1.3-0.1,1.9-0.1c1.6,0,2.8,0.6,3.4,2.2
	c0.6,1.6,0.6,3.1-0.7,4.4c-1.8,1.8-4,2.5-6.5,2.3c-1.7-0.2-2.8-1.2-3.4-2.8c0.4-0.6,1.1-0.5,1.6-0.8c0.5-0.2,0.9-0.1,1.4,0.3
	c1.2,1.2,3.9,0.8,4.9-0.6c0.7-0.9,0.2-2.1-0.9-2.2c-0.7-0.1-1.5,0-2.3,0.1c-0.9,0.1-1.8,0.2-2.8,0.2c-1.5,0-2.7-0.6-3.3-2.1
	c-0.6-1.5-0.7-3,0.4-4.2c1.7-1.8,3.8-2.6,6.3-2.2C332.5,459.5,333.6,460.5,334.2,462.1z"/>
<path class="st0" d="M233.7,494c-0.2,2.5,0.3,2.6-2.3,2.1c-1.2-0.2-2.4-0.3-3.6-0.5c-0.7-0.1-0.9,0.2-1.1,0.8
	c-0.5,2.3-0.4,2.5,1.9,2.8c1.4,0.2,2.9,0.4,4.3,0.6c0.6,0.1,1.1,0.2,0.8,1c-0.2,0.6,0.3,1.7-1.1,1.5c-2.9-0.4-5.7-0.8-8.6-1.2
	c-0.6-0.1-0.8-0.4-0.7-1.1c0.6-3.8,1.1-7.7,1.6-11.5c0.1-0.8,0.4-1.1,1.2-0.9c2.6,0.4,5.3,0.8,7.9,1.1c1.2,0.1,0.8,0.8,0.8,1.5
	c0,0.8-0.4,1.1-1.2,1c-1.2-0.2-2.4-0.3-3.6-0.5c-0.3,0-0.6-0.1-0.9-0.1c-0.5,0-1.2-0.4-1.6,0.1c-0.4,0.6-0.4,1.3-0.4,2
	c0,0.5,0.5,0.5,0.9,0.6C230,493.5,231.8,493.8,233.7,494z"/>
<path class="st0" d="M278.1,469.9c0.4,2.4,0.4,2.4-1.8,2.5c-1.4,0.1-2.9,0.2-4.3,0.2c-0.6,0-0.8,0.3-0.8,0.9c0,0.3,0.1,0.6,0,0.9
	c-0.1,1,0.4,1.2,1.2,1.1c1.3-0.1,2.7-0.2,4-0.3c1.5-0.1,1.5-0.1,1.5,1.3c0.1,1.1,0.1,1.1-1.3,1.1c-1.4,0.1-2.9,0.2-4.3,0.2
	c-0.7,0-0.9,0.3-0.9,0.9c0.2,3.1-0.4,2.6,2.6,2.5c1.4,0,2.8-0.1,4.2-0.2c1-0.1,0.9,0.6,1,1.2c0,0.6,0.2,1.2-0.9,1.3
	c-2.8,0.1-5.7,0.2-8.5,0.4c-0.7,0-1-0.2-1-0.9c-0.2-3.9-0.4-7.9-0.6-11.8c0-0.5,0.1-0.9,0.7-0.9C272,470.2,275.1,470,278.1,469.9z"
	/>
<path class="st0" d="M222.4,487.7c-0.7,3.2-1.3,6.4-1.9,9.5c-0.1,0.6-0.2,1.3-0.4,1.9c-0.1,0.4,0.1,1.2-0.6,1.3
	c-0.7,0.1-1.5-0.1-2.2-0.4c-0.4-0.2-0.2-0.6-0.1-0.9c0.2-1.4,0.5-2.7,0.8-4.1c0.2-0.7,0-1-0.6-1.1c-1.2-0.2-2.4-0.5-3.6-0.7
	c-0.6-0.1-0.8,0.2-0.9,0.7c-0.3,1.4-0.6,2.8-0.9,4.3c-0.1,0.8-0.5,1-1.2,0.7c-0.2-0.1-0.3-0.1-0.5-0.1c-1.3-0.3-1.4-0.3-1.1-1.5
	c0.5-2.5,1-5,1.5-7.5c0.3-1.2,0.6-2.5,0.8-3.7c0.1-0.8,0.5-0.9,1.2-0.7c1.8,0.4,1.8,0.3,1.5,2.2c-0.2,1.1-1,2.3-0.3,3.2
	c0.6,0.8,1.9,0.6,2.9,0.8c1.8,0.4,1.8,0.4,2.2-1.5c0.1-0.7,0.3-1.4,0.4-2c0.1-1,0.6-1.1,1.4-0.9c0.3,0.1,0.6,0.2,0.8,0.2
	C222.3,487,222.6,487.2,222.4,487.7z"/>
<path class="st0" d="M361.6,445.6c1.3,2.1,1.3,2.1-0.7,3.1c-1.3,0.7-2.6,1.3-3.9,2c-0.6,0.3-0.6,0.6-0.4,1.1
	c0.1,0.2,0.2,0.4,0.3,0.6c0.6,1.1,0.6,1.1,1.8,0.5c1.1-0.6,2.3-1.2,3.4-1.7c1.3-0.7,1.3-0.7,2,0.7c0.1,0.2,0.2,0.4,0.4,0.8
	c-1.9,1-3.8,2-5.8,3c0.5,1,1,2,1.5,3.1c1.8-0.9,3.6-1.8,5.4-2.7c1.5-0.7,1.2-0.9,2.1,0.7c0.1,0.2,0.2,0.4,0.3,0.8
	c-3,1.5-6.1,3.1-9.2,4.7c-0.7-1.4-1.4-2.6-2-3.9c-1.3-2.5-2.5-5-3.8-7.5c-0.2-0.4-0.5-0.8,0.1-1.1
	C356.1,448.4,358.9,447,361.6,445.6z"/>
<path class="st0" d="M192,462.7c-0.6,0.1-1-0.2-1.5-0.3c-0.8-0.2-1.2-0.5-1.3-1.5c-0.3-2.3-3.1-3.3-4.8-1.8
	c-1.9,1.6-2.7,3.7-2.3,6.1c0.3,2.1,3.1,3.3,4.6,1.8c1-0.9,1.7-0.8,2.7-0.3c0.2,0.1,0.6,0.1,0.7,0.4c-1.1,2.2-3.3,3.4-5.6,3
	c-4-0.7-6-3.5-5.3-7.5c0.3-1.7,1-3.3,2.2-4.7c3.3-3.8,8.5-1.8,10,0.9C192.1,460,192.3,461.2,192,462.7z"/>
<path class="st0" d="M290.9,488.8c2.3-0.3,4.5-0.7,6.8-0.9c2.2-0.2,3.8,1.2,4.2,3.5c0.4,2.3-0.7,4.4-2.7,5c-1.1,0.3-2.3,0.4-3.4,0.6
	c-0.6,0.1-0.8,0.4-0.6,0.9c0.2,1,0.3,2.1,0.5,3.1c0.1,0.6,0,1-0.7,1c-0.3,0-0.6,0.1-0.9,0.2c-1.1,0.2-1.2,0.2-1.4-0.9
	C292,497.2,291.5,493.1,290.9,488.8z M296.4,490.5c-0.3,0-0.9,0.1-1.6,0.2c-0.3,0.1-0.7,0.2-0.6,0.6c0.1,1.1-0.1,2.4,0.7,3.1
	c0.6,0.6,1.8-0.2,2.8-0.2c0.2,0,0.3-0.1,0.5-0.2c0.7-0.4,1-1,0.9-1.7C299,490.9,298.3,490.4,296.4,490.5z"/>
<path class="st0" d="M309.7,485.8c2.4,0,3.8,1.3,4.3,3.6c0.4,2.1-0.6,4.1-2.5,4.8c-0.8,0.3-1.6,0.4-2.4,0.5
	c-1.8,0.4-1.8,0.4-1.4,2.1c0.1,0.6,0.3,1.2,0.4,1.9c0.2,1.2,0.2,1.3-1,1.5c-1.6,0.3-1.7,0.3-2-1.3c-0.7-3.5-1.4-7-2.1-10.6
	c-0.2-1.2-0.2-1.2,1-1.5C306,486.5,308,486,309.7,485.8z M309.1,488.4c-0.7,0-1.5,0.3-2.4,0.4c-0.3,0-0.5,0.3-0.5,0.6
	c0.3,1.1,0,2.4,0.8,3.1c0.7,0.6,1.9-0.1,2.8-0.3c1.1-0.3,1.5-1.1,1.3-2.1C310.9,488.8,310.4,488.4,309.1,488.4z"/>
<path class="st0" d="M247.5,498.8c-2.3-0.1-2.3-0.1-2.5,2.2c0,0.2,0,0.5-0.1,0.7c-0.2,1.9-0.4,2-2.3,1.7c-0.4-0.1-0.6-0.2-0.6-0.7
	c0-0.3,0-0.7,0-1c0.2-3.6,0.5-7.3,0.7-10.9c0-0.8,0.3-1.1,1.1-1c1.8,0.2,3.7,0.2,5.5,0.4c2.3,0.2,3.7,1.9,3.7,4.3
	c0,2.4-1.6,4.2-3.8,4.4C248.6,498.9,248,498.8,247.5,498.8z M245.4,494.3c-0.1,2-0.1,2,1.8,2.1c0.4,0,0.8,0.1,1.2,0
	c1.1-0.1,1.6-0.8,1.6-1.9c0-1.1-0.3-1.6-1.4-1.9c-0.3-0.1-0.7-0.1-1-0.2C245.5,492.2,245.5,492.2,245.4,494.3z"/>
<path class="st0" d="M297.1,472.7c0,2.3-1.3,3.8-3.6,4.2c-0.7,0.1-1.4,0.2-2.1,0.3c-1.3,0.2-1.3,0.2-1.2,1.4
	c0.1,0.9,0.2,1.8,0.4,2.8c0.1,0.7-0.1,1-0.8,1c-0.1,0-0.2,0-0.3,0c-1.7,0.2-1.7,0.2-1.9-1.5c-0.4-3.2-0.9-6.4-1.3-9.6
	c-0.1-0.5-0.1-0.9-0.2-1.4c-0.1-0.7,0.2-0.9,0.8-1c1.8-0.2,3.7-0.6,5.5-0.7C295.3,468,297.1,469.8,297.1,472.7z M292,470.7
	c-0.3,0.1-0.7,0.2-1.2,0.2c-1.6,0.1-1.6,0.1-1.4,1.8c0.3,2.4,0.7,2.7,3.2,2c1.3-0.4,1.8-1.1,1.5-2.3
	C294,471.2,293.3,470.7,292,470.7z"/>
<path class="st0" d="M193.6,480.1c0,0.9-0.4,1.5-0.6,2.3c-1.5-0.2-2.9-0.9-4.3-1.3c-2.3-0.7-2.3-0.8-3,1.5c-0.1,0.2-0.1,0.3-0.2,0.6
	c1.9,0.7,3.7,1.3,5.5,2c-0.6,2.4-0.6,2.4-2.8,1.6c-0.9-0.3-1.8-0.6-2.6-0.9c-0.7-0.3-1-0.2-1.3,0.6c-0.5,1.5-1,2.9-1.5,4.4
	c-2.8-0.6-2.8-0.7-2-3.2c1.1-3.1,2.1-6.3,3.2-9.4c0.4-1.2,0.4-1.2,1.5-0.9C188.3,478.2,190.9,479.1,193.6,480.1z"/>
<path class="st0" d="M228.5,475.6c-0.6,1.4-0.5,2.9-0.8,4.3c-0.3,1.3-0.2,1.3-1.5,1.2c-1.5-0.2-1.6-0.2-1.3-1.7
	c0.5-3.7,1.1-7.4,1.7-11.2c0.1-0.8,0.4-0.9,1.1-0.8c2.6,0.4,5.3,0.8,7.9,1.2c0.6,0.1,0.8,0.4,0.6,1c-0.1,0.2-0.1,0.3-0.1,0.5
	c0,0.8-0.3,1.1-1.2,1c-1.5-0.3-3-0.5-4.5-0.7c-1.3-0.2-1.3-0.2-1.5,1.1c0,0.3-0.1,0.6-0.2,0.9c-0.2,0.6,0.2,0.9,0.7,0.9
	c1.3,0.2,2.6,0.4,4,0.6c0.4,0.1,1.1,0,1.1,0.6c0.1,0.6-0.1,1.3-0.4,1.8c-0.2,0.3-0.5,0.1-0.8,0.1
	C231.8,476.1,230.2,475.9,228.5,475.6z"/>
<path class="st0" d="M164.8,448.9c-2-1.1-4-2.2-5.9-3.2c-1.7,2.5-1.7,2.5,0.7,3.8c0.8,0.4,1.5,0.8,2.3,1.2c0.5,0.3,0.7,0.6,0.3,1.1
	c-0.1,0.2-0.2,0.4-0.3,0.6c-0.3,0.7-0.7,0.8-1.3,0.4c-1-0.6-2.1-1.2-3.2-1.8c-1.2-0.7-1.2-0.6-1.9,0.6c-0.6,1-1.1,2-1.7,3
	c-0.3,0.5-0.6,0.6-1.1,0.3c-0.5-0.3-1.1-0.6-1.6-1c-0.1-0.6,0.3-0.9,0.5-1.3c1.8-3.3,3.6-6.5,5.4-9.7c0.6-1,0.6-1,1.7-0.4
	c2.1,1.1,4.2,2.3,6.2,3.4c1.2,0.7,1.3,0.4,0.5,1.9C165.2,448.3,165,448.6,164.8,448.9z"/>
<path class="st0" d="M176.2,451.8c-0.1,0.3-0.1,0.3-0.1,0.4c-1,2.4-0.8,1.9-2.6,1c-1.4-0.7-2.8-1.3-4.3-2c-0.7,0.7-0.9,1.6-1.3,2.5
	c0.6,0.7,1.6,0.9,2.4,1.3c0.6,0.3,1.1,0.6,1.7,0.9c0.4,0.2,1,0.2,1,0.8c0,0.6-0.4,1.2-0.8,1.7c-0.3,0.3-0.6,0.1-0.9-0.1
	c-1.5-0.7-2.9-1.4-4.4-2.1c-1.1,1.5-1.6,3.4-2.6,4.8c-0.3,0.2-0.5,0-0.7-0.1c-2-0.9-2-0.9-1-2.9c1.5-3.1,3-6.2,4.5-9.2
	c0.5-1.1,0.5-1.1,1.6-0.6C171.1,449.4,173.6,450.6,176.2,451.8z"/>
<path class="st0" d="M381.7,436.3c1.7,2.6,3.5,5.2,5.2,7.8c1,1.6,1.3,1.2-0.5,2.5c-0.7,0.5-1.1,0.5-1.6-0.3
	c-1.4-2.2-2.9-4.4-4.4-6.7c-0.4-0.5-0.7-1-1.2-1.7c-0.9,0.6-1.8,1.1-2.6,1.7c-0.6,0.4-1,0.5-1.4-0.2c-0.2-0.4-0.5-0.8-0.8-1.3
	c3.1-2.1,6.1-4.1,9.1-6.1c0.6,0.5,1,1.2,1.4,1.9C384.1,434.8,382.8,435.3,381.7,436.3z"/>
<path class="st0" d="M253.1,472.5c-1,0.2-1.9-0.1-2.8-0.1c-1.2,0-1.2,0-1.3,1.2c-0.2,3-0.5,5.9-0.6,8.9c0,1-0.4,1.2-1.3,1.1
	c-0.2,0-0.3,0-0.5,0c-0.9,0.1-1.2-0.3-1.1-1.2c0.2-2.7,0.4-5.3,0.6-8c0.2-2.6,0.2-2.1-2-2.2c-0.2,0-0.3,0-0.5,0
	c-1.5-0.1-1.6-0.3-1.4-1.8c0.1-0.6,0.4-0.7,0.9-0.7c3.1,0.2,6.1,0.4,9.2,0.6c0.9,0,1.1,0.4,1,1.2
	C253.1,471.7,253.1,472.1,253.1,472.5z"/>
<path class="st0" d="M205.7,486.1c-0.7,2.8-1.4,5.4-2.1,8.1c-0.2,0.7-0.4,1.3-0.5,2c-0.1,0.6-0.5,0.7-1,0.6c-2-0.4-2.1-0.5-1.5-2.4
	c0.7-2.6,1.4-5.2,2-7.7c0.3-1.2,0.3-1.2-1-1.6c-0.6-0.2-1.2-0.3-1.9-0.4c-0.7-0.1-0.8-0.5-0.6-1.1c0.3-1.4,0.4-1.5,1.7-1.2
	c2.8,0.7,5.6,1.4,8.4,2.2c0.4,0.1,1,0,1,0.5c0,0.7-0.1,1.4-0.6,2c-0.2,0.2-0.5,0-0.8,0C207.8,486.6,206.9,486.3,205.7,486.1z"/>
<path class="st0" d="M277.1,503.7c-2.4,0-2,0.6-2.2-2c-0.3-3.5-0.5-7-0.7-10.4c-0.1-0.8,0.2-1.2,1-1.1c0.3,0,0.6,0,0.9,0
	c0.8-0.1,1,0.2,1.1,1c0.1,2.1,0.3,4.3,0.4,6.4c0.1,0.9,0.1,1.9,0.2,2.8c0,0.6,0.3,0.9,1,0.8c1.6-0.1,3.1-0.2,4.7-0.3
	c0.8-0.1,1.2,0,1.2,0.9c0.1,1.5,0.1,1.5-1.4,1.6C281.2,503.5,279.2,503.6,277.1,503.7z"/>
<path class="st0" d="M271.9,497.3c0,1.8,0,3.6,0,5.4c0,1.4,0,1.4-1.4,1.4c-0.2,0-0.3,0-0.5,0c-0.7,0.1-0.9-0.2-0.9-0.9
	c0-1.4-0.1-2.9-0.2-4.3c-0.1-2.4-0.1-4.9-0.2-7.3c0-0.9,0.1-1.4,1.1-1.2c0.2,0,0.3,0,0.5,0c1.2,0,1.3,0,1.3,1.2c0,1.9,0,3.8,0,5.7
	C271.7,497.3,271.8,497.3,271.9,497.3z"/>
<path class="st0" d="M177.7,452.6c0.9,0.3,1.8,0.6,2.6,1.2c-1.7,3.9-3.4,7.8-5.1,11.6c-0.3,0.6-0.6,0.9-1.2,0.5c0,0-0.1,0-0.2-0.1
	c-1.7-0.7-1.7-0.7-1-2.4c1.4-3.1,2.7-6.3,4.1-9.4C177.2,453.5,177.4,453.1,177.7,452.6z"/>
<path class="st0" d="M340.1,470.2c-1.6-4.1-3-8.1-4.5-12c-0.3-0.7,0-0.9,0.6-1.1c0.3-0.1,0.6-0.2,0.8-0.3c0.8-0.4,1.2-0.1,1.5,0.7
	c1.3,3.6,2.6,7.1,4,10.7c0.3,0.7,0.3,1.2-0.6,1.4C341.3,469.7,340.8,470,340.1,470.2z"/>
<path class="st0" d="M285.5,490.6c0.1-0.4-0.4-1.1,0.4-1.3c0.7-0.2,1.5-0.4,2.2-0.1c0.2,0.1,0.2,0.4,0.2,0.6c0.4,4,0.8,7.9,1.3,11.9
	c0.1,0.7-0.1,1-0.8,1c-0.1,0-0.1,0-0.2,0c-1.9,0.3-1.9,0.3-2.1-1.6C286.3,497.6,285.9,494.1,285.5,490.6z"/>
<path class="st0" d="M314.9,484.8c0-0.1,0.1-0.1,0.1-0.1c2.5-0.9,2.6-0.9,3.2,1.6c0.8,3.3,1.6,6.5,2.3,9.8c0.3,1.1,0.3,1.1-0.9,1.4
	c-0.1,0-0.1,0-0.2,0c-1.4,0.4-1.4,0.4-1.8-1c-0.8-3.6-1.7-7.1-2.5-10.7C315.1,485.6,314.8,485.2,314.9,484.8z"/>
<path class="st1" d="M72.4,262.5C72.2,157.2,158.2,71.9,263.3,72.3c103.8,0.4,190.2,85,189.5,191.3
	c-0.6,104.8-86.2,189.8-191.6,189.1C156,451.9,72.3,365.9,72.4,262.5z M446.3,262.7c0.2-100.9-81.9-183.6-183.5-183.8
	C161.9,78.7,79,160.3,78.9,262.1C78.8,363.8,161,445.8,262,446.1C364.5,446.4,446.4,363.2,446.3,262.7z"/>
<path class="st1" d="M413.9,94.9c0.3-0.3,0.5-0.6,0.7-0.9c3.7-3.9,7.4-7.8,11.3-11.8c1.7,1.7,3.6,3.1,5,5.1c1.7,2.4,1.9,5.1,0.4,7.7
	c-3.5,5.8-9.6,6.7-14,3C416.1,97.1,415,96,413.9,94.9z"/>
<path class="st1" d="M489.9,178.1c0,4.2-1.3,7.6-3.9,10.3c-5.3,5.4-11.9,7.9-19.5,7.5c-3.8-0.2-6.7-2-8.9-5.1
	c-1.3-1.8-2.2-3.8-2.6-6c-0.5-2.7,0.2-4,2.8-5c3.1-1.2,6.2-2.4,9.2-3.6c6.2-2.4,12.4-4.8,18.7-7.2c1.3-0.5,1.3-0.5,1.9,0.8
	C488.8,172.6,490,175.3,489.9,178.1z"/>
<path class="st1" d="M74.6,162.5c-1.4,0-3.3-0.3-5-0.9c-5.3-1.8-10-4.7-13.9-8.7c-2-2-3.4-4.3-4.2-7.1c-1.4-5.2,2.5-12.9,10.1-13.4
	c1.8-0.1,3.6,0,5.4,0.5c5.9,1.7,11.1,4.6,15.5,9c1.9,1.9,3.2,4.1,4,6.6C88.2,154.5,83.8,162.9,74.6,162.5z"/>
<path class="st1" d="M125.9,66.8c-0.2-8.7,9-14,16.2-10.2c0.9,0.5,1.8,1,2.7,1.6c5.6,4.6,9.4,10.3,11.3,17.4
	c0.5,1.7,0.6,3.5,0.4,5.4c-0.7,6.7-8.5,12.4-16.2,8.5c-1.5-0.7-2.8-1.6-4-2.7c-4.8-4.5-8.1-9.8-9.8-16.1
	C126,69.3,125.8,68,125.9,66.8z"/>
<path class="st1" d="M96.6,389.6c0.1,1.4-0.3,2.8-0.9,4.2c-0.5,1.3-1.2,2.5-2,3.6c-4.5,5.7-10.2,9.7-17.3,11.7
	c-1.5,0.4-3.1,0.6-4.7,0.4c-5.1-0.6-8.9-4.2-9.9-9.3c-0.3-1.7-0.1-3.3,0.4-5c0.4-1.2,0.9-2.4,1.6-3.5c4.5-6.4,10.4-10.8,18-13
	c2.1-0.6,4.2-0.7,6.4-0.2C93.8,380,97,385.7,96.6,389.6z"/>
<path class="st1" d="M457.4,402.1c-2,0-3.9-0.4-5.8-1c-5.2-1.9-9.8-4.8-13.6-8.8c-1.9-2-3.4-4.3-4.2-7c-1.9-6.2,3-14.6,11.8-13.9
	c1.9,0.2,3.8,0.5,5.6,1.3c5.5,2.2,10.3,5.5,14.2,10.1c1.8,2.2,3,4.7,3.3,7.6C469,396.6,463.9,402,457.4,402.1z"/>
<path class="st1" d="M497,298.3c-5.2,1.2-10.5,2.3-15.9,3.5c0.5-4.1,1.1-7.9,1.8-12c4.9,2.8,9.5,5.5,14.2,8.2
	C497,298,497,298.1,497,298.3z"/>
<path class="st1" d="M374.9,447.1c0,0,0.1,0.1,0.1,0.1c0.1,0.2,0.5,0.4,0.2,0.7c-0.2,0.2-0.5-0.1-0.7-0.3
	C374.7,447.4,374.8,447.3,374.9,447.1z"/>
<path class="st1" d="M330.4,488.9c0.1,0.2,0.2,0.4,0,0.6c0,0-0.2-0.2-0.3-0.3C330.2,489.1,330.3,489,330.4,488.9z"/>
<path class="st1" d="M307.2,470.3c0,0.9-0.5,1.4-1.3,1.6c-1.1,0.3-2.1,0.5-3.2,0.7c-0.3,0.1-0.6,0-0.7-0.3c-0.2-0.8-0.3-1.7-0.5-2.5
	c-0.1-0.3,0.1-0.6,0.4-0.6c1.2-0.3,2.3-0.6,3.6-0.6C306.5,468.5,307.2,469.3,307.2,470.3z"/>
<path class="st1" d="M150.6,442.9c-0.4,1.8-1.4,3.6-3.3,4.7c-1.2,0.7-2.4,0.5-3.4-0.3c-1.1-0.8-1.7-1.8-1.5-3.1
	c0.3-2,1.3-3.7,3.1-4.8c1.1-0.7,2.3-0.7,3.5,0C150.1,440.1,150.7,441.1,150.6,442.9z"/>
<path class="st1" d="M220.6,472.1c-0.1,0.9-0.3,2.1-1,3.1c-0.8,1.4-2.1,2-3.7,1.7c-1.5-0.3-2.5-1.2-2.8-2.8
	c-0.4-1.7,0.1-3.2,0.9-4.7c0.8-1.5,2.3-2.1,3.8-1.8c1.6,0.4,2.6,1.5,2.8,3.2C220.7,471.2,220.6,471.5,220.6,472.1z"/>
<path class="st1" d="M351.5,461.2c0.1,1.3-0.6,2.2-1.9,2.7c-2.8,1.1-2,1.3-3.1-1.1c-0.8-1.7-1.5-3.4-2.2-5.1
	c-0.3-0.6-0.3-1.1,0.5-1.3c0.5-0.2,1.1-0.5,1.6-0.7c1.6-0.6,2.5-0.3,3.5,0.9C350.8,457.7,351.5,459.7,351.5,461.2z"/>
<path class="st1" d="M170.1,480.8c0.1-1.4,0.7-2.9,1.9-4.2c1.1-1.1,2.4-1.4,3.8-0.8c1.4,0.6,2.3,1.9,2.2,3.4
	c-0.1,1.6-0.7,3.2-1.8,4.4c-1.1,1.2-2.5,1.5-3.9,0.9C170.9,484,170.1,482.7,170.1,480.8z"/>
<path class="st1" d="M296.4,490.5c1.9-0.1,2.6,0.5,2.7,1.9c0,0.7-0.2,1.4-0.9,1.7c-0.2,0.1-0.3,0.2-0.5,0.2c-1,0.1-2.2,0.8-2.8,0.2
	c-0.8-0.7-0.5-2-0.7-3.1c-0.1-0.5,0.3-0.6,0.6-0.6C295.4,490.6,296.1,490.5,296.4,490.5z"/>
<path class="st1" d="M309.1,488.4c1.4,0,1.9,0.5,2.1,1.6c0.2,1.1-0.2,1.9-1.3,2.1c-0.9,0.2-2.1,0.9-2.8,0.3c-0.8-0.7-0.6-2-0.8-3.1
	c-0.1-0.3,0.1-0.6,0.5-0.6C307.6,488.7,308.4,488.3,309.1,488.4z"/>
<path class="st1" d="M245.4,494.3c0.1-2.1,0.1-2.1,2.3-1.9c0.3,0,0.7,0.1,1,0.2c1,0.3,1.4,0.8,1.4,1.9c0,1.1-0.6,1.8-1.6,1.9
	c-0.4,0.1-0.8,0-1.2,0C245.3,496.3,245.3,496.3,245.4,494.3z"/>
<path class="st1" d="M292,470.7c1.3,0,2,0.5,2.2,1.6c0.2,1.2-0.3,1.9-1.5,2.3c-2.5,0.7-2.9,0.5-3.2-2c-0.2-1.7-0.2-1.7,1.4-1.8
	C291.3,470.9,291.7,470.8,292,470.7z"/>
<path class="st2" d="M446.3,262.7c0.1,100.5-81.8,183.7-184.4,183.4c-101-0.3-183.2-82.4-183.1-184c0.1-101.8,83-183.4,184-183.2
	C364.4,79.1,446.5,161.7,446.3,262.7z M126,290.1c4-0.6,8-1.2,12.1-1.8c7.4-1.1,14.8-2.2,22.2-3.3c8.3-1.2,16.5-2.5,24.8-3.7
	c7.5-1.1,15-2.2,22.6-3.3c3.6-0.5,7.1-1,10.7-1.6c0.4-0.1,1-0.2,1.2,0.4c0.3,0.7-0.4,0.7-0.8,0.9c-0.2,0.2-0.5,0.2-0.8,0.4
	c-3.5,1.6-7,3.1-10.5,4.7c-28.3,12.6-56.6,25.3-84.9,37.9c-1.1,0.5-1.7,1.1-2,2.3c-1,3.6-2.1,7.1-3.2,10.7c-0.8,2.8-1.6,5.6-2.5,8.3
	c-0.2,0.8-0.1,1.2,0.7,1.4c0.2,0,0.5,0.1,0.7,0.2c6.2,1.7,12.3,3.3,18.5,5c1.2,0.3,2.1,0.2,3.2-0.5c25.3-17.2,50.6-34.4,75.9-51.6
	c3.7-2.5,7.4-5,11.1-7.5c1-0.7,1-0.7,1.8,0.3c0.1,0.1,0.2,0.3,0.3,0.4c7.4,8.7,16.8,14.1,28.1,16c-0.3,0.6-0.8,1-1.3,1.4
	c-1.9,1.7-3.9,3.3-5.8,5c-12.5,10.6-24.9,21.3-37.4,31.9c-10.9,9.3-21.7,18.6-32.6,27.9c-8.3,7.1-16.5,14.1-24.8,21.2
	c-0.3,0.3-0.8,0.4-0.7,1c31.4,0,62.7,0,94.1,0c-10.9-11.5-7.3-25.9-0.4-32.8c7.9-7.9,20.2-9.1,29.4-2.6c4.5,3.2,7.6,7.5,9,12.9
	c2.2,8.6-0.2,16.1-6.3,22.5c6.9,0.4,93,0.2,94.4-0.2c-0.1-0.1-0.2-0.3-0.3-0.4c-6.4-5.4-12.7-10.9-19.1-16.3
	c-14.9-12.7-29.8-25.4-44.6-38.2c-12.5-10.7-25-21.4-37.5-32.1c-0.4-0.4-1-0.7-1.1-1.3c0.6-0.1,1.1-0.2,1.7-0.3
	c10.7-2.2,19.5-7.6,26.5-15.9c1.1-1.3,0.8-1.2,2.2-0.3c0.1,0.1,0.3,0.2,0.4,0.3c28.8,19.6,57.7,39.1,86.5,58.7c1,0.7,1.9,0.9,3,0.5
	c5.2-1.5,10.5-2.9,15.8-4.3c1.4-0.4,2.9-0.7,4.4-1.3c-0.1-0.5-0.2-0.9-0.3-1.2c-1.9-6.3-3.8-12.7-5.7-19c-0.3-1.1-0.9-1.6-1.9-2
	c-9.7-4.3-19.3-8.6-28.9-12.9c-22.1-9.9-44.3-19.8-66.4-29.7c-0.5-0.2-1-0.4-1.4-0.7c-0.2-0.1-0.3-0.4-0.2-0.6
	c0.1-0.2,0.2-0.4,0.5-0.4c0.5,0,1,0.1,1.6,0.1c2.4,0.3,4.7,0.7,7.1,1c14.5,2.2,29.1,4.3,43.6,6.5c13.3,2,26.5,3.9,39.8,5.9
	c1,0.2,2.1,0.4,2.8,0.3c-0.6-0.2-1.5-0.5-2.4-0.8c-15.4-4.3-30.8-8.7-46.2-13c-14.1-4-28.1-7.9-42.2-11.9c-0.6-0.2-1.6-0.1-1.4-1.2
	c0.2-0.9,1.1-0.5,1.6-0.5c11.3,0,22.7,0,34,0c7.1,0,14.3,0.1,21.4,0.1c16.6,0,33.2,0.1,49.9,0.1c0.9,0,1.5-0.2,2.1-0.9
	c4.3-5.1,8.7-10.1,13.1-15.2c0.9-1,0.9-1.1-0.2-2c-5.1-4.2-10.3-8.4-15.4-12.6c-0.8-0.6-1.5-0.8-2.4-0.6
	c-14.8,2.6-29.6,5.2-44.4,7.9c-18.5,3.3-37,6.5-55.6,9.8c-1.4,0.3-2.9,0.5-4.3,0.7c-0.3,0.1-0.7,0.1-0.8-0.3c-0.1-0.4-0.2-0.8,0.3-1
	c0.4-0.2,0.8-0.4,1.3-0.6c25-12,50-23.9,75.1-35.9c2.6-1.2,5.1-2.4,7.7-3.6c1-0.4,2-0.7,3.1-1.6c-1.4,0.4-2.6,0.6-3.6,1.2
	c-1.7,0.6-3.4,1.1-5.1,1.7c-27.3,9-54.5,18-81.8,27c-0.4,0.1-0.8,0.3-1.2,0.4c-0.4,0.1-0.6-0.2-0.8-0.5c-0.2-0.4-0.2-0.6,0.2-0.9
	c0.3-0.2,0.7-0.5,1-0.7c29-19.5,57.9-39,86.9-58.4c1.1-0.7,1.5-1.6,1.7-2.8c0.7-6.5,1.5-12.9,2.3-19.4c0.2-1.3,0.2-1.3-1-1.4
	c-6.7-0.6-13.3-1.2-19.9-1.8c-1.1-0.1-1.8,0.2-2.6,1c-24,23.2-48,46.4-72.1,69.6c-1.3,1.3-2.6,2.5-3.9,3.8c-0.3,0.3-0.6,0.6-1,0.2
	c-0.4-0.3-0.6-0.7-0.3-1.2c0.2-0.3,0.4-0.7,0.6-1c11-18.7,21.9-37.4,32.9-56c4.6-7.9,9.3-15.8,14-23.7c0.6-0.5,0.8-1.2,1.2-2.2
	c-0.9,0.7-1.2,1.4-1.6,2c-0.1,0.1-0.2,0.3-0.3,0.4c-18.8,24.3-37.7,48.7-56.5,73c-0.2,0.3-0.4,0.6-0.7,0.8c-0.3,0.3-0.7,0.1-1-0.1
	c-0.4-0.2-0.4-0.5-0.3-0.9c0.2-0.4,0.3-0.8,0.4-1.1c4.9-12.1,9.8-24.2,14.7-36.3c8.2-20.3,16.4-40.5,24.7-60.8
	c0.4-0.9,0.5-1.6,0-2.6c-3.1-5.9-6.1-11.9-9.2-17.8c-0.6-1.2-0.6-1.2-1.8-0.6c-5.6,3.1-11.3,6.3-17,9.3c-1.3,0.7-1.9,1.5-2.1,2.8
	c-2.1,9.9-4.2,19.9-6.3,29.8c-5.1,24.2-10.3,48.5-15.4,72.7c-0.1,0.3-0.2,0.7-0.3,1c-0.1,0.4-0.4,0.4-0.7,0.4
	c-0.3,0-0.6-0.1-0.7-0.4c-0.1-0.4-0.1-0.8-0.1-1.2c-0.3-4.1-0.5-8.1-0.8-12.2c-0.5-8.1-1.1-16.1-1.6-24.2
	c-0.4-6.4-0.8-12.9-1.2-19.3c-0.6-8.8-1.1-17.5-1.7-26.3c-0.3-4-0.5-8.1-0.8-12.5c-0.1,1-0.2,1.6-0.3,2.2c-0.4,6.3-0.8,12.6-1.2,19
	c-0.4,6.3-0.8,12.5-1.2,18.8c-0.6,9.9-1.3,19.8-2,29.7c-0.5,8.2-1,16.3-1.5,24.5c0,0.5-0.1,0.9-0.2,1.4c-0.1,0.4-0.5,0.5-0.8,0.5
	c-0.3,0-0.5-0.1-0.6-0.5c-0.1-0.3-0.1-0.7-0.2-1c-1.6-7.7-3.3-15.3-4.9-23c-3.8-17.8-7.6-35.6-11.4-53.5c-1.9-8.9-3.8-17.7-5.6-26.6
	c-0.2-0.8-0.4-1.3-1.2-1.8c-6-3.2-11.9-6.5-17.9-9.8c-0.8-0.4-1.3-0.5-1.6,0.5c-0.1,0.3-0.3,0.6-0.5,0.9c-2.8,5.5-5.6,11.1-8.5,16.6
	c-0.6,1.2-0.6,2.2-0.1,3.4c12.5,30.6,24.9,61.2,37.3,91.8c0.8,2,1.6,4,2.4,6c0.2,0.4,0.3,0.8-0.2,1c-0.5,0.2-0.9,0.3-1.2-0.2
	c-0.3-0.4-0.6-0.8-1-1.2c-8.2-10.6-16.4-21.1-24.5-31.7c-10.8-13.9-21.5-27.8-32.3-41.8c-0.1-0.4-0.3-0.7-0.7-0.7
	c0,0.4,0.1,0.8,0.5,1c0.4,0.6,0.7,1.2,1.1,1.8c15.4,26.2,30.8,52.5,46.2,78.7c0.2,0.4,0.5,0.8,0.7,1.2c0.2,0.4-0.1,0.6-0.3,0.9
	c-0.3,0.3-0.6,0.3-0.9,0c-0.3-0.3-0.6-0.6-0.9-0.9c-14.9-14.4-29.8-28.8-44.8-43.2c-10.2-9.8-20.4-19.7-30.6-29.6
	c-0.7-0.7-1.4-1-2.4-0.9c-6.6,0.7-13.3,1.3-20,1.8c-0.9,0.1-1.3,0.3-1.1,1.2c0.1,0.3,0,0.6,0.1,0.9c0.8,6.5,1.6,13,2.4,19.5
	c0.1,0.7,0.4,1.1,1,1.5c1.7,1.1,3.4,2.3,5.1,3.4c27.5,18.5,54.9,36.9,82.4,55.4c0.3,0.2,0.7,0.5,1,0.7c0.4,0.2,0.4,0.6,0.2,0.9
	c-0.2,0.3-0.4,0.6-0.8,0.5c-0.4-0.1-0.8-0.2-1.2-0.4c-19.7-6.5-39.4-13-59.2-19.5c-9.6-3.2-19.3-6.4-28.9-9.6
	c-0.5-0.3-1.1-0.6-2.1-0.5c0.8,0.4,1.4,0.7,2,0.9c0.3,0.1,0.6,0.2,1,0.4c21.8,10.4,43.6,20.8,65.3,31.2c6,2.9,12,5.8,18.1,8.6
	c0.4,0.2,1.1,0.3,0.9,1.1c-0.2,0.9-0.9,0.5-1.4,0.5c-1.7-0.3-3.4-0.6-5.1-0.9c-10.9-1.9-21.8-3.8-32.8-5.7
	c-10.9-1.9-21.8-3.8-32.7-5.8c-10.9-1.9-21.8-3.8-32.7-5.8c-1.2-0.2-2.1-0.1-3,0.7c-4.7,3.9-9.5,7.8-14.3,11.7
	c-0.6,0.5-1.2,1-1.8,1.5c0.2,0.7,0.7,1.1,1.1,1.5c4.1,4.8,8.3,9.6,12.4,14.4c0.8,1,1.7,1.4,2.9,1.4c17.3-0.1,34.5-0.2,51.8-0.2
	c7.2,0,14.4,0,21.6,0c10.3,0,20.6,0,30.9,0c0.5,0,1,0,1.6,0c0.4,0,0.7,0.1,0.7,0.5c0,0.4,0,0.7-0.4,0.8c-0.4,0.1-0.9,0.3-1.3,0.4
	c-23.3,6.6-46.7,13.2-70,19.8c-6.4,1.8-12.7,3.5-19.1,5.3c-0.7,0-1.2,0.3-1.7,0.6C124.6,290.2,125.3,290.5,126,290.1z M255.8,422.3
	c0,1.2-0.3,2.4-0.7,3.5c-0.2,0.7-0.7,1.2-1.3,1.6c-1.2,0.7-2.9,0.5-3.3-0.7c-0.5-1.3-1.2-1.3-2.2-1.1c-0.5,0.1-1,0.1-1.6,0.1
	c-0.6,0.1-0.8,0.4-0.7,0.9c0.4,2.3,2.3,4.2,4.7,4.6c4.3,0.6,7.7-1.5,8.9-5.7c0.7-2.6,0.8-5.3,0.5-7.9c-0.2-1.7-0.4-3.4-1.2-4.9
	c-1.3-2.4-3.3-3.8-6.2-3.8c-2.8-0.1-5,1.1-6.3,3.5c-1.3,2.5-1.3,5.2,0,7.7c1.7,3.4,5.5,4.4,8.7,2.4
	C255.4,422.4,255.5,422.2,255.8,422.3z M272.9,422.1c-0.1,1.9-0.4,3.4-0.8,4.1c-0.6,0.9-1.3,1.6-2.5,1.6c-1.1,0-1.9-0.6-2.2-1.7
	c-0.1-0.4-0.3-0.8-0.8-0.7c-0.9,0.1-1.8,0.2-2.8,0.3c-0.5,0.1-0.7,0.3-0.6,0.8c0.3,2.3,2.2,4.3,4.6,4.6c4.3,0.7,7.8-1.4,8.9-5.6
	c0.8-2.7,0.9-5.5,0.5-8.3c-0.2-1.6-0.4-3.1-1.2-4.5c-1.4-2.7-3.9-4.1-7.2-3.9c-2.7,0.2-5,2-5.9,4.7c-0.6,1.9-0.6,3.9,0.1,5.8
	c1,2.7,3.6,4.4,6.4,4.1C270.9,423.4,271.8,422.8,272.9,422.1z M292.5,430.8c0-1.1,0-2.2,0-3.3c0-0.7,0.2-0.9,0.9-0.9
	c1.9-0.1,1.9-0.1,1.9-2c0-0.2,0-0.4,0-0.5c0.1-0.9-0.2-1.3-1.1-1.2c-0.1,0-0.1,0-0.2,0c-1.8,0.1-1.5-0.3-1.5-1.6c0-2.7,0-5.3,0-8
	c0-1.2,0-2.3,0-3.5c0-0.3,0.1-0.8-0.4-0.8c-1-0.1-2-0.1-2.9,0c-0.7,0.1-0.9,0.9-1.2,1.4c-2.5,3.6-4.9,7.2-7.4,10.7
	c-0.9,1.3-1.3,2.6-1.2,4.2c0.1,1.3,0,1.3,1.4,1.3c2,0,3.9,0,5.9,0c1.9,0,1.7-0.2,1.7,1.8c0,0.6,0,1.2,0,1.7c0,0.6,0.2,0.9,0.8,0.8
	C290.3,430.9,291.4,431.1,292.5,430.8z M235.4,415.3c0,0.8,0,1.4,0,2c0,3.7,0,7.3,0,11c0,2.8,0,2.8,2.7,2.7c1.7,0,1.5,0.1,1.5-1.6
	c0-6.3,0-12.5,0-18.8c0-0.5,0.1-1-0.1-1.5c-0.4-0.2-0.9-0.1-1.4-0.1c-1.3-0.2-2.2,0.1-2.7,1.5c-0.2,0.5-0.6,0.9-1,1.2
	c-1.1,1.1-2.3,1.9-3.7,2.5c-0.5,0.2-0.8,0.4-0.8,1c0.1,1-0.1,2.1,0.1,3.1C232,417.7,233.6,416.6,235.4,415.3z"/>
<path class="st3" d="M255.2,305.5c-11.3-1.9-20.7-7.3-28.1-16c-0.1-0.1-0.2-0.3-0.3-0.4c-0.8-0.9-0.8-0.9-1.8-0.3
	c-3.7,2.5-7.4,5-11.1,7.5c-25.3,17.2-50.6,34.4-75.9,51.6c-1.1,0.7-2,0.9-3.2,0.5c-6.1-1.7-12.3-3.4-18.5-5
	c-0.2-0.1-0.5-0.1-0.7-0.2c-0.8-0.1-0.9-0.6-0.7-1.4c0.9-2.8,1.7-5.5,2.5-8.3c1.1-3.6,2.2-7.1,3.2-10.7c0.3-1.2,0.9-1.8,2-2.3
	c28.3-12.6,56.6-25.3,84.9-37.9c3.5-1.6,7-3.1,10.5-4.7c0.3-0.1,0.5-0.2,0.8-0.4c0.3-0.2,1-0.2,0.8-0.9c-0.2-0.6-0.8-0.4-1.2-0.4
	c-3.6,0.5-7.1,1-10.7,1.6c-7.5,1.1-15,2.2-22.6,3.3c-8.3,1.2-16.5,2.5-24.8,3.7c-7.4,1.1-14.8,2.2-22.2,3.3c-4,0.6-8,1.2-12,1.8
	c-0.2-0.1-0.4-0.1-0.4-0.4c6.4-1.8,12.7-3.5,19.1-5.3c23.3-6.6,46.7-13.2,70-19.8c0.4-0.1,0.9-0.3,1.3-0.4c0.4-0.1,0.5-0.5,0.4-0.8
	c0-0.5-0.4-0.5-0.7-0.5c-0.5,0-1,0-1.6,0c-10.3,0-20.6,0-30.9,0c-7.2,0-14.4,0-21.6,0c-17.3,0.1-34.5,0.1-51.8,0.2
	c-1.3,0-2.1-0.4-2.9-1.4c-4.1-4.8-8.3-9.6-12.4-14.4c-0.4-0.4-0.9-0.8-1.1-1.5c0.6-0.5,1.2-1,1.8-1.5c4.8-3.9,9.6-7.8,14.3-11.7
	c0.9-0.8,1.8-0.9,3-0.7c10.9,2,21.8,3.9,32.7,5.8c10.9,1.9,21.8,3.8,32.7,5.8c10.9,1.9,21.8,3.8,32.8,5.7c1.7,0.3,3.4,0.6,5.1,0.9
	c0.5,0.1,1.2,0.4,1.4-0.5c0.2-0.8-0.5-0.9-0.9-1.1c-6-2.9-12-5.8-18.1-8.6c-21.8-10.4-43.6-20.8-65.3-31.2c-0.3-0.1-0.6-0.3-1-0.4
	c0-0.2,0.1-0.3,0.1-0.5c9.6,3.2,19.3,6.4,28.9,9.6c19.7,6.5,39.4,13,59.2,19.5c0.4,0.1,0.8,0.3,1.2,0.4c0.4,0.1,0.6-0.1,0.8-0.5
	c0.2-0.4,0.2-0.7-0.2-0.9c-0.3-0.2-0.7-0.5-1-0.7c-27.5-18.5-54.9-36.9-82.4-55.4c-1.7-1.1-3.4-2.3-5.1-3.4c-0.6-0.4-0.9-0.8-1-1.5
	c-0.8-6.5-1.6-13-2.4-19.5c0-0.3,0-0.6-0.1-0.9c-0.2-0.9,0.2-1.2,1.1-1.2c6.7-0.6,13.3-1.2,20-1.8c1.1-0.1,1.7,0.2,2.4,0.9
	c10.2,9.9,20.4,19.7,30.6,29.6c14.9,14.4,29.8,28.8,44.8,43.2c0.3,0.3,0.6,0.6,0.9,0.9c0.3,0.3,0.6,0.3,0.9,0
	c0.2-0.2,0.6-0.4,0.3-0.9c-0.2-0.4-0.5-0.8-0.7-1.2c-15.4-26.2-30.8-52.5-46.2-78.7c-0.4-0.6-0.7-1.2-1.1-1.8
	c0.1-0.1,0.2-0.2,0.2-0.2c10.8,13.9,21.5,27.9,32.3,41.8c8.2,10.6,16.4,21.1,24.5,31.7c0.3,0.4,0.7,0.8,1,1.2
	c0.4,0.5,0.8,0.4,1.2,0.2c0.5-0.3,0.4-0.6,0.2-1c-0.8-2-1.6-4-2.4-6c-12.4-30.6-24.8-61.2-37.3-91.8c-0.5-1.2-0.5-2.2,0.1-3.4
	c2.9-5.5,5.7-11,8.5-16.6c0.2-0.3,0.4-0.6,0.5-0.9c0.3-0.9,0.8-0.9,1.6-0.5c5.9,3.3,11.9,6.6,17.9,9.8c0.8,0.4,1,1,1.2,1.8
	c1.9,8.9,3.7,17.7,5.6,26.6c3.8,17.8,7.6,35.6,11.4,53.5c1.6,7.7,3.3,15.3,4.9,23c0.1,0.3,0.1,0.7,0.2,1c0.1,0.3,0.3,0.5,0.6,0.5
	c0.4,0,0.7,0,0.8-0.5c0.1-0.5,0.1-0.9,0.2-1.4c0.5-8.2,1-16.3,1.5-24.5c0.6-9.9,1.3-19.8,2-29.7c0.4-6.3,0.8-12.5,1.2-18.8
	c0.4-6.3,0.8-12.6,1.2-19c0-0.6,0.2-1.2,0.3-2.2c0.3,4.4,0.6,8.5,0.8,12.5c0.6,8.8,1.1,17.5,1.7,26.3c0.4,6.4,0.8,12.9,1.2,19.3
	c0.5,8.1,1.1,16.1,1.6,24.2c0.3,4.1,0.5,8.1,0.8,12.2c0,0.4,0,0.8,0.1,1.2c0.1,0.3,0.4,0.4,0.7,0.4c0.3,0,0.6,0,0.7-0.4
	c0.1-0.3,0.2-0.7,0.3-1c5.1-24.2,10.3-48.5,15.4-72.7c2.1-9.9,4.2-19.9,6.3-29.8c0.3-1.4,0.9-2.2,2.1-2.8c5.7-3,11.3-6.2,17-9.3
	c1.1-0.6,1.2-0.6,1.8,0.6c3.1,5.9,6.1,11.9,9.2,17.8c0.5,1,0.3,1.7,0,2.6c-8.2,20.3-16.5,40.5-24.7,60.8
	c-4.9,12.1-9.8,24.2-14.7,36.3c-0.2,0.4-0.3,0.8-0.4,1.1c-0.2,0.4-0.1,0.7,0.3,0.9c0.3,0.1,0.6,0.4,1,0.1c0.3-0.2,0.5-0.5,0.7-0.8
	c18.8-24.3,37.7-48.7,56.5-73c0.1-0.1,0.2-0.3,0.3-0.4c0.1,0.1,0.3,0.2,0.4,0.2c-4.7,7.9-9.3,15.8-14,23.7
	c-11,18.7-21.9,37.4-32.9,56c-0.2,0.4-0.4,0.7-0.6,1c-0.3,0.5-0.2,0.8,0.3,1.2c0.4,0.4,0.7,0.1,1-0.2c1.3-1.3,2.6-2.5,3.9-3.8
	c24-23.2,48-46.4,72.1-69.6c0.8-0.7,1.5-1.1,2.6-1c6.6,0.7,13.3,1.2,19.9,1.8c1.2,0.1,1.2,0.1,1,1.4c-0.8,6.5-1.6,12.9-2.3,19.4
	c-0.1,1.2-0.6,2.1-1.7,2.8c-29,19.4-57.9,38.9-86.9,58.4c-0.3,0.2-0.7,0.5-1,0.7c-0.4,0.2-0.4,0.5-0.2,0.9c0.2,0.3,0.4,0.6,0.8,0.5
	c0.4-0.1,0.8-0.2,1.2-0.4c27.3-9,54.5-18,81.8-27c1.7-0.6,3.4-1.1,5.1-1.7c0.2,0.1,0.5,0.2,0.5,0.4c-2.6,1.2-5.1,2.4-7.7,3.6
	c-25,12-50.1,23.9-75.1,35.9c-0.4,0.2-0.8,0.4-1.3,0.6c-0.5,0.2-0.5,0.6-0.3,1c0.1,0.5,0.5,0.4,0.8,0.3c1.4-0.2,2.9-0.5,4.3-0.7
	c18.5-3.3,37-6.5,55.6-9.8c14.8-2.6,29.6-5.2,44.4-7.9c0.9-0.2,1.6,0,2.4,0.6c5.1,4.2,10.2,8.4,15.4,12.6c1.1,0.9,1.1,0.9,0.2,2
	c-4.4,5.1-8.8,10.1-13.1,15.2c-0.6,0.7-1.2,0.9-2.1,0.9c-16.6-0.1-33.2-0.1-49.9-0.1c-7.1,0-14.3-0.1-21.4-0.1c-11.3,0-22.7,0-34,0
	c-0.5,0-1.4-0.5-1.6,0.5c-0.3,1.1,0.8,1,1.4,1.2c14.1,4,28.1,8,42.2,11.9c15.4,4.3,30.8,8.7,46.2,13c0.9,0.3,1.8,0.6,2.4,0.8
	c-0.7,0.1-1.8-0.2-2.8-0.3c-13.3-1.9-26.5-3.9-39.8-5.9c-14.5-2.2-29.1-4.3-43.6-6.5c-2.4-0.4-4.7-0.7-7.1-1c-0.5-0.1-1-0.1-1.6-0.1
	c-0.3,0-0.4,0.2-0.5,0.4c-0.1,0.2,0,0.5,0.2,0.6c0.5,0.2,0.9,0.5,1.4,0.7c22.1,9.9,44.3,19.8,66.4,29.7c9.6,4.3,19.3,8.6,28.9,12.9
	c1,0.4,1.6,1,1.9,2c1.8,6.4,3.8,12.7,5.7,19c0.1,0.4,0.2,0.8,0.3,1.2c-1.4,0.6-2.9,0.9-4.4,1.3c-5.3,1.4-10.5,2.8-15.8,4.3
	c-1.2,0.3-2,0.2-3-0.5c-28.8-19.6-57.6-39.2-86.5-58.7c-0.1-0.1-0.3-0.2-0.4-0.3c-1.3-0.9-1.1-0.9-2.2,0.3
	c-7,8.3-15.8,13.7-26.5,15.9c-0.6,0.1-1.1,0.2-1.7,0.3c-0.5-0.1-0.9-0.5-1.3-0.9c-1.8-1.5-3.5-3-5.3-4.5c-0.7-0.6-1.2-0.7-1.9,0
	c-0.9,0.9-1.8,1.6-2.8,2.4C257.7,303.4,256.6,304.7,255.2,305.5z"/>
<path class="st4" d="M255.2,305.5c1.5-0.8,2.5-2,3.8-3c1-0.7,1.9-1.5,2.8-2.4c0.7-0.7,1.2-0.6,1.9,0c1.7,1.5,3.5,3,5.3,4.5
	c0.4,0.3,0.8,0.7,1.3,0.9c0.2,0.6,0.7,0.9,1.1,1.3c12.5,10.7,25,21.4,37.5,32.1c14.9,12.7,29.8,25.4,44.6,38.2
	c6.4,5.4,12.7,10.9,19.1,16.3c0.1,0.1,0.2,0.2,0.3,0.4c-1.4,0.4-87.5,0.6-94.4,0.2c6.2-6.5,8.5-13.9,6.3-22.5
	c-1.4-5.4-4.4-9.7-9-12.9c-9.2-6.4-21.4-5.2-29.4,2.6c-7,6.9-10.5,21.3,0.4,32.8c-31.4,0-62.8,0-94.1,0c-0.1-0.6,0.4-0.7,0.7-1
	c8.2-7.1,16.5-14.1,24.8-21.2c10.9-9.3,21.7-18.6,32.6-27.9c12.5-10.6,24.9-21.3,37.4-31.9c1.9-1.7,3.9-3.3,5.8-5
	C254.3,306.4,254.9,306.1,255.2,305.5z"/>
<path class="st1" d="M255.8,422.3c-0.3-0.1-0.5,0.1-0.7,0.2c-3.2,2-7,1-8.7-2.4c-1.3-2.5-1.3-5.2,0-7.7c1.3-2.5,3.5-3.6,6.3-3.5
	c2.8,0.1,4.9,1.4,6.2,3.8c0.8,1.5,1.1,3.2,1.2,4.9c0.3,2.7,0.2,5.3-0.5,7.9c-1.1,4.2-4.6,6.4-8.9,5.7c-2.4-0.4-4.3-2.3-4.7-4.6
	c-0.1-0.6,0.1-0.9,0.7-0.9c0.5,0,1.1,0,1.6-0.1c1.1-0.2,1.8-0.2,2.2,1.1c0.4,1.2,2.1,1.5,3.3,0.7c0.6-0.4,1-0.9,1.3-1.6
	C255.6,424.7,255.8,423.5,255.8,422.3z M255.6,416.8c0-1.4-0.3-2.6-1.2-3.5c-1.4-1.4-3.4-1.1-4.2,0.7c-0.7,1.6-0.6,3.3,0.1,4.9
	c0.4,1,1.3,1.5,2.3,1.5c1.1,0,1.9-0.5,2.4-1.4C255.5,418.2,255.6,417.4,255.6,416.8z"/>
<path class="st1" d="M272.9,422.1c-1.1,0.7-2.1,1.4-3.3,1.4c-2.8,0.2-5.4-1.4-6.4-4.1c-0.7-1.9-0.7-3.9-0.1-5.8
	c0.8-2.7,3.2-4.5,5.9-4.7c3.3-0.2,5.8,1.2,7.2,3.9c0.7,1.4,1,3,1.2,4.5c0.3,2.8,0.2,5.6-0.5,8.3c-1.2,4.2-4.6,6.3-8.9,5.6
	c-2.4-0.4-4.3-2.4-4.6-4.6c-0.1-0.5,0.1-0.8,0.6-0.8c0.9-0.1,1.8-0.2,2.8-0.3c0.5-0.1,0.7,0.3,0.8,0.7c0.3,1.1,1,1.6,2.2,1.7
	c1.2,0,2-0.6,2.5-1.6C272.6,425.5,272.9,424,272.9,422.1z M272.7,416.7c0-1.3-0.2-2.5-1.1-3.4c-1.4-1.5-3.5-1.1-4.2,0.7
	c-0.6,1.5-0.6,3.2,0,4.7c0.4,1.1,1.3,1.6,2.4,1.7c1.2,0,2-0.6,2.5-1.6C272.6,418.2,272.7,417.4,272.7,416.7z"/>
<path class="st1" d="M292.5,430.8c-1.2,0.3-2.3,0.1-3.4,0.2c-0.6,0-0.8-0.3-0.8-0.8c0-0.6,0-1.2,0-1.7c0-2,0.2-1.8-1.7-1.8
	c-2,0-3.9,0-5.9,0c-1.3,0-1.3,0-1.4-1.3c-0.1-1.6,0.3-2.9,1.2-4.2c2.5-3.5,4.9-7.2,7.4-10.7c0.4-0.5,0.5-1.3,1.2-1.4
	c1-0.1,2-0.1,2.9,0c0.5,0,0.4,0.5,0.4,0.8c0,1.2,0,2.3,0,3.5c0,2.7,0,5.3,0,8c0,1.3-0.3,1.7,1.5,1.6c0.1,0,0.1,0,0.2,0
	c1-0.1,1.2,0.3,1.1,1.2c0,0.2,0,0.3,0,0.5c0,1.9,0,1.9-1.9,2c-0.7,0-0.9,0.3-0.9,0.9C292.6,428.6,292.5,429.7,292.5,430.8z
	 M283.4,422.8c1.7,0,2.9,0,4.1,0c0.5,0,0.8-0.1,0.8-0.6c0-2,0-4.1,0-6.1c-0.1,0-0.2,0-0.3-0.1C286.6,418.1,285.1,420.3,283.4,422.8z
	"/>
<path class="st1" d="M235.4,415.3c-1.8,1.2-3.3,2.4-5.3,2.9c-0.3-1.1-0.1-2.1-0.1-3.1c0-0.6,0.3-0.8,0.8-1c1.4-0.6,2.6-1.5,3.7-2.5
	c0.4-0.4,0.8-0.8,1-1.2c0.5-1.4,1.5-1.6,2.7-1.5c0.5,0.1,0.9-0.1,1.4,0.1c0.3,0.5,0.1,1,0.1,1.5c0,6.3,0,12.5,0,18.8
	c0,1.7,0.2,1.6-1.5,1.6c-2.7,0-2.7,0-2.7-2.7c0-3.7,0-7.3,0-11C235.4,416.7,235.4,416.2,235.4,415.3z"/>
<path class="st0" d="M392.2,208.7c-0.1-0.3-0.3-0.3-0.5-0.4c1-0.6,2.2-0.8,3.6-1.2C394.2,208,393.2,208.3,392.2,208.7z"/>
<path class="st0" d="M341.6,144.1c-0.1-0.1-0.3-0.2-0.4-0.2c0.4-0.6,0.7-1.3,1.6-2C342.4,142.9,342.1,143.5,341.6,144.1z"/>
<path class="st0" d="M125.6,289.7c0,0.3,0.3,0.3,0.4,0.4c-0.7,0.5-1.4,0.2-2.1,0.2C124.4,289.9,124.9,289.6,125.6,289.7z"/>
<path class="st0" d="M132.3,207.9c0,0.2-0.1,0.3-0.1,0.5c-0.6-0.3-1.1-0.5-2-0.9C131.2,207.3,131.8,207.6,132.3,207.9z"/>
<path class="st0" d="M183.6,143.1c-0.1,0.1-0.2,0.2-0.2,0.2c-0.4-0.2-0.5-0.5-0.5-1C183.3,142.5,183.5,142.8,183.6,143.1z"/>
<path class="st2" d="M255.6,416.8c0,0.6-0.1,1.4-0.5,2.2c-0.5,0.9-1.3,1.5-2.4,1.4c-1.1,0-1.9-0.5-2.3-1.5c-0.7-1.6-0.7-3.3-0.1-4.9
	c0.7-1.8,2.8-2.1,4.2-0.7C255.3,414.2,255.5,415.4,255.6,416.8z"/>
<path class="st2" d="M272.7,416.7c0,0.7-0.1,1.5-0.4,2.1c-0.5,1-1.3,1.6-2.5,1.6c-1.2,0-2-0.6-2.4-1.7c-0.6-1.6-0.7-3.2,0-4.7
	c0.7-1.8,2.9-2.2,4.2-0.7C272.4,414.2,272.7,415.4,272.7,416.7z"/>
<path class="st2" d="M283.4,422.8c1.7-2.5,3.1-4.7,4.6-6.8c0.1,0,0.2,0,0.3,0.1c0,2,0,4.1,0,6.1c0,0.5-0.3,0.6-0.8,0.6
	C286.4,422.8,285.1,422.8,283.4,422.8z"/>
</svg>
