<svg version="1.1" xmlns="http://www.w3.org/2000/svg" xmlns:xlink="http://www.w3.org/1999/xlink" x="0px" y="0px" viewBox="0 0 500 500" style="enable-background:new 0 0 500 500;" xml:space="preserve">
	<style type="text/css">
	.st0{fill:none;stroke:#0F0F0F;stroke-width:30.1421;stroke-linecap:round;stroke-linejoin:round;stroke-miterlimit:10;}
	</style>
	<path class="st0" d="M132.2,160.6V29.9c0-7.9-6.4-14.4-14.4-14.4H72.4c-7.9,0-14.4,6.4-14.4,14.4v440.3c0,7.9,6.4,14.4,14.4,14.4
	h45.4c7.9,0,14.4-6.4,14.4-14.4V249.8c0-7.6,3-14.9,8.4-20.3L343.5,26.6c6.6-6.6,15.5-10.3,24.8-10.3h51.6
	c12.8,0,19.2,15.5,10.1,24.5L211.4,259.4c-13.1,13.1-13.7,34-1.5,47.9l145.5,165.3c6.6,7.6,16.2,11.9,26.3,11.9h45.8
	c12.4,0,18.9-14.6,10.8-23.8L278.1,279"/>
</svg>