<?xml version="1.0" encoding="utf-8"?>
<!-- Generator: Adobe Illustrator 21.1.0, SVG Export Plug-In . SVG Version: 6.00 Build 0)  -->
<svg version="1.1" id="Guides" xmlns="http://www.w3.org/2000/svg" xmlns:xlink="http://www.w3.org/1999/xlink" x="0px" y="0px"
	 viewBox="0 0 600 600" style="enable-background:new 0 0 600 600;" xml:space="preserve">
<style type="text/css">
	.st0{fill:#BA6304;}
</style>
<g>
	<g>
		<g>
			<path class="st0" d="M28.4,296.8c-8.6-1-15.5-4.4-20.6-10.1C2.6,281,0,273.9,0,265.5c0-4.3,0.8-8.4,2.4-12.2
				c1.6-3.8,4-7.2,7.2-10.2c3.3-3.2,7-5.6,10.9-7.1c3.9-1.6,8.2-2.4,12.8-2.4c3.6,0,7,0.5,10.2,1.4c3.3,0.9,6.3,2.3,9,4.1
				c4.1,2.6,7.3,6.3,9.8,10.9c2.4,4.6,3.6,9.4,3.6,14.4c0,6.3-1.9,12.2-5.7,17.6c-3.8,5.4-8.9,9.5-15.2,12.1
				c-2.1,0.9-5.5,1.9-10.4,3c-4.9,1.1-8.4,2.6-10.3,4.3h1.6c2.3,0,4.5,0.2,6.6,0.5c2.1,0.3,4.3,0.8,6.4,1.5c1.5,0.5,4.5,1.7,8.9,3.6
				c4.4,1.9,7.9,2.9,10.4,2.9c1.6,0,3.1-0.3,4.4-1c1.3-0.7,2.5-1.8,3.6-3.2c0.5-0.6,0.9-1.1,1.2-1.4c0.3-0.3,0.6-0.4,0.9-0.4
				c0.3,0,0.5,0.1,0.6,0.4c0.2,0.2,0.2,0.5,0.2,0.9c0,3.7-1.4,7-4.2,9.8c-2.8,2.8-6.1,4.2-10.1,4.2c-3.9,0-8.2-2.1-13-6.2
				c-0.4-0.3-0.6-0.5-0.7-0.6c-4-3.4-7.2-5.8-9.5-7c-2.3-1.2-4.5-1.9-6.6-1.9c-2.3,0-4.6,0.9-7,2.6c-2.3,1.7-3.7,2.6-4.2,2.6
				c-0.5,0-0.9-0.1-1.2-0.4c-0.3-0.3-0.5-0.6-0.5-1c0-0.7,0.3-1.3,0.8-1.8c0.5-0.5,1.6-1.1,3.2-1.8c2-0.9,4.3-2.1,6.9-3.7
				C25.8,298.1,27.5,297.1,28.4,296.8z M11.2,265.2c0,9.3,1.9,16.5,5.7,21.8c3.8,5.3,9,7.9,15.7,7.9c6.7,0,12.1-2.7,16.2-8.1
				c4.1-5.4,6.2-12.6,6.2-21.6c0-9-2-16.2-5.9-21.7c-3.9-5.5-9-8.2-15.3-8.2c-6.9,0-12.4,2.7-16.5,8.1
				C13.3,248.8,11.2,256.1,11.2,265.2z"/>
			<path class="st0" d="M112.3,244.7c0-2.3-0.2-3.9-0.7-4.9c-0.4-1-1.2-1.7-2.3-2.3c-0.4-0.2-0.9-0.3-1.5-0.4
				c-0.6-0.1-1.2-0.2-1.9-0.3c-0.1,0-0.1,0-0.3,0c-1.4-0.2-2.2-0.5-2.2-1c0-0.3,0.1-0.5,0.4-0.6c0.3-0.2,0.7-0.2,1.3-0.2
				c0.2,0,0.7,0,1.5,0c3.5,0.2,7,0.3,10.3,0.3c3.6,0,7.2-0.1,10.8-0.3c0.6,0,1,0,1.1,0c0.5,0,0.9,0.1,1.1,0.2
				c0.3,0.1,0.4,0.3,0.4,0.6c0,0.4-0.6,0.8-1.8,1c-0.1,0-0.3,0.1-0.4,0.1c-0.4,0-0.8,0-1.3,0.1c-0.5,0.1-1,0.2-1.6,0.3
				c-1.4,0.4-2.3,1.1-2.9,2.2c-0.6,1.1-0.8,2.8-0.8,5.2v31.7c0,6,1.3,10.4,4,13.1c2.7,2.8,6.9,4.2,12.5,4.2c6.7,0,11.6-1.7,14.8-5
				c3.2-3.4,4.7-8.6,4.7-15.8v-28.3c0-2.3-0.2-3.9-0.7-4.9c-0.4-1-1.2-1.7-2.3-2.3c-0.4-0.2-0.9-0.3-1.5-0.4
				c-0.6-0.1-1.2-0.2-1.9-0.3c-0.1,0-0.1,0-0.3,0c-1.4-0.2-2.2-0.5-2.2-1c0-0.3,0.2-0.5,0.5-0.6c0.3-0.2,0.7-0.2,1.3-0.2
				c0.4,0,1.6,0.1,3.6,0.2c2,0.1,3.7,0.2,5.2,0.2c1.4,0,3-0.1,4.8-0.2c1.8-0.1,2.8-0.2,3.2-0.2c0.5,0,0.9,0.1,1.2,0.2
				c0.3,0.1,0.4,0.3,0.4,0.6c0,0.4-0.6,0.8-1.8,1c-0.1,0-0.3,0.1-0.4,0.1c-0.4,0-0.9,0-1.3,0.1c-0.5,0.1-1,0.2-1.6,0.3
				c-1.4,0.4-2.3,1.1-2.8,2.1c-0.5,1.1-0.8,2.8-0.8,5.3v26c0,9.5-1.9,16.3-5.7,20.3c-3.8,4-10.2,6-19.1,6c-7.7,0-13.5-1.6-17.3-4.8
				c-3.8-3.2-5.7-8.1-5.7-14.5V244.7z"/>
			<path class="st0" d="M225.9,285.4c0,2.3,0.2,4,0.7,5c0.5,1,1.3,1.8,2.5,2.3c0.6,0.2,1.2,0.4,1.8,0.6c0.6,0.1,1.4,0.2,2.2,0.3
				c0.1,0,0.1,0,0.2,0c1.5,0.2,2.2,0.6,2.2,1.1c0,0.3-0.2,0.5-0.5,0.7c-0.3,0.2-0.7,0.3-1.3,0.3c-0.1,0-0.5,0-1.2,0
				c-3.8-0.3-7.6-0.4-11.4-0.4c-3.8,0-7.6,0.1-11.4,0.4c-0.6,0-1,0-1.2,0c-0.6,0-1-0.1-1.3-0.3c-0.3-0.2-0.5-0.4-0.5-0.7
				c0-0.6,0.8-1,2.3-1.2c0.1,0,0.1,0,0.2,0c0,0,0.1,0,0.1,0c1.7-0.1,3-0.4,3.8-0.8c1.2-0.6,2.1-1.3,2.6-2.3c0.5-1,0.7-2.7,0.7-5
				v-40.7c0-2.3-0.2-3.9-0.7-4.9c-0.4-1-1.2-1.7-2.3-2.3c-0.4-0.2-1-0.3-1.6-0.4c-0.6-0.1-1.4-0.2-2.3-0.3c-0.1,0-0.2,0-0.3,0
				c-1.7-0.2-2.6-0.5-2.6-1c0-0.2,0.3-0.4,0.8-0.6c0.6-0.2,1.1-0.3,1.8-0.3c0.2,0,0.7,0,1.5,0c3.6,0.2,7,0.3,10.3,0.3
				c3.6,0,7.2-0.1,10.8-0.3c0.6,0,1,0,1.1,0c0.6,0,1.2,0.1,1.7,0.2c0.5,0.1,0.7,0.3,0.7,0.6c0,0.4-0.7,0.8-2.1,1
				c-0.2,0-0.4,0.1-0.5,0.1c-0.6,0-1.2,0-1.8,0.1c-0.5,0.1-1.1,0.2-1.6,0.3c-1.4,0.4-2.3,1.1-2.9,2.2c-0.6,1.1-0.8,2.8-0.8,5.2
				V285.4z"/>
			<path class="st0" d="M286.1,283.9c0,2.8,0.3,4.8,0.8,6s1.5,2.2,3,3c0.4,0.2,0.9,0.3,1.4,0.4c0.5,0.1,1,0.2,1.6,0.3
				c0,0,0.1,0,0.1,0c1.1,0.2,1.7,0.6,1.7,1.1c0,0.3-0.2,0.6-0.5,0.7c-0.3,0.2-0.8,0.2-1.4,0.2c-0.2,0-0.6,0-1.4-0.1
				c-2.5-0.2-4.8-0.3-7-0.3c-1,0-2.3,0-4,0.1c-1.6,0.1-2.8,0.1-3.4,0.1c-0.7,0-1.2-0.1-1.6-0.3c-0.4-0.2-0.6-0.4-0.6-0.7
				c0-0.3,0.2-0.6,0.6-0.7c0.4-0.2,0.9-0.3,1.6-0.3c0.1,0,0.4-0.1,0.7-0.2c1.2-0.3,2.1-0.6,2.6-0.9c1.1-0.6,1.9-1.6,2.4-2.7
				c0.4-1.2,0.7-3.1,0.7-5.9v-42.2c-0.8-1.2-1.6-2.1-2.4-2.8c-0.9-0.7-1.9-1.2-3.2-1.6c-0.4-0.1-0.9-0.2-1.6-0.3c-0.1,0-0.2,0-0.3,0
				c0,0-0.1,0-0.2,0c-1.3-0.2-1.9-0.5-1.9-1.1c0-0.3,0.2-0.5,0.6-0.7c0.4-0.1,1-0.2,1.9-0.2c0.3,0,1.1,0.1,2.6,0.2
				c1.5,0.1,2.8,0.2,4,0.2c0.3,0,0.7,0,1.3,0c0.6,0,1.1,0,1.4,0c0.1,0,0.5-0.1,1.1-0.2c0.6-0.1,1-0.1,1.4-0.1c0.6,0,1.1,0.1,1.7,0.4
				c0.5,0.3,1,0.7,1.4,1.3l37,46.3v-37.1c0-3.3-0.6-5.7-1.8-7.1c-1.2-1.4-3.1-2.1-5.8-2.1c-0.2,0-0.5-0.1-0.7-0.3
				c-0.2-0.2-0.3-0.4-0.3-0.6c0-0.3,0.1-0.5,0.4-0.6c0.3-0.2,0.6-0.2,1.1-0.2c0.6,0,1.9,0.1,4,0.2c2.1,0.1,3.9,0.2,5.5,0.2
				c0.9,0,1.7,0,2.6,0c0.8,0,1.7-0.1,2.7-0.1c0.1,0,0.2,0,0.4,0c0.8-0.1,1.4-0.1,1.7-0.1c0.5,0,0.9,0.1,1.1,0.2
				c0.3,0.2,0.4,0.4,0.4,0.6c0,0.4-0.6,0.8-1.9,1.1l-0.1,0h-0.1c-1.4,0.3-2.5,0.6-3.2,0.9c-1.1,0.6-1.9,1.5-2.4,2.6
				c-0.4,1.1-0.7,3-0.7,5.6v48.4c0,1.1-0.1,1.8-0.3,2.2c-0.2,0.4-0.6,0.6-1.1,0.6c-0.5,0-0.9-0.1-1.3-0.4c-0.4-0.3-1-0.9-1.7-1.7
				l-40.4-50.3V283.9z"/>
			<path class="st0" d="M409.8,285.4c0,2.4,0.2,4,0.7,5c0.5,1,1.3,1.8,2.6,2.3c0.9,0.4,2.1,0.6,3.8,0.8c0.1,0,0.1,0,0.1,0
				c0,0,0.1,0,0.2,0c1.6,0.2,2.3,0.6,2.3,1.2c0,0.3-0.2,0.5-0.5,0.7c-0.3,0.2-0.8,0.3-1.3,0.3c-0.1,0-0.5,0-1.1,0
				c-3.8-0.3-7.6-0.4-11.6-0.4c-3.9,0-7.8,0.1-11.6,0.4c-0.6,0-0.9,0-1.1,0c-0.6,0-1-0.1-1.3-0.3c-0.3-0.2-0.4-0.4-0.4-0.7
				c0-0.6,0.8-1,2.3-1.2c0.1,0,0.1,0,0.2,0c0,0,0.1,0,0.1,0c1.7-0.1,3-0.4,3.8-0.8c1.2-0.5,2.1-1.3,2.6-2.3c0.5-1,0.7-2.7,0.7-5
				v-45.6c0-1.1-0.3-1.8-0.9-2.2c-0.6-0.4-2-0.6-4.2-0.6h-3.6c-5,0-8.5,0.3-10.4,0.8c-2,0.5-3.4,1.5-4.4,2.8
				c-0.7,1.1-1.3,2.6-1.5,4.6c-0.3,2-0.6,3-1.1,3c-0.3,0-0.5-0.1-0.6-0.3c-0.1-0.2-0.2-0.6-0.2-1.2v-10.2c0-0.8,0.2-1.3,0.6-1.6
				c0.4-0.3,1.1-0.4,2.1-0.4c0.2,0,1,0,2.3,0c8.6,0.4,17.6,0.6,26.8,0.6c9.2,0,18.2-0.2,26.8-0.6c1.3,0,2.1,0,2.3,0
				c1,0,1.7,0.1,2,0.4c0.3,0.3,0.5,0.8,0.5,1.7v10.2c0,0.7-0.1,1.1-0.2,1.3c-0.1,0.2-0.3,0.2-0.6,0.2c-0.4,0-0.8-1-1.1-3
				c-0.3-2-0.9-3.5-1.6-4.6c-0.9-1.4-2.3-2.3-4.3-2.8c-2-0.5-6.1-0.8-12.5-0.8h-1.5c-2.3,0-3.7,0.2-4.3,0.6
				c-0.6,0.4-0.9,1.1-0.9,2.2V285.4z"/>
			<path class="st0" d="M482,273.4l-4,10c-0.4,0.9-0.7,1.9-0.9,2.8c-0.2,0.9-0.3,1.7-0.3,2.4c0,1.1,0.2,2.1,0.7,2.8
				c0.5,0.7,1.2,1.3,2.3,1.7c0.6,0.2,1,0.3,1.3,0.4c0.3,0.1,0.5,0.1,0.7,0.1c0.8,0.1,1.3,0.3,1.5,0.5c0.2,0.2,0.4,0.5,0.4,0.8
				c0,0.2-0.1,0.4-0.4,0.6c-0.3,0.1-0.7,0.2-1.3,0.2c-0.1,0-1.2-0.1-3-0.3c-1.9-0.2-3.7-0.3-5.4-0.3c-1.3,0-2.8,0.1-4.5,0.2
				c-1.7,0.1-2.7,0.2-3.1,0.2c-0.7,0-1.3-0.1-1.7-0.2c-0.4-0.2-0.6-0.4-0.6-0.8c0-0.3,0.1-0.5,0.4-0.6c0.2-0.2,0.7-0.3,1.5-0.4
				c0.8-0.1,1.5-0.3,2-0.5c0.5-0.2,1.1-0.4,1.6-0.7c1-0.5,2-1.4,2.9-2.8c0.9-1.4,2-3.5,3.2-6.4l20.2-48.1c0.2-0.6,0.5-1.1,0.7-1.3
				c0.2-0.3,0.5-0.4,0.9-0.4c0.3,0,0.6,0.1,0.9,0.4c0.3,0.3,0.5,0.8,0.8,1.5l20,50.3c0.9,2.2,1.7,3.9,2.6,4.9
				c0.8,1.1,1.8,1.9,2.8,2.3c0.4,0.2,0.8,0.3,1.3,0.4c0.5,0.1,1,0.2,1.6,0.3c0.9,0.1,1.4,0.3,1.7,0.4c0.3,0.2,0.4,0.4,0.4,0.7
				c0,0.3-0.2,0.5-0.5,0.6c-0.3,0.2-0.8,0.2-1.3,0.2c-0.7,0-2.3-0.1-4.9-0.2c-2.6-0.1-4.8-0.2-6.6-0.2c-1.2,0-3,0.1-5.4,0.3
				c-2.4,0.2-4.3,0.3-5.5,0.3c-0.8,0-1.3-0.1-1.7-0.2c-0.4-0.2-0.6-0.4-0.6-0.7c0-0.3,0.2-0.5,0.5-0.7c0.4-0.2,1.1-0.4,2.1-0.6
				c1.7-0.2,3-0.5,3.8-1c0.8-0.5,1.2-1.2,1.2-2.2c0-0.6-0.1-1.5-0.4-2.6c-0.2-1.1-0.6-2.1-1-3.2l-4.2-11H482z M483,270.8h21
				l-10.1-26.1L483,270.8z"/>
			<path class="st0" d="M559.4,279c0-0.8,0.1-1.3,0.2-1.5c0.1-0.2,0.4-0.3,0.8-0.3c0.7,0,1.2,0.9,1.5,2.7c0.3,1.4,0.6,2.6,0.9,3.5
				c1.4,3.6,3.4,6.5,6.1,8.5c2.7,2,5.9,3,9.5,3c4.1,0,7.3-1.1,9.7-3.3c2.3-2.2,3.5-5.2,3.5-9c0-1.4-0.2-2.8-0.6-4
				c-0.4-1.2-1-2.4-1.8-3.4c-1.9-2.4-6.3-5-13.3-7.9c-1.2-0.5-2.1-0.8-2.6-1.1c-3.9-1.6-7-3.9-9.1-6.8c-2.1-2.9-3.2-6.1-3.2-9.7
				c0-4.7,1.7-8.6,5.1-11.6c3.4-3,7.7-4.6,12.9-4.6c3.6,0,7.3,1,11.1,3.1c1.1,0.6,1.8,0.9,2.1,0.9c0.6,0,1.1-0.6,1.5-1.7
				c0.4-1.1,0.9-1.7,1.3-1.7c0.4,0,0.6,0.2,0.9,0.6c0.2,0.4,0.3,0.8,0.3,1.4c0,0.3,0,1.1-0.1,2.4c-0.1,1.3-0.1,2.5-0.1,3.6
				c0,0.6,0,1.5,0.1,2.7c0.1,1.2,0.1,2.2,0.1,2.8c0,1.1-0.1,1.7-0.2,2c-0.1,0.3-0.4,0.5-0.8,0.5c-0.7,0-1.3-0.8-1.7-2.3
				c-0.4-1.4-0.8-2.5-1.1-3.3c-1.3-2.9-3.1-5.1-5.3-6.6c-2.2-1.5-4.8-2.3-7.7-2.3c-3.4,0-6.2,0.9-8.3,2.8c-2.1,1.9-3.1,4.4-3.1,7.4
				c0,4.4,4.3,8.4,13,12.3c0.4,0.2,0.6,0.3,0.8,0.4c6.9,3.1,11.7,6.2,14.4,9.2c2.7,3.1,4,6.9,4,11.4c0,5.2-2,9.5-6.1,13
				c-4.1,3.4-9.2,5.1-15.4,5.1c-4.5,0-9-1.3-13.5-3.9c-1.1-0.7-1.9-1-2.2-1c-0.4,0-0.9,0.5-1.3,1.4c-0.5,0.9-0.9,1.4-1.3,1.4
				c-0.3,0-0.6-0.1-0.7-0.3c-0.1-0.2-0.2-0.5-0.2-1c0,0,0.1-0.8,0.2-2.3c0.2-1.5,0.2-3,0.2-4.5c0-1.2,0-2.7-0.1-4.4
				C559.5,280.7,559.4,279.6,559.4,279z"/>
		</g>
	</g>
	<g>
		<g>
			<path class="st0" d="M164.2,360.6v-24.1c0-0.9-0.1-1.6-0.3-2c-0.2-0.4-0.5-0.7-0.9-0.9c-0.2-0.1-0.4-0.1-0.6-0.2
				c-0.2,0-0.5-0.1-0.8-0.1c0,0-0.1,0-0.1,0c-0.6-0.1-0.9-0.2-0.9-0.4c0-0.1,0.1-0.2,0.2-0.3c0.1-0.1,0.3-0.1,0.5-0.1
				c0.1,0,0.3,0,0.6,0c1.4,0.1,2.8,0.1,4.1,0.1c1.5,0,2.9,0,4.3-0.1c0.2,0,0.4,0,0.4,0c0.2,0,0.4,0,0.5,0.1c0.1,0.1,0.2,0.1,0.2,0.2
				c0,0.2-0.2,0.3-0.7,0.4c-0.1,0-0.1,0-0.2,0c-0.2,0-0.3,0-0.5,0c-0.2,0-0.4,0.1-0.7,0.1c-0.5,0.1-0.9,0.4-1.1,0.9
				c-0.2,0.4-0.3,1.1-0.3,2.1v21.8c0,1.5-0.1,2.6-0.2,3.3c-0.2,0.7-0.4,1.4-0.7,1.9c-0.7,1.1-1.6,1.9-2.8,2.4
				c-1.2,0.5-2.6,0.8-4.4,0.8c-1.6,0-2.9-0.3-3.9-0.8c-1-0.5-1.4-1.2-1.4-2.1c0-0.4,0.1-0.7,0.4-1c0.3-0.3,0.6-0.4,1.1-0.4
				c0.3,0,0.6,0.1,0.9,0.3c0.3,0.2,0.5,0.4,0.6,0.8c0.4,1,0.8,1.6,1.2,1.9c0.4,0.3,0.9,0.4,1.6,0.4c1.4,0,2.4-0.4,3-1.1
				C163.9,364,164.2,362.6,164.2,360.6z"/>
			<path class="st0" d="M200.9,350.7c0,2.4,0.3,3.9,1,4.4c0.7,0.6,2.1,0.9,4.3,0.9c1.8,0,3.1-0.2,4-0.5c0.9-0.3,1.6-0.9,2.1-1.7
				c0.3-0.4,0.5-1,0.6-1.6c0.1-0.6,0.3-0.9,0.5-0.9c0.2,0,0.3,0.1,0.3,0.2c0.1,0.1,0.1,0.4,0.1,0.9c0,0.4,0,1-0.1,1.8
				c0,0.8-0.1,1.4-0.1,1.9c0,0.5-0.1,0.8-0.2,0.9c-0.1,0.1-0.5,0.1-1,0.1c-0.1,0-0.5,0-1,0c-4-0.1-8.1-0.2-12.4-0.2
				c-1.5,0-2.9,0.1-4.3,0.2c-0.2,0-0.4,0-0.4,0c-0.2,0-0.4,0-0.5-0.1c-0.1-0.1-0.2-0.2-0.2-0.3c0-0.2,0.3-0.4,0.9-0.5
				c0,0,0.1,0,0.1,0c0.3,0,0.6-0.1,0.8-0.1c0.2-0.1,0.4-0.1,0.6-0.2c0.4-0.2,0.8-0.5,0.9-0.9c0.2-0.4,0.2-1.1,0.2-2v-16.3
				c0-0.9-0.1-1.6-0.3-2c-0.2-0.4-0.5-0.7-0.9-0.9c-0.2-0.1-0.4-0.1-0.6-0.2c-0.2,0-0.5-0.1-0.8-0.1c0,0-0.1,0-0.1,0
				c-0.6-0.1-0.9-0.2-0.9-0.4c0-0.1,0.1-0.2,0.2-0.3c0.1-0.1,0.3-0.1,0.5-0.1c0.1,0,0.2,0,0.5,0c1.7,0.1,3.4,0.1,5.2,0.1
				c0.8,0,2.2,0,4.2-0.1c2,0,3.6-0.1,4.8-0.1h0.8c1,0,1.6,0.1,1.8,0.2c0.2,0.1,0.4,0.3,0.4,0.7c0,0,0,0.3-0.1,0.7
				c0,0.4-0.1,0.8-0.1,1.2c0,0.3,0,0.7,0.1,1.1c0,0.4,0.1,0.7,0.1,0.7c0,0.2,0,0.4-0.1,0.5c-0.1,0.1-0.2,0.1-0.3,0.1
				c-0.2,0-0.4-0.3-0.5-1c-0.1-0.6-0.3-1.2-0.5-1.5c-0.4-0.7-1.1-1.2-2-1.5c-0.9-0.3-2.4-0.4-4.6-0.4h-0.3c-1.3,0-2.1,0.1-2.4,0.3
				c-0.2,0.2-0.4,0.8-0.4,1.7v8.3c1.7-0.1,2.9-0.3,3.6-0.5c0.7-0.3,1.3-0.8,1.7-1.4c0.2-0.4,0.4-1,0.6-1.7c0.1-0.7,0.3-1.1,0.5-1.1
				c0.1,0,0.2,0.1,0.3,0.2c0.1,0.1,0.1,0.3,0.1,0.5c0,0.2,0,0.7-0.1,1.5c-0.1,0.9-0.1,1.6-0.1,2.4c0,1,0,2,0.1,3
				c0.1,1,0.1,1.6,0.1,1.6c0,0.2,0,0.4-0.1,0.5c-0.1,0.1-0.2,0.2-0.3,0.2c-0.2,0-0.3-0.3-0.4-0.8c-0.1-0.5-0.3-0.9-0.4-1.3
				c-0.4-0.8-0.9-1.3-1.7-1.6c-0.7-0.3-1.9-0.5-3.3-0.5h-0.7V350.7z"/>
			<path class="st0" d="M246.7,352.6l5.6-18.7c0.2-0.6,0.3-1,0.5-1.2c0.1-0.2,0.3-0.3,0.5-0.3c0.4,0,0.7,0.5,1,1.4
				c0,0.1,0,0.1,0,0.1l5.6,18.1l3.3-10.9c0.4-1.2,0.7-2.4,0.9-3.4c0.2-1,0.3-1.9,0.3-2.7c0-0.5-0.2-0.9-0.5-1.2
				c-0.3-0.3-0.7-0.5-1.3-0.6c-0.1,0-0.3,0-0.6-0.1c-0.5-0.1-0.8-0.2-0.8-0.4c0-0.1,0.1-0.2,0.2-0.3c0.1-0.1,0.3-0.1,0.6-0.1
				c0.1,0,0.2,0,0.4,0c0.1,0,0.2,0,0.3,0c0.1,0,0.3,0,0.7,0c1.1,0.1,2.1,0.1,3,0.1c0.3,0,0.6,0,0.9-0.1c0.4,0,0.6-0.1,0.6-0.1
				c0.1,0,0.2,0,0.3,0c0.1,0,0.3,0,0.4,0c0.2,0,0.3,0,0.4,0.1c0.1,0.1,0.2,0.1,0.2,0.2c0,0.2-0.3,0.4-0.8,0.5c-0.1,0-0.2,0-0.3,0
				c-0.1,0-0.2,0.1-0.4,0.1c-0.4,0.2-0.8,0.5-1.1,0.9c-0.3,0.4-0.6,1.3-1,2.5l-5.7,18.3c-0.2,0.7-0.4,1.3-0.7,1.6
				c-0.2,0.4-0.4,0.5-0.7,0.5c-0.2,0-0.5-0.1-0.6-0.4c-0.2-0.2-0.3-0.7-0.5-1.4L252,338l-5.3,17.5c-0.2,0.7-0.4,1.2-0.6,1.6
				c-0.2,0.3-0.4,0.5-0.7,0.5c-0.4,0-0.8-0.6-1.2-1.8c0,0,0-0.1,0-0.1l-6.3-19.6c-0.3-0.9-0.6-1.5-0.8-1.8c-0.3-0.3-0.6-0.5-1.1-0.7
				c-0.2,0-0.4-0.1-0.7-0.1c-0.6-0.1-0.9-0.3-0.9-0.5c0-0.1,0-0.2,0.1-0.2c0.1,0,0.3-0.1,0.5-0.1c0.1,0,0.3,0,0.7,0
				c1.3,0.1,2.5,0.1,3.7,0.1c0.6,0,1.4,0,2.4-0.1c1-0.1,1.7-0.1,2.1-0.1c0.4,0,0.6,0,0.8,0.1c0.2,0.1,0.2,0.2,0.2,0.3
				c0,0.2-0.2,0.3-0.7,0.4c-0.3,0-0.6,0.1-0.7,0.1c-0.7,0.1-1.2,0.3-1.4,0.6c-0.3,0.2-0.4,0.6-0.4,1c0,0.8,1.4,5.8,4.2,15
				C246.3,351.2,246.5,352,246.7,352.6z"/>
			<path class="st0" d="M296.9,350.7c0,2.4,0.3,3.9,1,4.4c0.7,0.6,2.1,0.9,4.3,0.9c1.8,0,3.1-0.2,4-0.5c0.9-0.3,1.6-0.9,2.1-1.7
				c0.3-0.4,0.5-1,0.6-1.6c0.1-0.6,0.3-0.9,0.5-0.9c0.2,0,0.3,0.1,0.3,0.2c0.1,0.1,0.1,0.4,0.1,0.9c0,0.4,0,1-0.1,1.8
				c0,0.8-0.1,1.4-0.1,1.9c0,0.5-0.1,0.8-0.2,0.9c-0.1,0.1-0.5,0.1-1,0.1c-0.1,0-0.5,0-1,0c-4-0.1-8.1-0.2-12.4-0.2
				c-1.5,0-2.9,0.1-4.3,0.2c-0.2,0-0.4,0-0.4,0c-0.2,0-0.4,0-0.5-0.1c-0.1-0.1-0.2-0.2-0.2-0.3c0-0.2,0.3-0.4,0.9-0.5
				c0,0,0.1,0,0.1,0c0.3,0,0.6-0.1,0.8-0.1c0.2-0.1,0.4-0.1,0.6-0.2c0.4-0.2,0.8-0.5,0.9-0.9c0.2-0.4,0.2-1.1,0.2-2v-16.3
				c0-0.9-0.1-1.6-0.3-2c-0.2-0.4-0.5-0.7-0.9-0.9c-0.2-0.1-0.4-0.1-0.6-0.2c-0.2,0-0.5-0.1-0.8-0.1c0,0-0.1,0-0.1,0
				c-0.6-0.1-0.9-0.2-0.9-0.4c0-0.1,0.1-0.2,0.2-0.3c0.1-0.1,0.3-0.1,0.5-0.1c0.1,0,0.2,0,0.5,0c1.7,0.1,3.4,0.1,5.2,0.1
				c0.8,0,2.2,0,4.2-0.1c2,0,3.6-0.1,4.8-0.1h0.8c1,0,1.6,0.1,1.8,0.2c0.2,0.1,0.4,0.3,0.4,0.7c0,0,0,0.3-0.1,0.7
				c0,0.4-0.1,0.8-0.1,1.2c0,0.3,0,0.7,0.1,1.1c0,0.4,0.1,0.7,0.1,0.7c0,0.2,0,0.4-0.1,0.5c-0.1,0.1-0.2,0.1-0.3,0.1
				c-0.2,0-0.4-0.3-0.5-1c-0.1-0.6-0.3-1.2-0.5-1.5c-0.4-0.7-1.1-1.2-2-1.5c-0.9-0.3-2.4-0.4-4.6-0.4h-0.3c-1.3,0-2.1,0.1-2.4,0.3
				c-0.2,0.2-0.4,0.8-0.4,1.7v8.3c1.7-0.1,2.9-0.3,3.6-0.5c0.7-0.3,1.3-0.8,1.7-1.4c0.2-0.4,0.4-1,0.6-1.7c0.1-0.7,0.3-1.1,0.5-1.1
				c0.1,0,0.2,0.1,0.3,0.2c0.1,0.1,0.1,0.3,0.1,0.5c0,0.2,0,0.7-0.1,1.5c-0.1,0.9-0.1,1.6-0.1,2.4c0,1,0,2,0.1,3
				c0.1,1,0.1,1.6,0.1,1.6c0,0.2,0,0.4-0.1,0.5c-0.1,0.1-0.2,0.2-0.3,0.2c-0.2,0-0.3-0.3-0.4-0.8c-0.1-0.5-0.3-0.9-0.4-1.3
				c-0.4-0.8-0.9-1.3-1.7-1.6c-0.7-0.3-1.9-0.5-3.3-0.5h-0.7V350.7z"/>
			<path class="st0" d="M338.8,351.6c0,1.7,0.4,2.9,1.1,3.5c0.7,0.6,2.3,0.9,4.6,0.9c1.7,0,3.1-0.2,4.1-0.5c1-0.3,1.8-0.9,2.3-1.7
				c0.3-0.5,0.6-1.1,0.8-1.9c0.2-0.8,0.4-1.2,0.6-1.2c0.1,0,0.2,0,0.2,0.1c0,0.1,0.1,0.3,0.1,0.6l-0.1,4.9c0,0.4-0.1,0.6-0.2,0.7
				c-0.1,0.1-0.3,0.2-0.6,0.2c-0.1,0-0.5,0-1.1,0c-3.4-0.2-6.8-0.2-10.2-0.2c-2.8,0-5.3,0.1-7.8,0.2c-0.3,0-0.5,0-0.5,0
				c-0.2,0-0.4,0-0.5-0.1c-0.1-0.1-0.2-0.2-0.2-0.3c0-0.2,0.3-0.4,0.9-0.5c0,0,0.1,0,0.1,0c0.3,0,0.6-0.1,0.8-0.1
				c0.2-0.1,0.4-0.1,0.6-0.2c0.4-0.2,0.7-0.5,0.9-0.9c0.2-0.4,0.3-1.1,0.3-2v-16.3c0-0.9-0.1-1.6-0.3-2c-0.2-0.4-0.5-0.7-0.9-0.9
				c-0.2-0.1-0.4-0.1-0.6-0.2c-0.2,0-0.5-0.1-0.8-0.1c0,0-0.1,0-0.1,0c-0.6-0.1-0.9-0.2-0.9-0.4c0-0.1,0.1-0.2,0.2-0.3
				c0.1-0.1,0.3-0.1,0.5-0.1c0.1,0,0.3,0,0.6,0c1.4,0.1,2.8,0.1,4.2,0.1c1.4,0,2.9,0,4.3-0.1c0.2,0,0.4,0,0.4,0c0.2,0,0.4,0,0.5,0.1
				c0.1,0.1,0.2,0.1,0.2,0.2c0,0.2-0.2,0.3-0.7,0.4c-0.1,0-0.1,0-0.1,0c-0.2,0-0.4,0-0.5,0c-0.2,0-0.4,0.1-0.7,0.1
				c-0.5,0.1-0.9,0.4-1.1,0.9c-0.2,0.4-0.3,1.1-0.3,2.1V351.6z"/>
			<path class="st0" d="M380.8,352.9c0,1,0.1,1.7,0.3,2c0.2,0.4,0.5,0.7,0.9,0.9c0.2,0.1,0.4,0.1,0.6,0.2c0.2,0.1,0.5,0.1,0.8,0.1
				c0,0,0.1,0,0.1,0c0.6,0.1,0.9,0.2,0.9,0.5c0,0.1-0.1,0.2-0.2,0.3c-0.1,0.1-0.3,0.1-0.5,0.1c-0.1,0-0.2,0-0.4,0
				c-1.4-0.1-2.9-0.2-4.3-0.2c-1.5,0-2.9,0.1-4.3,0.2c-0.2,0-0.4,0-0.4,0c-0.2,0-0.4,0-0.5-0.1c-0.1-0.1-0.2-0.2-0.2-0.3
				c0-0.2,0.3-0.4,0.9-0.5c0,0,0.1,0,0.1,0c0.3,0,0.6-0.1,0.8-0.1c0.2-0.1,0.4-0.1,0.6-0.2c0.4-0.2,0.7-0.5,0.9-0.9
				c0.2-0.4,0.3-1.1,0.3-2v-16.3c0-0.9-0.1-1.6-0.3-2c-0.2-0.4-0.5-0.7-0.9-0.9c-0.2-0.1-0.4-0.1-0.6-0.2c-0.2,0-0.5-0.1-0.8-0.1
				c0,0-0.1,0-0.1,0c-0.6-0.1-0.9-0.2-0.9-0.4c0-0.1,0.1-0.2,0.2-0.3c0.1-0.1,0.3-0.1,0.5-0.1h0.3c0.2,0,0.6,0,1.1,0.1
				c0.5,0,1,0,1.6,0c0.9,0,2.1,0,3.7-0.1c1.5-0.1,2.6-0.1,3.3-0.1c3.1,0,5.4,0.5,6.8,1.5c1.4,1,2.2,2.6,2.2,4.7
				c0,1.8-0.6,3.3-1.7,4.3c-1.1,1.1-2.8,1.8-5,2l7.9,9.2c0.3,0.4,0.7,0.7,1.1,1c0.4,0.3,1,0.6,1.6,0.8c0,0,0,0,0.1,0
				c0.5,0.2,0.8,0.4,0.8,0.6c0,0.1-0.1,0.2-0.2,0.2c-0.1,0.1-0.2,0.1-0.4,0.1c-0.1,0-0.1,0-0.2,0c0,0-0.1,0-0.1,0c0,0-0.1,0-0.2,0
				c-0.9-0.1-1.6-0.1-2.4-0.1c-0.1,0-0.2,0-0.3,0c-0.1,0-0.3,0-0.5,0.1h-0.8c-0.5,0-0.8,0-1-0.1c-0.2-0.1-0.4-0.2-0.5-0.5l-7.8-9.8
				c-0.2-0.3-0.5-0.5-0.8-0.6s-0.6-0.2-1-0.2c-0.3,0-0.4,0.1-0.5,0.2c-0.1,0.1-0.1,0.3-0.1,0.6V352.9z M380.8,343.9
				c0,0.4,0.1,0.7,0.2,0.8c0.1,0.1,0.4,0.2,0.7,0.2c2.6,0,4.5-0.4,5.6-1.3c1.1-0.9,1.7-2.3,1.7-4.3c0-2.1-0.5-3.6-1.6-4.6
				c-1-1-2.6-1.5-4.8-1.5c-0.7,0-1.2,0.1-1.4,0.3c-0.2,0.2-0.4,0.6-0.4,1.1V343.9z"/>
			<path class="st0" d="M429.5,352.9c0,1,0.1,1.7,0.3,2c0.2,0.4,0.5,0.7,0.9,0.9c0.2,0.1,0.4,0.2,0.6,0.2c0.2,0.1,0.5,0.1,0.8,0.1
				c0,0,0,0,0.1,0c0.6,0.1,0.9,0.2,0.9,0.5c0,0.1-0.1,0.2-0.2,0.3c-0.1,0.1-0.3,0.1-0.5,0.1c0,0-0.2,0-0.4,0
				c-1.4-0.1-2.9-0.2-4.3-0.2c-1.5,0-2.9,0.1-4.3,0.2c-0.2,0-0.4,0-0.4,0c-0.2,0-0.4,0-0.5-0.1c-0.1-0.1-0.2-0.2-0.2-0.3
				c0-0.2,0.3-0.4,0.9-0.5c0,0,0.1,0,0.1,0c0.3,0,0.6-0.1,0.8-0.1c0.2-0.1,0.4-0.1,0.6-0.2c0.4-0.2,0.8-0.5,0.9-0.9
				c0.2-0.4,0.2-1.1,0.2-2v-5.5l-6.3-11.4c0-0.1-0.1-0.2-0.2-0.3c-0.7-1.3-1.4-2-2.1-2.1c-0.1,0-0.2,0-0.5-0.1
				c-0.6-0.1-0.9-0.3-0.9-0.5c0-0.1,0.1-0.2,0.2-0.3c0.1-0.1,0.3-0.1,0.6-0.1c0.1,0,0.2,0,0.3,0c0.1,0,0.2,0,0.3,0c0,0,0.1,0,0.2,0
				c0.9,0.1,1.8,0.1,2.5,0.1c0.7,0,1.4,0,2.3-0.1c0.9,0,1.3-0.1,1.4-0.1c0.2,0,0.5,0,0.8,0c0.3,0,0.5,0,0.6,0c0.3,0,0.6,0,0.7,0.1
				c0.1,0.1,0.2,0.2,0.2,0.3c0,0.2-0.2,0.3-0.6,0.4c-0.3,0-0.5,0-0.6,0.1c-0.5,0.1-0.9,0.3-1.1,0.5c-0.3,0.2-0.4,0.5-0.4,0.9
				c0,0.2,0.1,0.5,0.2,0.9c0.1,0.4,0.3,0.9,0.6,1.3l4.9,9.4c0.5-0.8,1.1-1.9,1.9-3.2c2.8-4.5,4.1-7.2,4.1-8.2c0-0.4-0.1-0.7-0.2-1
				c-0.2-0.2-0.4-0.4-0.8-0.5c-0.2,0-0.4-0.1-0.6-0.1c-0.6-0.1-0.9-0.3-0.9-0.5c0-0.1,0.1-0.2,0.2-0.3c0.1-0.1,0.3-0.1,0.5-0.1
				c0.2,0,0.3,0,0.4,0c0.1,0,0.2,0,0.3,0c0.4,0,0.8,0,1.2,0.1c0.4,0,0.9,0,1.3,0c0.9,0,1.8,0,2.7-0.1h0c0,0,0.1,0,0.1,0
				c0,0,0.1,0,0.1,0c0.1,0,0.2,0,0.3,0.1c0.1,0.1,0.1,0.1,0.1,0.2c0,0.2-0.2,0.3-0.5,0.4c-0.1,0-0.1,0-0.1,0.1
				c-0.4,0.1-0.9,0.2-1.2,0.4c-0.4,0.2-0.7,0.5-1.1,1c-0.2,0.2-1.1,1.8-2.7,4.5c-1.6,2.8-3.2,5.4-4.9,7.9V352.9z"/>
		</g>
	</g>
</g>
</svg>
