<?xml version="1.0" encoding="utf-8"?>
<!-- Generator: Adobe Illustrator 21.1.0, SVG Export Plug-In . SVG Version: 6.00 Build 0)  -->
<svg version="1.1" id="Guides" xmlns="http://www.w3.org/2000/svg" xmlns:xlink="http://www.w3.org/1999/xlink" x="0px" y="0px"
	 viewBox="0 0 1024 358.5" style="enable-background:new 0 0 1024 358.5;" xml:space="preserve">
<style type="text/css">
	.st0{fill:#FFFFFF;}
	.st1{fill:#D4A281;}
	.st2{fill:#27363B;}
</style>
<g>
	<rect y="26.1" class="st0" width="1024" height="306.4"/>
	<rect y="358.5" class="st0" width="1024" height="0"/>
	<rect y="0" class="st0" width="1024" height="0"/>
	<rect y="13.6" class="st1" width="1024" height="12.4"/>
	<rect y="332.5" class="st1" width="1024" height="12.4"/>
	<polygon class="st2" points="0,0 0,12.4 0,13.6 1024,13.6 1024,12.4 1024,0 	"/>
	<polygon class="st2" points="0,344.9 0,346.1 0,358.5 1024,358.5 1024,346.1 1024,344.9 	"/>
	<g>
		<path class="st2" d="M359.9,79.3v37.3c0,3,0.8,4.6,3.7,4.8v3.5h-22.9v-3.5c2.8-0.2,3.6-1.8,3.6-4.8v-16.3h-16.6v16.3
			c0,3,0.8,4.6,3.6,4.8v3.5h-22.9v-3.5c2.8-0.2,3.6-1.8,3.6-4.8V79.3c0-3-0.8-4.5-3.6-4.8v-3.4h22.9v3.4c-2.8,0.3-3.6,1.8-3.6,4.8
			v15.4h16.6V79.3c0-3-0.8-4.5-3.6-4.8v-3.4h22.9v3.4C360.7,74.7,359.9,76.3,359.9,79.3z"/>
		<path class="st2" d="M409.8,122.2c-0.9,1.5-4.6,3.4-8.7,3.4c-3.2,0-8.1-1.3-9.8-4.6c-1.8,2.8-4.9,4.6-9.8,4.6
			c-6.5,0-13.1-2.7-13.4-10.1c-0.4-9.7,7.6-12,15.1-12.7c2.3-0.2,4.5-0.4,6.3-0.5c0-1.5,0-2.3,0-2.3c0-6,0.1-8.8-2.5-9.1
			c-1.8-0.2-3.1,0.2-3.1,3.5c0.1,5-3,8.1-7.5,6.9c-3.5-0.8-5.5-4.2-3.1-8.1c2.5-4.4,9.4-5.5,14.4-5.5c7.1,0,17.3,3.2,17.3,14.2v15.7
			c0,2.7,2.5,2.8,3.8,1.9L409.8,122.2z M389.5,111.5c0-1.9,0-3.8,0-5.6c-0.5,0.1-1,0.2-1.6,0.2c-3.5,0.5-5.1,3.5-5.3,7.7
			c-0.2,4.5,1.4,6.9,3.8,6.5C389,119.9,389.5,116.7,389.5,111.5z"/>
		<path class="st2" d="M459.9,121.4v3.5h-22v-3.5c2.8-0.2,2.9-2.3,2.9-5.3v-14.8c0-5.7-1.2-8.1-4.2-8.1c-2.8,0-4.3,2.8-4.3,7.8v15.1
			c0,3,0.1,5.1,2.9,5.3v3.5h-22v-3.5c2.8-0.2,3.6-1.8,3.6-4.8V99.4c0-3-0.8-4.6-3.6-4.8v-3.5l15.2-3.4h2.9v4.4
			c2.4-2.7,5.5-4.3,9.4-4.4c10.5-0.4,15.7,6.2,15.7,14.7v14.1C456.3,119.5,457,121.1,459.9,121.4z"/>
		<path class="st2" d="M509.9,123.2c-2,1.2-4.8,2.4-8.8,2.4c-3.8,0-7.3-1.5-8.9-4.1c-2.3,2.4-5.5,4.1-10.1,4.1
			c-10.6,0-18.6-7.2-18.6-19s8-18.9,18.6-18.9c3.3,0,6,0.8,8,2.2V79.5c0-3-0.8-4.5-3.6-4.8v-3.5l16.2-3.5h3v49.9
			c0,2.5,1.9,3,3.5,2.5L509.9,123.2z M491.4,106.6c0-7.7-1.6-14.6-6.1-14.6c-4,0-6.1,6.3-6.1,14.6s2.1,14.6,6.1,14.6
			C489.8,121.2,491.4,114.3,491.4,106.6z"/>
		<path class="st2" d="M583.1,121.4v3.5h-21.9v-3.5c2.3-0.2,2.6-1.5,2.7-3.6v-16.5c0-5.7-1.2-8.1-3.9-8.1c-2.6,0-3.9,2.8-3.9,7.8
			c0,0.2,0,16.7,0,16.7c0.1,2.1,0.4,3.4,2.7,3.6v3.5h-20.9v-3.5c2.3-0.2,2.6-1.5,2.7-3.6v-16.5c0-5.7-1.2-8.1-3.9-8.1
			c-2.6,0-3.9,2.8-3.9,7.8v16.7c0.1,2.2,0.4,3.5,2.7,3.7v3.5h-21.8v-3.5c2.8-0.2,3.6-1.8,3.6-4.8V99.4c0-3-0.8-4.6-3.6-4.8v-3.5
			l15.2-3.4h2.9v4.2c2.3-2.6,5.3-4.1,9.1-4.2c6.4-0.2,10.7,2.1,13.1,5.9c2.3-3.6,5.8-5.8,10.3-5.9c10.4-0.4,15.3,6.2,15.3,14.7v14.1
			C579.5,119.5,580.2,121.1,583.1,121.4z"/>
		<path class="st2" d="M627.8,122.2c-0.9,1.5-4.6,3.4-8.7,3.4c-3.2,0-8.1-1.3-9.8-4.6c-1.8,2.8-4.9,4.6-9.8,4.6
			c-6.5,0-13.1-2.7-13.4-10.1c-0.4-9.7,7.6-12,15.1-12.7c2.3-0.2,4.5-0.4,6.3-0.5c0-1.5,0-2.3,0-2.3c0-6,0.1-8.8-2.5-9.1
			c-1.8-0.2-3.1,0.2-3.1,3.5c0.1,5-3,8.1-7.5,6.9c-3.5-0.8-5.5-4.2-3.1-8.1c2.5-4.4,9.4-5.5,14.4-5.5c7.1,0,17.3,3.2,17.3,14.2v15.7
			c0,2.7,2.5,2.8,3.8,1.9L627.8,122.2z M607.5,111.5c0-1.9,0-3.8,0-5.6c-0.5,0.1-1,0.2-1.6,0.2c-3.5,0.5-5.1,3.5-5.3,7.7
			c-0.2,4.5,1.4,6.9,3.8,6.5C607,119.9,607.5,116.7,607.5,111.5z"/>
		<path class="st2" d="M676.7,123.2c-2,1.2-4.8,2.4-8.8,2.4c-3.8,0-7.3-1.5-8.9-4.1c-2.3,2.4-5.5,4.1-10.1,4.1
			c-10.6,0-18.6-7.2-18.6-19s8-18.9,18.6-18.9c3.3,0,6,0.8,8,2.2V79.5c0-3-0.8-4.5-3.6-4.8v-3.5l16.2-3.5h3v49.9
			c0,2.5,1.9,3,3.5,2.5L676.7,123.2z M658.2,106.6c0-7.7-1.6-14.6-6.1-14.6c-4,0-6.1,6.3-6.1,14.6s2.1,14.6,6.1,14.6
			C656.6,121.2,658.2,114.3,658.2,106.6z"/>
		<path class="st2" d="M716.3,116.1c-2.7,5.1-7.9,9.4-16.5,9.4c-10.2,0-20.9-7-20.1-19.7c0.7-11.2,9.2-18.6,20.2-18.1
			c11.8,0.5,16.5,8.2,16.4,17.7v1.2h-22.1c0.8,6.7,5.2,10.3,10.3,10.6c3.7,0.2,7-0.8,9.8-3.3L716.3,116.1z M694.1,101.6h9.7
			c0-4.8-0.8-10.5-4.3-10.5C696.1,91.1,694.5,95.9,694.1,101.6z"/>
		<path class="st2" d="M350.8,186.6l-1.8,13.1c-5.1,3.5-11.5,5.1-19.2,4.8c-16.7-0.8-30.7-10.1-30.7-27.7
			c0-17.3,13.7-27.7,30.4-27.7c7,0,14.2,1.7,19.5,4.7v13.7h-3.5c-2.3-9.6-8-14.7-15.1-14.5c-9,0.2-14.6,10-14.6,23.8
			c0,14.6,5.8,23.4,15.4,23.8c7.1,0.3,12.9-4.2,16.1-14H350.8z"/>
		<path class="st2" d="M398,185.4c0,12.4-10.1,19-21.4,19c-11.2,0-21.4-6.6-21.4-19s10.1-18.9,21.4-18.9
			C387.9,166.5,398,173.1,398,185.4z M382.6,185.4c0-8.1-1.8-15.3-6-15.3s-5.9,7.1-5.9,15.3s1.7,15.3,5.9,15.3
			S382.6,193.6,382.6,185.4z"/>
		<path class="st2" d="M423.8,200.2v3.5h-22.8v-3.5c2.8-0.2,3.6-1.8,3.6-4.8v-37c0-3-0.8-4.5-3.6-4.8v-3.5l16.2-3.5h3v48.8
			C420.1,198.3,420.9,199.9,423.8,200.2z"/>
		<path class="st2" d="M450.6,200.2v3.5h-22.8v-3.5c2.8-0.2,3.6-1.8,3.6-4.8v-37c0-3-0.8-4.5-3.6-4.8v-3.5l16.2-3.5h3v48.8
			C447,198.3,447.8,199.9,450.6,200.2z"/>
		<path class="st2" d="M490.7,194.9c-2.7,5.1-7.9,9.4-16.5,9.4c-10.2,0-20.9-7-20.1-19.7c0.7-11.2,9.2-18.6,20.2-18.1
			c11.8,0.5,16.5,8.2,16.4,17.7v1.2h-22.1c0.8,6.7,5.2,10.3,10.3,10.6c3.7,0.2,7-0.8,9.8-3.3L490.7,194.9z M468.4,180.4h9.7
			c0-4.8-0.8-10.5-4.3-10.5C470.5,169.9,468.8,174.7,468.4,180.4z"/>
		<path class="st2" d="M531.8,194.9c-2.6,5.1-7.8,9.4-16.4,9.4c-9.7,0-20.3-6.1-20.1-19c0.2-11.8,9.4-18.9,20.3-18.9
			c6.7,0,12.3,2.2,14.6,5.8c1.8,3,1.9,8.8-2.5,10.1c-4.6,1.5-8.8-1.5-8.4-7.1c0.4-3.8-0.8-5.5-3.7-5.3c-3.7,0.3-6.4,6.7-6,13.9
			c0.4,7,3.9,11.1,9.4,12.1c4.1,0.8,8-0.4,10.9-3.1L531.8,194.9z"/>
		<path class="st2" d="M565,198.3c-1.6,2.6-6,6.1-12,6.1c-5.8,0-13.4-2.5-13.4-11.2v-20.9h-3.8v-5.1c7.6,0,12.1-3.5,13.7-11.6
			c2.2,0,5.5,0,5.5,0v11.6h6.1v5.1h-6.1v19.9c0,2.5,1.5,3.6,3,4.1c1.5,0.5,3.5,0.2,5.1-1.1L565,198.3z"/>
		<path class="st2" d="M591.5,200.2v3.5h-22.8v-3.5c2.9-0.2,3.7-1.8,3.7-4.8v-17.1c0-3-0.8-4.6-3.7-4.8v-3.5l15.7-3.4h3.5v28.8
			C587.9,198.3,588.7,199.9,591.5,200.2z M571.2,155.4c0-5.1,4.1-8.1,9-8.1c4.8,0,8.9,3,8.9,8.1c0,5.1-4.1,8.1-8.9,8.1
			C575.3,163.5,571.2,160.5,571.2,155.4z"/>
		<path class="st2" d="M637.6,185.4c0,12.4-10.1,19-21.4,19c-11.2,0-21.4-6.6-21.4-19s10.1-18.9,21.4-18.9
			C627.5,166.5,637.6,173.1,637.6,185.4z M622.2,185.4c0-8.1-1.8-15.3-6-15.3s-5.9,7.1-5.9,15.3s1.7,15.3,5.9,15.3
			S622.2,193.6,622.2,185.4z"/>
		<path class="st2" d="M688.1,200.2v3.5h-22v-3.5c2.8-0.2,2.9-2.3,2.9-5.3V180c0-5.7-1.2-8.1-4.2-8.1c-2.8,0-4.3,2.8-4.3,7.8v15.1
			c0,3,0.1,5.1,2.9,5.3v3.5h-22v-3.5c2.8-0.2,3.6-1.8,3.6-4.8v-17.1c0-3-0.8-4.6-3.6-4.8v-3.5l15.2-3.4h2.9v4.4
			c2.4-2.7,5.5-4.3,9.4-4.4c10.5-0.4,15.7,6.2,15.7,14.7v14.1C684.5,198.3,685.2,199.9,688.1,200.2z"/>
		<path class="st2" d="M712.3,180c5.8,2.5,14.7,4.9,11.6,15.4c-1.9,6.6-8.6,9-17,9c-5.9,0-12-2.2-15.8-4v-10.3h3.2
			c2.2,7.5,6.2,9.9,11.1,10.7c3.2,0.6,6.4,0.2,6.8-2.2c0.4-2.7-4.2-4-10.2-6.7c-10.2-4.5-11.6-12.8-7.6-19.4c3.1-5,9.3-6.1,14.7-5.9
			c3.9,0.2,9.2,1.5,12.7,3.8v9.3h-3.2c-2-6.5-5.2-9.4-9.4-9.8c-2.1-0.2-4.2,0.8-4.6,2.5C703.7,175.7,706.7,177.6,712.3,180z"/>
	</g>
	<g>
		<g>
			<path class="st1" d="M442.6,296.9l1.3-9.3h1.7l-0.5,3.5c0.3-0.3,0.6-0.6,1-0.7c0.4-0.2,0.8-0.3,1.2-0.3c0.4,0,0.8,0.1,1.2,0.3
				c0.3,0.2,0.6,0.4,0.9,0.7c0.2,0.3,0.4,0.7,0.5,1.1c0.1,0.4,0.1,0.9,0,1.4c-0.1,0.5-0.2,1-0.4,1.4c-0.2,0.4-0.5,0.8-0.8,1.1
				c-0.3,0.3-0.7,0.6-1.1,0.7c-0.4,0.2-0.8,0.3-1.3,0.3c-0.4,0-0.8-0.1-1.1-0.3c-0.3-0.2-0.6-0.4-0.8-0.8l-0.2,0.9H442.6z
				 M446.2,295.5c0.3,0,0.6-0.1,0.9-0.2c0.3-0.2,0.5-0.4,0.7-0.7c0.2-0.3,0.3-0.6,0.4-1c0.1-0.4,0-0.7-0.1-1
				c-0.1-0.3-0.3-0.5-0.5-0.7c-0.2-0.2-0.5-0.3-0.8-0.3s-0.6,0.1-0.9,0.3s-0.5,0.4-0.7,0.7s-0.3,0.6-0.4,1c-0.1,0.4,0,0.7,0.1,1
				c0.1,0.3,0.3,0.5,0.5,0.7S445.9,295.5,446.2,295.5z"/>
			<path class="st1" d="M451.7,299.4c-0.2,0-0.4,0-0.6-0.1c-0.2,0-0.4-0.1-0.5-0.2l0.5-1.4c0.1,0,0.2,0.1,0.3,0.1c0.1,0,0.2,0,0.3,0
				c0.2,0,0.5-0.1,0.7-0.2c0.2-0.1,0.4-0.3,0.5-0.6l0.2-0.3l-1.7-6.5h1.9l0.9,4.7l2.1-4.7h1.8l-3.7,7.2c-0.3,0.7-0.7,1.2-1.2,1.5
				C452.7,299.3,452.2,299.4,451.7,299.4z"/>
		</g>
		<g>
			<g>
				<g>
					<g>
						<path class="st2" d="M474.6,307.6v-2h-0.7v2h-0.8v-4.3h0.8v1.7h0.7v-1.7h0.8v4.3H474.6z"/>
					</g>
					<g>
						<path class="st2" d="M478.9,307.6l-0.1-0.7h-0.7l-0.1,0.7h-0.8l0.8-4.3h0.9l0.8,4.3H478.9z M478.5,304.4l-0.3,1.9h0.6
							L478.5,304.4z"/>
					</g>
					<g>
						<path class="st2" d="M482.9,307.6l-0.8-3.2l0.1,3.2h-0.7v-4.3h1l0.8,3.2l-0.1-3.2h0.7v4.3H482.9z"/>
					</g>
					<g>
						<path class="st2" d="M488.3,306.7c0,0.5-0.2,0.7-0.4,0.8c-0.2,0.1-0.4,0.1-0.7,0.1h-1.3v-4.3h1.5c0.1,0,0.4,0,0.6,0.2
							c0.3,0.3,0.3,0.6,0.3,0.9v2C488.3,306.5,488.3,306.6,488.3,306.7z M487.5,304.4c0-0.1,0-0.3-0.1-0.4c-0.1-0.1-0.2-0.1-0.4-0.1
							h-0.3v3.1h0.3c0.1,0,0.2,0,0.2,0c0.3,0,0.3-0.2,0.3-0.5V304.4z"/>
					</g>
					<g>
						<path class="st2" d="M493.1,307.6l0.1-3.8l-0.7,3.8h-0.7l-0.7-3.8l0.1,3.8h-0.8v-4.3h1.3l0.5,3l0.5-3h1.3v4.3H493.1z"/>
					</g>
					<g>
						<path class="st2" d="M497.2,307.6l-0.1-0.7h-0.7l-0.1,0.7h-0.8l0.8-4.3h0.9l0.8,4.3H497.2z M496.8,304.4l-0.3,1.9h0.6
							L496.8,304.4z"/>
					</g>
					<g>
						<path class="st2" d="M502.2,306.7c0,0.5-0.2,0.7-0.4,0.8c-0.2,0.1-0.4,0.1-0.7,0.1h-1.3v-4.3h1.5c0.1,0,0.4,0,0.6,0.2
							c0.3,0.3,0.3,0.6,0.3,0.9v2C502.2,306.5,502.2,306.6,502.2,306.7z M501.4,304.4c0-0.1,0-0.3-0.1-0.4c-0.1-0.1-0.2-0.1-0.4-0.1
							h-0.3v3.1h0.3c0.1,0,0.2,0,0.2,0c0.3,0,0.3-0.2,0.3-0.5V304.4z"/>
					</g>
					<g>
						<path class="st2" d="M504.1,307.6v-4.3h2.1v0.7h-1.3v1h1.2v0.7h-1.2v1.3h1.4v0.7H504.1z"/>
					</g>
					<g>
						<path class="st2" d="M513.6,307.1c-0.2,0.6-1,0.6-1.1,0.6c-0.2,0-0.4,0-0.4,0c-0.3-0.1-0.6-0.2-0.7-0.5
							c-0.1-0.2-0.1-0.3-0.1-0.5v-2.4c0-0.1,0-0.2,0-0.2c0-0.3,0.1-0.5,0.3-0.7c0.2-0.1,0.4-0.3,0.9-0.3c0.3,0,0.6,0,0.8,0.2
							c0.1,0.1,0.2,0.2,0.3,0.3c0.1,0.1,0.1,0.2,0.1,0.5v0.7h-0.8v-0.5c0-0.3-0.1-0.5-0.4-0.5c-0.3,0-0.4,0.2-0.4,0.5v2.3
							c0,0.3,0.1,0.5,0.4,0.5c0.4,0,0.4-0.2,0.4-0.5V306h0.8v0.6C513.6,306.8,513.6,307,513.6,307.1z"/>
					</g>
					<g>
						<path class="st2" d="M517.6,307.4c-0.3,0.2-0.6,0.3-0.9,0.3c-0.3,0-0.6,0-0.9-0.3c-0.1-0.1-0.2-0.2-0.2-0.3
							c-0.1-0.2-0.1-0.3-0.1-0.5v-2.4c0-0.1,0-0.5,0.3-0.8c0.2-0.1,0.5-0.3,0.9-0.3c0.6,0,1,0.3,1.1,0.5c0.1,0.1,0.1,0.3,0.1,0.6
							v2.4C517.8,307,517.8,307.2,517.6,307.4z M517,304.4c0,0,0-0.2,0-0.3c0-0.1-0.1-0.2-0.3-0.2c0,0-0.2,0-0.3,0.1
							c-0.2,0.1-0.2,0.3-0.2,0.5v2.2c0,0.1,0,0.3,0.1,0.4c0.1,0.1,0.3,0.1,0.3,0.1c0,0,0.2,0,0.3-0.1c0.1-0.1,0.1-0.3,0.1-0.4V304.4
							z"/>
					</g>
					<g>
						<path class="st2" d="M519.8,307.6v-4.3h0.8v3.7h1.2v0.7H519.8z"/>
					</g>
					<g>
						<path class="st2" d="M523.5,307.6v-4.3h0.8v3.7h1.2v0.7H523.5z"/>
					</g>
					<g>
						<path class="st2" d="M527.2,307.6v-4.3h2.1v0.7H528v1h1.2v0.7H528v1.3h1.4v0.7H527.2z"/>
					</g>
					<g>
						<path class="st2" d="M533.4,307.1c-0.2,0.6-1,0.6-1.1,0.6c-0.2,0-0.4,0-0.4,0c-0.3-0.1-0.6-0.2-0.7-0.5
							c-0.1-0.2-0.1-0.3-0.1-0.5v-2.4c0-0.1,0-0.2,0-0.2c0-0.3,0.1-0.5,0.3-0.7c0.2-0.1,0.4-0.3,0.9-0.3c0.3,0,0.6,0,0.8,0.2
							c0.1,0.1,0.2,0.2,0.3,0.3c0.1,0.1,0.1,0.2,0.1,0.5v0.7h-0.8v-0.5c0-0.3-0.1-0.5-0.4-0.5c-0.3,0-0.4,0.2-0.4,0.5v2.3
							c0,0.3,0.1,0.5,0.4,0.5c0.4,0,0.4-0.2,0.4-0.5V306h0.8v0.6C533.4,306.8,533.4,307,533.4,307.1z"/>
					</g>
					<g>
						<path class="st2" d="M536.6,303.9v3.7h-0.8v-3.7H535v-0.6h2.4v0.6H536.6z"/>
					</g>
					<g>
						<path class="st2" d="M539.1,307.6v-4.3h0.8v4.3H539.1z"/>
					</g>
					<g>
						<path class="st2" d="M544,307.4c-0.3,0.2-0.6,0.3-0.9,0.3c-0.3,0-0.6,0-0.9-0.3c-0.1-0.1-0.2-0.2-0.2-0.3
							c-0.1-0.2-0.1-0.3-0.1-0.5v-2.4c0-0.1,0-0.5,0.3-0.8c0.2-0.1,0.5-0.3,0.9-0.3c0.6,0,1,0.3,1.1,0.5c0.1,0.1,0.1,0.3,0.1,0.6
							v2.4C544.2,307,544.2,307.2,544,307.4z M543.4,304.4c0,0,0-0.2,0-0.3c0-0.1-0.1-0.2-0.3-0.2c0,0-0.2,0-0.3,0.1
							c-0.2,0.1-0.2,0.3-0.2,0.5v2.2c0,0.1,0,0.3,0.1,0.4c0.1,0.1,0.3,0.1,0.3,0.1c0,0,0.2,0,0.3-0.1c0.1-0.1,0.1-0.3,0.1-0.4V304.4
							z"/>
					</g>
					<g>
						<path class="st2" d="M547.6,307.6l-0.8-3.2l0.1,3.2h-0.7v-4.3h1l0.8,3.2l-0.1-3.2h0.7v4.3H547.6z"/>
					</g>
					<g>
						<path class="st2" d="M552.9,307.1c-0.1,0.3-0.4,0.7-1.1,0.7c-0.3,0-0.6,0-0.9-0.2c-0.1-0.1-0.2-0.2-0.2-0.3
							c0-0.1-0.1-0.2-0.1-0.4v-0.6h0.8v0.5c0,0.2,0,0.3,0.1,0.4c0,0,0.1,0.1,0.2,0.1c0.1,0,0.2,0,0.3-0.1c0.1-0.1,0.1-0.3,0.1-0.6
							c0-0.1,0-0.3-0.1-0.4c-0.1-0.1-0.2-0.1-0.2-0.2l-0.8-0.5c-0.2-0.1-0.3-0.2-0.4-0.4c-0.1-0.2-0.2-0.3-0.2-0.7
							c0-0.1,0-0.4,0.1-0.6c0.2-0.5,1-0.5,1.1-0.5c0.1,0,0.8,0,1,0.6c0,0.1,0.1,0.2,0.1,0.4v0.4h-0.8v-0.4c0-0.1,0-0.3-0.4-0.3
							c-0.2,0-0.4,0.1-0.4,0.4c0,0,0,0.3,0.1,0.4c0,0,0.1,0.1,0.2,0.1l0.8,0.5c0.1,0,0.2,0.2,0.4,0.3c0.2,0.3,0.2,0.4,0.2,0.7
							C552.9,306.8,552.9,306.9,552.9,307.1z"/>
					</g>
				</g>
				<g>
					<g>
						<path class="st2" d="M495.4,279.4c1.6,0,2.9-1,2.9-2.8c0-1.7-1.3-2.8-2.9-2.8c-1.6,0-2.9,1.1-2.9,2.8
							C492.5,278.4,493.9,279.4,495.4,279.4z"/>
					</g>
					<g>
						<path class="st2" d="M552.5,295c-0.6,0.5-1.6,0.5-1.6-0.8v-7.4c0-4.7-3.9-5.9-7-5.9c-2.2,0-4.7,0.4-5.6,2.4
							c-0.6,1.4-0.1,2.4,1,2.8c1.2,0.4,2.6-0.2,2.5-2.3c-0.1-1.5,1.3-1.9,2.3-1.8c1.7,0.2,2.2,1.5,2.2,4c0,0,0,0.6,0,1.3
							c-0.8,0.1-2,0.2-3.5,0.3c-2.9,0.3-5.8,1.3-6.3,4.4c-0.1,0.7-0.2,1.6,0.1,2.5c0.1,0.3,0.4,1.2,0.9,1.8h-0.7v0
							c-1.2-0.1-1.5-1-1.5-2.3v-6.5c0-3.7-1.8-6.3-6.2-6.3c-2,0-3.8,0.8-4.9,2.3v-2.3h-0.8l-5.2,1.3v1.1c1.2,0.1,1.5,0.8,1.5,2v8.4
							c0,1.3-0.3,2-1.5,2.1c-1.2-0.1-1.5-0.8-1.5-2.1v-6.5c0-3.7-1.8-6.3-6.2-6.3c-2,0-3.8,0.8-4.9,2.3v-2.3h-0.8l-5.2,1.3v1.1
							c1.2,0.1,1.5,0.8,1.5,2v8.4c0,1.3-0.3,2-1.5,2.1c-1.2-0.1-1.5-0.8-1.5-2.1v-12.8h-0.8l-5.4,1.3v1.1c1.3,0.1,1.6,0.8,1.6,2v8.4
							c0,1.3-0.3,2-1.5,2.1c-1.2-0.1-1.5-0.8-1.5-2.1v-6.5c0-3.7-1.8-6.3-6.2-6.3c-2,0-3.8,0.8-4.9,2.3v-2.3h-0.8l-5.2,1.3v1.1
							c1.2,0.1,1.5,0.8,1.5,2v8.4c0,1.3-0.3,2-1.5,2.1v1.1h7.8v-1.1c-1.2-0.1-1.5-0.8-1.5-2.1V287c0-2.2,1.1-4,3.2-4
							c2.2,0,3,1.6,3,4.1v7c0,1.3-0.3,2-1.5,2.1v1.1h7.7h0.1h7.7h0.1h7.7v-1.1c-1.2-0.1-1.5-0.8-1.5-2.1V287c0-2.2,1.1-4,3.2-4
							c2.2,0,3,1.6,3,4.1v7c0,1.3-0.3,2-1.5,2.1v1.1h7.7h0.1h7.7v-1.1c-1.2-0.1-1.5-0.8-1.5-2.1V287c0-2.2,1.1-4,3.2-4
							c2.2,0,3,1.6,3,4.1v7c0,1.3-0.3,2-1.5,2.1v1.1h7.8h0h5.4v0c1.7,0,3.5-0.7,4.3-2.6c0.1,1.9,2.2,2.6,3.6,2.6
							c1.3,0,2.5-0.8,2.9-1.4L552.5,295z M546.2,291.1c0,2.2-0.8,4.3-2.7,4.3c-1.4,0-2.6-0.9-2.6-3c0.1-2.1,1.1-3.4,3.4-3.7
							c0.8-0.1,1.3-0.2,1.8-0.2C546.2,289.3,546.2,290.2,546.2,291.1z"/>
					</g>
				</g>
				<g>
					<circle class="st2" cx="508.8" cy="305.5" r="0.7"/>
				</g>
			</g>
		</g>
	</g>
	<g>
		<path class="st2" d="M318.5,239.1h-3.1v3.7h-2.6v-9.3h2.6v3.5h3.1v-3.5h2.6v9.3h-2.6V239.1z"/>
		<path class="st2" d="M339.6,241.3h-3.3l-0.5,1.5h-2.7l3.4-9.3h3l3.4,9.3h-2.7L339.6,241.3z M338,236.4l-1,3h2L338,236.4z"/>
		<path class="st2" d="M363.5,233.6v9.3h-2.6l-3.4-5.2v5.2h-2.6v-9.3h2.6l3.4,5.3v-5.3H363.5z"/>
		<path class="st2" d="M384.7,238.2c0,2.7-1.9,4.6-4.8,4.6h-3.7v-9.3h3.7C382.8,233.6,384.7,235.5,384.7,238.2z M379.6,240.6
			c1.5,0,2.4-0.8,2.4-2.4c0-1.5-0.9-2.4-2.4-2.4h-0.9v4.8H379.6z"/>
		<path class="st2" d="M401.3,233.5c2.3,0,4,1.3,4.5,3.5H403c-0.3-0.7-0.9-1.1-1.7-1.1c-1.2,0-2,0.9-2,2.3c0,1.4,0.8,2.4,2,2.4
			c0.8,0,1.4-0.4,1.7-1.1h2.8c-0.5,2.1-2.1,3.5-4.5,3.5c-2.8,0-4.6-1.9-4.6-4.7C396.7,235.4,398.6,233.5,401.3,233.5z"/>
		<path class="st2" d="M422.3,233.6c2.3,0,3.5,1.3,3.5,3c0,1.2-0.7,2.3-2,2.7l2.1,3.6h-2.9l-1.8-3.4h-0.3v3.4h-2.6v-9.3H422.3z
			 M422.1,235.7h-1.3v1.9h1.3c0.7,0,1.1-0.3,1.1-1C423.1,236.1,422.8,235.7,422.1,235.7z"/>
		<path class="st2" d="M444,241.3h-3.3l-0.5,1.5h-2.7l3.4-9.3h3l3.4,9.3h-2.7L444,241.3z M442.3,236.4l-1,3h2L442.3,236.4z"/>
		<path class="st2" d="M459.2,233.6h6.3v2.1h-3.7v1.6h2.7v2h-2.7v3.6h-2.6V233.6z"/>
		<path class="st2" d="M477.3,233.6h7.5v2.1h-2.5v7.2h-2.6v-7.2h-2.4V233.6z"/>
		<path class="st2" d="M502.9,235.6h-3.4v1.5h3v2h-3v1.7h3.4v2.1H497v-9.3h5.9V235.6z"/>
		<path class="st2" d="M523.9,238.2c0,2.7-1.9,4.6-4.8,4.6h-3.7v-9.3h3.7C522,233.6,523.9,235.5,523.9,238.2z M518.8,240.6
			c1.5,0,2.4-0.8,2.4-2.4c0-1.5-0.9-2.4-2.4-2.4h-0.9v4.8H518.8z"/>
		<path class="st2" d="M549.6,233.6h2.8l1.1,6.3l1.5-6.3h2.8l1.4,6.3l1.1-6.3h2.8l-2.3,9.3h-3.2l-1.3-5.7l-1.3,5.7h-3.2L549.6,233.6
			z"/>
		<path class="st2" d="M575.3,233.6h2.6v9.3h-2.6V233.6z"/>
		<path class="st2" d="M590,233.6h7.5v2.1h-2.5v7.2h-2.6v-7.2H590V233.6z"/>
		<path class="st2" d="M615.4,239.1h-3.1v3.7h-2.6v-9.3h2.6v3.5h3.1v-3.5h2.6v9.3h-2.6V239.1z"/>
		<path class="st2" d="M646.9,233.6v7.3h2.9v2h-5.5v-9.3H646.9z"/>
		<path class="st2" d="M666.5,243c-2.6,0-4.8-2-4.8-4.8c0-2.8,2.1-4.8,4.8-4.8c2.6,0,4.8,2,4.8,4.8C671.2,241,669.1,243,666.5,243z
			 M666.5,240.6c1.3,0,2.1-0.9,2.1-2.4c0-1.5-0.8-2.4-2.1-2.4c-1.3,0-2.1,0.9-2.1,2.4C664.3,239.6,665.1,240.6,666.5,240.6z"/>
		<path class="st2" d="M689.9,233.6h2.8l-3.2,9.3h-3.3l-3.2-9.3h2.8l2.1,6.7L689.9,233.6z"/>
		<path class="st2" d="M710.5,235.6h-3.4v1.5h3v2h-3v1.7h3.4v2.1h-5.9v-9.3h5.9V235.6z"/>
	</g>
	<g>
		<rect x="299" y="252.6" class="st1" width="424.9" height="2.8"/>
	</g>
	<g>
		<rect x="299" y="219.5" class="st1" width="424.9" height="2.8"/>
	</g>
</g>
</svg>
