<?xml version="1.0" encoding="utf-8"?>
<!-- Generator: Adobe Illustrator 21.1.0, SVG Export Plug-In . SVG Version: 6.00 Build 0)  -->
<svg version="1.1" id="Guides" xmlns="http://www.w3.org/2000/svg" xmlns:xlink="http://www.w3.org/1999/xlink" x="0px" y="0px"
	 viewBox="0 0 500 500" style="enable-background:new 0 0 500 500;" xml:space="preserve">
<style type="text/css">
	.st0{fill:#BA6304;}
</style>
<g>
	<path class="st0" d="M248.3,40.5c1.8-1.9,3.3-4.1,4.7-6.3c1.4-2.2,2.6-4.5,3.7-6.9c2.1-4.7,3.8-9.5,4.2-14.4c0.1-2.5,0-4.8-1.1-7
		c-0.5-1-1.2-2-2-2.6c-0.8-0.7-1.8-1.1-2.8-1c-0.9,0.1-1.9,0.7-2.6,1.6c-0.7,0.9-1.3,2-1.8,3.2c-0.9,2.4-1.1,5-1.2,7.6l0,0
		c-0.3-2.7-1.9-5.1-3.7-7.1c-1.9-1.9-4.3-3.3-6.6-3.3c-1.1,0-1.9,0.3-2.8,1c-0.8,0.6-1.2,1.3-1.4,2.1c-0.4,1.5,0,3.8,0.8,6
		c0.4,1.1,0.8,2.2,1.4,3.2c0.3,0.5,0.6,1,0.9,1.4l1.1,1.4l0.5,0.7l0.7,0.8c0.4,0.5,0.9,1.1,1.3,1.7c0.8,1.1,1.7,2.3,2.4,3.5
		c1.5,2.5,2.8,5.1,3.4,8c0.6,2.9,0.6,5.9-0.4,8.6l0,0l0,0C247.2,41.9,247.8,41.1,248.3,40.5z M248.4,40.5c-0.6,0.7-1.1,1.4-1.3,2.3
		l0,0l0,0c-0.8-5.6-3.7-9.7-7.1-13.6c-0.9-1-1.7-1.9-2.6-2.9l-1.4-1.4l-0.7-0.7l-0.7-0.9l-1.5-1.7c-0.5-0.7-0.9-1.3-1.3-2
		c-0.8-1.4-1.4-2.8-1.8-4.3c-0.5-1.5-0.7-3.1-0.8-4.8c0-1.7,0.2-3.5,1.2-5.2c0.9-1.7,2.6-3,4.2-3.6l1.2-0.4c0.4-0.1,0.9-0.1,1.3-0.2
		c0.9,0,1.8,0.1,2.5,0.4c3.1,1.1,5.1,3.4,6.6,5.7c0.8,1.2,1.4,2.4,2,3.6c0.5,1.3,1,2.6,1.1,3.9l0,0c-0.5-2.6-0.7-5.3-0.1-8
		c0.3-1.4,0.8-2.7,1.6-3.9c0.8-1.2,2-2.4,3.8-2.7c1.7-0.3,3.3,0.2,4.6,1.1c1.3,0.9,2.2,2.1,2.9,3.4c0.7,1.3,1.2,2.7,1.4,4.1
		c0.1,0.7,0.2,1.5,0.2,2.1c0.1,0.7,0,1.4,0,2.1c-0.2,5.6-2.3,10.9-5.3,15.3c-1.5,2.2-3.1,4.3-4.9,6.3
		C251.9,36.6,250.3,38.7,248.4,40.5z"/>
	<g>
		<g>
			<path class="st0" d="M163,481.5c-2.3-0.3-4.1-1.2-5.5-2.7c-1.4-1.5-2-3.4-2-5.6c0-1.1,0.2-2.2,0.6-3.2c0.4-1,1.1-1.9,1.9-2.7
				c0.9-0.8,1.8-1.5,2.9-1.9c1-0.4,2.2-0.6,3.4-0.6c0.9,0,1.8,0.1,2.7,0.4c0.9,0.2,1.7,0.6,2.4,1.1c1.1,0.7,1.9,1.7,2.6,2.9
				c0.6,1.2,1,2.5,1,3.8c0,1.7-0.5,3.2-1.5,4.7c-1,1.4-2.3,2.5-4,3.2c-0.5,0.2-1.5,0.5-2.8,0.8c-1.3,0.3-2.2,0.7-2.7,1.1h0.4
				c0.6,0,1.2,0,1.8,0.1c0.6,0.1,1.1,0.2,1.7,0.4c0.4,0.1,1.2,0.5,2.3,1c1.2,0.5,2.1,0.8,2.7,0.8c0.4,0,0.8-0.1,1.2-0.3
				c0.3-0.2,0.7-0.5,1-0.9c0.1-0.2,0.2-0.3,0.3-0.4c0.1-0.1,0.2-0.1,0.2-0.1c0.1,0,0.1,0,0.2,0.1c0,0.1,0.1,0.1,0.1,0.2
				c0,1-0.4,1.8-1.1,2.6c-0.7,0.7-1.6,1.1-2.7,1.1c-1,0-2.2-0.5-3.4-1.6c-0.1-0.1-0.2-0.1-0.2-0.2c-1.1-0.9-1.9-1.5-2.5-1.9
				c-0.6-0.3-1.2-0.5-1.7-0.5c-0.6,0-1.2,0.2-1.8,0.7c-0.6,0.5-1,0.7-1.1,0.7s-0.2,0-0.3-0.1c-0.1-0.1-0.1-0.2-0.1-0.3
				c0-0.2,0.1-0.3,0.2-0.5c0.1-0.1,0.4-0.3,0.8-0.5c0.5-0.2,1.1-0.6,1.8-1C162.3,481.9,162.8,481.6,163,481.5z M158.5,473.2
				c0,2.4,0.5,4.4,1.5,5.8c1,1.4,2.4,2.1,4.1,2.1s3.2-0.7,4.3-2.2c1.1-1.4,1.6-3.3,1.6-5.7s-0.5-4.3-1.6-5.7c-1-1.4-2.4-2.2-4-2.2
				c-1.8,0-3.3,0.7-4.4,2.1C159,468.8,158.5,470.7,158.5,473.2z"/>
			<path class="st0" d="M185.1,467.7c0-0.6-0.1-1-0.2-1.3c-0.1-0.3-0.3-0.5-0.6-0.6c-0.1,0-0.2-0.1-0.4-0.1c-0.1,0-0.3-0.1-0.5-0.1
				c0,0,0,0-0.1,0c-0.4,0-0.6-0.1-0.6-0.3c0-0.1,0-0.1,0.1-0.2c0.1,0,0.2-0.1,0.3-0.1c0,0,0.2,0,0.4,0c0.9,0.1,1.8,0.1,2.7,0.1
				c1,0,1.9,0,2.9-0.1c0.2,0,0.3,0,0.3,0c0.1,0,0.2,0,0.3,0.1c0.1,0,0.1,0.1,0.1,0.2c0,0.1-0.2,0.2-0.5,0.3c0,0-0.1,0-0.1,0
				c-0.1,0-0.2,0-0.3,0c-0.1,0-0.3,0-0.4,0.1c-0.4,0.1-0.6,0.3-0.8,0.6s-0.2,0.7-0.2,1.4v8.4c0,1.6,0.4,2.7,1.1,3.5
				c0.7,0.7,1.8,1.1,3.3,1.1c1.8,0,3.1-0.4,3.9-1.3c0.8-0.9,1.3-2.3,1.3-4.2v-7.5c0-0.6-0.1-1-0.2-1.3c-0.1-0.3-0.3-0.5-0.6-0.6
				c-0.1,0-0.2-0.1-0.4-0.1c-0.1,0-0.3-0.1-0.5-0.1c0,0,0,0-0.1,0c-0.4-0.1-0.6-0.1-0.6-0.3c0-0.1,0-0.1,0.1-0.2
				c0.1,0,0.2-0.1,0.3-0.1c0.1,0,0.4,0,1,0s1,0,1.4,0c0.4,0,0.8,0,1.3,0s0.8,0,0.8,0c0.1,0,0.2,0,0.3,0.1c0.1,0,0.1,0.1,0.1,0.2
				c0,0.1-0.2,0.2-0.5,0.3c0,0-0.1,0-0.1,0c-0.1,0-0.2,0-0.4,0c-0.1,0-0.3,0-0.4,0.1c-0.4,0.1-0.6,0.3-0.7,0.6
				c-0.1,0.3-0.2,0.7-0.2,1.4v6.9c0,2.5-0.5,4.3-1.5,5.4c-1,1.1-2.7,1.6-5.1,1.6c-2,0-3.6-0.4-4.6-1.3c-1-0.9-1.5-2.1-1.5-3.8V467.7
				z"/>
			<path class="st0" d="M215.2,478.5c0,0.6,0.1,1,0.2,1.3c0.1,0.3,0.3,0.5,0.7,0.6c0.1,0.1,0.3,0.1,0.5,0.1c0.2,0,0.4,0.1,0.6,0.1
				c0,0,0,0,0.1,0c0.4,0.1,0.6,0.2,0.6,0.3c0,0.1,0,0.1-0.1,0.2c-0.1,0-0.2,0.1-0.3,0.1c0,0-0.1,0-0.3,0c-1-0.1-2-0.1-3-0.1
				c-1,0-2,0-3,0.1c-0.2,0-0.3,0-0.3,0c-0.1,0-0.3,0-0.3-0.1c-0.1,0-0.1-0.1-0.1-0.2c0-0.2,0.2-0.3,0.6-0.3c0,0,0,0,0,0c0,0,0,0,0,0
				c0.4,0,0.8-0.1,1-0.2c0.3-0.1,0.6-0.4,0.7-0.6c0.1-0.3,0.2-0.7,0.2-1.3v-10.7c0-0.6-0.1-1-0.2-1.3c-0.1-0.3-0.3-0.5-0.6-0.6
				c-0.1,0-0.3-0.1-0.4-0.1c-0.2,0-0.4-0.1-0.6-0.1c0,0,0,0-0.1,0c-0.5-0.1-0.7-0.1-0.7-0.3c0-0.1,0.1-0.1,0.2-0.2
				c0.1,0,0.3-0.1,0.5-0.1c0.1,0,0.2,0,0.4,0c0.9,0.1,1.8,0.1,2.7,0.1c0.9,0,1.9,0,2.9-0.1c0.2,0,0.3,0,0.3,0c0.2,0,0.3,0,0.4,0.1
				c0.1,0,0.2,0.1,0.2,0.2c0,0.1-0.2,0.2-0.6,0.3c-0.1,0-0.1,0-0.1,0c-0.2,0-0.3,0-0.5,0c-0.1,0-0.3,0-0.4,0.1
				c-0.4,0.1-0.6,0.3-0.8,0.6c-0.1,0.3-0.2,0.7-0.2,1.4V478.5z"/>
			<path class="st0" d="M231.1,478.1c0,0.7,0.1,1.3,0.2,1.6c0.1,0.3,0.4,0.6,0.8,0.8c0.1,0,0.2,0.1,0.4,0.1c0.1,0,0.3,0.1,0.4,0.1
				c0,0,0,0,0,0c0.3,0.1,0.4,0.2,0.4,0.3c0,0.1,0,0.1-0.1,0.2c-0.1,0-0.2,0.1-0.4,0.1c0,0-0.2,0-0.4,0c-0.7,0-1.3-0.1-1.9-0.1
				c-0.3,0-0.6,0-1,0s-0.7,0-0.9,0c-0.2,0-0.3,0-0.4-0.1c-0.1,0-0.2-0.1-0.2-0.2c0-0.1,0-0.2,0.1-0.2s0.2-0.1,0.4-0.1
				c0,0,0.1,0,0.2,0c0.3-0.1,0.6-0.2,0.7-0.2c0.3-0.2,0.5-0.4,0.6-0.7c0.1-0.3,0.2-0.8,0.2-1.6v-11.2c-0.2-0.3-0.4-0.6-0.6-0.7
				c-0.2-0.2-0.5-0.3-0.8-0.4c-0.1,0-0.2-0.1-0.4-0.1c0,0-0.1,0-0.1,0c0,0,0,0,0,0c-0.3,0-0.5-0.1-0.5-0.3c0-0.1,0.1-0.1,0.2-0.2
				c0.1,0,0.3-0.1,0.5-0.1c0.1,0,0.3,0,0.7,0c0.4,0,0.7,0,1.1,0c0.1,0,0.2,0,0.4,0c0.2,0,0.3,0,0.4,0c0,0,0.1,0,0.3,0
				c0.1,0,0.3,0,0.4,0c0.2,0,0.3,0,0.4,0.1c0.1,0.1,0.3,0.2,0.4,0.3l9.8,12.2V468c0-0.9-0.2-1.5-0.5-1.9c-0.3-0.4-0.8-0.6-1.5-0.6
				c-0.1,0-0.1,0-0.2-0.1s-0.1-0.1-0.1-0.2c0-0.1,0-0.1,0.1-0.2c0.1,0,0.2-0.1,0.3-0.1c0.1,0,0.5,0,1.1,0.1c0.6,0,1,0.1,1.4,0.1
				c0.2,0,0.5,0,0.7,0c0.2,0,0.5,0,0.7,0c0,0,0.1,0,0.1,0c0.2,0,0.4,0,0.5,0c0.1,0,0.2,0,0.3,0.1c0.1,0,0.1,0.1,0.1,0.2
				c0,0.1-0.2,0.2-0.5,0.3l0,0h0c-0.4,0.1-0.7,0.1-0.9,0.2c-0.3,0.2-0.5,0.4-0.6,0.7c-0.1,0.3-0.2,0.8-0.2,1.5v12.8
				c0,0.3,0,0.5-0.1,0.6c-0.1,0.1-0.2,0.1-0.3,0.1c-0.1,0-0.2,0-0.4-0.1c-0.1-0.1-0.3-0.2-0.4-0.5l-10.7-13.3V478.1z"/>
			<path class="st0" d="M263.7,478.5c0,0.6,0.1,1.1,0.2,1.3c0.1,0.3,0.3,0.5,0.7,0.6c0.2,0.1,0.6,0.2,1,0.2c0,0,0,0,0,0c0,0,0,0,0,0
				c0.4,0.1,0.6,0.2,0.6,0.3c0,0.1,0,0.1-0.1,0.2c-0.1,0-0.2,0.1-0.3,0.1c0,0-0.1,0-0.3,0c-1-0.1-2-0.1-3.1-0.1c-1,0-2.1,0-3.1,0.1
				c-0.2,0-0.2,0-0.3,0c-0.1,0-0.3,0-0.3-0.1c-0.1,0-0.1-0.1-0.1-0.2c0-0.2,0.2-0.3,0.6-0.3c0,0,0,0,0,0c0,0,0,0,0,0
				c0.4,0,0.8-0.1,1-0.2c0.3-0.1,0.6-0.3,0.7-0.6c0.1-0.3,0.2-0.7,0.2-1.3v-12c0-0.3-0.1-0.5-0.2-0.6c-0.2-0.1-0.5-0.2-1.1-0.2h-1
				c-1.3,0-2.2,0.1-2.8,0.2c-0.5,0.1-0.9,0.4-1.2,0.7c-0.2,0.3-0.3,0.7-0.4,1.2c-0.1,0.5-0.2,0.8-0.3,0.8c-0.1,0-0.1,0-0.2-0.1
				c0-0.1,0-0.2,0-0.3v-2.7c0-0.2,0-0.4,0.1-0.4c0.1-0.1,0.3-0.1,0.5-0.1c0.1,0,0.3,0,0.6,0c2.3,0.1,4.6,0.2,7.1,0.2
				c2.4,0,4.8,0,7.1-0.2c0.3,0,0.5,0,0.6,0c0.3,0,0.4,0,0.5,0.1c0.1,0.1,0.1,0.2,0.1,0.4v2.7c0,0.2,0,0.3,0,0.3c0,0-0.1,0.1-0.1,0.1
				c-0.1,0-0.2-0.3-0.3-0.8c-0.1-0.5-0.2-0.9-0.4-1.2c-0.2-0.4-0.6-0.6-1.1-0.7c-0.5-0.1-1.6-0.2-3.3-0.2h-0.4c-0.6,0-1,0-1.1,0.2
				c-0.2,0.1-0.2,0.3-0.2,0.6V478.5z"/>
			<path class="st0" d="M282.8,475.3l-1,2.6c-0.1,0.2-0.2,0.5-0.2,0.7c0,0.2-0.1,0.4-0.1,0.6c0,0.3,0.1,0.6,0.2,0.7
				c0.1,0.2,0.3,0.3,0.6,0.5c0.2,0.1,0.3,0.1,0.3,0.1c0.1,0,0.1,0,0.2,0c0.2,0,0.3,0.1,0.4,0.1c0.1,0,0.1,0.1,0.1,0.2
				c0,0.1,0,0.1-0.1,0.2c-0.1,0-0.2,0.1-0.3,0.1c0,0-0.3,0-0.8-0.1c-0.5,0-1-0.1-1.4-0.1c-0.3,0-0.7,0-1.2,0c-0.4,0-0.7,0-0.8,0
				c-0.2,0-0.3,0-0.4-0.1c-0.1,0-0.2-0.1-0.2-0.2c0-0.1,0-0.1,0.1-0.2c0.1,0,0.2-0.1,0.4-0.1c0.2,0,0.4-0.1,0.5-0.1
				c0.1,0,0.3-0.1,0.4-0.2c0.3-0.1,0.5-0.4,0.8-0.7c0.2-0.4,0.5-0.9,0.8-1.7l5.3-12.7c0.1-0.2,0.1-0.3,0.2-0.3
				c0.1-0.1,0.1-0.1,0.2-0.1c0.1,0,0.2,0,0.2,0.1c0.1,0.1,0.1,0.2,0.2,0.4l5.3,13.3c0.2,0.6,0.5,1,0.7,1.3c0.2,0.3,0.5,0.5,0.8,0.6
				c0.1,0,0.2,0.1,0.3,0.1c0.1,0,0.3,0.1,0.4,0.1c0.2,0,0.4,0.1,0.4,0.1c0.1,0,0.1,0.1,0.1,0.2c0,0.1,0,0.1-0.1,0.2
				c-0.1,0-0.2,0.1-0.3,0.1c-0.2,0-0.6,0-1.3,0c-0.7,0-1.3,0-1.7,0c-0.3,0-0.8,0-1.4,0.1c-0.6,0-1.1,0.1-1.5,0.1
				c-0.2,0-0.4,0-0.5-0.1c-0.1,0-0.2-0.1-0.2-0.2c0-0.1,0-0.1,0.1-0.2c0.1-0.1,0.3-0.1,0.6-0.2c0.5,0,0.8-0.1,1-0.3
				c0.2-0.1,0.3-0.3,0.3-0.6c0-0.2,0-0.4-0.1-0.7c-0.1-0.3-0.1-0.6-0.3-0.9l-1.1-2.9H282.8z M283.1,474.6h5.5l-2.7-6.9L283.1,474.6z
				"/>
			<path class="st0" d="M303.3,476.8c0-0.2,0-0.3,0-0.4c0-0.1,0.1-0.1,0.2-0.1c0.2,0,0.3,0.2,0.4,0.7c0.1,0.4,0.2,0.7,0.2,0.9
				c0.4,1,0.9,1.7,1.6,2.2c0.7,0.5,1.6,0.8,2.5,0.8c1.1,0,1.9-0.3,2.6-0.9s0.9-1.4,0.9-2.4c0-0.4-0.1-0.7-0.2-1.1
				c-0.1-0.3-0.3-0.6-0.5-0.9c-0.5-0.6-1.7-1.3-3.5-2.1c-0.3-0.1-0.5-0.2-0.7-0.3c-1-0.4-1.8-1-2.4-1.8c-0.6-0.8-0.8-1.6-0.8-2.6
				c0-1.2,0.4-2.3,1.3-3.1s2-1.2,3.4-1.2c1,0,1.9,0.3,2.9,0.8c0.3,0.2,0.5,0.2,0.6,0.2c0.1,0,0.3-0.1,0.4-0.4
				c0.1-0.3,0.2-0.4,0.3-0.4c0.1,0,0.2,0,0.2,0.1c0.1,0.1,0.1,0.2,0.1,0.4c0,0.1,0,0.3,0,0.6c0,0.3,0,0.7,0,1c0,0.2,0,0.4,0,0.7
				c0,0.3,0,0.6,0,0.7c0,0.3,0,0.5-0.1,0.5c0,0.1-0.1,0.1-0.2,0.1c-0.2,0-0.3-0.2-0.4-0.6c-0.1-0.4-0.2-0.6-0.3-0.9
				c-0.3-0.8-0.8-1.3-1.4-1.7c-0.6-0.4-1.3-0.6-2-0.6c-0.9,0-1.6,0.2-2.2,0.7c-0.5,0.5-0.8,1.2-0.8,2c0,1.2,1.1,2.2,3.4,3.2
				c0.1,0,0.2,0.1,0.2,0.1c1.8,0.8,3.1,1.6,3.8,2.4c0.7,0.8,1.1,1.8,1.1,3c0,1.4-0.5,2.5-1.6,3.4c-1.1,0.9-2.4,1.4-4.1,1.4
				c-1.2,0-2.4-0.3-3.6-1c-0.3-0.2-0.5-0.3-0.6-0.3c-0.1,0-0.2,0.1-0.3,0.4c-0.1,0.2-0.2,0.4-0.3,0.4c-0.1,0-0.1,0-0.2-0.1
				c0-0.1-0.1-0.1-0.1-0.3c0,0,0-0.2,0.1-0.6c0-0.4,0.1-0.8,0.1-1.2c0-0.3,0-0.7,0-1.2C303.3,477.3,303.3,477,303.3,476.8z"/>
		</g>
		<g>
			<path class="st0" d="M198.9,498.4V492c0-0.2,0-0.4-0.1-0.5c0-0.1-0.1-0.2-0.2-0.2c0,0-0.1,0-0.2,0c-0.1,0-0.1,0-0.2,0
				c0,0,0,0,0,0c-0.2,0-0.2-0.1-0.2-0.1c0,0,0,0,0-0.1c0,0,0.1,0,0.1,0c0,0,0.1,0,0.2,0c0.4,0,0.7,0,1.1,0c0.4,0,0.8,0,1.1,0
				c0.1,0,0.1,0,0.1,0c0.1,0,0.1,0,0.1,0c0,0,0,0,0,0.1c0,0-0.1,0.1-0.2,0.1c0,0,0,0,0,0c0,0-0.1,0-0.1,0c0,0-0.1,0-0.2,0
				c-0.1,0-0.2,0.1-0.3,0.2c-0.1,0.1-0.1,0.3-0.1,0.6v5.8c0,0.4,0,0.7-0.1,0.9c0,0.2-0.1,0.4-0.2,0.5c-0.2,0.3-0.4,0.5-0.7,0.6
				c-0.3,0.1-0.7,0.2-1.2,0.2c-0.4,0-0.8-0.1-1-0.2c-0.3-0.1-0.4-0.3-0.4-0.6c0-0.1,0-0.2,0.1-0.3c0.1-0.1,0.2-0.1,0.3-0.1
				c0.1,0,0.2,0,0.2,0.1c0.1,0,0.1,0.1,0.2,0.2c0.1,0.3,0.2,0.4,0.3,0.5c0.1,0.1,0.2,0.1,0.4,0.1c0.4,0,0.6-0.1,0.8-0.3
				C198.8,499.3,198.9,498.9,198.9,498.4z"/>
			<path class="st0" d="M208.5,495.7c0,0.6,0.1,1,0.3,1.2c0.2,0.2,0.6,0.2,1.1,0.2c0.5,0,0.8,0,1.1-0.1c0.2-0.1,0.4-0.2,0.5-0.5
				c0.1-0.1,0.1-0.3,0.2-0.4c0-0.2,0.1-0.2,0.1-0.2c0,0,0.1,0,0.1,0.1c0,0,0,0.1,0,0.2c0,0.1,0,0.3,0,0.5c0,0.2,0,0.4,0,0.5
				c0,0.1,0,0.2-0.1,0.2c0,0-0.1,0-0.3,0c0,0-0.1,0-0.3,0c-1.1,0-2.1,0-3.3,0c-0.4,0-0.8,0-1.1,0c-0.1,0-0.1,0-0.1,0
				c-0.1,0-0.1,0-0.1,0c0,0,0,0,0-0.1c0-0.1,0.1-0.1,0.2-0.1c0,0,0,0,0,0c0.1,0,0.1,0,0.2,0c0.1,0,0.1,0,0.2-0.1
				c0.1-0.1,0.2-0.1,0.2-0.2c0-0.1,0.1-0.3,0.1-0.5V492c0-0.2,0-0.4-0.1-0.5c0-0.1-0.1-0.2-0.2-0.2c0,0-0.1,0-0.2,0
				c-0.1,0-0.1,0-0.2,0c0,0,0,0,0,0c-0.2,0-0.2-0.1-0.2-0.1c0,0,0,0,0-0.1c0,0,0.1,0,0.1,0c0,0,0.1,0,0.1,0c0.5,0,0.9,0,1.4,0
				c0.2,0,0.6,0,1.1,0c0.5,0,0.9,0,1.3,0h0.2c0.3,0,0.4,0,0.5,0c0.1,0,0.1,0.1,0.1,0.2c0,0,0,0.1,0,0.2c0,0.1,0,0.2,0,0.3
				c0,0.1,0,0.2,0,0.3c0,0.1,0,0.2,0,0.2c0,0.1,0,0.1,0,0.1c0,0,0,0-0.1,0c-0.1,0-0.1-0.1-0.1-0.3c0-0.2-0.1-0.3-0.1-0.4
				c-0.1-0.2-0.3-0.3-0.5-0.4c-0.2-0.1-0.6-0.1-1.2-0.1h-0.1c-0.4,0-0.6,0-0.6,0.1c-0.1,0.1-0.1,0.2-0.1,0.4v2.2
				c0.4,0,0.8-0.1,1-0.1c0.2-0.1,0.3-0.2,0.5-0.4c0.1-0.1,0.1-0.3,0.1-0.4c0-0.2,0.1-0.3,0.1-0.3c0,0,0.1,0,0.1,0c0,0,0,0.1,0,0.1
				c0,0,0,0.2,0,0.4c0,0.2,0,0.4,0,0.6c0,0.3,0,0.5,0,0.8c0,0.3,0,0.4,0,0.4c0,0.1,0,0.1,0,0.1c0,0,0,0-0.1,0c0,0-0.1-0.1-0.1-0.2
				c0-0.1-0.1-0.2-0.1-0.3c-0.1-0.2-0.2-0.3-0.4-0.4c-0.2-0.1-0.5-0.1-0.9-0.1h-0.2V495.7z"/>
			<path class="st0" d="M220.7,496.3l1.5-4.9c0-0.2,0.1-0.3,0.1-0.3c0,0,0.1-0.1,0.1-0.1c0.1,0,0.2,0.1,0.3,0.4c0,0,0,0,0,0l1.5,4.8
				l0.9-2.9c0.1-0.3,0.2-0.6,0.2-0.9c0.1-0.3,0.1-0.5,0.1-0.7c0-0.1,0-0.2-0.1-0.3c-0.1-0.1-0.2-0.1-0.3-0.2c0,0-0.1,0-0.1,0
				c-0.1,0-0.2-0.1-0.2-0.1c0,0,0-0.1,0.1-0.1c0,0,0.1,0,0.1,0c0,0,0.1,0,0.1,0s0.1,0,0.1,0c0,0,0.1,0,0.2,0c0.3,0,0.6,0,0.8,0
				c0.1,0,0.1,0,0.2,0c0.1,0,0.1,0,0.2,0c0,0,0.1,0,0.1,0s0.1,0,0.1,0c0,0,0.1,0,0.1,0s0,0,0,0.1c0,0-0.1,0.1-0.2,0.1c0,0,0,0-0.1,0
				c0,0-0.1,0-0.1,0c-0.1,0-0.2,0.1-0.3,0.2c-0.1,0.1-0.2,0.3-0.3,0.7l-1.5,4.8c-0.1,0.2-0.1,0.3-0.2,0.4c-0.1,0.1-0.1,0.1-0.2,0.1
				c-0.1,0-0.1,0-0.2-0.1c0-0.1-0.1-0.2-0.1-0.4l-1.4-4.7l-1.4,4.6c-0.1,0.2-0.1,0.3-0.2,0.4c-0.1,0.1-0.1,0.1-0.2,0.1
				c-0.1,0-0.2-0.2-0.3-0.5c0,0,0,0,0,0l-1.7-5.2c-0.1-0.2-0.1-0.4-0.2-0.5c-0.1-0.1-0.2-0.1-0.3-0.2c0,0-0.1,0-0.2,0
				c-0.2,0-0.2-0.1-0.2-0.1c0,0,0-0.1,0-0.1c0,0,0.1,0,0.1,0c0,0,0.1,0,0.2,0c0.3,0,0.7,0,1,0c0.1,0,0.4,0,0.6,0c0.3,0,0.5,0,0.6,0
				c0.1,0,0.2,0,0.2,0c0,0,0.1,0,0.1,0.1c0,0.1-0.1,0.1-0.2,0.1c-0.1,0-0.1,0-0.2,0c-0.2,0-0.3,0.1-0.4,0.1
				c-0.1,0.1-0.1,0.2-0.1,0.3c0,0.2,0.4,1.5,1.1,4C220.5,495.9,220.6,496.1,220.7,496.3z"/>
			<path class="st0" d="M233.9,495.7c0,0.6,0.1,1,0.3,1.2c0.2,0.2,0.6,0.2,1.1,0.2c0.5,0,0.8,0,1.1-0.1c0.2-0.1,0.4-0.2,0.5-0.5
				c0.1-0.1,0.1-0.3,0.2-0.4c0-0.2,0.1-0.2,0.1-0.2c0,0,0.1,0,0.1,0.1c0,0,0,0.1,0,0.2c0,0.1,0,0.3,0,0.5c0,0.2,0,0.4,0,0.5
				c0,0.1,0,0.2-0.1,0.2c0,0-0.1,0-0.3,0c0,0-0.1,0-0.3,0c-1.1,0-2.1,0-3.3,0c-0.4,0-0.8,0-1.1,0c-0.1,0-0.1,0-0.1,0
				c-0.1,0-0.1,0-0.1,0c0,0,0,0,0-0.1c0-0.1,0.1-0.1,0.2-0.1c0,0,0,0,0,0c0.1,0,0.1,0,0.2,0c0.1,0,0.1,0,0.2-0.1
				c0.1-0.1,0.2-0.1,0.2-0.2c0-0.1,0.1-0.3,0.1-0.5V492c0-0.2,0-0.4-0.1-0.5c0-0.1-0.1-0.2-0.2-0.2c0,0-0.1,0-0.2,0
				c-0.1,0-0.1,0-0.2,0c0,0,0,0,0,0c-0.2,0-0.2-0.1-0.2-0.1c0,0,0,0,0-0.1c0,0,0.1,0,0.1,0c0,0,0.1,0,0.1,0c0.5,0,0.9,0,1.4,0
				c0.2,0,0.6,0,1.1,0c0.5,0,0.9,0,1.3,0h0.2c0.3,0,0.4,0,0.5,0c0.1,0,0.1,0.1,0.1,0.2c0,0,0,0.1,0,0.2c0,0.1,0,0.2,0,0.3
				c0,0.1,0,0.2,0,0.3c0,0.1,0,0.2,0,0.2c0,0.1,0,0.1,0,0.1c0,0,0,0-0.1,0c-0.1,0-0.1-0.1-0.1-0.3c0-0.2-0.1-0.3-0.1-0.4
				c-0.1-0.2-0.3-0.3-0.5-0.4c-0.2-0.1-0.6-0.1-1.2-0.1h-0.1c-0.4,0-0.6,0-0.6,0.1c-0.1,0.1-0.1,0.2-0.1,0.4v2.2
				c0.4,0,0.8-0.1,1-0.1c0.2-0.1,0.3-0.2,0.5-0.4c0.1-0.1,0.1-0.3,0.1-0.4c0-0.2,0.1-0.3,0.1-0.3c0,0,0.1,0,0.1,0c0,0,0,0.1,0,0.1
				c0,0,0,0.2,0,0.4c0,0.2,0,0.4,0,0.6c0,0.3,0,0.5,0,0.8c0,0.3,0,0.4,0,0.4c0,0.1,0,0.1,0,0.1c0,0,0,0-0.1,0c0,0-0.1-0.1-0.1-0.2
				c0-0.1-0.1-0.2-0.1-0.3c-0.1-0.2-0.2-0.3-0.4-0.4c-0.2-0.1-0.5-0.1-0.9-0.1h-0.2V495.7z"/>
			<path class="st0" d="M245,496c0,0.5,0.1,0.8,0.3,0.9c0.2,0.2,0.6,0.2,1.2,0.2c0.5,0,0.8,0,1.1-0.1c0.3-0.1,0.5-0.2,0.6-0.4
				c0.1-0.1,0.2-0.3,0.2-0.5c0.1-0.2,0.1-0.3,0.2-0.3c0,0,0,0,0.1,0c0,0,0,0.1,0,0.1l0,1.3c0,0.1,0,0.2,0,0.2c0,0-0.1,0-0.2,0
				c0,0-0.1,0-0.3,0c-0.9,0-1.8-0.1-2.7-0.1c-0.7,0-1.4,0-2.1,0.1c-0.1,0-0.1,0-0.1,0c-0.1,0-0.1,0-0.1,0c0,0,0,0,0-0.1
				c0-0.1,0.1-0.1,0.2-0.1c0,0,0,0,0,0c0.1,0,0.1,0,0.2,0c0.1,0,0.1,0,0.2-0.1c0.1-0.1,0.2-0.1,0.2-0.2s0.1-0.3,0.1-0.5V492
				c0-0.2,0-0.4-0.1-0.5s-0.1-0.2-0.2-0.2c0,0-0.1,0-0.2,0c-0.1,0-0.1,0-0.2,0c0,0,0,0,0,0c-0.2,0-0.2-0.1-0.2-0.1c0,0,0,0,0-0.1
				c0,0,0.1,0,0.1,0c0,0,0.1,0,0.2,0c0.4,0,0.7,0,1.1,0c0.4,0,0.8,0,1.1,0c0.1,0,0.1,0,0.1,0c0.1,0,0.1,0,0.1,0c0,0,0,0,0,0.1
				c0,0-0.1,0.1-0.2,0.1c0,0,0,0,0,0c0,0-0.1,0-0.1,0c0,0-0.1,0-0.2,0c-0.1,0-0.2,0.1-0.3,0.2c-0.1,0.1-0.1,0.3-0.1,0.6V496z"/>
			<path class="st0" d="M256.1,496.3c0,0.3,0,0.4,0.1,0.5c0,0.1,0.1,0.2,0.2,0.2c0,0,0.1,0,0.2,0.1c0.1,0,0.1,0,0.2,0c0,0,0,0,0,0
				c0.2,0,0.2,0.1,0.2,0.1c0,0,0,0.1,0,0.1c0,0-0.1,0-0.1,0c0,0-0.1,0-0.1,0c-0.4,0-0.8,0-1.1,0c-0.4,0-0.8,0-1.1,0
				c-0.1,0-0.1,0-0.1,0c-0.1,0-0.1,0-0.1,0c0,0,0,0,0-0.1c0-0.1,0.1-0.1,0.2-0.1c0,0,0,0,0,0c0.1,0,0.1,0,0.2,0c0.1,0,0.1,0,0.2-0.1
				c0.1-0.1,0.2-0.1,0.2-0.2c0-0.1,0.1-0.3,0.1-0.5V492c0-0.2,0-0.4-0.1-0.5c0-0.1-0.1-0.2-0.2-0.2c0,0-0.1,0-0.2,0
				c-0.1,0-0.1,0-0.2,0c0,0,0,0,0,0c-0.2,0-0.2-0.1-0.2-0.1c0,0,0,0,0-0.1c0,0,0.1,0,0.1,0h0.1c0.1,0,0.2,0,0.3,0c0.1,0,0.3,0,0.4,0
				c0.2,0,0.6,0,1,0c0.4,0,0.7,0,0.9,0c0.8,0,1.4,0.1,1.8,0.4c0.4,0.3,0.6,0.7,0.6,1.2c0,0.5-0.1,0.9-0.5,1.1s-0.7,0.5-1.3,0.5
				l2.1,2.4c0.1,0.1,0.2,0.2,0.3,0.3c0.1,0.1,0.3,0.1,0.4,0.2c0,0,0,0,0,0c0.1,0.1,0.2,0.1,0.2,0.2c0,0,0,0,0,0.1c0,0-0.1,0-0.1,0
				c0,0,0,0,0,0c0,0,0,0,0,0c0,0,0,0-0.1,0c-0.2,0-0.4,0-0.6,0c0,0-0.1,0-0.1,0s-0.1,0-0.1,0h-0.2c-0.1,0-0.2,0-0.3,0
				c-0.1,0-0.1-0.1-0.1-0.1l-2.1-2.6c-0.1-0.1-0.1-0.1-0.2-0.2c-0.1,0-0.2,0-0.3,0c-0.1,0-0.1,0-0.1,0c0,0,0,0.1,0,0.2V496.3z
				 M256.1,493.9c0,0.1,0,0.2,0,0.2c0,0,0.1,0,0.2,0c0.7,0,1.2-0.1,1.5-0.3c0.3-0.2,0.4-0.6,0.4-1.1c0-0.5-0.1-0.9-0.4-1.2
				c-0.3-0.3-0.7-0.4-1.3-0.4c-0.2,0-0.3,0-0.4,0.1c-0.1,0.1-0.1,0.2-0.1,0.3V493.9z"/>
			<path class="st0" d="M268.9,496.3c0,0.3,0,0.4,0.1,0.5c0,0.1,0.1,0.2,0.2,0.2c0,0,0.1,0,0.2,0.1c0.1,0,0.1,0,0.2,0c0,0,0,0,0,0
				c0.2,0,0.2,0.1,0.2,0.1c0,0,0,0.1,0,0.1c0,0-0.1,0-0.1,0c0,0,0,0-0.1,0c-0.4,0-0.8,0-1.1,0c-0.4,0-0.8,0-1.1,0
				c-0.1,0-0.1,0-0.1,0c-0.1,0-0.1,0-0.1,0c0,0,0,0,0-0.1c0-0.1,0.1-0.1,0.2-0.1c0,0,0,0,0,0c0.1,0,0.2,0,0.2,0c0.1,0,0.1,0,0.2-0.1
				c0.1-0.1,0.2-0.1,0.2-0.2c0-0.1,0.1-0.3,0.1-0.5v-1.5l-1.7-3c0,0,0,0,0-0.1c-0.2-0.3-0.4-0.5-0.6-0.6c0,0-0.1,0-0.1,0
				c-0.2,0-0.2-0.1-0.2-0.1c0,0,0-0.1,0.1-0.1c0,0,0.1,0,0.2,0c0,0,0.1,0,0.1,0s0.1,0,0.1,0c0,0,0,0,0.1,0c0.2,0,0.5,0,0.7,0
				c0.2,0,0.4,0,0.6,0c0.2,0,0.4,0,0.4,0c0.1,0,0.1,0,0.2,0c0.1,0,0.1,0,0.2,0c0.1,0,0.1,0,0.2,0c0,0,0,0,0,0.1
				c0,0.1-0.1,0.1-0.2,0.1c-0.1,0-0.1,0-0.2,0c-0.1,0-0.2,0.1-0.3,0.1c-0.1,0.1-0.1,0.1-0.1,0.2c0,0.1,0,0.1,0.1,0.3
				c0,0.1,0.1,0.2,0.2,0.4l1.3,2.5c0.1-0.2,0.3-0.5,0.5-0.9c0.7-1.2,1.1-1.9,1.1-2.2c0-0.1,0-0.2-0.1-0.3c0-0.1-0.1-0.1-0.2-0.1
				c0,0-0.1,0-0.2,0c-0.1,0-0.2-0.1-0.2-0.1c0,0,0-0.1,0-0.1c0,0,0.1,0,0.1,0c0,0,0.1,0,0.1,0c0,0,0.1,0,0.1,0c0.1,0,0.2,0,0.3,0
				c0.1,0,0.2,0,0.4,0c0.2,0,0.5,0,0.7,0h0c0,0,0,0,0,0c0,0,0,0,0,0c0,0,0.1,0,0.1,0c0,0,0,0,0,0.1c0,0,0,0.1-0.1,0.1c0,0,0,0,0,0
				c-0.1,0-0.2,0.1-0.3,0.1c-0.1,0.1-0.2,0.1-0.3,0.3c0,0.1-0.3,0.5-0.7,1.2c-0.4,0.7-0.9,1.4-1.3,2.1V496.3z"/>
		</g>
	</g>
	<g>
		<g>
			<g>
				<path class="st0" d="M112.2,309.1c-7.4,13.8-11.1,20.6-18.5,33.8c0.1,0.1,0.2,0.2,0.3,0.3c6.9-2,14.4-8.9,19.3-15.1
					c1.8-2.3,1.9-2.7,2.5-2.7c0.3,0,0.5,0.3,0.6,0.7c0.1,0.6-0.8,1.5-4.1,5.4c-6.1,7.2-13.9,12.5-19.1,13.5
					c-3.9,9.2-18.6,34.2-30.5,30.6c-3.7-1.1-6.6-4.3-7-8.8c-0.9-10.6,11-13.5,31.4-22.1c1.6-4,3.4-8.5,7.4-17.2
					c-0.1-0.1-0.2-0.2-0.3-0.3c-3.1,4.7-11,13.5-18,11.9c-6-1.4-8.4-6.6-8.9-13.4c-0.3-3.3,0.5-4.6,0.3-6.6c0-0.3-0.2-0.4-0.5-0.5
					c-0.8-0.2-1,0.6-1.3,0.5c-0.3-0.1-0.5-0.5-0.6-0.9c0-0.4,0.4-0.9,3.7-3.8c5.3-4.6,15.7-9,23.3-7.8c4.1,0.6,6.8,2.7,7.2,7.1
					c0.1,1.7,0.2,3.2-0.1,4.5c0.1,0.1,0.2,0.2,0.3,0.3c1.4-2.5,3.2-5.8,4.5-9.3C107.3,309.1,108.9,309.1,112.2,309.1z M63.2,374.1
					c9.6,2.9,21.1-20.3,23-27.6c-8,3.7-28.2,9.2-27.2,21.4C59.3,371,59.9,373.1,63.2,374.1z M72.3,332.6c0.2,2.2,1.5,4.4,3.7,4.9
					c9.5,2.2,22.3-16.9,21.7-24c-0.2-2.9-1.2-4.9-4.3-5.3C83.2,306.6,71.5,322.6,72.3,332.6z"/>
			</g>
			<g>
				<path class="st0" d="M143.7,333.8c0.3,0.1,0.7,0.2,1.4,0.2c4.4-0.2,8.5-3.1,11.4-7c1.5-2,1.6-2.3,2-2.3c0.5,0,0.7,0.2,0.7,0.6
					c0,0.3-0.2,0.8-2.9,4.1c-2.9,3.6-7.2,6-12.2,6.3c-0.9,0-1.3,0.1-1.7-0.1c-3.6,4.6-8.4,9.4-15.6,9.3c-5.1-0.1-8.4-4.7-9-11.7
					c-0.4-4.6,0.1-5.9,0.1-6.7c0-0.5-0.2-0.8-0.5-0.8c-1,0-1.7,2-2.1,1.9c-0.4,0-0.8-0.3-0.8-0.7c-0.1-0.6,3.9-4.9,6.7-7.8
					c6.8-6.8,14.4-10,20.2-10.2c4.9-0.2,8,3.3,8.5,8.5C150.3,322.6,147.2,329.8,143.7,333.8z M141.9,310.5c-9,0.3-19.4,17.2-18.5,28
					c0.3,3.6,2,4.8,3.8,4.8c10.1,0.1,20.8-15.6,19.7-27.3C146.6,312.9,145.1,310.3,141.9,310.5z"/>
			</g>
			<g>
				<path class="st0" d="M161.7,343.3c11.1-21.9,17.2-30.7,16.9-34.2c-0.1-1-1.1-1.7-2.3-1.5c-1.8,0.2-4.8,2-9.4,7.7
					c-7.1,8.8-8.1,11-8.6,11.1c-0.4,0-0.7-0.2-0.7-0.6c-0.1-0.6,3.9-5.6,6.8-9.5c5-6.4,8.7-9.9,12.3-10.3c3.2-0.4,5.3,2.3,5.5,5.3
					c0.5,5.1-4.3,14.4-6.6,18.1c0.1,0.1,0.2,0.1,0.3,0.2c6.1-8.7,12-13.8,12.9-17.3c0.9-3.8,3.3-8.4,7.8-9.1
					c2.2-0.3,3.1,0.2,3.3,1.6c0.4,4.9-13.6,10.8-12.8,19.6c0.2,2.5,2.3,4,4.6,3.7c2.1-0.3,4-1.5,5.6-3.4c2.6-3.2,3.4-5.4,3.9-5.5
					c0.4-0.1,0.8,0.1,0.8,0.5c0,0.4-1.8,3-2.9,4.5c-2.3,3.3-5,4.8-7.5,5.1c-2.8,0.4-5.8-1.1-6.1-4.2c-0.3-2.9,0.5-5.2,1.9-7.5
					c-0.1-0.1-0.2-0.1-0.3-0.2c-6.1,7-11.7,15.1-17.5,24.1C166.5,342.4,164.9,342.7,161.7,343.3z"/>
			</g>
			<g>
				<path class="st0" d="M247.7,295.3c-7.4,15.5-11.1,23.3-18.4,38.8c0.1,0.1,0.2,0.1,0.3,0.2c6.9-4.1,14.4-13,19.3-20.4
					c1.8-2.7,1.9-3.1,2.5-3.2c0.3,0,0.5,0.2,0.6,0.6c0.1,0.6-0.8,1.7-4.1,6.3c-6.1,8.6-13.9,16.1-19,18.8
					c-3.9,10.4-18.6,40.6-30.5,42.4c-3.7,0.6-6.6-1.2-7-5.5c-0.9-10.1,11-19.5,31.4-35.2c1.6-4.5,3.4-9.7,7.4-19.6
					c-0.1-0.1-0.2-0.1-0.3-0.2c-3.1,5.7-11,17.2-18,18.3c-6,1-8.4-3.1-8.9-9.7c-0.3-3.2,0.5-4.8,0.3-6.7c0-0.3-0.2-0.4-0.5-0.3
					c-0.8,0.1-1,1-1.3,1.1c-0.3,0-0.5-0.3-0.6-0.7c0-0.4,0.4-1.1,3.7-5.5c5.2-6.9,15.7-15.3,23.3-16.6c4.1-0.7,6.8,0.6,7.2,4.9
					c0.1,1.6,0.2,3.2-0.1,4.5c0.1,0.1,0.2,0.1,0.3,0.2c1.4-2.9,3.2-6.7,4.5-10.5C242.7,296.6,244.4,296.1,247.7,295.3z M198.7,377.2
					c9.6-1.5,21.1-28.9,23-36.9c-8,6.5-28.2,20.8-27.2,32.6C194.8,375.9,195.3,377.7,198.7,377.2z M207.8,331.7
					c0.2,2.2,1.5,3.7,3.7,3.4c9.5-1.6,22.3-24.6,21.7-31.5c-0.2-2.8-1.2-4.5-4.3-4C218.6,301.3,206.9,322.1,207.8,331.7z"/>
			</g>
			<g>
				<path class="st0" d="M257.8,316.3c-0.1,1.4-0.3,2.9-0.1,4.3c0.4,4.9,2,6.3,6,5.9c3.5-0.4,9.9-4,17.1-12.6
					c4.6-5.7,5.6-8.2,6.2-8.2c0.4,0,0.7,0.2,0.7,0.7c0,0.5-4.4,7-8,10.9c-5.9,6.7-10.7,9.9-16.7,10.9c-7,1.2-10.7-5.2-11.3-11.8
					c-0.2-1.9,0.1-3.4,0.1-3.7c0-0.3-0.2-0.2-0.2-0.2c-0.1,0.1-0.2,0.4-0.3,0.4c-0.1,0-0.7-0.4-0.7-0.7c0-0.5,3.3-5,4.3-6.2
					c6.4-8.2,14.2-14.5,21.1-15.4c3.9-0.5,6.6,1.7,7,5.2C283.6,305.2,265.2,313.5,257.8,316.3z M258.1,314.7
					c8.4-2.4,21.4-11.5,20.5-20.7c-0.1-1.7-1.1-2.3-2.8-2.1C269.1,292.9,259.3,307.3,258.1,314.7z"/>
			</g>
			<g>
				<path class="st0" d="M314.8,311.3c0.3,0.1,0.7,0.2,1.4,0.2c4.4-0.2,8.5-2.9,11.4-6.7c1.5-2,1.6-2.2,2-2.2c0.5,0,0.7,0.2,0.7,0.6
					c0,0.3-0.2,0.8-2.9,3.9c-2.9,3.4-7.2,5.7-12.2,6c-0.9,0.1-1.3,0.1-1.7,0c-3.6,4.7-8.4,9.7-15.6,10.4c-5.1,0.5-8.4-3.6-9-10.4
					c-0.4-4.6,0.1-5.9,0.1-6.7c0-0.5-0.2-0.7-0.5-0.7c-1,0.1-1.7,2.3-2.1,2.3c-0.4,0-0.8-0.2-0.8-0.5c-0.1-0.6,3.9-5.6,6.7-8.9
					c6.8-7.8,14.4-11.6,20.2-12c4.9-0.3,8,3.3,8.5,8.4C321.4,300.2,318.3,307.2,314.8,311.3z M313,288c-9,0.6-19.4,18.8-18.5,29.5
					c0.3,3.6,2,4.5,3.8,4.4c10.1-1,20.8-16.7,19.7-28.3C317.7,290.5,316.2,287.8,313,288z"/>
			</g>
			<g>
				<path class="st0" d="M351.4,286.3c-13.6,24.3-16.3,26.4-15.8,31.4c0.1,1.5,1.3,2.2,2.4,2.2c6.7,0.1,22.1-18.8,28.9-31.7
					c3.3,0.2,4.9,0.4,8.2,0.7c-2.9,5.5-17.1,24.2-16.6,29.8c0.1,1.4,0.8,2.3,2.4,2.4c1.8,0.2,5.8-2.1,11.3-7.4
					c6.9-6.8,6.8-7.5,7.5-7.3c0.4,0.1,0.7,0.4,0.7,0.8c0,0.4-4.3,4.9-6.8,7.4c-6,5.7-9.7,8.4-13.1,8.1c-4.5-0.4-5.8-5.6-6.1-8.7
					c-0.2-1.8,0.1-3.5,0.5-4.8c-0.1-0.1-0.2-0.2-0.3-0.3c-3.4,3.7-10.5,12.7-16.4,12.6c-4.1-0.1-6.2-3.1-6.5-6.9
					c-0.9-9.7,6.9-17,11.1-24c-0.1-0.1-0.2-0.2-0.3-0.3c-3.5,2.7-7.3,7.4-10.8,11.6c-1.5,1.9-1.5,2.2-2,2.2c-0.4,0-0.5-0.2-0.6-0.8
					c0-0.4,0.5-1.2,5.9-7.4c2.3-2.7,5.4-6,9.4-9.5C347.1,286.4,348.5,286.3,351.4,286.3z"/>
			</g>
			<g>
				<path class="st0" d="M404.1,319.7c-6.2,5.9-11.9,8.4-19.1,6.9c-3-0.6-4.1-1-5.9-2.6c-1.1-1-2.3-3.4-2.4-4.8
					c-0.2-2.2,0.6-3.5,2.9-3.1c1.4,0.3,2.8,1.4,2.9,2.6c0.2,2.6-1.7,1.2-1.5,3.6c0.1,1.2,0.8,2.1,2.4,2.4c6,1.2,11.7-11.4,11.1-18.5
					c-0.5-6.3-1-11.7-0.3-12.1c-0.1-0.1-0.2-0.2-0.3-0.3c-1.5,0.5-10.7,10.6-13.4,13.5c-0.5,0.6-0.7,0.9-1.1,0.8
					c-0.4-0.1-0.5-0.4-0.6-0.6c-0.1-0.9,1.8-2.2,5-6.1c2.6-3.2,9.4-9.5,10.1-9.7c0.2-0.1,1.1-3.6,3.9-2.8c1.5,0.4,2.3,1.4,2.4,2.6
					c0.2,2.5-2.5,2.5-4.8,2.6c-0.1,1.2-0.4,1.6-0.3,2.9c0.8,9.7,3.8,13.4,4.2,18.8c0.3,3.2-1,5.3-2.8,6.9c0.1,0.1,0.1,0.1,0.1,0.2
					c4-1.9,6.5-4.6,8.5-6.5c2.3-2.2,2.4-2.8,2.9-2.6c0.4,0.1,0.7,0.5,0.7,1C408.8,315.2,406.4,317.6,404.1,319.7z"/>
			</g>
		</g>
	</g>
	<g>
		<g>
			<g>
				<g>
					<path class="st0" d="M72.5,188.9c9.5-19,24.2-28.2,26.6-28.1c0.4,0,0.4,0.4,0.4,0.5c0.1,0.9-9.3,4.3-16.3,22.9
						c-8.2,21.9-27.1,53-53.4,44.8c-10.7-3.3-18.2-10.6-18.9-18.3c-0.3-3.1,1.3-5.4,4.8-4c2.7,1,4.9,3.9,5.2,6.7
						c0.3,3.2-1.5,3.5-1.2,5.8c0.3,3.2,5.3,6.8,10.7,8.5C49.6,233.6,57.7,218.5,72.5,188.9z M13.2,174.9c0.6,6.8,6.3,12,12.5,14
						c12.2,4.1,27.2-6,34.3-18.9c4.2-7.5,3.2-9.6,4.4-9.4c0.3,0,0.4,0.2,0.4,0.6c0.3,3.1-7.7,40.1-38,30.1
						c-6.8-2.2-14.4-8.7-15.1-16.5c-1.3-15,9.8-21.8,22.2-24.4c12.2-2.6,29,0,64.8,1.5c22.5,1,25-2.2,26.5-2.2c0.4,0,0.5,0,0.6,0.6
						c0.1,1.7-6.3,7.9-16.2,7.8c-15-0.1-34.8-4.8-41.6-5.8C32.5,146.9,11.6,156,13.2,174.9z"/>
				</g>
				<g>
					<path class="st0" d="M86,239.2c6-11.9,12.1-23.3,18.4-33.9c-0.1-0.1-0.1-0.2-0.1-0.3c-3.2,3.9-4.8,6.5-9,11.3
						c-5,5.7-4.9,6.2-5.5,6.2c-0.4,0-0.5-0.3-0.6-0.8c-0.1-1.3,13.8-14.3,23.5-33.9c4.7-9.5,7.1-14.4,11.8-24.1
						c3.1-0.5,4.6-0.7,7.8-1.2c-4.1,8.8-24.4,47.9-32.1,63.8c0.1,0.1,0.2,0.2,0.3,0.3c11.1-13.7,19.8-22,24.2-22.2
						c3.7-0.1,5.4,3.1,5.7,6.4c0.6,7-12.4,20.4-11.9,26.1c0.1,0.9,0.8,1.8,2.1,1.8c4-0.1,7.5-3.8,14.1-11.6c2.7-3.1,5.3-7.4,5.9-7.4
						c0.4,0,0.7,0.2,0.7,0.6c0,0.4-2.7,4.2-5.8,8c-8.2,10.5-12.4,12-15.4,12.1c-2.6,0.1-5.3-1.3-5.8-7c-1-11.3,12.4-20.5,11.9-25.7
						c-0.1-0.9-0.9-1.6-1.6-1.6c-6.8,0.2-27.9,26.1-30.8,33C90.7,239.1,89.2,239.1,86,239.2z"/>
				</g>
				<g>
					<path class="st0" d="M184.8,199.1c-3.2,4.9-16.1,29.5-15.7,34c0.1,1,0.7,1.7,2.3,1.5c3.9-0.5,10.2-8.1,16.9-17.9
						c1.4-2,1.5-2.3,1.7-2.3c0.5-0.1,0.8,0.4,0.8,0.6c0,0.3-3.7,5.5-6.4,9.1c-5.4,7-9.9,11.6-13.4,12.1c-3.5,0.5-5.8-1.1-6.4-8
						c-0.1-0.9,0-1.7-0.1-2.3c-3.5,4.3-10.1,12.3-14.9,12.8c-6.5,0.6-8.6-5.2-9.1-10.9c-0.2-2-0.1-4,0.1-6c-0.3,0-0.5,0.4-0.7,0.4
						c-0.3,0-0.5-0.3-0.6-0.6c0-0.5,0.3-0.7,1.8-2.8c6.2-8.9,16-16.4,24.9-17.5c3.9-0.5,5.8,2.1,6.1,5.5c0.1,1.4,0.1,2.7-0.1,3.5
						c0.1,0.1,0.2,0.1,0.3,0.2c4-7.9,3.6-9.5,6.3-10C181.1,199.8,182.3,199.5,184.8,199.1z M149.6,237c7.4-0.7,21.9-21,21-30.4
						c-0.2-2.5-1.7-4.4-4.4-4.1c-10.4,1.3-20.8,21.4-20,30.6C146.5,235.6,147.5,237.2,149.6,237z"/>
				</g>
				<g>
					<path class="st0" d="M192.8,232.8c2-5.1,18.1-31.4,17.7-35.3c-0.1-1.3-1.1-1.7-2.1-1.5c-3.6,0.7-6.8,4-12.7,12.1
						c-5.4,7.5-5.3,7.9-5.8,8c-0.4,0.1-0.7-0.2-0.7-0.7c0-0.4,2.9-4.4,4.4-6.6c5.5-8.1,10.3-13.6,15.3-14.5c3.3-0.6,5,1.5,5.3,5.3
						c0.5,5.1-4.2,13.2-6.7,17.4c0.1,0.1,0.2,0.1,0.3,0.2c4.6-5.6,17.8-26.1,24.3-27.4c3.2-0.6,4.9,2.4,5.1,5
						c0.4,4.3-1.9,8.5-3.8,11.8c-5.1,8.8-7.5,13.9-7.3,16c0.1,1.3,1,2.4,2.3,2.1c3-0.6,7.9-6.2,12.7-12.8c5.9-8.1,5.4-8.4,6.2-8.6
						c0.4-0.1,0.5,0.3,0.6,0.5c0.1,0.6-5.7,8.9-7.3,10.8c-5.2,6.7-9.3,11-12.3,11.6c-3.9,0.8-6-2.4-6.4-7
						c-0.9-10.1,12-23.3,11.7-26.7c-0.1-0.9-0.8-1.4-1.9-1.2c-6.2,1.2-27,32.5-30.3,39.1C197.9,231.5,196.2,231.9,192.8,232.8z"/>
				</g>
				<g>
					<path class="st0" d="M289.4,136.9c-15.3,33.6-22.9,50.5-38.2,84.3c-3.5,0.9-5.2,1.4-8.7,2.3c7.1-14.7,10.6-22.1,17.6-36.8
						c-0.1-0.1-0.2-0.1-0.3-0.2c-1.8,2.8-5.4,8.4-7.8,11.9c-5.2,7.3-5.4,8.2-5.9,8.3c-0.3,0.1-0.5-0.2-0.6-0.7
						c-0.1-0.8,1-1.5,9.8-14.7c11.4-17.2,13.4-24.1,26.2-52.1C284.7,138.2,286.3,137.8,289.4,136.9z M286.1,181.9
						c-2.8,1-3.7,2.8-5.4,6.4c-1.9,3.8-6.1,7.4-10.2,8.9c0,0.1,0,0.2,0,0.3c3.5-0.1,7.2,3.6,7.5,6.3c0.2,2.7-2.1,8.5-2,9.4
						c0.1,1,1.1,1.7,2.1,1.5c4-0.8,9.8-8.4,12-11.4c6.4-8.7,6.3-9.5,6.8-9.6c0.5-0.1,0.8,0.1,0.8,0.5c0,0.4-3.2,5.1-5.9,8.8
						c-4.1,5.6-10,12.5-14.2,13.4c-4.8,0.9-7.3-4.5-7.6-8.1c-0.3-3.8,2-6.3,1.9-8.5c-0.1-1-1.5-1.8-2.5-1.6
						c-1.4,0.3-2.5,2.3-4.9,2.8c-1.3,0.3-2-0.2-2.1-1.1c-0.1-0.8,0.6-2.2,4.3-2.9c0.6-0.1,1.2,0,2.5-0.2c1.9-0.4,7.4-5.1,10.6-10.6
						c3.2-5.5,5.1-6.9,8.1-7.5c2.8-0.5,5,0.7,5.2,3c0.2,2.1-1.5,3.7-3.3,4.1C287.2,186.3,286.5,184.7,286.1,181.9z"/>
				</g>
				<g>
					<path class="st0" d="M376.1,167.3c-7.8,15.2-11.8,22.9-19.6,38.4c0.1,0.1,0.2,0.1,0.3,0.2c8.5-4.9,15.4-13.2,19.5-18.9
						c2.2-2.9,2.2-3.2,2.8-3.2c0.3,0,0.5,0.2,0.6,0.6c0,0.4-3,4.3-4.9,6.9c-6.5,8.3-12.3,12.6-19.4,17.2
						c-11.2,24.4-22.4,38.5-30.1,39.6c-3.6,0.5-6.5-1.3-6.9-5.9c-0.8-9.2,13.1-21.3,32.8-35.8c3.7-8.9,5.6-13.3,9.3-22.2
						c-0.1-0.1-0.2-0.1-0.3-0.2c-2.9,4.9-15.5,21.1-21.8,21.9c-3.2,0.4-5.9-3.1-6.2-6.5c-0.8-9.3,10.6-20.6,10.1-26.2
						c-0.1-1-0.7-1.6-2.2-1.4c-3.2,0.4-6.8,3.9-11.2,9.7c-6.6,8.6-6.6,9.7-7.3,9.8c-0.4,0.1-0.5-0.2-0.6-0.6c0-0.4,0.3-1,5.6-8.4
						c6.6-9.2,10.7-11.7,13.6-12.1c4-0.5,6,2.9,6.3,6.3c0.8,9-10.6,21.4-10.1,26.1c0.1,1.4,0.6,1.9,2,1.7c8-1,26.2-27.5,29.6-36
						C371.2,168,372.9,167.8,376.1,167.3z M350.1,209c-22,17.3-29.5,26.7-28.9,33.3c0.3,3.3,2.1,4.6,4.3,4.2
						c6.4-0.9,14.6-11.2,24.7-37.4C350.2,209.1,350.1,209.1,350.1,209z"/>
				</g>
				<g>
					<path class="st0" d="M406.9,192.2c0.3,0.1,0.7,0.3,1.4,0.3c4.4,0.2,8.5-2,11.4-5.5c1.5-1.8,1.6-2,2-2c0.5,0,0.7,0.3,0.7,0.7
						c0,0.3-0.2,0.7-2.9,3.6c-2.9,3.1-7.2,4.9-12.2,4.7c-0.9,0-1.3-0.1-1.7-0.2c-3.6,4.3-8.4,8.8-15.6,8.8c-5.1,0-8.4-4.4-9-11.3
						c-0.4-4.6,0.1-5.9,0.1-6.7c0-0.5-0.2-0.8-0.5-0.8c-1,0-1.7,2.1-2.1,2.1c-0.4,0-0.8-0.2-0.8-0.6c-0.1-0.6,3.9-5.3,6.7-8.3
						c6.8-7.2,14.4-10.2,20.2-10c4.9,0.2,8,4.1,8.5,9.3C413.6,181.8,410.4,188.5,406.9,192.2z M405.1,168.8
						c-9-0.4-19.4,16.9-18.5,27.6c0.3,3.6,2,4.7,3.8,4.7c10.1,0,20.8-14.6,19.7-26.3C409.9,171.7,408.4,168.9,405.1,168.8z"/>
				</g>
				<g>
					<path class="st0" d="M443.5,171.3c-13.6,22.7-16.3,24.6-15.8,29.6c0.1,1.6,1.3,2.3,2.4,2.5c6.7,0.8,22.1-16.3,28.9-28.4
						c3.3,0.6,4.9,0.9,8.2,1.6c-2.9,5.2-17.1,22.2-16.6,28c0.1,1.4,0.8,2.4,2.4,2.7c1.8,0.4,5.8-1.4,11.3-6.1c6.9-6,6.8-6.7,7.5-6.5
						c0.4,0.1,0.7,0.5,0.7,0.9c0,0.4-4.3,4.4-6.8,6.7c-6,5.1-9.7,7.3-13.1,6.6c-4.5-1-5.8-6.3-6.1-9.4c-0.2-1.8,0.1-3.5,0.5-4.8
						c-0.1-0.1-0.2-0.2-0.3-0.3c-3.4,3.3-10.5,11.5-16.4,10.8c-4.1-0.5-6.2-3.8-6.5-7.7c-0.9-9.8,6.9-16.2,11.1-22.8
						c-0.1-0.1-0.2-0.2-0.3-0.3c-3.5,2.3-7.3,6.6-10.8,10.4c-1.5,1.8-1.5,2-2,2c-0.4,0-0.5-0.3-0.6-0.8c0-0.4,0.5-1.2,5.9-6.7
						c2.3-2.4,5.4-5.4,9.4-8.4C439.2,170.9,440.7,171,443.5,171.3z"/>
				</g>
				<g>
					<path class="st0" d="M469.3,219.5c-0.5-0.2-0.8-0.4-0.8-0.8c-0.1-0.8,0.6-0.3,3.7-0.5c7.1-0.4,8.9-2.3,8.8-7.5
						c-0.1-6.4,1-8.2,4.4-7c1.9,0.7,3.4,2.3,3.6,4.5C489.8,216.8,476,221.6,469.3,219.5z"/>
				</g>
			</g>
		</g>
	</g>
	<g>
		<g>
			<path class="st0" d="M420,329.6c0,3.5-1.4,5.6-5.1,5.6c-2.1,0-3.3-0.8-3.3-3.7c0-2.9,1.3-5.2,4.6-5.2
				C418.6,326.3,420,327.5,420,329.6z M443.2,278h8.4L421,323.2h-2.3L443.2,278z"/>
		</g>
	</g>
</g>
</svg>
