<?xml version="1.0" encoding="utf-8"?>
<!-- Generator: Adobe Illustrator 21.1.0, SVG Export Plug-In . SVG Version: 6.00 Build 0)  -->
<svg version="1.1" id="Guides" xmlns="http://www.w3.org/2000/svg" xmlns:xlink="http://www.w3.org/1999/xlink" x="0px" y="0px"
	 viewBox="0 0 100 100" style="enable-background:new 0 0 100 100;" xml:space="preserve">
<style type="text/css">
	.st0{fill:#FFFFFF;}
</style>
<g>
	<g>
		<path class="st0" d="M44.5,95.3c0.6,0.2,2.4,0.8,5.6,0.8c3.1,0,5-0.6,5.6-0.8c1.5-0.5,2.4-1.4,2.9-2.1c0.3-0.4-0.1-0.9-0.5-0.8
			c-2.3,0.4-5,0.6-8,0.6c-3,0-5.6-0.3-7.9-0.6c-0.5-0.1-0.8,0.5-0.5,0.8C42.1,93.9,43,94.8,44.5,95.3z"/>
		<circle class="st0" cx="50" cy="46.4" r="1.7"/>
		<circle class="st0" cx="39.4" cy="56.4" r="1.7"/>
		<circle class="st0" cx="60.5" cy="53.4" r="1.7"/>
		<path class="st0" d="M40.7,90c0,0.3,0.2,0.5,0.5,0.6c2.5,0.4,5.4,0.7,8.8,0.7c3.3,0,6.3-0.3,8.8-0.7c0.3,0,0.5-0.3,0.5-0.6
			l0.2-1.8c0-0.4-0.3-0.8-0.8-0.7c-2.5,0.4-5.4,0.7-8.7,0.7c-3.3,0-6.2-0.3-8.7-0.7c-0.4-0.1-0.8,0.3-0.8,0.7L40.7,90z"/>
		<path class="st0" d="M40.2,85.2c0,0.3,0.3,0.5,0.5,0.6c2.6,0.4,5.8,0.7,9.3,0.7c2.7,0,5.8-0.2,9.3-0.7c0.3,0,0.5-0.3,0.6-0.6
			l0.2-1.8c0-0.4-0.3-0.8-0.8-0.7c-2.7,0.4-5.8,0.7-9.2,0.7c-3.5,0-6.6-0.3-9.3-0.7C40.4,82.7,40,83,40,83.4L40.2,85.2z"/>
		<path class="st0" d="M51.8,23.5L53,7c0-0.4-0.1-0.9-0.4-1.2l-1.5-1.4c-0.6-0.6-1.5-0.6-2.1,0l-1.5,1.4C47.1,6.1,46.9,6.5,47,7
			l1.2,16.5c0,0.3,0.3,0.5,0.6,0.5c0.8,0,1.8,0,2.5,0C51.5,24,51.8,23.8,51.8,23.5z"/>
		<path class="st0" d="M55.1,23.9l2.3-11.7c0.1-0.5,0-1-0.4-1.4l-1-1.1c-0.3-0.3-0.8-0.2-0.9,0.3l-1.9,13.6c0,0.3,0.2,0.6,0.5,0.6
			c0.2,0,0.5,0.1,0.7,0.1C54.8,24.4,55.1,24.2,55.1,23.9z"/>
		<path class="st0" d="M46.7,23.6L44.8,10c-0.1-0.4-0.6-0.6-0.9-0.3l-1,1.1c-0.3,0.4-0.5,0.9-0.4,1.4l2.3,11.7
			c0.1,0.3,0.3,0.5,0.6,0.4c0.2,0,0.5-0.1,0.7-0.1C46.5,24.2,46.7,23.9,46.7,23.6z"/>
		<path class="st0" d="M70,32.5c4.2-3.6,8.4-7.2,12.6-10.8c0.3-0.3,0.5-0.7,0.5-1.1l0-2.1c0-0.8-0.7-1.5-1.5-1.5l-2.1,0
			c-0.4,0-0.9,0.2-1.1,0.5L67.4,30c-0.2,0.2-0.2,0.6,0,0.8l1.8,1.8C69.4,32.7,69.8,32.7,70,32.5z"/>
		<path class="st0" d="M82.6,27.3l0.1-1.5c0-0.4-0.5-0.7-0.8-0.4L71,33.7c-0.2,0.2-0.3,0.5-0.1,0.8c0.1,0.2,0.3,0.4,0.4,0.5
			c0.2,0.2,0.5,0.3,0.8,0.1l9.8-6.6C82.3,28.3,82.6,27.8,82.6,27.3z"/>
		<path class="st0" d="M66.3,29L74.6,18c0.3-0.3,0-0.8-0.4-0.8l-1.5,0.1c-0.5,0-1,0.3-1.3,0.7l-6.6,9.8c-0.2,0.3-0.1,0.6,0.1,0.8
			c0.2,0.1,0.4,0.3,0.5,0.4C65.7,29.3,66.1,29.2,66.3,29z"/>
		<path class="st0" d="M76.5,51.8L93,53c0.4,0,0.9-0.1,1.2-0.4l1.4-1.5c0.6-0.6,0.6-1.5,0-2.1l-1.4-1.5c-0.3-0.3-0.7-0.5-1.2-0.4
			l-16.5,1.2c-0.3,0-0.5,0.3-0.5,0.6c0,0.7,0,1.8,0,2.5C76,51.5,76.2,51.8,76.5,51.8z"/>
		<path class="st0" d="M76.1,55.1l11.6,2.3c0.5,0.1,1,0,1.4-0.4l1.1-1c0.3-0.3,0.2-0.8-0.3-0.9l-13.5-1.9c-0.3,0-0.6,0.2-0.6,0.5
			c0,0.2-0.1,0.4-0.1,0.7C75.6,54.8,75.8,55.1,76.1,55.1z"/>
		<path class="st0" d="M76.4,46.6l13.5-1.9c0.4-0.1,0.6-0.6,0.3-0.9l-1.1-1c-0.4-0.3-0.9-0.5-1.4-0.4l-11.6,2.3
			c-0.3,0.1-0.5,0.3-0.4,0.6l0.1,0.7C75.8,46.4,76.1,46.7,76.4,46.6z"/>
		<path class="st0" d="M67.6,70.1l10.7,12.4c0.3,0.3,0.7,0.5,1.1,0.5l2.1,0c0.8,0,1.5-0.7,1.5-1.5l0-2.1c0-0.4-0.2-0.9-0.5-1.1
			L70.1,67.5c-0.2-0.2-0.6-0.2-0.8,0c-0.5,0.5-1.3,1.4-1.7,1.8C67.4,69.6,67.4,69.9,67.6,70.1z"/>
		<path class="st0" d="M65.3,72.8l6.1,9.1c0.3,0.4,0.7,0.7,1.3,0.7l1.5,0.1c0.4,0,0.7-0.5,0.4-0.8l-7.9-10.4c-0.2-0.3-0.7-0.3-0.9,0
			c-0.2,0.2-0.3,0.4-0.5,0.6C65.2,72.4,65.2,72.6,65.3,72.8z"/>
		<path class="st0" d="M71.1,66.3l10.9,8.2c0.3,0.3,0.8,0,0.8-0.4l-0.1-1.5c0-0.5-0.3-1-0.7-1.3l-9.8-6.6c-0.3-0.2-0.6-0.1-0.8,0.1
			c-0.1,0.2-0.3,0.4-0.4,0.5C70.8,65.7,70.8,66.1,71.1,66.3z"/>
		<path class="st0" d="M30,67.5L17.5,78.2c-0.3,0.3-0.5,0.7-0.5,1.1l0,2.1c0,0.8,0.7,1.5,1.5,1.5l2.1,0c0.4,0,0.9-0.2,1.1-0.5
			l10.7-12.5c0.2-0.2,0.2-0.5,0-0.8c-0.5-0.5-1.3-1.3-1.7-1.8C30.5,67.3,30.2,67.3,30,67.5z"/>
		<path class="st0" d="M27.9,64.8l-9.8,6.6c-0.4,0.3-0.7,0.7-0.7,1.3l-0.1,1.5c0,0.4,0.5,0.7,0.8,0.4L29,66.3
			c0.2-0.2,0.3-0.5,0.1-0.8l-0.4-0.5C28.5,64.7,28.1,64.6,27.9,64.8z"/>
		<path class="st0" d="M33.4,71.4l-7.9,10.5c-0.3,0.3,0,0.8,0.4,0.8l1.5-0.1c0.5,0,1-0.3,1.3-0.7c0,0,5-7.5,6.2-9.2
			c0.1-0.2,0.1-0.5,0-0.6c-0.1-0.2-0.3-0.4-0.4-0.6C34.1,71.1,33.6,71.1,33.4,71.4z"/>
		<path class="st0" d="M24,48.7c0-0.3-0.2-0.6-0.5-0.6L7,46.9c-0.4,0-0.9,0.1-1.2,0.4l-1.4,1.5c-0.6,0.6-0.6,1.5,0,2.1l1.4,1.5
			C6.1,52.9,6.6,53,7,53l16.5-1.2c0.3,0,0.5-0.3,0.5-0.6C24,50.6,24,49.5,24,48.7z"/>
		<path class="st0" d="M23.9,44.8l-11.6-2.3c-0.5-0.1-1,0-1.4,0.4l-1.1,1c-0.3,0.3-0.2,0.8,0.3,0.9l13.6,1.9c0.3,0,0.6-0.2,0.6-0.5
			c0-0.2,0.1-0.5,0.1-0.7C24.4,45.2,24.2,44.9,23.9,44.8z"/>
		<path class="st0" d="M23.6,53.3l-13.6,1.9c-0.4,0.1-0.6,0.6-0.3,0.9l1.1,1c0.4,0.3,0.9,0.5,1.4,0.4l11.6-2.3
			c0.3-0.1,0.5-0.3,0.4-0.6c0-0.2-0.1-0.5-0.1-0.7C24.2,53.5,23.9,53.3,23.6,53.3z"/>
		<path class="st0" d="M32.6,30L21.7,17.4c-0.3-0.3-0.7-0.5-1.1-0.5l-2.1,0c-0.8,0-1.5,0.7-1.5,1.5l0,2.1c0,0.4,0.2,0.9,0.5,1.1
			L30,32.5c0.2,0.2,0.6,0.2,0.8,0c0.5-0.5,1.3-1.3,1.8-1.7C32.8,30.6,32.8,30.2,32.6,30z"/>
		<path class="st0" d="M35.2,27.9l-6.6-9.9c-0.3-0.4-0.7-0.7-1.3-0.7l-1.5-0.1c-0.4,0-0.7,0.5-0.4,0.8L33.7,29
			c0.2,0.2,0.5,0.3,0.8,0.1c0.2-0.1,0.4-0.3,0.5-0.4C35.3,28.5,35.4,28.2,35.2,27.9z"/>
		<path class="st0" d="M29,33.7l-10.9-8.3c-0.3-0.3-0.8,0-0.8,0.4l0.1,1.5c0,0.5,0.3,1,0.7,1.3l9.9,6.6c0.3,0.2,0.6,0.1,0.8-0.1
			c0.1-0.2,0.3-0.4,0.4-0.5C29.3,34.2,29.3,33.9,29,33.7z"/>
		<path class="st0" d="M74.4,48.3c0-0.5-0.1-1.1-0.2-1.6c-0.1-0.5-0.1-0.9-0.2-1.4c-0.6-3.3-1.9-6.3-3.7-8.9c-0.3-0.5-0.7-0.9-1-1.4
			c-0.3-0.4-0.6-0.7-0.9-1.1c-0.7-0.8-1.5-1.6-2.3-2.3c-0.4-0.4-0.8-0.7-1.3-1c-0.4-0.3-0.9-0.7-1.3-1c-2.6-1.7-5.6-3-8.8-3.6
			c-0.5-0.1-1.1-0.2-1.6-0.2c-0.5-0.1-1-0.1-1.5-0.1c-0.5,0-1-0.1-1.5-0.1c-0.6,0-1.1,0-1.7,0.1c-0.1,0-0.1,0-0.2,0
			c-0.5,0-0.9,0.1-1.4,0.2c-0.5,0.1-1,0.2-1.6,0.3C42,26.7,39,28,36.4,29.8c-0.4,0.3-0.9,0.6-1.3,0.9c-0.4,0.3-0.8,0.6-1.2,1
			c-0.8,0.7-1.5,1.4-2.2,2.2c-0.4,0.4-0.7,0.8-1,1.3c-0.3,0.4-0.6,0.8-0.9,1.3c-1.8,2.7-3.1,5.7-3.7,8.9c-0.1,0.5-0.2,1-0.2,1.5
			c0,0.2-0.1,0.4-0.1,0.6c0,0.3,0,0.6,0,0.8c-0.1,1.1-0.1,2.2,0,3.2c0,0.5,0.1,1.1,0.1,1.6c0.1,0.5,0.2,1.1,0.3,1.6
			c0.6,3.1,1.8,6.1,3.5,8.6c0.3,0.4,0.5,0.8,0.8,1.1c0.4,0.6,0.8,1.1,1.3,1.6c0.5,0.6,1,1.1,1.6,1.6c0.2,0.2,0.4,0.4,0.6,0.6
			c0.2,0.2,0.4,0.4,0.6,0.6c0.6,0.6,1.1,1.3,1.6,2c1.9,2.7,3.2,5.8,3.7,9c0.1,0.6,0.5,1,1.1,1.1c1,0.1,2.1,0.3,3.3,0.4
			c0.4,0,0.8-0.3,0.8-0.7v-8.9v-1c0-0.7-0.3-1.5-0.8-2l-4.7-4.7c-0.5-0.5-0.8-1.2-0.8-2l0-1.5c0-0.6-0.3-1.1-0.8-1.3
			c-1.3-0.7-2-2.2-1.7-3.8c0.3-1.2,1.3-2.2,2.5-2.5c2.2-0.5,4.2,1.2,4.2,3.3c0,1.3-0.7,2.4-1.8,3c-0.5,0.3-0.8,0.8-0.8,1.3l0,0.7
			c0,0.7,0.3,1.5,0.8,2l4.7,4.7c0.5,0.5,0.8,1.2,0.8,2v2.4V81c0,0.4,0.3,0.7,0.7,0.7c0.4,0,0.7,0,1.1,0c0.4,0,0.7-0.3,0.7-0.7v-8.7
			l0-21.7c0-0.6-0.3-1.1-0.8-1.3c-1.3-0.7-2-2.2-1.7-3.8c0.3-1.2,1.3-2.2,2.5-2.5c2.2-0.5,4.2,1.2,4.2,3.3c0,1.3-0.7,2.4-1.8,3
			c-0.5,0.3-0.8,0.8-0.8,1.3l0,21.6V81c0,0.4,0.3,0.7,0.7,0.7c0.4,0,0.7,0,1.1,0c0.4,0,0.7-0.3,0.7-0.7V72v-5c0-0.7,0.3-1.5,0.8-2
			l4.7-4.7c0.5-0.5,0.8-1.2,0.8-2l0-0.6c0-0.6-0.3-1.1-0.8-1.4c-1.3-0.6-2.1-2-1.8-3.6c0.2-1.5,1.5-2.6,2.9-2.8
			c2.1-0.3,3.8,1.4,3.8,3.4c0,1.2-0.7,2.3-1.7,2.9c-0.5,0.3-0.7,0.8-0.7,1.3v1.4c0,0.7-0.3,1.5-0.8,2l-4.7,4.7
			c-0.5,0.5-0.8,1.2-0.8,2v4v9c0,0.4,0.4,0.8,0.8,0.7c1.1-0.1,2.4-0.3,3.3-0.4c0.6-0.1,1-0.5,1.1-1.1c0.6-3.2,1.9-6.2,3.7-8.9
			c0.3-0.5,0.7-1,1.1-1.4c0.3-0.4,0.6-0.8,1-1.2c0.3-0.3,0.6-0.7,1-1c0.4-0.4,0.8-0.8,1.2-1.3c0.4-0.4,0.7-0.9,1.1-1.3
			c0.3-0.4,0.7-0.9,1-1.3c1.8-2.6,3-5.6,3.7-8.8c0.1-0.6,0.2-1.2,0.3-1.8c0.1-0.4,0.1-0.8,0.1-1.2c0-0.6,0.1-1.2,0.1-1.8
			C74.5,49.4,74.4,48.9,74.4,48.3z"/>
	</g>
</g>
</svg>
