<?xml version="1.0" encoding="utf-8"?>
<!-- Generator: Adobe Illustrator 21.1.0, SVG Export Plug-In . SVG Version: 6.00 Build 0)  -->
<svg version="1.1" id="Guides" xmlns="http://www.w3.org/2000/svg" xmlns:xlink="http://www.w3.org/1999/xlink" x="0px" y="0px"
	 viewBox="0 0 600 600" style="enable-background:new 0 0 600 600;" xml:space="preserve">
<style type="text/css">
	.st0{fill:#FFFFFF;}
</style>
<g>
	<path class="st0" d="M300,600c-40.5,0-79.8-7.9-116.8-23.6c-17.8-7.5-34.9-16.8-51-27.7c-15.9-10.7-30.8-23.1-44.4-36.6
		c-13.6-13.6-25.9-28.5-36.6-44.4c-10.8-16-20.1-33.2-27.7-51C7.9,379.8,0,340.5,0,300s7.9-79.8,23.6-116.8
		c7.5-17.8,16.8-34.9,27.7-51c10.7-15.9,23.1-30.8,36.6-44.4c13.6-13.6,28.5-25.9,44.4-36.6c16-10.8,33.2-20.1,51-27.7
		C220.2,7.9,259.5,0,300,0s79.8,7.9,116.8,23.6c17.8,7.5,34.9,16.8,51,27.7c15.9,10.7,30.8,23.1,44.4,36.6
		c13.6,13.6,25.9,28.5,36.6,44.4c10.8,16,20.1,33.2,27.7,51c15.6,37,23.6,76.3,23.6,116.8s-7.9,79.8-23.6,116.8
		c-7.5,17.8-16.8,34.9-27.7,51c-10.7,15.9-23.1,30.8-36.6,44.4c-13.6,13.6-28.5,25.9-44.4,36.6c-16,10.8-33.2,20.1-51,27.7
		C379.8,592.1,340.5,600,300,600z M300,4.6C137.1,4.6,4.6,137.1,4.6,300S137.1,595.4,300,595.4S595.4,462.9,595.4,300
		S462.9,4.6,300,4.6z"/>
</g>
<g>
	<g>
		<g>
			<g>
				<path class="st0" d="M141.4,398.4c-1.6,0.5-3.1,0.2-4.6-0.9c-0.7-0.7-1.2-1.4-1.5-2.3c-0.1-0.4-0.2-11-0.1-31.6l0.5-54.6
					c-0.9,0.3-2.8,1.2-5.6,2.7c-2.4,1.5-4.5,3-6.3,4.4c-0.4,0.2-0.8,0.4-1.1,0.5c-1.5,0.5-2.9,0.2-4.3-0.7c-0.9-0.7-1.5-1.5-1.8-2.6
					c-0.4-1.2-0.2-2.5,0.7-3.8c0.6-0.7,1.9-1.8,3.9-3.1c4.7-3.2,9.5-5.6,14.5-7.2c0-0.1,0-0.5,0-1.2c0-0.1,0-6.8,0.1-20.1l0-9.1
					c-0.1-2.9,0.9-4.6,3.1-5.3c1.6-0.5,3.1-0.2,4.7,0.9c0.6,0.6,1.1,1.3,1.4,2l0.2,1l0,9.3l0,20.8l5.5,0c3.2-0.1,5.6-0.4,7.3-1
					c1.2-0.4,1.9-0.9,2.2-1.4c0.6-0.7,1.3-1.2,2-1.4c1.5-0.5,2.9-0.3,4.3,0.5c0.9,0.7,1.5,1.5,1.9,2.5c0.4,1.1,0.2,2.3-0.3,3.4
					c-0.3,0.6-0.7,1-1.1,1.4c-1.6,1.5-3.7,2.6-6.3,3.4c-3.7,1.2-8.4,1.7-14,1.6l-1.5,0.1c-0.4,58.4-0.6,87.9-0.7,88.3
					c0,0.4-0.3,1-0.7,1.7C143.1,397.5,142.4,398.1,141.4,398.4z"/>
			</g>
		</g>
		<g>
			<g>
				<path class="st0" d="M180,366.6c-3.2,1-6.6,1.2-10,0.5c-3.9-0.9-7.2-3.1-10-6.4c-2.1-2.6-3.6-5.5-4.6-8.7
					c-1.6-5-2.2-10.3-1.6-15.9c0.7-6.6,2.9-12.1,6.5-16.3c2.5-2.8,5.4-4.8,8.8-5.9c5.8-1.8,11-0.7,15.6,3.4
					c3.4,3.2,5.9,7.3,7.6,12.5c1.6,5,2.2,10.4,1.7,16.1c-0.2,1.8-0.4,3.4-0.7,4.7c1.5-0.5,3-1.5,4.5-3c3.9-4.1,5.8-10.2,5.7-18.2
					c0.2-2.1,1.3-3.4,3.2-4c1.2-0.4,2.4-0.3,3.5,0.4c1.1,0.6,1.9,1.5,2.3,2.7c0.2,0.6,0.2,1.6,0.2,3.1c-0.1,2.8-0.4,5.3-0.8,7.6
					c-0.6,3-1.8,6.2-3.5,9.5c-3.4,5.7-7.6,9.3-12.6,10.9c-2.2,0.7-4.5,1-6.9,0.8C186.6,363.3,183.6,365.5,180,366.6z M177,357.9
					c0.8-0.2,1.6-0.6,2.4-1.2c2.8-1.8,4.3-6.4,4.8-7.9c0.4-1.7,0.7-3.6,0.7-5.7c0.1-3.7-0.4-7.2-1.5-10.5c-1.4-4.5-3.5-7.6-6.2-9.2
					c-1.7-1-3.5-1.2-5.4-0.6c-3.4,1.1-5.9,3.8-7.6,8.3c-0.5,1.4-0.8,2.8-1.1,4c-0.8,4.9-0.5,9.4,0.9,13.7c1.4,4.4,3.7,7.4,6.8,8.9
					C172.9,358.4,175,358.5,177,357.9z"/>
			</g>
		</g>
		<g>
			<g>
				<path class="st0" d="M229.8,350.7c-3.2,1-6.6,1.2-10,0.5c-3.9-0.9-7.2-3.1-10-6.4c-2.1-2.6-3.6-5.5-4.6-8.7
					c-1.6-5-2.2-10.3-1.6-15.9c0.7-6.6,2.9-12.1,6.5-16.3c2.5-2.8,5.4-4.8,8.8-5.9c5.8-1.8,11-0.7,15.6,3.4
					c3.4,3.2,5.9,7.3,7.6,12.5c1.6,5,2.2,10.4,1.7,16.1c-0.2,1.8-0.4,3.4-0.7,4.7c1.5-0.5,3-1.5,4.5-3c3.9-4.1,5.8-10.2,5.7-18.2
					c0.2-2.1,1.3-3.4,3.2-4c1.2-0.4,2.4-0.3,3.5,0.4c1.1,0.6-0.1,19.6-1.9,22.8c-3.4,5.7-7.6,9.3-12.6,10.9c-2.2,0.7-4.5,1-6.9,0.8
					C236.4,347.4,233.4,349.5,229.8,350.7z M226.8,341.9c0.8-0.2,1.6-0.6,2.4-1.2c2.4-1.9,4.2-4.2,4.8-7.9c0.4-1.7,0.7-3.6,0.7-5.7
					c0.1-3.7-0.4-7.2-1.5-10.5c-1.4-4.5-3.5-7.6-6.2-9.2c-1.7-1-3.5-1.2-5.4-0.6c-3.4,1.1-5.9,3.8-7.6,8.3c-0.5,1.4-0.8,2.8-1.1,4
					c-0.8,4.9-0.5,9.4,0.9,13.7c1.4,4.4,3.7,7.4,6.8,8.9C222.8,342.5,224.8,342.6,226.8,341.9z"/>
			</g>
		</g>
		<g>
			<g>
				<path class="st0" d="M292.2,332.5c-1.2,0.4-2.3,0.3-3.5-0.3c-1.1-0.6-1.9-1.4-2.2-2.6c-0.2-0.6-0.1-2.2-0.1-2.5
					c-1.4,2.2-3.1,4.2-5.1,5.8c-5.9,4.9-15.4,8.2-22.2,3.2c-2.4-1.9-4.2-4.6-5.2-7.9c-1.2-3.6-1.4-7.8-0.8-12.6
					c1-7.2,3.8-13.7,8.4-19.4c3.9-4.6,8.3-7.7,13.2-9.3c3.9-1.3,8.1-1.5,12.5-0.8l0.6-31.9c0.3-2,1.3-3.3,3.2-3.9
					c1.4-0.5,2.8-0.2,4.1,0.7c0.8,0.6,1.4,1.4,1.6,2.3c0.2,0.5,0,11.5-0.4,32.8l-0.8,40.8c0,1.1-0.1,1.9-0.2,2.3
					C294.7,331,293.7,332,292.2,332.5z M271.7,328.6c0,0,6.9-3,12.7-14.2c0.8-1.5,1.4-3,1.4-3c0.2-0.5,0.8-1.4,0.8-1.9l0.3-13.9
					c-3.5-0.7-6.7-0.6-9.6,0.4c-4.6,1.5-8.4,4.7-11.4,9.8c-1.6,2.9-2.7,5.7-3.3,8.2c-0.9,3.8-2.1,7.9-0.1,11.8
					c0.5,1,1.4,2.9,3.4,3.7C266.3,329.5,268.2,330.1,271.7,328.6z"/>
			</g>
		</g>
	</g>
	<g>
		<g>
			<g>
				<path class="st0" d="M256.1,463.6c-7.4,2.4-14.7,1.6-22-2.3l-2.3-1.5c-5.8-4.1-10-10.3-12.7-18.7c-1.6-5-2.7-11.6-3.3-19.8
					c-0.4-7.8-0.1-15.3,0.9-22.5c-5.9,3.1-9.6,8.2-11.1,15.1c-1.3,5.9-0.9,12.2,1.2,18.7l0.6,1.6c0.5,1.4,0.1,2.9-1,4.3
					c-0.6,0.6-1.3,1.1-2,1.3c-1.5,0.5-2.9,0.2-4.2-0.7c-0.7-0.5-1.3-1.3-1.6-2.5L198,435c-2-6.1-2.7-12.3-2.1-18.6
					c0.4-4.1,1.5-8.1,3.2-11.9c4-8,10.2-13.3,18.7-16l1.4-0.4c2.2-6.8,5.2-12.5,8.9-17.1c4.5-5.5,10.1-9.3,16.7-11.4
					c5.6-1.8,10.4-1.6,14.4,0.5c1.8,0.9,3.4,2.4,4.6,4.5c0.4,0.8,0.7,1.4,0.9,2c1,3,0.9,6.1-0.1,9.3c-1,2.9-3,5.4-6,7.6
					c-3.3,2.4-8.6,4.8-15.8,7.1c-2.9,0.9-8.3,2.5-16.1,4.7c-1.9,8.2-2.4,17.6-1.5,28.1c0.6,6.1,1.5,11.3,2.8,15.4
					c2.2,6.7,5.8,11.6,11,14.7c4.6,2.5,9.4,2.9,14.3,1.4c6.1-1.9,11-6.4,14.6-13.4c1-2.2,1.7-4.1,2.1-5.5c1.3-4.4,1.9-9.5,1.6-15.3
					c-0.2-1.7-0.2-2.8-0.1-3.2c0.2-1.1,0.8-2,1.9-2.9c0.3-0.3,0.8-0.5,1.2-0.6c1.6-0.5,3.2-0.2,4.6,1c0.6,0.6,1,1.2,1.2,2
					c0.3,0.9,0.4,3.4,0.5,7.6c-0.1,3.5-0.4,6.6-1,9.5c-0.8,4-2.2,8.2-4.3,12.3c-1.4,2.5-2.4,4.2-3.1,5
					C268.2,457.4,262.8,461.4,256.1,463.6z M240.7,381.8c8.1-2.6,12.9-5,14.5-7.4c1.1-1.6,1.4-3.1,1-4.5c-0.6-1.9-2.5-2.6-5.8-2.2
					c-0.9,0.2-1.8,0.4-2.7,0.6c-7.5,2.4-13.3,7.9-17.4,16.5C234.9,383.5,238.4,382.5,240.7,381.8z"/>
			</g>
		</g>
		<g>
			<g>
				<path class="st0" d="M331.8,438.9c-2.3,0.7-4.6,0.9-6.8,0.5c-4.2-0.8-6.7-2.5-8.5-7.1c0.1,0.1-1,2.2-1.1,2.5
					c-3.3,8-11.1,15.6-20.3,14.7c-5-0.5-8.9-5.3-10.4-9.8c-0.9-2.9-1.3-6.2-1-9.9c0.3-3.5,1.1-7.1,2.4-10.8c0.7-2.3,1.8-4.7,3.3-7.2
					l0.3-0.5c4.4-7.2,9.6-11.8,15.7-13.7c3.2-1,6.5-1.2,9.9-0.6l0.1-1.2c0.1-0.8,0.3-1.5,0.7-2.1c0.6-0.9,1.4-1.5,2.5-1.9
					c0.9-0.3,1.8-0.3,2.8,0c1.5,0.5,2.5,1.4,2.9,2.9c0.3,0.8,0.2,3.2,0,7l-0.8,17.4c-0.2,2.9,0.1,5.5,0.9,7.9
					c0.7,2.2,1.6,3.3,2.8,3.5c0.6,0.1,1.2,0,1.8-0.2c2.3-0.7,4.2-3.4,5.7-7.9c1.3-4,3.4-17.5,4-23.9c0.1-0.4,0.2-0.8,0.4-1.2
					c0.6-1.2,1.5-2,2.7-2.4c1-0.3,2.1-0.3,3.2,0.2c1.3,0.6,2.1,1.6,2.5,2.8c0.2,0.6,0.3,1.4,0.2,2.2c-0.9,8.9-3.7,24.3-6.1,29.4
					c-1,2-1.9,3.5-2.7,4.4C336.9,436.3,334.6,438,331.8,438.9z M297.7,440.5c4.4-0.1,7.7-3.1,9.8-6.7c1.7-2.9,3.1-6,4.2-9.2
					c0.5-1.6,1-3.2,1.5-4.8c0.5-1.5,1.1-3,1.2-4.6l0.4-9.2c-2.3-0.6-4.5-0.5-6.8,0.2c-3.5,1.1-6.7,3.7-9.5,7.9c-1,1.5-1.9,3-2.6,4.6
					c-1.2,2.7-2,5.2-2.5,7.5c-0.9,4.3-0.9,7.8,0,10.5c0.4,1.2,1,2.3,2,3.1C296,440.4,296.8,440.5,297.7,440.5z"/>
			</g>
		</g>
		<g>
			<g>
				<path class="st0" d="M365.4,427.4c-2.7,0.9-5.4,0.7-7.9-0.5c-2.7-1.3-4.4-3.4-5.4-6.3c-0.5-1.7-0.7-3.7-0.6-6l0.3-15.2
					c-0.1,0.1-0.4,0.2-1,0.4c-5,1.6-10.5,1.2-16.3-1.1c-4.3-2.1-7-4.8-8.1-8.2c-0.8-2.6-0.7-5.2,0.3-7.9c1.5-3.4,3.9-5.6,7.2-6.7
					c3.1-1,6.1-0.7,9.2,0.9c2.7,1.7,4.5,3.9,5.4,6.6c0.4,1.3,0.6,2.7,0.5,4.1l0,1.1c-0.1,0.9-0.1,1.6-0.2,2.3
					c1.4-0.6,2.5-1.3,3.4-1.9l1.7-1.5c0.4-0.3,0.8-0.5,1.2-0.6c1.1-0.3,2.2-0.2,3.4,0.3c1.2,0.6,2,1.5,2.4,2.7
					c0.2,0.5,0.1,7.3-0.1,20.6c-0.1,0.1-0.1,1.6-0.1,4.6c-0.1,1.4,0,2.3,0.1,2.9c0.3,0.8,0.9,1.1,1.8,0.8c1.3-0.4,2.7-1.6,4.1-3.5
					c1.1-1.5,2.1-3.6,3-6.3c1.2-3.9,1.9-8.3,2.2-13c0.3-1.9,1.4-3.1,3.2-3.7c1.5-0.5,2.9-0.2,4.3,0.8c0.7,0.6,1.1,1.3,1.4,2.1
					c0.2,0.7,0.3,1.6,0.1,2.7c-0.5,6.5-1.8,12.4-4,17.6C373.9,421.9,370,426,365.4,427.4z M339.5,390.8c0.6-1.5,0.6-3.1,0.1-4.7
					c-0.5-1.4-1.4-1.9-2.8-1.5c-0.8,0.3-1.4,0.9-1.6,1.8c-0.1,0.5-0.1,0.9,0,1.4c0.3,0.9,1.1,1.6,2.5,2.3
					C338.6,390.5,339.2,390.7,339.5,390.8z"/>
			</g>
		</g>
		<g>
			<g>
				<path class="st0" d="M389.4,420.1c-3.7,1.2-7.1,1.1-10.4-0.3c-3.3-1.6-5.5-4.1-6.6-7.5c-0.5-1.5-0.7-3-0.7-4.5l0.1-3.5l0.1-31.7
					c-2.3,0.7-4.5,1.8-6.5,3.2c-0.9,0.6-1.5,1-2.1,1.2c-1,0.3-2.1,0.3-3.2-0.2c-1.3-0.6-2.1-1.6-2.5-2.8c-0.3-1-0.3-2.1,0.2-3.2
					c0.3-0.7,0.7-1.2,1.2-1.7c2.8-2.2,6.3-4,10.4-5.3l2.6-0.7l0-16.8c0-1.1,0.3-2.1,1-2.9c0.6-0.8,1.4-1.3,2.2-1.6
					c1.2-0.4,2.3-0.3,3.5,0.4c1.1,0.6,1.9,1.5,2.3,2.7c0.2,0.5,0.2,1.2,0.2,1.9l0.1,14.5c1.5-0.3,2.8-0.6,3.8-0.9
					c0.9-0.3,1.7-0.6,2.4-1l0.6-0.2c1.2-0.4,2.3-0.3,3.5,0.3c1.2,0.6,1.9,1.5,2.3,2.6c0.3,1.1,0.3,2.2-0.2,3.3
					c-0.4,0.7-0.9,1.3-1.4,1.7c-0.9,0.7-2.4,1.3-4.4,2c-1.6,0.5-3.8,1-6.5,1.4c0.1,14.8,0,27.3-0.3,37.6c0,0.5,0.1,1,0.2,1.4
					c0.3,0.9,0.9,1.6,1.8,2c1.1,0.4,2.3,0.3,3.7-0.1c4-1.3,6.9-4.6,8.8-10.1c1.2-3.3,2-7.3,2.5-12.1c0.1-0.5,0.3-0.9,0.5-1.4
					c0.6-1.2,1.5-1.9,2.7-2.3c0.9-0.3,2-0.3,3,0.1c1.4,0.6,2.3,1.6,2.7,2.9c0.5,1.5,0,5.2-1.4,11.2c-0.7,2.8-1.6,5.5-2.8,8.1
					C399.4,414.2,395,418.3,389.4,420.1z"/>
			</g>
		</g>
		<g>
			<g>
				<path class="st0" d="M421.7,409.7c-4.7,1.5-9,1.4-13-0.3c-4.8-2.3-8.1-6.2-9.9-11.9c-1.1-3.5-1.4-8.1-1-13.7
					c0.5-5,1.7-9.9,3.6-14.8c3.1-7.2,7.3-11.7,12.5-13.3c2.9-0.9,5.9-0.9,8.8,0.1c1.1,0.4,2,0.9,2.8,1.5c2.3,1.7,3.9,3.8,4.7,6.4
					l0.1,0.2c1,3.1,0.9,6.4-0.3,10.2c-0.8,2.4-2,4.6-3.6,6.9c-1.8,2.5-4.1,5-6.9,7.6c-3.7,3.3-7.1,5.5-10.5,6.6l-1.4,0.4
					c0.3,0.8,0.8,1.8,1.5,3c2.3,3.1,5.6,4,9.8,2.7c5.4-1.7,10.5-6.1,15.1-13c3-4.7,5.2-9.6,6.4-14.7c0.6-1.5,1.5-2.5,2.9-2.9
					c1.4-0.4,2.7-0.2,4.1,0.7c0.8,0.6,1.4,1.4,1.6,2.3c0.5,1.6-0.4,5.2-2.8,10.8c-2.4,5.4-5,9.9-8,13.3
					C433.3,403.7,427.8,407.8,421.7,409.7z M406.9,386.2c0.7-0.2,1.9-0.9,3.6-2c4.4-3.2,7.7-6.8,9.9-10.9c1.5-2.7,1.9-4.9,1.3-6.8
					c-0.4-1.1-1.1-1.9-2.2-2.3c-0.9-0.3-1.9-0.3-2.8,0.1c-2.7,0.9-5,3.8-7.1,9C408,377.6,407.1,381.9,406.9,386.2z"/>
			</g>
		</g>
		<g>
			<g>
				<path class="st0" d="M457.9,398.1c-3.8,1.2-7.3,1-10.6-0.5c-3.1-1.7-5.2-4.1-6.2-7.2c-0.6-1.7-0.8-3.5-0.6-5.4
					c0.1-1.4,0.1-13.1,0.1-35.1l0.1-33.6c0-2.5,1-4.1,3.2-4.8c1.1-0.4,2.3-0.2,3.4,0.3c1.2,0.6,1.9,1.5,2.3,2.6
					c0.2,0.6,0.2,1.4,0.2,2.6c0,7.5,0,15.7,0.1,24.8c0.1,17.9-0.1,32.7-0.4,44.4c0,0.5,0.1,0.9,0.2,1.4c0.4,1.3,1.4,2.1,3,2.3
					c0.8,0,1.6-0.1,2.5-0.4c3.9-1.3,7-5.1,9.1-11.5c1.1-3.3,1.9-7.3,2.4-12c0-0.3,0.2-0.9,0.6-1.5c0.6-1,1.5-1.6,2.5-1.9
					c1.2-0.4,2.4-0.3,3.5,0.3c1.1,0.6,1.9,1.5,2.2,2.5c0.2,0.8,0.3,1.7,0.1,2.8c-0.4,3.2-1,6.6-1.9,10.1
					C470.6,389.1,465.4,395.7,457.9,398.1z"/>
			</g>
		</g>
	</g>
	<g>
		<g>
			<path class="st0" d="M38.9,253.2c0.3-0.2,0.8-0.4,1.2-0.4c0.4,0,0.8,0.1,1.2,0.3c0.6,0.3,0.6,0.3,1.2,0.6
				c0.6,0.3,0.6,0.3,1.2,0.6c0.6,0.3,0.6,0.3,1.2,0.6c0.6,0.3,0.6,0.2,1.2,0.5c0.6,0.3,0.6,0.3,1.2,0.6c0.6,0.3,0.6,0.3,1.2,0.6
				c0.6,0.3,0.6,0.3,1.2,0.6c0.6,0.3,0.6,0.3,1.2,0.6c0.6,0.3,0.6,0.2,1.2,0.5c0.6,0.3,0.6,0.3,1.2,0.6c0.6,0.3,0.6,0.4,1.2,0.7
				c0.6,0.3,0.6,0.2,1.2,0.5c0.6,0.3,0.6,0.3,1.2,0.6c0.6,0.3,0.6,0.3,1.2,0.6c0.6,0.3,0.6,0.3,1.2,0.6c0.6,0.3,0.6,0.3,1.2,0.6
				c0.5,0.2,0.8,0.6,1.1,1.1c0.2,0.4,0.3,1,0.2,1.5c-0.1,0.5-0.3,0.9-0.6,1.3c-0.3,0.4-0.7,0.7-1.2,0.8c-0.6,0.1-0.7,0-1.3,0.2
				c-0.6,0.1-0.6,0.3-1.2,0.4c-0.6,0.1-0.6,0.1-1.3,0.2c-0.6,0.1-0.7,0-1.3,0.2c-0.6,0.1-0.6,0.1-1.3,0.2c-0.6,0.1-0.6,0.2-1.3,0.3
				c-0.6,0.1-0.6,0.2-1.3,0.3c-0.6,0.1-0.6,0.2-1.3,0.3c-0.6,0.1-0.7,0-1.3,0.2c-0.4,0.1-0.6,0.4-0.6,0.8c0,0.4,0,0.8,0.4,1
				c0.6,0.3,0.7,0.1,1.2,0.4c0.6,0.3,0.5,0.4,1.1,0.7c0.6,0.3,0.6,0.3,1.2,0.5c0.6,0.3,0.6,0.3,1.2,0.5c0.6,0.3,0.5,0.4,1.1,0.6
				c0.6,0.3,0.6,0.2,1.2,0.5c0.6,0.3,0.5,0.4,1.1,0.7c0.6,0.3,0.6,0.2,1.2,0.5c0.6,0.3,0.6,0.3,1.1,0.6c0.5,0.2,0.9,0.6,1.1,1
				c0.2,0.4,0.3,1,0.2,1.5c-0.1,0.5-0.3,1-0.6,1.3c-0.3,0.4-0.8,0.6-1.3,0.7c-0.7,0.1-0.6,0.2-1.3,0.3c-0.7,0.1-0.7,0.1-1.3,0.2
				c-0.7,0.1-0.6,0.2-1.3,0.3c-0.7,0.1-0.7,0-1.3,0.1c-0.7,0.1-0.6,0.2-1.3,0.3c-0.7,0.1-0.7,0.1-1.3,0.2c-0.7,0.1-0.6,0.2-1.3,0.3
				c-0.7,0.1-0.7,0.1-1.3,0.2c-0.7,0.1-0.7,0.1-1.3,0.2c-0.7,0.1-0.7,0.1-1.3,0.3c-0.7,0.1-0.7,0.1-1.3,0.3
				c-0.7,0.1-0.6,0.2-1.3,0.3c-0.7,0.1-0.6,0.2-1.3,0.3c-0.7,0.1-0.7,0.1-1.3,0.2c-0.7,0.1-0.7,0.1-1.3,0.2
				c-0.7,0.1-0.6,0.2-1.3,0.3c-0.4,0.1-0.8,0-1.2-0.1c-0.4-0.1-0.8-0.3-1.1-0.6c-0.3-0.3-0.5-0.7-0.6-1.1c-0.1-0.4,0-0.9,0.1-1.2
				c0.1-0.4,0.4-0.7,0.7-1c0.3-0.3,0.7-0.5,1.1-0.6c0.6-0.1,0.7-0.1,1.3-0.2c0.6-0.1,0.7,0,1.3-0.1c0.6-0.1,0.6-0.2,1.3-0.3
				c0.6-0.1,0.6-0.2,1.3-0.3c0.6-0.1,0.6-0.2,1.3-0.3c0.6-0.1,0.7-0.1,1.3-0.2c0.6-0.1,0.6-0.1,1.3-0.3c0.6-0.1,0.7-0.1,1.3-0.2
				c0.6-0.1,0.6-0.2,1.3-0.3c0.4-0.1,0.8-0.4,0.8-0.7c0-0.4-0.2-0.7-0.6-0.9c-0.6-0.3-0.6-0.4-1.1-0.7c-0.6-0.3-0.6-0.3-1.2-0.6
				c-0.6-0.3-0.6-0.2-1.2-0.5c-0.6-0.3-0.6-0.3-1.2-0.6c-0.6-0.3-0.6-0.2-1.2-0.5c-0.6-0.3-0.6-0.3-1.2-0.6
				c-0.6-0.3-0.6-0.3-1.2-0.6c-0.6-0.3-0.6-0.3-1.2-0.6c-0.8-0.4-1.8-0.9-2.1-1.8c-0.3-0.7-0.2-1.6,0.1-2.3c0.1-0.3,0.4-0.6,0.7-0.8
				c0.1-0.1,0.3-0.1,0.4-0.2c0.1,0,1.7-0.2,1.7-0.2c0.7-0.2,0.6-0.2,1.3-0.3c0.6-0.1,0.6-0.1,1.3-0.2c0.6-0.1,0.6-0.1,1.3-0.3
				c0.6-0.1,0.6-0.1,1.3-0.2c0.6-0.1,0.7-0.1,1.3-0.2c0.6-0.1,0.6-0.2,1.3-0.3c0.6-0.1,0.6-0.1,1.3-0.2c0.6-0.1,0.6-0.2,1.3-0.4
				c0.4-0.1,0.6-0.4,0.7-0.7c0-0.4-0.1-0.7-0.5-0.9c-0.6-0.3-0.6-0.3-1.2-0.6c-0.6-0.3-0.6-0.2-1.2-0.5c-0.6-0.3-0.6-0.4-1.1-0.6
				c-0.6-0.3-0.6-0.3-1.2-0.5c-0.6-0.3-0.6-0.3-1.2-0.5c-0.6-0.3-0.6-0.3-1.2-0.6c-0.6-0.3-0.6-0.3-1.2-0.6
				c-0.6-0.3-0.6-0.3-1.2-0.6c-0.6-0.3-0.6-0.4-1.1-0.6c-0.4-0.2-0.8-0.4-1-0.7c-0.2-0.3-0.2-0.8-0.3-1.2c0-0.4-0.1-0.8,0.1-1.2
				C38.3,253.7,38.6,253.4,38.9,253.2z"/>
		</g>
		<g>
			<path class="st0" d="M67.5,224.5c0.3-0.3,0.6-0.4,1-0.5c0.4-0.1,0.7,0,1.1,0.1c0.4,0.1,0.7,0.3,1,0.5c0.3,0.3,0.4,0.6,0.5,1
				c0.1,0.4,0.2,0.8,0,1.1c-0.2,0.6-0.2,0.6-0.4,1.2c-0.2,0.6-0.3,0.6-0.4,1.2c-0.2,0.6-0.2,0.6-0.3,1.2c-0.2,0.6-0.2,0.6-0.3,1.2
				c-0.2,0.6-0.1,0.6-0.3,1.2c-0.2,0.6-0.2,0.6-0.4,1.2c-0.2,0.6-0.1,0.6-0.3,1.2c-0.2,0.6-0.2,0.6-0.4,1.2
				c-0.2,0.6-0.2,0.6-0.4,1.2c-0.2,0.6-0.2,0.6-0.4,1.2c-0.1,0.5-0.4,0.9-0.7,1.2c-0.3,0.3-0.7,0.5-1.2,0.6
				c-0.4,0.1-0.9,0.1-1.4-0.1c-0.6-0.2-0.6-0.2-1.2-0.4c-0.6-0.2-0.7-0.1-1.3-0.3c-0.6-0.2-0.6-0.3-1.2-0.5
				c-0.6-0.2-0.7-0.1-1.3-0.3c-0.6-0.2-0.6-0.3-1.2-0.4c-0.6-0.2-0.6-0.2-1.3-0.4c-0.6-0.2-0.6-0.1-1.3-0.3
				c-0.6-0.2-0.6-0.3-1.2-0.4c-0.6-0.2-0.6-0.2-1.2-0.4c-0.6-0.2-0.6-0.2-1.3-0.3c-0.6-0.2-0.6-0.3-1.2-0.4
				c-0.6-0.2-0.6-0.1-1.3-0.3c-0.6-0.2-0.6-0.3-1.2-0.5c-0.6-0.2-0.6-0.2-1.2-0.4c-0.6-0.2-0.6-0.2-1.2-0.4
				c-0.5-0.1-0.9-0.3-1.2-0.7c-0.3-0.3-0.6-0.8-0.7-1.2c-0.1-0.4,0-0.9,0.1-1.4c0.2-0.6,0.2-0.6,0.4-1.3c0.2-0.6,0.1-0.7,0.3-1.3
				c0.2-0.6,0.3-0.6,0.5-1.2c0.2-0.6,0.1-0.7,0.3-1.3c0.2-0.6,0.3-0.6,0.5-1.3c0.2-0.6,0.1-0.7,0.3-1.3c0.2-0.6,0.3-0.6,0.5-1.2
				c0.2-0.6,0.2-0.6,0.4-1.3c0.2-0.6,0.2-0.6,0.4-1.3c0.1-0.4,0.3-0.7,0.5-0.9c0.3-0.3,0.6-0.5,0.9-0.6c0.4-0.1,0.7,0,1.1,0.1
				c0.4,0.1,0.7,0.3,1,0.5c0.3,0.3,0.5,0.6,0.6,1c0.1,0.4,0.1,0.7,0,1.1c-0.2,0.6-0.2,0.6-0.4,1.2c-0.2,0.6-0.1,0.6-0.3,1.2
				c-0.2,0.6-0.2,0.6-0.4,1.2c-0.2,0.6-0.1,0.6-0.3,1.2c-0.2,0.6-0.2,0.6-0.4,1.2c-0.2,0.6-0.2,0.6-0.4,1.2
				c-0.2,0.6-0.1,0.6-0.3,1.2c-0.1,0.5,0.1,1,0.5,1.2c0.6,0.2,0.6,0,1.2,0.2c0.6,0.2,0.6,0.3,1.2,0.4c0.6,0.2,0.6,0.1,1.2,0.3
				c0.6,0.2,0.6,0.2,1.2,0.4c0.5,0.1,0.9-0.2,1.1-0.6c0.2-0.6,0.2-0.5,0.4-1.1c0.2-0.6,0.2-0.6,0.3-1.1c0.2-0.6,0.2-0.6,0.4-1.1
				c0.2-0.6,0.1-0.6,0.2-1.2c0.2-0.6,0.2-0.6,0.4-1.1c0.1-0.4,0.3-0.7,0.6-1c0.3-0.3,0.6-0.4,1-0.5c0.4-0.1,0.7-0.1,1.1,0
				c0.4,0.1,0.7,0.3,1,0.5c0.3,0.3,0.4,0.7,0.5,1c0.1,0.4,0.1,0.7,0,1.1c-0.2,0.6-0.2,0.6-0.4,1.1c-0.2,0.6-0.1,0.6-0.3,1.2
				c-0.2,0.6-0.1,0.6-0.3,1.2c-0.2,0.6-0.1,0.6-0.3,1.2c-0.2,0.6-0.2,0.6-0.3,1.1c-0.1,0.5,0.1,0.9,0.5,1c0.6,0.2,0.5,0.3,1.1,0.4
				c0.6,0.2,0.6,0.2,1.1,0.4c0.6,0.2,0.6,0,1.2,0.2c0.5,0.1,1,0,1.1-0.5c0.2-0.6,0.1-0.7,0.3-1.3c0.2-0.6,0.3-0.6,0.5-1.2
				c0.2-0.6,0.2-0.6,0.4-1.2c0.2-0.6,0.2-0.6,0.4-1.3c0.2-0.6,0.2-0.6,0.4-1.3c0.2-0.6,0.2-0.6,0.4-1.2c0.2-0.6,0.2-0.6,0.4-1.2
				C67.1,225.1,67.2,224.8,67.5,224.5z"/>
		</g>
		<g>
			<path class="st0" d="M83.7,168.6c0.4-0.2,0.9-0.4,1.3-0.6c0.5-0.1,0.9-0.3,1.4-0.3c0.5,0,0.9,0.1,1.4,0.2
				c0.5,0.1,0.9,0.1,1.4,0.2c0.4,0.2,0.9,0.4,1.3,0.6c0.4,0.2,0.8,0.5,1.1,0.7c0.4,0.3,0.6,0.6,0.9,1c0.3,0.3,0.5,0.7,0.7,1.1
				c0.2,0.4,0.3,0.8,0.5,1.2c0.1,0.4,0.3,0.8,0.3,1.3c0,0.4,0,0.9-0.1,1.3c0,0.4-0.1,0.9-0.2,1.3c-0.1,0.4-0.1,0.9-0.3,1.3
				c-0.1,0.4-0.5,0.7-0.7,1.2c-0.2,0.4-0.2,0.9-0.5,1.3c-0.3,0.6-0.4,0.5-0.8,1c-0.3,0.6-0.4,0.5-0.7,1.1c-0.3,0.6-0.2,0.6-0.6,1.2
				c-0.3,0.6-0.3,0.6-0.6,1.1c-0.3,0.6-0.4,0.5-0.7,1.1c-0.3,0.4-0.6,0.8-1,1c-0.4,0.2-0.9,0.3-1.4,0.3c-0.4,0-0.9-0.1-1.4-0.3
				c-0.6-0.3-0.5-0.5-1.1-0.8c-0.6-0.3-0.6-0.3-1.2-0.6c-0.6-0.3-0.6-0.3-1.2-0.6c-0.6-0.3-0.5-0.4-1.1-0.8
				c-0.6-0.3-0.6-0.3-1.1-0.6c-0.6-0.3-0.5-0.4-1.1-0.7c-0.6-0.3-0.6-0.3-1.1-0.7c-0.6-0.3-0.6-0.2-1.2-0.6
				c-0.6-0.3-0.6-0.3-1.1-0.7c-0.6-0.3-0.6-0.4-1.1-0.7c-0.6-0.3-0.6-0.4-1.1-0.7c-0.6-0.3-0.5-0.4-1.1-0.7
				c-0.6-0.3-0.6-0.2-1.2-0.5c-0.6-0.3-0.5-0.5-1-0.8c-0.6-0.3-0.6-0.3-1.2-0.6c-0.4-0.3-0.8-0.6-1-1c-0.3-0.4-0.5-0.9-0.4-1.4
				c0-0.5,0.3-0.9,0.5-1.3c0.3-0.5,0.3-0.5,0.6-1c0.3-0.5,0.4-0.5,0.7-1c0.3-0.5,0.2-0.6,0.5-1.1c0.3-0.5,0.4-0.5,0.7-1
				c0.3-0.5,0.2-0.6,0.5-1.1c0.2-0.4,0.4-0.8,0.7-1.1c0.3-0.4,0.6-0.6,0.9-0.9c0.3-0.3,0.6-0.6,0.9-0.9c0.3-0.3,0.6-0.6,1-0.8
				c0.4-0.2,0.8-0.3,1.2-0.5c0.4-0.1,0.8-0.2,1.3-0.2c0.4,0,0.9,0,1.3,0.1c0.4,0.1,0.8,0.2,1.2,0.4c0.4,0.1,0.8,0.3,1.2,0.6
				c0.4,0.2,0.7,0.6,1,0.9c0.3,0.3,0.7,0.6,0.9,1c0.2,0.4,0.4,0.8,0.5,1.3c0.1,0.4,0.1,1,0,1.4C82.8,169.1,83.3,168.8,83.7,168.6z
				 M73.8,174.5c0.5,0.3,0.5,0.4,1,0.7c0.5,0.3,0.6,0.2,1.1,0.5c0.4,0.3,0.9,0.1,1.2-0.3c0.4-0.6,0.5-0.6,0.9-1.2
				c0.4-0.6,0.4-0.6,0.8-1.3c0.2-0.4,0.2-0.8,0.3-1.2c0.1-0.4,0.1-0.8,0-1.2c-0.1-0.4-0.3-0.7-0.5-1c-0.2-0.3-0.5-0.6-0.9-0.8
				c-0.5-0.3-0.9-0.4-1.4-0.4c-0.5,0.1-0.9,0.3-1.3,0.6c-0.4,0.3-0.8,0.6-1,1.1c-0.4,0.6-0.3,0.7-0.7,1.4c-0.4,0.6-0.4,0.6-0.8,1.3
				c-0.3,0.4-0.2,1,0.3,1.3C73.2,174.3,73.2,174.3,73.8,174.5z M89.1,177.2c0.2-0.4,0.3-0.8,0.3-1.2c0.1-0.4,0-0.8-0.1-1.2
				c-0.1-0.4-0.2-0.8-0.4-1.2c-0.2-0.3-0.6-0.6-0.9-0.8c-0.4-0.2-0.8-0.5-1.2-0.6c-0.4-0.1-0.9,0-1.3,0.1c-0.4,0.1-0.9,0.1-1.3,0.3
				c-0.3,0.2-0.6,0.6-1,0.9c-0.3,0.3-0.5,0.7-0.7,1.1c-0.3,0.5-0.4,0.4-0.7,0.9c-0.3,0.5-0.3,0.5-0.6,1c-0.3,0.5-0.2,0.6-0.4,1.1
				c-0.3,0.4-0.1,0.9,0.3,1.2c0.6,0.3,0.6,0.3,1.2,0.7c0.6,0.3,0.6,0.4,1.1,0.7c0.6,0.3,0.6,0.4,1.1,0.7c0.6,0.3,0.6,0.3,1.2,0.7
				c0.4,0.3,1.1,0.1,1.3-0.3c0.3-0.5,0.2-0.5,0.5-1c0.3-0.5,0.3-0.5,0.6-1c0.3-0.5,0.4-0.5,0.6-0.9C88.8,178,89,177.6,89.1,177.2z"
				/>
		</g>
		<g>
			<path class="st0" d="M105.3,137c0.3,0.3,0.7,0.6,0.9,0.9c0.2,0.4,0.4,0.8,0.6,1.2c0.2,0.4,0.3,0.8,0.4,1.2
				c0.1,0.4,0.4,0.8,0.4,1.2c0.1,0.4,0,0.9,0,1.3c0,0.4,0.3,0.7,0.7,0.8c0.6,0.2,0.6,0.2,1.1,0.4c0.6,0.2,0.6,0.2,1.1,0.3
				c0.6,0.2,0.6,0.1,1.1,0.3c0.6,0.2,0.5,0.2,1.1,0.4c0.4,0.1,0.7,0.3,1,0.6c0.3,0.3,0.4,0.7,0.5,1.1c0.1,0.4,0.1,0.8,0,1.2
				c-0.1,0.4-0.4,0.7-0.7,1c-0.3,0.3-0.7,0.5-1.1,0.5c-0.4,0.1-0.8,0.1-1.2,0c-0.7-0.2-0.7-0.3-1.4-0.6c-0.7-0.2-0.7-0.1-1.4-0.4
				c-0.7-0.2-0.7-0.2-1.4-0.4c-0.4-0.1-0.8,0-1,0.3c-0.1,0.2-0.3,0.4-0.5,0.6c-0.5,0.6-0.4,0.7-0.9,1.3c-0.5,0.6-0.5,0.7-0.9,1.3
				c-0.3,0.4-0.3,0.9,0.1,1.2c0.6,0.4,0.5,0.5,1.1,0.9c0.6,0.4,0.5,0.5,1.1,0.9c0.3,0.3,0.7,0.5,0.8,0.9c0.1,0.4,0.1,0.8,0,1.2
				c-0.1,0.4-0.1,0.8-0.4,1.2c-0.3,0.3-0.7,0.5-1,0.6c-0.4,0.2-0.8,0.2-1.2,0.2c-0.4-0.1-0.8-0.1-1.2-0.4c-0.5-0.4-0.5-0.5-1-0.9
				c-0.5-0.4-0.5-0.5-1-0.9c-0.5-0.4-0.5-0.4-1-0.8c-0.5-0.4-0.6-0.4-1.1-0.8c-0.5-0.4-0.5-0.4-1-0.8c-0.5-0.4-0.6-0.3-1.1-0.8
				c-0.5-0.4-0.4-0.5-1-0.9c-0.5-0.4-0.5-0.4-1-0.8c-0.5-0.4-0.5-0.4-1-0.8c-0.5-0.4-0.5-0.4-1-0.8c-0.5-0.4-0.6-0.3-1.1-0.7
				s-0.5-0.4-1-0.8c-0.5-0.4-0.4-0.5-1-0.9c-0.5-0.4-0.6-0.3-1.1-0.7c-0.5-0.4-0.5-0.4-1-0.8c-0.4-0.3-0.7-0.7-0.9-1.2
				c-0.2-0.5-0.1-1-0.1-1.5c0.1-0.5,0.2-0.9,0.6-1.3c0.4-0.6,0.5-0.5,0.9-1.1c0.4-0.6,0.3-0.6,0.8-1.2c0.4-0.6,0.5-0.5,1-1
				c0.4-0.6,0.4-0.6,0.9-1.1c0.3-0.3,0.5-0.7,0.8-1c0.3-0.3,0.6-0.6,1-0.8c0.3-0.3,0.6-0.6,1-0.8c0.4-0.2,0.8-0.3,1.2-0.4
				c0.4-0.2,0.8-0.3,1.2-0.4c0.4-0.1,0.8-0.3,1.2-0.4c0.4-0.1,0.8,0,1.3,0c0.4,0,0.8-0.1,1.3,0c0.4,0.1,0.8,0.1,1.2,0.2
				c0.4,0.1,0.8,0.3,1.2,0.5c0.4,0.2,0.7,0.4,1.1,0.6c0.4,0.2,0.7,0.4,1,0.7C104.7,136.4,105,136.7,105.3,137z M103,145.4
				c0.2-0.4,0.2-0.9,0.3-1.3c0.1-0.4,0.1-0.9,0-1.3c0-0.4,0-0.9-0.2-1.3c-0.2-0.4-0.5-0.7-0.7-1.1c-0.3-0.3-0.5-0.6-0.9-0.9
				c-0.3-0.3-0.7-0.5-1.1-0.6c-0.4-0.2-0.8-0.4-1.2-0.4c-0.4-0.1-0.9,0-1.3,0c-0.4,0.1-0.9,0.1-1.3,0.3c-0.4,0.2-0.7,0.5-1.1,0.7
				c-0.3,0.3-0.7,0.5-1,0.8c-0.4,0.5-0.4,0.5-0.8,1.1c-0.4,0.6-1.4,1.4-1.2,2.2c0.1,0.4,0.5,0.5,0.8,0.8c0.3,0.2,0.5,0.6,0.8,0.8
				c0.5,0.4,0.5,0.4,1,0.8c0.5,0.4,0.6,0.3,1.1,0.7c0.5,0.4,0.4,0.5,0.9,0.9c0.5,0.4,0.6,0.3,1.1,0.7c0.5,0.4,0.5,0.4,1,0.8
				c0.4,0.3,0.9,0.3,1.2-0.1c0.5-0.6,0.5-0.6,1-1.2c0.5-0.6,0.5-0.6,1-1.3C102.5,146.1,102.8,145.8,103,145.4z"/>
		</g>
		<g>
			<path class="st0" d="M111.9,114.5c0.4-0.1,0.9-0.1,1.3,0c0.4,0.1,0.8,0.3,1.1,0.7c0.5,0.5,0.6,0.4,1,0.8c0.5,0.5,0.4,0.6,0.8,1
				c0.5,0.5,0.6,0.4,1,0.9c0.5,0.5,0.5,0.5,1,0.9c0.5,0.5,0.4,0.5,0.9,1c0.5,0.5,0.5,0.5,0.9,0.9c0.5,0.5,0.5,0.5,0.9,0.9
				c0.5,0.5,0.4,0.5,0.9,1c0.5,0.5,0.6,0.4,1,0.9c0.5,0.5,0.4,0.5,0.9,1c0.5,0.5,0.4,0.5,0.9,1s0.6,0.4,1,0.8c0.5,0.5,0.4,0.5,0.9,1
				c0.5,0.5,0.5,0.5,1,0.9c0.5,0.5,0.4,0.5,0.9,1c0.3,0.3,0.5,0.7,0.6,1.1c0.1,0.4,0.1,0.8,0,1.2c-0.1,0.4-0.2,0.9-0.5,1.2
				c-0.3,0.3-0.8,0.4-1.2,0.6c-0.4,0.1-0.8,0.1-1.3,0c-0.4-0.1-0.9-0.2-1.2-0.5c-0.5-0.5-0.5-0.5-0.9-1c-0.5-0.5-0.5-0.5-0.9-1
				c-0.5-0.5-0.5-0.4-1-0.9c-0.5-0.5-0.5-0.5-0.9-0.9c-0.5-0.5-0.4-0.5-0.9-1c-0.5-0.5-0.4-0.5-0.9-1c-0.5-0.5-0.5-0.5-0.9-1
				c-0.5-0.5-0.5-0.5-0.9-0.9c-0.5-0.5-0.5-0.4-1-0.9c-0.5-0.5-0.5-0.5-0.9-0.9c-0.5-0.5-0.5-0.4-1-0.9c-0.5-0.5-0.5-0.5-0.9-0.9
				c-0.5-0.5-0.4-0.5-0.9-1c-0.5-0.5-0.5-0.4-1-0.9c-0.5-0.5-0.5-0.5-0.9-1c-0.3-0.3-0.6-0.7-0.7-1.1c-0.1-0.4,0-0.8,0.1-1.3
				c0.1-0.4,0.2-0.8,0.6-1.1C111.2,114.8,111.5,114.6,111.9,114.5z"/>
		</g>
		<g>
			<path class="st0" d="M140.6,89.3c0.4-0.1,0.8,0,1.2,0.1c0.4,0.1,0.8,0.3,1,0.7c0.4,0.5,0.4,0.5,0.9,1c0.4,0.5,0.4,0.5,0.9,1
				c0.4,0.5,0.4,0.5,0.8,1.1c0.4,0.5,0.5,0.5,0.9,1c0.4,0.5,0.4,0.6,0.8,1.1c0.4,0.5,0.4,0.5,0.8,1.1c0.4,0.5,0.5,0.5,0.9,1
				c0.4,0.5,0.3,0.6,0.7,1.2c0.4,0.5,0.6,0.4,1,0.9c0.4,0.5,0.3,0.6,0.8,1.1c0.4,0.5,0.4,0.5,0.8,1.1c0.4,0.5,0.4,0.5,0.8,1
				c0.4,0.5,0.5,0.5,0.9,1c0.4,0.5,0.4,0.5,0.8,1c0.4,0.5,0.4,0.6,0.8,1.1c0.3,0.3,0.4,0.8,0.5,1.2c0.1,0.4,0,0.9-0.2,1.2
				c-0.1,0.4-0.4,0.8-0.7,1c-0.3,0.3-0.7,0.3-1.1,0.4c-0.4,0.1-0.8,0.1-1.2,0c-0.6-0.2-0.6-0.1-1.3-0.2c-0.6-0.2-0.6-0.3-1.2-0.4
				c-0.6-0.2-0.6-0.1-1.3-0.2c-0.6-0.2-0.6-0.3-1.2-0.4c-0.6-0.2-0.6-0.1-1.3-0.2c-0.6-0.2-0.6-0.2-1.2-0.3
				c-0.6-0.2-0.6-0.2-1.2-0.4c-0.6-0.2-0.7,0-1.3-0.1c-0.6-0.2-0.6-0.3-1.2-0.5c-0.6-0.2-0.6-0.2-1.2-0.3c-0.6-0.2-0.6-0.1-1.2-0.3
				c-0.6-0.2-0.6-0.1-1.3-0.2c-0.4-0.1-0.7,0.1-0.9,0.4c-0.2,0.3-0.3,0.7,0,1c0.4,0.5,0.4,0.5,0.8,1c0.4,0.5,0.5,0.5,0.9,1
				c0.4,0.5,0.4,0.5,0.8,1c0.4,0.5,0.5,0.5,0.9,1c0.4,0.5,0.3,0.6,0.7,1.1c0.4,0.5,0.4,0.5,0.8,1c0.4,0.5,0.5,0.5,0.9,1
				c0.4,0.5,0.4,0.5,0.8,1c0.3,0.3,0.5,0.7,0.5,1.2c0.1,0.4-0.1,0.9-0.2,1.2c-0.2,0.4-0.4,0.7-0.8,1c-0.3,0.3-0.7,0.5-1.1,0.6
				c-0.4,0-0.8-0.1-1.2-0.3c-0.4-0.2-0.8-0.3-1-0.7c-0.4-0.5-0.3-0.6-0.7-1.1c-0.4-0.5-0.4-0.5-0.8-1c-0.4-0.5-0.5-0.5-0.9-1
				c-0.4-0.5-0.4-0.5-0.8-1c-0.4-0.5-0.4-0.5-0.8-1.1c-0.4-0.5-0.4-0.5-0.9-1c-0.4-0.5-0.4-0.5-0.8-1.1c-0.4-0.5-0.4-0.6-0.8-1.1
				c-0.4-0.5-0.5-0.5-0.9-1c-0.4-0.5-0.3-0.6-0.8-1.1c-0.4-0.5-0.5-0.5-0.9-1c-0.4-0.5-0.4-0.6-0.8-1.1c-0.4-0.5-0.5-0.5-0.9-1
				c-0.4-0.5-0.4-0.6-0.8-1.1c-0.4-0.5-0.4-0.5-0.8-1c-0.3-0.3-0.4-0.7-0.5-1.1c-0.1-0.4-0.1-0.9,0-1.3c0.1-0.4,0.5-0.7,0.8-0.9
				c0.3-0.3,0.6-0.5,1-0.5c1.1-0.3,2.5,0.3,3.6,0.6c0.6,0.2,0.6,0.2,1.2,0.3c0.6,0.2,0.6,0.1,1.2,0.3c0.6,0.2,0.6,0.3,1.2,0.4
				c0.6,0.2,0.7,0,1.3,0.2c0.6,0.2,0.6,0.2,1.2,0.4c0.6,0.2,0.6,0.1,1.3,0.2c0.6,0.2,0.6,0.3,1.2,0.5c0.6,0.2,0.6,0.1,1.3,0.2
				c0.6,0.2,0.6,0.1,1.3,0.3c0.6,0.2,0.6,0.2,1.2,0.4c0.4,0.1,0.7-0.2,0.9-0.5c0.2-0.3,0.3-0.7,0-1c-0.4-0.5-0.4-0.5-0.8-1
				c-0.4-0.5-0.5-0.4-0.9-0.9c-0.4-0.5-0.4-0.5-0.8-1c-0.4-0.5-0.3-0.6-0.7-1.1c-0.4-0.5-0.4-0.5-0.8-1c-0.4-0.5-0.5-0.5-0.9-1
				c-0.4-0.5-0.3-0.6-0.7-1.1c-0.4-0.5-0.4-0.5-0.8-1c-0.3-0.3-0.5-0.7-0.6-1.1c-0.1-0.4,0-0.8,0.2-1.2c0.1-0.4,0.3-0.8,0.6-1.1
				C139.7,89.5,140.2,89.4,140.6,89.3z"/>
		</g>
		<g>
			<path class="st0" d="M183.1,77.4c0.3,0.1,0.6,0.3,0.8,0.6c0.3,0.5,0.3,0.5,0.6,1.1c0.3,0.5,0.3,0.5,0.6,1.1
				c0.3,0.5,0.4,0.5,0.7,1c0.3,0.5,0.3,0.6,0.6,1.1c0.3,0.5,0.4,0.5,0.7,1c0.3,0.5,0.2,0.6,0.5,1.1c0.3,0.5,0.4,0.5,0.7,1
				c0.2,0.3,0.3,0.7,0.3,1.1c0,0.4-0.2,0.8-0.4,1.1c-0.2,0.3-0.5,0.5-0.9,0.7c-0.4,0.2-0.7,0.4-1.1,0.4c-0.4,0-0.8-0.2-1.1-0.4
				c-0.4-0.2-0.8-0.1-1,0.3c-0.2,0.4-0.4,0.7-0.6,1.1c-0.2,0.3-0.6,0.6-0.8,0.9c-0.3,0.3-0.5,0.7-0.8,1c-0.3,0.3-0.6,0.5-0.9,0.8
				c-0.3,0.2-0.7,0.4-1,0.7c-0.4,0.2-0.8,0.4-1.2,0.6c-0.4,0.2-0.8,0.3-1.2,0.4c-0.4,0.1-0.8,0.3-1.3,0.3c-0.4,0.1-0.9,0.1-1.3,0.1
				c-0.4,0-0.9,0.2-1.3,0.1c-0.4,0-0.9-0.2-1.3-0.2c-0.4,0-0.8-0.1-1.3-0.2c-0.4-0.1-0.8-0.2-1.2-0.3c-0.4-0.1-0.8-0.3-1.2-0.5
				c-0.4-0.2-0.8-0.3-1.2-0.5c-0.4-0.2-0.7-0.5-1-0.8c-0.3-0.3-0.7-0.5-1-0.7c-0.3-0.3-0.6-0.6-0.9-0.9c-0.3-0.3-0.6-0.6-0.9-1
				c-0.2-0.3-0.4-0.8-0.6-1.2c-0.2-0.4-0.5-0.7-0.7-1.1c-0.2-0.4-0.4-0.8-0.5-1.2c-0.1-0.4-0.2-0.8-0.3-1.3
				c-0.1-0.4-0.1-0.9-0.1-1.3c0-0.4-0.1-0.9-0.1-1.3c0-0.4,0.1-0.9,0.1-1.3c0-0.4,0-0.9,0.1-1.3c0.1-0.4,0.2-0.8,0.4-1.2
				c0.1-0.4,0.2-0.9,0.3-1.2c0.2-0.4,0.4-0.7,0.6-1.1c0.2-0.4,0.5-0.7,0.7-1.1c0.2-0.4,0.5-0.7,0.7-1.1c0.3-0.3,0.6-0.6,0.9-0.9
				c0.3-0.3,0.6-0.6,1-0.9c0.3-0.3,0.8-0.4,1.1-0.6c0.4-0.2,0.8-0.5,1.2-0.7c0.4-0.2,0.9-0.3,1.3-0.5c0.5-0.2,0.9-0.4,1.3-0.5
				c0.5-0.1,1-0.2,1.4-0.2c0.5-0.1,1-0.1,1.4-0.1c0.4,0,0.8,0.2,1.1,0.4c0.3,0.2,0.5,0.5,0.7,0.8c0.2,0.4,0.3,0.8,0.3,1.1
				c0,0.4,0,0.8-0.2,1.2c-0.2,0.3-0.5,0.6-0.9,0.9c-0.4,0.2-0.9,0.3-1.3,0.2c-0.5,0-0.9,0.1-1.4,0.2c-0.5,0.1-0.9,0.2-1.4,0.4
				c-0.4,0.2-0.8,0.4-1.3,0.7c-0.4,0.2-0.8,0.4-1.1,0.7c-0.3,0.3-0.6,0.6-0.9,1c-0.3,0.3-0.5,0.7-0.7,1.1c-0.2,0.4-0.4,0.8-0.5,1.2
				c-0.1,0.4-0.1,0.9-0.2,1.3c-0.1,0.4-0.2,0.9-0.2,1.3c0,0.4,0.1,0.9,0.2,1.3c0.1,0.4,0.3,0.8,0.4,1.3c0.2,0.4,0.3,0.8,0.5,1.2
				c0.2,0.4,0.5,0.7,0.8,1c0.3,0.3,0.5,0.7,0.9,1c0.3,0.3,0.7,0.5,1.1,0.7c0.4,0.2,0.8,0.4,1.2,0.5c0.4,0.2,0.8,0.3,1.2,0.4
				c0.4,0.1,0.9,0.2,1.3,0.2c0.4,0,0.9,0.1,1.3,0.1c0.4,0,0.9-0.2,1.3-0.3c0.4-0.1,0.9-0.2,1.3-0.4c0.4-0.2,0.7-0.6,1-0.9
				c0.3-0.3,0.7-0.6,0.9-0.9c0.2-0.4,0.3-0.8,0.5-1.2c0.2-0.4,0.3-0.8,0.4-1.2c0.1-0.6-0.4-1-1-0.7l0,0c-0.3,0.2-0.7,0.2-1.1,0.2
				c-0.4,0-0.7-0.2-1-0.3c-0.3-0.2-0.6-0.4-0.8-0.8c-0.2-0.3-0.4-0.7-0.3-1c0-0.4,0.1-0.8,0.3-1.1c0.2-0.3,0.5-0.6,0.8-0.8
				c0.5-0.3,0.5-0.3,1-0.7c0.5-0.3,0.6-0.2,1.1-0.5l0,0c0.6-0.4,0.6-0.4,1.3-0.8c0.6-0.4,0.6-0.4,1.3-0.8
				C182.4,77.4,182.8,77.4,183.1,77.4z"/>
		</g>
		<g>
			<path class="st0" d="M238.1,43.2c0.4,0.1,0.7,0.3,1,0.5c0.3,0.3,0.5,0.6,0.6,0.9c0.1,0.5,0.2,1,0,1.4c-0.2,0.6-0.3,0.6-0.5,1.3
				c-0.2,0.6-0.3,0.6-0.6,1.2c-0.2,0.6-0.1,0.7-0.3,1.3c-0.2,0.6-0.3,0.6-0.6,1.2c-0.2,0.6-0.2,0.6-0.5,1.3
				c-0.2,0.6-0.2,0.6-0.5,1.3c-0.2,0.6-0.2,0.6-0.5,1.3c-0.2,0.6-0.4,0.6-0.6,1.2c-0.2,0.6-0.2,0.7-0.4,1.3c-0.1,0.2,0,0.3,0,0.5
				c0.2,0.6,0.2,0.6,0.3,1.2c0.2,0.6,0,0.6,0.2,1.2c0.2,0.6,0.3,0.6,0.4,1.2s0.2,0.6,0.4,1.2c0.2,0.6,0.1,0.6,0.2,1.2
				c0.2,0.6,0.2,0.6,0.3,1.2c0.2,0.6,0.3,0.6,0.4,1.2c0.1,0.4-0.1,0.8-0.2,1.2c-0.1,0.4-0.2,0.8-0.5,1.1c-0.3,0.3-0.7,0.4-1.1,0.6
				c-0.4,0.1-0.8,0.1-1.2,0c-0.4-0.1-0.8-0.2-1.1-0.5c-0.3-0.3-0.4-0.7-0.5-1.1c-0.2-0.6-0.2-0.6-0.4-1.2c-0.2-0.6-0.1-0.6-0.3-1.2
				c-0.2-0.6-0.3-0.6-0.4-1.2c-0.2-0.6-0.1-0.6-0.3-1.2c-0.2-0.6-0.1-0.6-0.3-1.2c-0.2-0.6-0.2-0.6-0.4-1.2
				c-0.2-0.6-0.2-0.6-0.4-1.2c-0.1-0.2-0.1-0.3-0.3-0.5c-0.5-0.4-0.5-0.5-1-0.9c-0.5-0.4-0.6-0.4-1.1-0.8c-0.5-0.4-0.6-0.4-1.1-0.8
				c-0.5-0.4-0.5-0.5-1.1-0.9c-0.5-0.4-0.6-0.4-1.1-0.8c-0.5-0.4-0.5-0.5-1-0.9c-0.5-0.4-0.6-0.4-1.1-0.8c-0.5-0.4-0.5-0.5-1-0.9
				c-0.5-0.4-0.6-0.3-1.1-0.8c-0.4-0.3-0.6-0.7-0.7-1.2c-0.1-0.4-0.1-0.8,0-1.1c0.1-0.4,0.2-0.8,0.5-1c0.3-0.3,0.7-0.3,1.1-0.4
				c0.4-0.1,0.7-0.2,1.1-0.1c0.4,0.1,0.7,0.2,1,0.5c0.5,0.4,0.6,0.3,1.1,0.7c0.5,0.4,0.5,0.4,1,0.8c0.5,0.4,0.5,0.5,1,0.9
				c0.5,0.4,0.6,0.4,1.1,0.8c0.5,0.4,0.5,0.5,1,0.9c0.5,0.4,0.5,0.4,1,0.8c0.5,0.4,0.5,0.4,1,0.8c0.5,0.4,1.1,0.1,1.3-0.4
				c0.2-0.6,0.3-0.6,0.6-1.2c0.2-0.6,0.2-0.6,0.4-1.2c0.2-0.6,0.2-0.6,0.4-1.2c0.2-0.6,0.4-0.6,0.6-1.2c0.2-0.6,0.2-0.6,0.4-1.2
				c0.2-0.6,0.2-0.6,0.4-1.2c0.2-0.6,0.3-0.6,0.5-1.2c0.1-0.4,0.3-0.7,0.6-0.9c0.3-0.2,0.6-0.3,1-0.4
				C237.4,43.2,237.7,43.1,238.1,43.2z"/>
		</g>
		<g>
			<path class="st0" d="M271,37.2c0.4,0,0.9,0,1.3,0c0.4,0,0.8,0.2,1.3,0.3c0.4,0.1,0.9,0.1,1.3,0.2c0.4,0.1,0.8,0.3,1.2,0.5
				c0.4,0.2,0.8,0.4,1.2,0.6c0.4,0.2,0.8,0.4,1.1,0.7c0.4,0.3,0.7,0.5,1,0.8c0.3,0.3,0.6,0.6,0.9,1c0.3,0.3,0.6,0.7,0.8,1
				c0.3,0.3,0.5,0.7,0.7,1.1c0.2,0.4,0.4,0.8,0.6,1.2c0.2,0.4,0.3,0.8,0.5,1.2c0.1,0.4,0.2,0.8,0.3,1.3c0.1,0.4,0.3,0.8,0.3,1.3
				c0,0.4,0,0.9,0,1.3c0,0.4,0,0.9-0.1,1.3c0,0.4-0.1,0.9-0.2,1.3c-0.1,0.4-0.2,0.8-0.4,1.3c-0.1,0.4-0.2,0.8-0.4,1.2
				c-0.2,0.4-0.3,0.8-0.5,1.2c-0.2,0.4-0.6,0.7-0.8,1c-0.2,0.4-0.4,0.8-0.7,1.1c-0.3,0.3-0.7,0.6-1,0.9c-0.3,0.3-0.6,0.6-1,0.9
				c-0.3,0.3-0.7,0.5-1.1,0.7c-0.4,0.2-0.8,0.4-1.2,0.6c-0.4,0.2-0.8,0.3-1.2,0.5c-0.4,0.1-0.8,0.3-1.2,0.4
				c-0.4,0.1-0.8,0.3-1.3,0.3c-0.4,0-0.9,0-1.3,0c-0.4,0-0.9-0.1-1.3-0.1c-0.4,0-0.9-0.1-1.3-0.2c-0.4-0.1-0.9-0.1-1.3-0.3
				c-0.4-0.1-0.8-0.4-1.2-0.5c-0.4-0.2-0.7-0.5-1.1-0.7c-0.4-0.2-0.8-0.4-1.1-0.7c-0.3-0.3-0.7-0.5-1.1-0.7
				c-0.3-0.3-0.6-0.6-0.9-0.9c-0.3-0.3-0.5-0.7-0.8-1.1c-0.3-0.3-0.5-0.7-0.7-1.1c-0.2-0.4-0.4-0.8-0.5-1.2
				c-0.2-0.4-0.4-0.8-0.6-1.2c-0.1-0.4-0.1-0.9-0.2-1.3c-0.1-0.4-0.2-0.8-0.3-1.3c-0.1-0.4-0.1-0.9-0.1-1.3c0-0.4,0.1-0.9,0.1-1.3
				c0-0.4,0.1-0.9,0.1-1.3c0.1-0.4,0.1-0.9,0.2-1.3c0.1-0.4,0.3-0.8,0.5-1.2c0.2-0.4,0.4-0.8,0.6-1.2c0.2-0.4,0.4-0.8,0.7-1.1
				c0.2-0.4,0.6-0.6,0.9-1c0.3-0.3,0.5-0.7,0.8-1c0.3-0.3,0.7-0.5,1-0.8c0.3-0.3,0.7-0.4,1.1-0.7c0.4-0.2,0.7-0.4,1.1-0.6
				c0.4-0.2,0.7-0.5,1.1-0.6c0.4-0.1,0.9-0.1,1.3-0.2c0.4-0.1,0.8-0.2,1.3-0.3C270.2,37.2,270.6,37.2,271,37.2z M273.4,57.4
				c0.4-0.1,0.8-0.3,1.2-0.5c0.4-0.2,0.8-0.4,1.1-0.7c0.3-0.3,0.7-0.6,1-0.9c0.3-0.3,0.5-0.8,0.7-1.1c0.2-0.4,0.3-0.8,0.5-1.2
				c0.1-0.4,0.4-0.8,0.4-1.3c0.1-0.4,0.1-0.9,0.2-1.3c0-0.4-0.1-0.9-0.1-1.3c-0.1-0.5-0.2-0.9-0.3-1.3c-0.1-0.4-0.2-0.9-0.4-1.3
				c-0.2-0.4-0.3-0.9-0.5-1.2c-0.2-0.4-0.5-0.7-0.8-1c-0.3-0.3-0.7-0.6-1-0.8c-0.4-0.3-0.7-0.5-1.1-0.7c-0.4-0.2-0.8-0.4-1.2-0.5
				c-0.4-0.1-0.9-0.2-1.3-0.2c-0.4,0-0.9-0.1-1.3,0c-0.4,0.1-0.9,0.2-1.3,0.4c-0.4,0.1-0.9,0.2-1.3,0.4c-0.4,0.2-0.7,0.5-1.1,0.8
				c-0.3,0.3-0.6,0.6-0.9,1c-0.3,0.3-0.6,0.7-0.8,1.1c-0.2,0.4-0.4,0.8-0.5,1.2c-0.1,0.4-0.2,0.9-0.3,1.3c-0.1,0.4-0.2,0.9-0.2,1.3
				c0,0.4,0,0.9,0,1.3s0.2,0.9,0.3,1.3c0.1,0.4,0.1,0.9,0.3,1.3c0.2,0.4,0.5,0.8,0.7,1.1c0.2,0.4,0.5,0.8,0.8,1.1
				c0.3,0.3,0.6,0.7,0.9,1c0.4,0.3,0.7,0.5,1.1,0.7c0.4,0.2,0.9,0.2,1.3,0.3c0.4,0.1,0.8,0.4,1.3,0.4c0.4,0,0.9,0,1.3-0.1
				C272.5,57.7,273,57.5,273.4,57.4z"/>
		</g>
		<g>
			<path class="st0" d="M319.4,36.3c0.4,0.2,0.6,0.6,0.8,0.9c0.2,0.4,0.3,0.8,0.3,1.2c0,0.6-0.1,0.6-0.1,1.3c0,0.6,0,0.6,0,1.3
				c0,0.6,0,0.6,0,1.3c0,0.6-0.1,0.6-0.1,1.3c0,0.6-0.1,0.6-0.1,1.3c0,0.6,0.1,0.6,0.1,1.3c0,0.6-0.1,0.6-0.2,1.3
				c0,0.6,0,0.6-0.1,1.3c0,0.6,0.1,0.6,0.1,1.3c0,0.6-0.1,0.6-0.2,1.3c0,0.5,0,0.9-0.1,1.3c-0.1,0.4-0.2,0.9-0.4,1.3
				c-0.1,0.4-0.2,0.9-0.4,1.3c-0.2,0.4-0.5,0.7-0.8,1.1c-0.2,0.4-0.5,0.7-0.8,1.1c-0.3,0.3-0.5,0.7-0.8,1c-0.3,0.3-0.7,0.6-1.1,0.8
				c-0.4,0.2-0.8,0.3-1.2,0.5c-0.4,0.2-0.8,0.5-1.2,0.6c-0.4,0.1-0.9,0.1-1.3,0.2c-0.4,0.1-0.9,0.2-1.3,0.2c-0.4,0-0.9,0-1.3,0
				c-0.4,0-0.9,0-1.3-0.1c-0.4-0.1-0.8-0.2-1.2-0.4c-0.4-0.1-0.8-0.4-1.1-0.6c-0.4-0.2-0.7-0.4-1.1-0.7c-0.3-0.2-0.7-0.5-1-0.8
				c-0.3-0.3-0.6-0.6-0.9-0.9c-0.3-0.3-0.4-0.8-0.6-1.1c-0.2-0.4-0.5-0.7-0.7-1c-0.2-0.4-0.3-0.8-0.5-1.2c-0.1-0.4-0.2-0.8-0.3-1.2
				c-0.1-0.4-0.1-0.8-0.2-1.2c0-0.4-0.1-0.8-0.1-1.3c0-0.6-0.1-0.6,0-1.2c0-0.6,0-0.6,0.1-1.2c0-0.6,0.1-0.6,0.1-1.2
				c0-0.6-0.1-0.6,0-1.2c0-0.6,0.2-0.6,0.2-1.2c0-0.6-0.1-0.6,0-1.2c0-0.6,0.1-0.6,0.1-1.2c0-0.6,0-0.6,0.1-1.2s-0.1-0.6-0.1-1.2
				c0-0.6,0.2-0.6,0.2-1.2c0-0.4,0.1-0.8,0.3-1.2c0.2-0.4,0.5-0.7,0.9-0.9c0.4-0.2,0.8-0.2,1.2-0.2c0.4,0,0.8,0.2,1.2,0.4
				c0.4,0.2,0.6,0.5,0.8,0.9c0.2,0.4,0.3,0.7,0.3,1.2c0,0.6,0,0.6,0,1.3c0,0.6,0,0.6,0,1.3c0,0.6-0.1,0.6-0.1,1.2
				c0,0.6,0,0.6-0.1,1.3c0,0.6,0,0.6-0.1,1.2c0,0.6,0,0.6,0,1.3c0,0.6-0.1,0.6-0.1,1.2c0,0.6-0.1,0.6-0.1,1.2c0,0.6,0,0.6,0,1.3
				c0,0.6,0,0.6,0,1.3c0,0.4,0,0.8,0.1,1.2c0.1,0.4,0.2,0.8,0.4,1.2c0.2,0.4,0.2,0.8,0.5,1.1c0.3,0.3,0.7,0.5,1,0.8
				c0.3,0.3,0.6,0.5,1,0.7c0.4,0.2,0.7,0.3,1.2,0.4c0.4,0.1,0.8,0.1,1.2,0c0.4,0,0.8,0,1.2-0.1c0.4-0.1,0.7-0.4,1.1-0.6
				c0.3-0.2,0.7-0.4,1-0.7c0.3-0.3,0.5-0.7,0.7-1c0.2-0.4,0.4-0.7,0.6-1.1c0.1-0.4,0.2-0.8,0.2-1.2c0-0.6-0.1-0.6-0.1-1.3
				s0.1-0.6,0.1-1.3c0-0.6,0-0.6,0-1.3c0-0.6,0.1-0.6,0.2-1.3c0-0.6,0-0.6,0.1-1.3c0-0.6,0-0.6,0-1.3c0-0.6,0-0.6,0-1.3
				c0-0.6,0.1-0.6,0.1-1.3c0-0.6,0-0.6,0-1.3c0-0.6,0-0.6,0-1.3c0-0.4,0.1-0.9,0.3-1.2c0.2-0.4,0.6-0.7,0.9-0.9
				c0.4-0.2,0.8-0.2,1.2-0.2C318.7,36,319.1,36.1,319.4,36.3z"/>
		</g>
		<g>
			<path class="st0" d="M383.4,48.8c0.3,0.3,0.5,0.7,0.6,1.1c0.1,0.4,0.1,0.9,0,1.3c-0.1,0.4-0.4,0.8-0.7,1.1
				c-0.3,0.3-0.7,0.5-1.1,0.6c-0.4,0.1-0.8,0-1.2-0.1c-0.6-0.2-0.6-0.2-1.3-0.4c-0.6-0.2-0.6-0.3-1.2-0.5c-0.6-0.2-0.6-0.1-1.3-0.3
				c-0.5-0.1-0.9,0.2-1.1,0.7c-0.2,0.6-0.2,0.6-0.4,1.2c-0.2,0.6-0.1,0.6-0.3,1.3c-0.2,0.6-0.2,0.6-0.4,1.2
				c-0.2,0.6-0.2,0.6-0.4,1.2c-0.2,0.6-0.2,0.6-0.4,1.2c-0.2,0.6-0.1,0.7-0.3,1.3c-0.2,0.6-0.3,0.6-0.4,1.2
				c-0.2,0.6-0.2,0.6-0.4,1.2c-0.2,0.6-0.2,0.6-0.4,1.2c-0.2,0.6-0.1,0.6-0.3,1.3c-0.2,0.6-0.3,0.6-0.5,1.2
				c-0.2,0.6-0.2,0.6-0.3,1.2c-0.2,0.6-0.1,0.6-0.3,1.3c-0.1,0.4-0.3,0.8-0.6,1.1c-0.3,0.3-0.7,0.5-1.2,0.6c-0.4,0.1-0.9,0.1-1.3,0
				c-0.4-0.1-0.7-0.5-1-0.8c-0.3-0.3-0.4-0.7-0.5-1.1c-0.1-0.4-0.2-0.8-0.1-1.2c0.2-0.6,0.3-0.6,0.4-1.2c0.2-0.6,0.1-0.6,0.3-1.3
				c0.2-0.6,0.2-0.6,0.4-1.2c0.2-0.6,0.3-0.6,0.5-1.2c0.2-0.6,0.1-0.6,0.3-1.3s0.2-0.6,0.3-1.2c0.2-0.6,0.2-0.6,0.4-1.2
				c0.2-0.6,0.2-0.6,0.4-1.2c0.2-0.6,0.2-0.6,0.4-1.2c0.2-0.6,0.1-0.6,0.3-1.3c0.2-0.6,0.2-0.6,0.4-1.2c0.2-0.6,0.2-0.6,0.4-1.2
				c0.2-0.6,0.1-0.6,0.3-1.3c0.1-0.5-0.1-1-0.6-1.2c-0.6-0.2-0.7-0.1-1.3-0.3c-0.6-0.2-0.6-0.2-1.3-0.4c-0.6-0.2-0.7-0.2-1.3-0.3
				c-0.4-0.1-0.8-0.4-1-0.7c-0.3-0.3-0.6-0.7-0.7-1.1c-0.1-0.4,0-0.9,0.1-1.3c0.1-0.4,0.4-0.8,0.7-1c0.3-0.3,0.7-0.4,1.1-0.5
				c0.4-0.1,0.8-0.1,1.2,0c0.6,0.2,0.7,0.1,1.3,0.3c0.6,0.2,0.6,0.2,1.3,0.4c0.6,0.2,0.6,0.2,1.3,0.4c0.6,0.2,0.6,0.2,1.3,0.4
				c0.6,0.2,0.6,0.1,1.3,0.3c0.6,0.2,0.6,0.3,1.2,0.5c0.6,0.2,0.6,0.2,1.3,0.3c0.6,0.2,0.6,0.2,1.3,0.3c0.6,0.2,0.6,0.2,1.3,0.4
				c0.6,0.2,0.6,0.2,1.3,0.4c0.6,0.2,0.7,0.1,1.3,0.3C382.7,48.2,383.1,48.5,383.4,48.8z"/>
		</g>
		<g>
			<path class="st0" d="M420,63.9c0.2,0.3,0.4,0.7,0.5,1.1c0,0.4,0,0.9-0.2,1.3c-0.3,0.6-0.3,0.6-0.5,1.2c-0.3,0.6-0.4,0.6-0.6,1.2
				c-0.3,0.6-0.2,0.6-0.5,1.2c-0.3,0.6-0.3,0.6-0.5,1.2c-0.3,0.6-0.3,0.6-0.6,1.2c-0.3,0.6-0.3,0.6-0.5,1.2
				c-0.3,0.6-0.4,0.6-0.6,1.2c-0.3,0.6-0.2,0.6-0.5,1.2c-0.3,0.6-0.2,0.6-0.5,1.2c-0.3,0.6-0.3,0.6-0.5,1.2
				c-0.3,0.6-0.4,0.6-0.6,1.2c-0.3,0.6-0.2,0.6-0.5,1.2c-0.3,0.6-0.3,0.6-0.6,1.2c-0.3,0.6-0.4,0.6-0.7,1.2
				c-0.3,0.6-0.3,0.6-0.5,1.2c-0.2,0.4-0.4,0.7-0.8,0.9c-0.3,0.2-0.7,0.4-1.1,0.5c-0.4,0-0.9,0.1-1.3-0.1c-0.4-0.2-0.7-0.6-0.9-0.9
				c-0.2-0.4-0.4-0.7-0.5-1.2c0-0.4,0.1-0.8,0.3-1.2c0.3-0.7,0.3-0.7,0.6-1.3c0.3-0.7,0.3-0.7,0.6-1.3c0.2-0.5-0.1-1-0.5-1.2
				c-0.6-0.3-0.6-0.3-1.2-0.6c-0.6-0.3-0.6-0.3-1.2-0.6c-0.6-0.3-0.6-0.4-1.2-0.6c-0.6-0.3-0.6-0.3-1.2-0.6
				c-0.6-0.3-0.6-0.2-1.3-0.5c-0.6-0.3-0.6-0.3-1.2-0.6c-0.6-0.3-0.6-0.2-1.2-0.5c-0.5-0.2-1-0.1-1.2,0.3c-0.3,0.7-0.3,0.7-0.6,1.3
				c-0.3,0.7-0.2,0.7-0.5,1.4c-0.2,0.4-0.6,0.7-0.9,0.9c-0.3,0.2-0.7,0.3-1.2,0.4c-0.4,0-0.9,0.1-1.3-0.1c-0.4-0.2-0.6-0.6-0.9-0.9
				c-0.2-0.3-0.4-0.7-0.5-1.1c0-0.4-0.1-0.9,0.1-1.3c0.3-0.6,0.4-0.6,0.6-1.2c0.3-0.6,0.3-0.6,0.6-1.2c0.3-0.6,0.3-0.6,0.6-1.2
				c0.3-0.6,0.2-0.6,0.5-1.3s0.4-0.6,0.7-1.2c0.3-0.6,0.2-0.7,0.4-1.3c0.3-0.6,0.3-0.6,0.6-1.2c0.3-0.6,0.2-0.6,0.5-1.2
				c0.3-0.6,0.3-0.6,0.6-1.2c0.3-0.6,0.3-0.6,0.6-1.2c0.3-0.6,0.3-0.6,0.5-1.2c0.3-0.6,0.4-0.6,0.6-1.2c0.3-0.6,0.2-0.6,0.5-1.3
				c0.3-0.6,0.4-0.5,0.7-1.2c0.3-0.6,0.2-0.6,0.5-1.2c0.2-0.4,0.4-0.8,0.7-1c0.3-0.2,0.8-0.4,1.2-0.5c0.4,0,0.8,0.2,1.2,0.3
				c0.4,0.2,0.7,0.4,1,0.8c0.2,0.3,0.5,0.7,0.5,1.2c0,0.4-0.1,0.8-0.3,1.2c-0.3,0.6-0.3,0.6-0.5,1.1c-0.3,0.6-0.2,0.6-0.5,1.2
				c-0.3,0.6-0.3,0.5-0.6,1.1c-0.3,0.6-0.2,0.6-0.5,1.1s-0.3,0.6-0.5,1.1c-0.3,0.6-0.3,0.5-0.6,1.1c-0.3,0.6-0.2,0.6-0.5,1.2
				c-0.3,0.6-0.3,0.6-0.5,1.1c-0.3,0.6-0.2,0.6-0.5,1.1c-0.2,0.5,0,1,0.4,1.2c0.6,0.3,0.6,0.2,1.3,0.5c0.6,0.3,0.6,0.3,1.2,0.6
				c0.6,0.3,0.6,0.2,1.2,0.5c0.6,0.3,0.5,0.4,1.2,0.7c0.6,0.3,0.7,0.2,1.3,0.5c0.6,0.3,0.6,0.4,1.2,0.6c0.6,0.3,0.6,0.3,1.2,0.5
				c0.5,0.2,1,0,1.3-0.4c0.3-0.6,0.2-0.6,0.4-1.2c0.3-0.6,0.4-0.5,0.6-1.1c0.3-0.6,0.2-0.6,0.5-1.2c0.3-0.6,0.3-0.5,0.6-1.1
				c0.3-0.6,0.2-0.6,0.4-1.2c0.3-0.6,0.2-0.6,0.5-1.1c0.3-0.6,0.4-0.5,0.6-1.1c0.3-0.6,0.2-0.6,0.5-1.2s0.2-0.6,0.5-1.1
				c0.2-0.4,0.6-0.7,0.9-0.9c0.4-0.2,0.7-0.5,1.2-0.5c0.4,0,0.8,0.1,1.2,0.3C419.4,63.2,419.7,63.5,420,63.9z"/>
		</g>
		<g>
			<path class="st0" d="M439.8,99.3c0.2,0.3,0.2,0.7,0.2,1.1c0,0.4-0.2,0.7-0.4,1c-0.2,0.3-0.5,0.6-0.8,0.8
				c-0.3,0.2-0.7,0.3-1.1,0.3c-0.4,0-0.8-0.1-1.1-0.3c-0.5-0.3-0.5-0.4-1-0.7c-0.5-0.3-0.5-0.4-1-0.7c-0.5-0.3-0.5-0.3-1.1-0.7
				s-0.5-0.3-1.1-0.6c-0.5-0.3-0.6-0.3-1.1-0.6c-0.5-0.3-0.5-0.4-1-0.7c-0.5-0.3-0.6-0.3-1.1-0.6c-0.5-0.3-0.5-0.4-1-0.7
				c-0.5-0.3-0.5-0.4-1-0.7c-0.5-0.3-0.5-0.4-1-0.7c-0.4-0.3-0.7-0.6-0.9-1c-0.2-0.4-0.3-0.9-0.3-1.3c0-0.4,0.2-0.9,0.5-1.3
				c0.4-0.5,0.4-0.5,0.7-1.1c0.4-0.5,0.3-0.6,0.6-1.2c0.4-0.5,0.4-0.5,0.8-1c0.4-0.5,0.3-0.6,0.6-1.2c0.4-0.5,0.4-0.5,0.8-1.1
				c0.4-0.5,0.3-0.6,0.7-1.1c0.4-0.5,0.3-0.6,0.7-1.1c0.4-0.5,0.4-0.5,0.8-1.1c0.4-0.5,0.3-0.6,0.7-1.1c0.4-0.5,0.3-0.6,0.7-1.1
				c0.4-0.5,0.4-0.5,0.8-1.1c0.4-0.5,0.3-0.6,0.7-1.1c0.4-0.5,0.4-0.5,0.8-1.1c0.4-0.5,0.4-0.5,0.7-1.1c0.4-0.5,0.4-0.5,0.7-1.1
				c0.3-0.4,0.6-0.8,1-1c0.4-0.2,0.9-0.3,1.4-0.3c0.4,0,0.9,0.2,1.3,0.5c0.6,0.4,0.6,0.4,1.1,0.7c0.6,0.4,0.6,0.3,1.2,0.7
				c0.6,0.4,0.5,0.5,1.1,0.8c0.6,0.4,0.6,0.3,1.2,0.6c0.6,0.4,0.5,0.4,1.1,0.8c0.6,0.4,0.6,0.3,1.2,0.6c0.6,0.4,0.5,0.5,1.1,0.8
				s0.6,0.4,1.1,0.7c0.6,0.4,0.5,0.4,1.1,0.8c0.3,0.2,0.6,0.4,0.8,0.8c0.2,0.3,0.3,0.7,0.3,1.1c0,0.4-0.2,0.7-0.4,1
				c-0.2,0.3-0.5,0.6-0.8,0.8c-0.3,0.2-0.7,0.3-1.1,0.3c-0.4,0-0.7-0.1-1.1-0.4c-0.5-0.3-0.5-0.4-1-0.7c-0.5-0.3-0.6-0.3-1.1-0.6
				c-0.5-0.3-0.5-0.4-1-0.7c-0.5-0.3-0.6-0.3-1.1-0.6c-0.5-0.3-0.5-0.3-1.1-0.7c-0.5-0.3-0.5-0.4-1-0.7c-0.5-0.3-0.6-0.3-1.1-0.6
				c-0.4-0.3-1-0.2-1.3,0.2c-0.3,0.5-0.2,0.6-0.5,1.1c-0.3,0.5-0.4,0.5-0.7,1s-0.3,0.5-0.6,1.1c-0.3,0.5-0.4,0.5-0.7,1
				c-0.3,0.4-0.1,0.9,0.3,1.2c0.5,0.3,0.5,0.4,1,0.7c0.5,0.3,0.5,0.3,1,0.6c0.5,0.3,0.5,0.4,1,0.7c0.5,0.3,0.6,0.2,1.1,0.6
				c0.5,0.3,0.5,0.3,1,0.7c0.3,0.2,0.6,0.5,0.8,0.8c0.2,0.3,0.2,0.7,0.2,1.1c0,0.4-0.1,0.7-0.3,1c-0.2,0.3-0.5,0.6-0.8,0.8
				c-0.3,0.2-0.7,0.2-1.1,0.2c-0.4,0-0.7-0.1-1.1-0.3c-0.5-0.3-0.5-0.4-1-0.7c-0.5-0.3-0.5-0.3-1-0.6c-0.5-0.3-0.5-0.3-1-0.6
				c-0.5-0.3-0.5-0.3-1-0.6c-0.5-0.3-0.5-0.3-1-0.6c-0.4-0.3-0.9-0.2-1.2,0.2c-0.3,0.5-0.4,0.5-0.7,1c-0.3,0.5-0.4,0.5-0.7,1
				c-0.3,0.5-0.2,0.6-0.5,1.1c-0.3,0.4-0.2,1,0.2,1.2c0.6,0.4,0.6,0.3,1.2,0.6c0.6,0.4,0.5,0.5,1,0.8c0.5,0.4,0.5,0.4,1.1,0.7
				c0.5,0.4,0.6,0.3,1.1,0.7c0.5,0.4,0.6,0.3,1.1,0.7c0.6,0.4,0.5,0.4,1.1,0.7c0.6,0.4,0.5,0.4,1.1,0.7
				C439.3,98.8,439.7,99,439.8,99.3z"/>
		</g>
		<g>
			<path class="st0" d="M493.5,136.9c0,0.4-0.1,0.7-0.4,0.9c-0.4,0.4-0.4,0.4-0.9,0.8c-0.4,0.4-0.5,0.4-0.9,0.8s-0.4,0.5-0.8,0.9
				c-0.4,0.4-0.5,0.4-0.9,0.8c-0.4,0.4-0.4,0.5-0.8,0.9c-0.4,0.4-0.6,0.3-1,0.7c-0.4,0.4-0.4,0.5-0.8,0.9c-0.3,0.3-0.6,0.5-1,0.6
				c-0.4,0.1-0.8,0-1.2-0.1c-0.4-0.1-0.6-0.4-0.9-0.7c-0.3-0.3-0.5-0.6-0.6-1c-0.1-0.4,0-0.8,0.1-1.2c0.2-0.4-0.1-0.8-0.5-0.9
				c-0.4-0.1-0.8-0.2-1.2-0.4c-0.4-0.1-0.7-0.4-1.1-0.6c-0.4-0.2-0.8-0.3-1.1-0.5c-0.3-0.2-0.7-0.5-1-0.7c-0.3-0.3-0.6-0.6-0.9-0.9
				c-0.3-0.3-0.6-0.6-0.8-1c-0.3-0.3-0.5-0.7-0.7-1.1c-0.2-0.4-0.4-0.7-0.6-1.1c-0.2-0.4-0.3-0.8-0.4-1.2c-0.1-0.4-0.3-0.8-0.4-1.2
				c-0.1-0.4,0-0.9-0.1-1.3c0-0.4-0.1-0.9-0.1-1.3c0-0.4,0-0.9,0.1-1.3c0-0.4,0.1-0.8,0.2-1.3c0.1-0.4,0.1-0.9,0.3-1.3
				c0.1-0.4,0.4-0.8,0.5-1.2c0.2-0.4,0.3-0.8,0.5-1.2c0.2-0.4,0.4-0.7,0.7-1.1c0.2-0.3,0.5-0.7,0.8-1.1c0.3-0.3,0.7-0.5,1-0.8
				c0.3-0.3,0.6-0.7,0.9-0.9c0.3-0.3,0.7-0.6,1-0.8c0.4-0.2,0.8-0.4,1.2-0.6c0.4-0.2,0.8-0.2,1.2-0.4c0.4-0.1,0.8-0.3,1.2-0.4
				c0.4-0.1,0.8-0.1,1.3-0.2c0.4-0.1,0.8-0.2,1.3-0.2c0.4,0,0.9,0.1,1.3,0.1c0.4,0,0.9,0,1.3,0.1c0.4,0.1,0.8,0.3,1.2,0.4
				c0.4,0.1,0.8,0.3,1.2,0.5c0.4,0.2,0.8,0.3,1.2,0.5c0.4,0.2,0.7,0.4,1.1,0.7c0.4,0.2,0.7,0.5,1.1,0.7c0.3,0.3,0.6,0.7,0.9,1
				c0.3,0.4,0.7,0.7,1,1c0.3,0.4,0.5,0.8,0.8,1.2c0.3,0.4,0.6,0.8,0.8,1.2c0.2,0.4,0.4,0.9,0.5,1.3c0.2,0.5,0.3,0.9,0.4,1.4
				c0,0.4,0,0.8-0.1,1.1c-0.1,0.4-0.4,0.6-0.7,0.9c-0.3,0.3-0.7,0.5-1,0.6c-0.4,0.1-0.8,0.1-1.2,0c-0.4-0.1-0.7-0.3-1-0.6
				c-0.3-0.3-0.5-0.9-0.5-1.3c-0.1-0.4-0.3-0.9-0.5-1.3c-0.2-0.4-0.4-0.9-0.7-1.3c-0.3-0.4-0.6-0.7-0.9-1.1
				c-0.3-0.3-0.6-0.7-0.9-0.9c-0.4-0.2-0.7-0.5-1.1-0.7c-0.4-0.2-0.8-0.3-1.3-0.4c-0.4-0.1-0.9-0.2-1.3-0.2c-0.4,0-0.9,0.1-1.3,0.1
				c-0.4,0-0.9,0-1.3,0.1c-0.4,0.1-0.8,0.3-1.2,0.5c-0.4,0.2-0.8,0.4-1.1,0.7c-0.4,0.2-0.8,0.5-1.1,0.8c-0.3,0.3-0.6,0.7-0.8,1
				c-0.3,0.4-0.6,0.7-0.8,1.1c-0.2,0.4-0.3,0.8-0.5,1.2c-0.1,0.4-0.2,0.9-0.2,1.3c-0.1,0.4-0.1,0.9-0.1,1.3c0,0.4,0,0.9,0.1,1.3
				c0.1,0.4,0.1,0.9,0.2,1.3c0.1,0.4,0.4,0.8,0.6,1.2c0.2,0.4,0.4,0.8,0.7,1.1c0.3,0.3,0.7,0.5,1.1,0.8c0.4,0.2,0.7,0.5,1.1,0.7
				c0.4,0.2,0.9,0.1,1.3,0.2c0.4,0.1,0.8,0.1,1.3,0.1c0.6,0,0.9-0.6,0.5-1.1l0,0c-0.3-0.3-0.4-0.7-0.5-1c-0.1-0.4,0-0.7,0.1-1.1
				c0.1-0.3,0.3-0.7,0.6-0.9c0.3-0.3,0.6-0.5,0.9-0.6c0.4-0.1,0.8-0.1,1.1,0c0.3,0.1,0.7,0.3,1,0.6c0.4,0.4,0.5,0.4,0.9,0.9
				c0.4,0.4,0.3,0.5,0.7,1l0,0c0.5,0.5,0.5,0.5,1,1.1c0.5,0.5,0.5,0.5,1,1.1C493.4,136.2,493.5,136.5,493.5,136.9z"/>
		</g>
		<g>
			<path class="st0" d="M523,154.2c0.2,0.4,0.4,0.8,0.6,1.2c0.2,0.4,0.2,0.9,0.3,1.3c0.1,0.4,0.3,0.8,0.4,1.3
				c0.1,0.4,0.1,0.9,0.1,1.3c0,0.4,0,0.9,0,1.3c0,0.4,0,0.9-0.1,1.3c-0.1,0.4-0.2,0.9-0.3,1.3c-0.1,0.4-0.3,0.8-0.4,1.2
				c-0.2,0.4-0.3,0.8-0.5,1.2c-0.2,0.4-0.4,0.8-0.6,1.1c-0.2,0.4-0.5,0.7-0.8,1c-0.3,0.3-0.6,0.7-0.9,1c-0.3,0.3-0.7,0.6-1,0.8
				c-0.3,0.3-0.6,0.6-1,0.9c-0.4,0.2-0.8,0.4-1.1,0.6c-0.4,0.2-0.8,0.4-1.2,0.5c-0.4,0.2-0.8,0.3-1.2,0.4c-0.4,0.1-0.9,0.2-1.3,0.3
				c-0.4,0.1-0.9,0.2-1.3,0.2c-0.4,0-0.9,0.1-1.3,0.1c-0.4,0-0.9-0.2-1.3-0.3c-0.4-0.1-0.9,0-1.3-0.1c-0.4-0.1-0.8-0.3-1.2-0.5
				c-0.4-0.1-0.8-0.3-1.2-0.4c-0.4-0.2-0.8-0.4-1.2-0.6c-0.4-0.2-0.7-0.5-1-0.8c-0.3-0.3-0.6-0.6-1-0.9c-0.3-0.3-0.7-0.6-0.9-0.9
				c-0.3-0.3-0.6-0.6-0.9-1c-0.2-0.4-0.4-0.8-0.6-1.2c-0.2-0.4-0.3-0.8-0.5-1.2c-0.2-0.4-0.3-0.8-0.4-1.2c-0.1-0.4-0.3-0.8-0.3-1.3
				c-0.1-0.4,0-0.9-0.1-1.3c0-0.4,0.1-0.9,0.1-1.3c0-0.4,0-0.9,0.1-1.3c0.1-0.4,0.1-0.9,0.2-1.3c0.1-0.4,0.2-0.8,0.4-1.2
				c0.2-0.4,0.4-0.8,0.6-1.2c0.2-0.4,0.4-0.8,0.6-1.1c0.2-0.4,0.5-0.7,0.8-1c0.3-0.3,0.5-0.7,0.8-1c0.3-0.3,0.7-0.5,1-0.8
				c0.3-0.3,0.6-0.6,1-0.8c0.4-0.2,0.7-0.5,1.1-0.7c0.4-0.2,0.8-0.3,1.2-0.5c0.4-0.2,0.8-0.3,1.2-0.5c0.4-0.1,0.8-0.3,1.3-0.4
				c0.4-0.1,0.9-0.1,1.3-0.1c0.4,0,0.9,0,1.3,0c0.4,0,0.9,0,1.3,0.1c0.4,0.1,0.8,0.3,1.3,0.4c0.4,0.1,0.9,0.1,1.3,0.3
				c0.4,0.1,0.8,0.4,1.2,0.5c0.4,0.2,0.7,0.5,1.1,0.7c0.4,0.2,0.7,0.5,1.1,0.7c0.3,0.3,0.8,0.4,1.1,0.7c0.3,0.3,0.5,0.7,0.8,1.1
				c0.3,0.3,0.6,0.6,0.8,1C522.6,153.5,522.8,153.8,523,154.2z M506.1,165.6c0.3,0.3,0.7,0.6,1,0.8c0.4,0.2,0.7,0.5,1.1,0.7
				c0.4,0.2,0.8,0.3,1.3,0.4c0.4,0.1,0.9,0.1,1.3,0.1c0.4,0,0.9-0.1,1.3-0.2c0.4-0.1,0.9-0.1,1.3-0.2c0.4-0.1,0.8-0.3,1.2-0.5
				c0.4-0.2,0.8-0.4,1.1-0.7c0.4-0.3,0.7-0.6,1-0.9c0.3-0.3,0.7-0.6,1-0.9c0.3-0.3,0.6-0.7,0.8-1c0.2-0.4,0.4-0.8,0.5-1.2
				c0.2-0.4,0.2-0.9,0.3-1.3c0.1-0.4,0.1-0.9,0.1-1.3c0-0.4,0-0.9-0.1-1.3c-0.1-0.4-0.2-0.9-0.4-1.3c-0.2-0.4-0.3-0.8-0.6-1.2
				c-0.2-0.4-0.6-0.7-0.9-1c-0.3-0.3-0.6-0.7-1-0.9c-0.4-0.2-0.8-0.4-1.2-0.6c-0.4-0.2-0.8-0.3-1.3-0.3c-0.4-0.1-0.9-0.2-1.3-0.2
				c-0.4,0-0.9,0-1.3,0.1c-0.4,0.1-0.8,0.2-1.3,0.4c-0.4,0.1-0.8,0.3-1.2,0.5c-0.4,0.2-0.8,0.4-1.2,0.7c-0.4,0.3-0.7,0.6-1,0.8
				c-0.3,0.3-0.7,0.5-1,0.9c-0.3,0.4-0.4,0.8-0.7,1.2c-0.2,0.4-0.5,0.8-0.6,1.2c-0.2,0.4-0.4,0.8-0.4,1.3c-0.1,0.4-0.1,0.9-0.1,1.3
				c0,0.4,0.2,0.9,0.3,1.3c0.1,0.4,0.1,0.9,0.2,1.3c0.2,0.4,0.4,0.8,0.7,1.2C505.5,165,505.8,165.3,506.1,165.6z"/>
		</g>
		<g>
			<path class="st0" d="M544.2,192.4c0.1,0.4,0.3,0.8,0.4,1.2c0.1,0.4,0,0.9,0.1,1.3c0,0.4,0.2,0.9,0.2,1.3c0,0.4-0.1,0.9-0.1,1.3
				c0,0.4-0.1,0.9-0.2,1.3c-0.1,0.4-0.1,0.9-0.3,1.3c-0.1,0.4-0.3,0.8-0.5,1.2c-0.2,0.4-0.4,0.8-0.6,1.1c-0.2,0.4-0.5,0.7-0.7,1.1
				c-0.3,0.3-0.5,0.7-0.8,1c-0.3,0.3-0.6,0.6-0.9,0.9c-0.3,0.3-0.7,0.6-1,0.8c-0.3,0.3-0.7,0.4-1.1,0.7c-0.4,0.2-0.7,0.5-1.1,0.7
				c-0.4,0.2-0.8,0.3-1.2,0.4c-0.4,0.1-0.8,0.2-1.3,0.3c-0.4,0.1-0.9,0.2-1.3,0.2c-0.4,0.1-0.9,0-1.3,0c-0.4,0-0.9,0.1-1.3,0
				c-0.4,0-0.9,0-1.3-0.1c-0.4-0.1-0.8-0.3-1.2-0.5c-0.4-0.1-0.9-0.1-1.3-0.3c-0.4-0.2-0.7-0.5-1.1-0.7c-0.4-0.2-0.8-0.4-1.1-0.6
				c-0.4-0.2-0.7-0.5-1-0.8c-0.3-0.3-0.6-0.6-0.9-1c-0.3-0.3-0.5-0.7-0.8-1c-0.3-0.3-0.6-0.7-0.8-1c-0.2-0.4-0.5-0.7-0.7-1.1
				c-0.2-0.4-0.2-0.8-0.4-1.3c-0.1-0.4-0.2-0.8-0.3-1.3c-0.1-0.4-0.2-0.8-0.2-1.3c0-0.4-0.1-0.9-0.1-1.3c0-0.4,0.1-0.9,0.2-1.3
				c0.1-0.4,0.2-0.8,0.3-1.3c0.1-0.4,0.2-0.8,0.3-1.3c0.1-0.4,0.2-0.9,0.4-1.2c0.2-0.4,0.4-0.8,0.6-1.2c0.2-0.4,0.5-0.7,0.8-1
				c0.3-0.3,0.5-0.7,0.8-1c0.3-0.3,0.6-0.6,1-0.9c0.3-0.3,0.6-0.6,1-0.9c0.3-0.3,0.8-0.4,1.2-0.6c0.4-0.2,0.7-0.5,1.1-0.6
				c0.4-0.2,0.8-0.4,1.2-0.5c0.4-0.1,0.8-0.2,1.3-0.3c0.4-0.1,0.8-0.2,1.3-0.3c0.4-0.1,0.9-0.1,1.3-0.2c0.4,0,0.9,0,1.3,0.1
				c0.4,0,0.9,0.1,1.3,0.2c0.4,0.1,0.9,0.1,1.3,0.3c0.4,0.1,0.8,0.4,1.2,0.6c0.4,0.2,0.8,0.3,1.2,0.5c0.4,0.2,0.7,0.5,1.1,0.7
				c0.4,0.2,0.7,0.6,1,0.9c0.3,0.3,0.6,0.6,0.9,0.9c0.3,0.3,0.7,0.5,1,0.9c0.3,0.3,0.4,0.8,0.6,1.2c0.2,0.4,0.5,0.7,0.6,1.1
				C543.9,191.6,544.1,192,544.2,192.4z M525.7,200.8c0.3,0.4,0.6,0.7,0.9,1c0.3,0.3,0.6,0.6,1,0.9c0.4,0.2,0.8,0.5,1.2,0.6
				c0.4,0.2,0.9,0.2,1.3,0.3c0.4,0.1,0.9,0,1.3,0c0.4,0,0.9,0.1,1.3,0c0.4-0.1,0.9-0.1,1.3-0.3c0.4-0.1,0.8-0.3,1.2-0.5
				c0.4-0.2,0.8-0.5,1.1-0.7c0.4-0.2,0.8-0.4,1.1-0.7c0.3-0.3,0.7-0.6,1-0.9c0.3-0.3,0.5-0.7,0.7-1.1c0.2-0.4,0.3-0.8,0.5-1.2
				c0.2-0.4,0.3-0.8,0.3-1.3c0.1-0.4,0.2-0.9,0.2-1.3c0-0.4-0.1-0.9-0.2-1.3c-0.1-0.4-0.2-0.9-0.4-1.3c-0.2-0.4-0.5-0.7-0.7-1.1
				c-0.3-0.4-0.5-0.8-0.8-1.1c-0.3-0.3-0.7-0.5-1.1-0.8c-0.4-0.2-0.8-0.4-1.2-0.6c-0.4-0.2-0.8-0.3-1.3-0.4
				c-0.4-0.1-0.9-0.1-1.3-0.1c-0.4,0-0.9,0.1-1.3,0.1c-0.4,0.1-0.9,0.1-1.3,0.2c-0.4,0.1-0.8,0.3-1.2,0.5c-0.4,0.2-0.8,0.4-1.1,0.7
				c-0.4,0.2-0.8,0.4-1.1,0.7c-0.3,0.3-0.6,0.7-0.8,1c-0.3,0.3-0.6,0.7-0.8,1.1c-0.2,0.4-0.5,0.8-0.6,1.2c-0.2,0.4-0.3,0.9-0.3,1.3
				c-0.1,0.4,0.1,0.9,0.1,1.3c0,0.4-0.1,0.9,0,1.3c0.1,0.4,0.3,0.8,0.5,1.3C525.2,200.1,525.4,200.5,525.7,200.8z"/>
		</g>
		<g>
			<path class="st0" d="M557.7,229.8c0.1,0.4,0,0.9,0.1,1.3c0,0.4,0.1,0.9,0.1,1.3c0,0.4-0.1,0.9-0.1,1.3c-0.1,0.4-0.2,0.8-0.4,1.2
				c-0.1,0.4-0.1,0.9-0.3,1.3c-0.2,0.4-0.4,0.8-0.6,1.2c-0.2,0.4-0.4,0.8-0.6,1.1c-0.2,0.4-0.5,0.7-0.8,1c-0.3,0.3-0.5,0.7-0.8,1
				c-0.3,0.3-0.7,0.5-1,0.8c-0.3,0.3-0.6,0.6-1,0.9c-0.4,0.2-0.7,0.5-1.1,0.7c-0.4,0.2-0.8,0.3-1.2,0.4c-0.4,0.2-0.8,0.4-1.2,0.5
				c-0.4,0.1-0.9,0.1-1.3,0.2c-0.4,0.1-0.9,0.2-1.3,0.2c-0.4,0-0.9,0-1.3,0c-0.4,0-0.9,0-1.3-0.1c-0.4-0.1-0.9-0.1-1.3-0.2
				c-0.4-0.1-0.9-0.2-1.3-0.3c-0.4-0.2-0.8-0.3-1.2-0.5c-0.4-0.2-0.7-0.5-1.1-0.7c-0.4-0.2-0.8-0.4-1.1-0.7
				c-0.3-0.3-0.6-0.6-0.9-0.9s-0.6-0.6-0.9-0.9c-0.3-0.3-0.6-0.7-0.8-1c-0.2-0.4-0.4-0.8-0.6-1.2c-0.2-0.4-0.5-0.7-0.7-1.1
				c-0.2-0.4-0.2-0.9-0.3-1.3c-0.2-0.7-0.3-0.7-0.5-1.4c-0.2-0.7-0.2-0.7-0.4-1.4c-0.2-0.7-0.1-0.7-0.3-1.4
				c-0.2-0.7-0.4-0.7-0.6-1.4c-0.1-0.5,0-1,0.1-1.4c0.1-0.5,0.2-1,0.6-1.3c0.3-0.3,0.8-0.5,1.3-0.6c0.6-0.2,0.6-0.2,1.2-0.4
				c0.6-0.2,0.6-0.1,1.3-0.3c0.6-0.2,0.6-0.2,1.2-0.4c0.6-0.2,0.6-0.1,1.3-0.3c0.6-0.2,0.6-0.2,1.2-0.4c0.6-0.2,0.7-0.1,1.3-0.3
				c0.6-0.2,0.6-0.2,1.2-0.4c0.6-0.2,0.6-0.2,1.2-0.4c0.6-0.2,0.6-0.2,1.3-0.4c0.6-0.2,0.6-0.1,1.3-0.3c0.6-0.2,0.7-0.1,1.3-0.3
				c0.6-0.2,0.6-0.3,1.2-0.4c0.6-0.2,0.7-0.1,1.3-0.2c0.6-0.2,0.6-0.2,1.2-0.4c0.6-0.2,0.6-0.3,1.2-0.4c0.5-0.1,1-0.2,1.4-0.1
				c0.5,0.1,0.9,0.4,1.2,0.7c0.3,0.3,0.5,0.8,0.6,1.3c0.2,0.7,0.2,0.7,0.4,1.4c0.2,0.7,0.2,0.7,0.4,1.4c0.2,0.7,0.2,0.7,0.4,1.4
				c0.2,0.7,0.2,0.7,0.4,1.4C557.6,228.9,557.7,229.3,557.7,229.8z M537.8,235.3c0.2,0.4,0.5,0.7,0.7,1.1c0.2,0.4,0.5,0.7,0.8,1
				c0.3,0.3,0.6,0.6,1,0.8c0.3,0.2,0.7,0.4,1.1,0.6c0.4,0.2,0.8,0.4,1.2,0.5c0.4,0.1,0.8,0,1.3,0.1c0.4,0,0.8,0.2,1.3,0.2
				c0.4,0,0.8-0.2,1.3-0.2c0.4-0.1,0.8-0.2,1.2-0.3c0.4-0.1,0.8-0.1,1.2-0.3c0.4-0.2,0.7-0.5,1-0.7c0.4-0.2,0.8-0.3,1.1-0.6
				c0.3-0.3,0.5-0.6,0.8-0.9c0.3-0.3,0.6-0.6,0.8-0.9c0.2-0.3,0.4-0.7,0.6-1.1c0.2-0.4,0.3-0.7,0.4-1.2c0.1-0.4,0.1-0.8,0.2-1.2
				c0-0.4,0.1-0.8,0-1.2c0-0.4-0.2-0.8-0.3-1.2c-0.2-0.7-0.1-0.7-0.3-1.3c-0.2-0.7-0.3-0.6-0.4-1.3c-0.1-0.5-0.6-0.7-1.1-0.6
				c-0.7,0.2-0.7,0.2-1.3,0.4c-0.7,0.2-0.7,0.1-1.3,0.3c-0.7,0.2-0.7,0.1-1.3,0.3c-0.7,0.2-0.6,0.3-1.3,0.5
				c-0.7,0.2-0.7,0.1-1.3,0.2c-0.7,0.2-0.6,0.2-1.3,0.4c-0.7,0.2-0.6,0.3-1.3,0.4c-0.7,0.2-0.6,0.2-1.3,0.4
				c-0.7,0.2-0.7,0.1-1.3,0.3c-0.7,0.2-0.7,0.1-1.3,0.3c-0.7,0.2-0.7,0.2-1.3,0.3c-0.5,0.1-0.8,0.7-0.7,1.2c0.2,0.7,0.2,0.6,0.4,1.3
				c0.2,0.7,0.2,0.6,0.4,1.3C537.5,234.5,537.6,234.9,537.8,235.3z"/>
		</g>
		<g>
			<path class="st0" d="M555.6,270.4c-0.1,0.5-0.2,0.9-0.3,1.3c-0.2,0.4-0.4,0.9-0.5,1.2c-0.2,0.4-0.3,0.9-0.5,1.3
				c-0.2,0.4-0.5,0.8-0.8,1.1c-0.3,0.4-0.6,0.7-1,0.9c-0.4,0.3-0.8,0.5-1.2,0.7c-0.4,0.2-0.8,0.4-1.2,0.6c-0.4,0.1-0.9,0.3-1.3,0.3
				c-0.4,0.1-0.8,0-1.2,0c-0.4,0-0.8-0.1-1.2-0.2c-0.4-0.1-0.8-0.3-1.2-0.4c-0.4-0.2-0.7-0.5-1-0.8c-0.3-0.3-0.6-0.5-0.9-0.8
				c-0.3-0.3-0.6-0.6-0.8-0.9c-0.2-0.3-0.4-0.7-0.6-1.1c-0.2-0.4-0.4-0.7-0.5-1.1c-0.2-0.4-0.4-0.7-0.5-1.1
				c-0.1-0.4-0.1-0.8-0.2-1.2c-0.1-0.4-0.1-0.9-0.1-1.3c0-0.4,0.1-0.9,0.2-1.3c0.1-0.4,0.1-0.9,0.2-1.3c0.1-0.4,0.2-0.8,0.4-1.2
				c0.2-0.4,0.4-0.7,0.6-1.1c0.2-0.4,0.4-0.7,0.7-1.1c0.2-0.3,0.5-0.7,0.8-1c0.4-0.3,0.8-0.5,1.2-0.6c0.4,0,0.8,0,1.2,0.2
				c0.4,0.1,0.7,0.4,0.9,0.7c0.2,0.3,0.4,0.7,0.4,1.1c0,0.4-0.1,0.7-0.2,1c-0.1,0.3-0.2,0.7-0.5,0.9c-0.3,0.3-0.6,0.6-0.8,0.9
				c-0.2,0.4-0.5,0.7-0.6,1.1c-0.1,0.4-0.2,0.8-0.3,1.2c0,0.4-0.1,0.8,0,1.2c0.1,0.4,0.2,0.9,0.3,1.3c0.2,0.4,0.5,0.8,0.8,1.1
				c0.3,0.3,0.6,0.6,1.1,0.8c0.4,0.1,0.8,0.4,1.3,0.3c0.4-0.1,0.8-0.2,1.2-0.4c0.3-0.2,0.6-0.5,0.9-0.9c0.2-0.3,0.4-0.6,0.6-1.1
				c0.1-0.3,0.3-0.7,0.5-1.1c0.1-0.4,0.2-0.8,0.3-1.2c0.1-0.6,0.2-0.6,0.3-1.1c0.1-0.4,0.2-0.9,0.3-1.3c0.1-0.4,0.2-0.9,0.3-1.3
				c0.2-0.4,0.3-0.8,0.5-1.2c0.2-0.4,0.4-0.8,0.7-1.1c0.3-0.4,0.5-0.7,0.8-1c0.3-0.3,0.7-0.6,1.1-0.8c0.4-0.2,0.8-0.3,1.3-0.4
				c0.4-0.1,0.8-0.3,1.3-0.4c0.4-0.1,0.9,0,1.3,0.1c0.4,0,0.9,0.1,1.3,0.2c0.4,0.1,0.8,0.4,1.1,0.6c0.4,0.2,0.7,0.5,1,0.8
				c0.3,0.3,0.7,0.5,0.9,0.9c0.3,0.3,0.4,0.8,0.6,1.1c0.2,0.4,0.4,0.7,0.5,1.2c0.2,0.4,0.3,0.8,0.4,1.2c0.1,0.4,0.3,0.8,0.4,1.2
				c0.1,0.4,0,0.8,0,1.2c0,0.4-0.1,0.8-0.2,1.2c-0.1,0.4,0,0.9-0.1,1.2c-0.1,0.4-0.3,0.8-0.5,1.1c-0.2,0.4-0.3,0.7-0.6,1.1
				c-0.2,0.4-0.5,0.6-0.8,1c-0.3,0.4-0.7,0.5-1.3,0.6c-0.6,0.1-1.1,0-1.6-0.3c-0.4-0.3-0.7-0.9-0.8-1.4c0-0.3,0-0.7,0.1-1
				c0.1-0.3,0.3-0.6,0.6-0.8c0.3-0.3,0.4-0.7,0.5-1.1c0.1-0.4,0.3-0.8,0.3-1.2c0-0.4-0.1-0.8-0.1-1.2c-0.1-0.5-0.2-1-0.4-1.4
				c-0.2-0.5-0.6-0.8-0.9-1.1c-0.4-0.3-0.9-0.4-1.4-0.4c-0.4,0.1-0.7,0.2-1,0.4c-0.3,0.2-0.6,0.4-0.8,0.8c-0.2,0.3-0.3,0.7-0.4,1.1
				c-0.1,0.3-0.1,0.7-0.2,1.1c-0.1,0.6-0.2,0.6-0.3,1.1C555.9,269.5,555.7,270,555.6,270.4z"/>
		</g>
	</g>
	<g>
		<g>
			<path class="st0" d="M67.7,359.1c-0.3,0.3-0.6,0.6-1,0.8c-0.4,0.2-0.8,0.1-1.2,0.1c-0.7-0.1-0.7-0.1-1.3-0.2
				c-0.7-0.1-0.7-0.1-1.3-0.2c-0.7-0.1-0.7-0.1-1.3-0.2c-0.7-0.1-0.7,0-1.3-0.1c-0.7-0.1-0.7-0.1-1.3-0.2s-0.7-0.1-1.3-0.2
				c-0.7-0.1-0.7-0.1-1.3-0.2c-0.7-0.1-0.7-0.1-1.3-0.2c-0.7-0.1-0.7,0-1.3-0.1c-0.7-0.1-0.7-0.1-1.3-0.2c-0.7-0.1-0.6-0.2-1.3-0.3
				c-0.7-0.1-0.7,0-1.3-0.1c-0.7-0.1-0.7-0.1-1.3-0.2c-0.7-0.1-0.7-0.1-1.3-0.2c-0.7-0.1-0.7-0.1-1.3-0.2c-0.7-0.1-0.7-0.1-1.3-0.2
				c-0.5-0.1-1-0.3-1.3-0.7c-0.4-0.3-0.5-0.8-0.6-1.3c-0.1-0.5,0-1,0.2-1.4c0.2-0.4,0.5-0.8,0.9-1.1c0.6-0.3,0.6-0.2,1.2-0.6
				c0.6-0.3,0.5-0.5,1.1-0.8c0.6-0.3,0.6-0.3,1.2-0.6c0.6-0.3,0.6-0.2,1.2-0.6c0.6-0.3,0.6-0.3,1.1-0.6c0.6-0.3,0.5-0.4,1.1-0.7
				c0.6-0.3,0.6-0.3,1.1-0.7c0.6-0.3,0.5-0.3,1.1-0.7c0.6-0.3,0.6-0.2,1.2-0.5c0.4-0.2,0.4-0.6,0.4-1c-0.1-0.4-0.3-0.8-0.7-0.8
				c-0.6-0.1-0.7,0.1-1.3,0c-0.6-0.1-0.6-0.2-1.3-0.3c-0.6-0.1-0.6-0.1-1.3-0.2c-0.6-0.1-0.6-0.1-1.3-0.1c-0.6-0.1-0.6-0.2-1.3-0.3
				s-0.7,0-1.3-0.1c-0.6-0.1-0.6-0.2-1.3-0.3c-0.6-0.1-0.7,0-1.3-0.1c-0.6-0.1-0.6-0.1-1.3-0.2c-0.5-0.1-1-0.3-1.4-0.6
				c-0.4-0.3-0.6-0.8-0.6-1.3c-0.1-0.5,0-1,0.2-1.5c0.2-0.4,0.5-0.8,1-1.1c0.6-0.3,0.6-0.4,1.1-0.7c0.6-0.3,0.6-0.3,1.2-0.6
				c0.6-0.3,0.6-0.4,1.1-0.7c0.6-0.3,0.7-0.2,1.2-0.5c0.6-0.3,0.5-0.4,1.1-0.7c0.6-0.3,0.6-0.3,1.2-0.6c0.6-0.3,0.6-0.4,1.1-0.7
				c0.6-0.3,0.6-0.3,1.2-0.6c0.6-0.3,0.6-0.3,1.2-0.6c0.6-0.3,0.6-0.3,1.2-0.7c0.6-0.3,0.6-0.3,1.2-0.6c0.6-0.3,0.5-0.4,1.1-0.7
				c0.6-0.3,0.6-0.4,1.1-0.7c0.6-0.3,0.6-0.3,1.2-0.6c0.6-0.3,0.6-0.3,1.2-0.6c0.6-0.3,0.5-0.4,1.1-0.7c0.4-0.2,0.8-0.3,1.2-0.2
				c0.4,0,0.9,0,1.2,0.2c0.3,0.2,0.7,0.5,0.9,0.9c0.2,0.4,0.3,0.8,0.3,1.2c0,0.4-0.2,0.8-0.4,1.2c-0.2,0.3-0.5,0.7-0.8,0.9
				c-0.6,0.3-0.6,0.3-1.2,0.6s-0.6,0.2-1.2,0.5c-0.6,0.3-0.6,0.4-1.1,0.7c-0.6,0.3-0.5,0.4-1.1,0.7c-0.6,0.3-0.6,0.4-1.1,0.7
				c-0.6,0.3-0.6,0.3-1.2,0.6c-0.6,0.3-0.6,0.3-1.1,0.6c-0.6,0.3-0.6,0.3-1.2,0.6c-0.6,0.3-0.6,0.4-1.1,0.7
				c-0.4,0.2-0.6,0.6-0.5,0.9c0.1,0.4,0.4,0.6,0.8,0.7c0.7,0.1,0.6,0.2,1.3,0.3c0.7,0.1,0.6,0.1,1.3,0.2c0.7,0.1,0.7,0,1.3,0.1
				c0.7,0.1,0.7,0.1,1.3,0.2c0.7,0.1,0.7,0,1.3,0.1c0.7,0.1,0.6,0.1,1.3,0.2s0.7,0.1,1.3,0.2c0.7,0.1,0.7,0.1,1.3,0.2
				c0.9,0.1,2,0.3,2.6,1c0.5,0.6,0.7,1.4,0.6,2.2c0,0.4-0.1,0.7-0.4,1c-0.1,0.1-0.2,0.2-0.4,0.3c-0.1,0.1-1.5,0.7-1.5,0.7
				c-0.6,0.3-0.6,0.3-1.1,0.7c-0.6,0.3-0.6,0.3-1.2,0.6c-0.6,0.3-0.6,0.3-1.1,0.7c-0.6,0.3-0.6,0.3-1.2,0.6
				c-0.6,0.3-0.6,0.3-1.2,0.6c-0.6,0.3-0.6,0.4-1.1,0.7c-0.6,0.3-0.6,0.3-1.2,0.6c-0.6,0.3-0.5,0.4-1.1,0.7
				c-0.4,0.2-0.5,0.6-0.4,0.9c0.1,0.4,0.3,0.7,0.7,0.7c0.7,0.1,0.6,0.1,1.3,0.2c0.7,0.1,0.7,0,1.3,0.1c0.7,0.1,0.6,0.2,1.3,0.3
				c0.7,0.1,0.7,0.1,1.3,0.1c0.7,0.1,0.7,0.1,1.3,0.1c0.7,0.1,0.6,0.1,1.3,0.2c0.7,0.1,0.7,0.1,1.3,0.2c0.7,0.1,0.7,0.1,1.3,0.2
				c0.7,0.1,0.6,0.2,1.3,0.3c0.4,0.1,0.9,0.1,1.2,0.4c0.3,0.3,0.5,0.7,0.6,1.1c0.2,0.4,0.3,0.8,0.3,1.2
				C68.1,358.4,67.9,358.8,67.7,359.1z"/>
		</g>
		<g>
			<path class="st0" d="M58.5,395.4c-0.1,0.4-0.2,0.7-0.5,1c-0.2,0.3-0.6,0.4-0.9,0.6c-0.4,0.1-0.7,0.2-1.1,0.1
				c-0.4-0.1-0.7-0.2-1-0.5c-0.3-0.2-0.6-0.5-0.7-0.9c-0.2-0.6-0.2-0.6-0.4-1.2c-0.2-0.6-0.1-0.6-0.3-1.2c-0.2-0.6-0.2-0.6-0.4-1.2
				c-0.2-0.6-0.2-0.6-0.4-1.2c-0.2-0.6-0.3-0.6-0.5-1.1c-0.2-0.6-0.2-0.6-0.4-1.2c-0.2-0.6-0.3-0.6-0.5-1.1
				c-0.2-0.6-0.2-0.6-0.4-1.2c-0.2-0.6-0.2-0.6-0.4-1.2c-0.2-0.6-0.2-0.6-0.4-1.2c-0.2-0.5-0.2-0.9-0.2-1.4c0.1-0.5,0.3-0.9,0.6-1.2
				c0.3-0.3,0.7-0.6,1.2-0.8c0.6-0.2,0.6-0.2,1.2-0.4c0.6-0.2,0.6-0.3,1.2-0.6c0.6-0.2,0.6-0.1,1.3-0.3c0.6-0.2,0.6-0.3,1.2-0.6
				c0.6-0.2,0.6-0.2,1.2-0.4c0.6-0.2,0.6-0.2,1.2-0.5c0.6-0.2,0.6-0.3,1.2-0.5c0.6-0.2,0.6-0.2,1.3-0.4c0.6-0.2,0.6-0.2,1.2-0.4
				c0.6-0.2,0.6-0.3,1.2-0.5c0.6-0.2,0.6-0.2,1.3-0.4c0.6-0.2,0.6-0.3,1.2-0.5c0.6-0.2,0.6-0.1,1.3-0.4c0.6-0.2,0.6-0.2,1.2-0.4
				c0.6-0.2,0.6-0.2,1.2-0.4c0.5-0.2,0.9-0.3,1.4-0.2c0.5,0.1,0.9,0.3,1.3,0.6c0.3,0.3,0.6,0.7,0.7,1.2c0.2,0.6,0.2,0.6,0.5,1.3
				c0.2,0.6,0.3,0.6,0.5,1.2s0.1,0.7,0.4,1.3s0.3,0.6,0.6,1.2c0.2,0.6,0.2,0.7,0.4,1.3c0.2,0.6,0.3,0.6,0.6,1.2
				c0.2,0.6,0.1,0.7,0.3,1.3c0.2,0.6,0.2,0.6,0.5,1.3s0.2,0.6,0.4,1.3c0.1,0.4,0.2,0.7,0.1,1.1c-0.1,0.4-0.2,0.7-0.4,1
				c-0.2,0.3-0.6,0.4-0.9,0.6c-0.4,0.1-0.7,0.2-1.1,0.1c-0.4-0.1-0.7-0.2-1-0.5c-0.3-0.2-0.5-0.6-0.6-0.9c-0.2-0.6-0.2-0.6-0.4-1.2
				c-0.2-0.6-0.3-0.6-0.5-1.2c-0.2-0.6-0.2-0.6-0.4-1.2c-0.2-0.6-0.3-0.6-0.5-1.2c-0.2-0.6-0.2-0.6-0.4-1.2
				c-0.2-0.6-0.2-0.6-0.4-1.2c-0.2-0.6-0.3-0.6-0.5-1.2c-0.2-0.5-0.7-0.8-1.1-0.6c-0.6,0.2-0.5,0.3-1.1,0.6s-0.6,0.1-1.2,0.3
				c-0.6,0.2-0.6,0.3-1.1,0.5c-0.6,0.2-0.6,0.2-1.2,0.4c-0.5,0.2-0.6,0.7-0.5,1.2c0.2,0.6,0.1,0.6,0.3,1.1c0.2,0.6,0.2,0.6,0.4,1.1
				c0.2,0.6,0.2,0.6,0.4,1.1c0.2,0.6,0.3,0.5,0.5,1.1c0.2,0.6,0.2,0.6,0.4,1.1c0.1,0.4,0.2,0.8,0.1,1.1c-0.1,0.4-0.3,0.7-0.5,1
				c-0.2,0.3-0.5,0.5-0.9,0.6c-0.4,0.1-0.8,0.2-1.1,0.2c-0.4-0.1-0.7-0.3-1-0.5c-0.3-0.2-0.5-0.5-0.6-0.9c-0.2-0.6-0.1-0.6-0.3-1.1
				c-0.2-0.6-0.2-0.5-0.4-1.1c-0.2-0.6-0.3-0.5-0.5-1.1c-0.2-0.6-0.2-0.6-0.4-1.1c-0.2-0.6-0.2-0.6-0.4-1.1
				c-0.2-0.5-0.6-0.7-1.1-0.5c-0.6,0.2-0.6,0.1-1.2,0.3c-0.6,0.2-0.6,0.2-1.1,0.4c-0.6,0.2-0.5,0.4-1.1,0.6
				c-0.5,0.2-0.8,0.6-0.6,1.1c0.2,0.6,0.3,0.6,0.6,1.2c0.2,0.6,0.1,0.7,0.3,1.3c0.2,0.6,0.2,0.6,0.4,1.2c0.2,0.6,0.2,0.6,0.4,1.2
				c0.2,0.6,0.2,0.6,0.5,1.2c0.2,0.6,0.2,0.6,0.4,1.2c0.2,0.6,0.2,0.6,0.4,1.2C58.4,394.6,58.5,395,58.5,395.4z"/>
		</g>
		<g>
			<path class="st0" d="M93.7,442.6c0,0.5,0,1-0.1,1.4c-0.1,0.5-0.2,0.9-0.3,1.4c-0.2,0.4-0.5,0.8-0.8,1.2c-0.3,0.4-0.5,0.8-0.8,1.1
				c-0.3,0.3-0.7,0.6-1.1,0.9c-0.4,0.3-0.8,0.5-1.2,0.7c-0.4,0.2-0.9,0.3-1.3,0.4c-0.4,0.1-0.9,0.2-1.3,0.2c-0.4,0-0.9-0.1-1.3-0.1
				c-0.4-0.1-0.9-0.1-1.3-0.3c-0.4-0.2-0.8-0.4-1.2-0.7c-0.4-0.2-0.7-0.5-1.1-0.8c-0.3-0.3-0.7-0.5-1-0.8c-0.3-0.3-0.5-0.8-0.7-1.1
				c-0.3-0.3-0.7-0.6-0.9-1c-0.4-0.5-0.2-0.6-0.6-1.1c-0.4-0.5-0.3-0.6-0.7-1.1c-0.4-0.5-0.4-0.5-0.8-1c-0.4-0.5-0.4-0.5-0.8-1
				c-0.4-0.5-0.3-0.6-0.6-1.1c-0.3-0.4-0.5-0.9-0.5-1.3c0-0.5,0.1-0.9,0.4-1.4c0.2-0.4,0.5-0.8,0.9-1.1c0.5-0.4,0.6-0.2,1.2-0.6
				c0.5-0.4,0.5-0.4,1.1-0.8c0.5-0.4,0.5-0.4,1.1-0.8c0.5-0.4,0.6-0.2,1.2-0.6c0.5-0.4,0.5-0.4,1.1-0.7c0.5-0.4,0.6-0.3,1.1-0.7
				c0.5-0.4,0.5-0.4,1.1-0.7c0.5-0.4,0.5-0.5,1-0.8c0.5-0.4,0.6-0.3,1.1-0.7c0.5-0.4,0.6-0.3,1.1-0.7c0.5-0.4,0.6-0.3,1.1-0.7
				c0.5-0.4,0.6-0.3,1.1-0.7c0.5-0.4,0.5-0.5,1-0.9c0.5-0.4,0.6-0.2,1.2-0.6c0.5-0.4,0.5-0.4,1.1-0.8c0.4-0.3,0.9-0.4,1.3-0.5
				c0.5,0,1,0,1.4,0.2c0.4,0.2,0.7,0.6,1,1.1c0.3,0.5,0.3,0.5,0.7,1c0.3,0.5,0.3,0.5,0.6,1c0.3,0.5,0.4,0.4,0.8,0.9
				c0.3,0.5,0.2,0.6,0.6,1.1c0.3,0.5,0.4,0.5,0.7,1c0.2,0.4,0.5,0.7,0.7,1.1c0.2,0.4,0.2,0.8,0.4,1.2c0.2,0.4,0.3,0.8,0.3,1.2
				c0.1,0.4,0.3,0.8,0.3,1.3c0,0.4-0.1,0.9-0.1,1.3c-0.1,0.4-0.2,0.8-0.4,1.2c-0.2,0.4-0.4,0.7-0.7,1.1c-0.2,0.3-0.6,0.6-0.9,0.9
				c-0.3,0.3-0.6,0.5-1,0.8c-0.4,0.2-0.8,0.4-1.3,0.5c-0.4,0.1-0.9,0.3-1.3,0.4c-0.5,0-0.9,0-1.4-0.2c-0.4-0.1-0.9-0.4-1.3-0.6
				C93.6,441.6,93.7,442.1,93.7,442.6z M83.6,443.6c0.3,0.3,0.6,0.6,0.9,0.8c0.4,0.3,0.8,0.3,1.1,0.4c0.4,0.1,0.8,0.2,1.2,0.2
				c0.4-0.1,0.8-0.3,1.1-0.5c0.4-0.2,0.8-0.5,1-0.8c0.3-0.3,0.4-0.8,0.5-1.2c0.1-0.4,0.3-0.8,0.3-1.3c0-0.4-0.2-0.8-0.4-1.3
				c-0.1-0.4-0.4-0.7-0.7-1.1c-0.3-0.5-0.2-0.6-0.5-1c-0.3-0.5-0.3-0.5-0.6-1c-0.3-0.5-0.4-0.4-0.7-0.9c-0.3-0.4-0.8-0.5-1.2-0.3
				c-0.6,0.4-0.6,0.4-1.1,0.7c-0.6,0.4-0.6,0.3-1.1,0.7c-0.6,0.4-0.6,0.3-1.1,0.7c-0.6,0.4-0.6,0.4-1.1,0.7
				c-0.4,0.3-0.6,0.9-0.3,1.3c0.3,0.5,0.4,0.4,0.7,0.9c0.3,0.5,0.3,0.5,0.6,1c0.3,0.5,0.2,0.5,0.6,1C83,443.1,83.3,443.4,83.6,443.6
				z M92.8,431.1c-0.5,0.3-0.6,0.2-1.1,0.6c-0.5,0.3-0.5,0.4-1,0.7c-0.4,0.3-0.5,0.8-0.2,1.2c0.4,0.6,0.3,0.7,0.7,1.3
				c0.4,0.6,0.4,0.6,0.8,1.3c0.2,0.4,0.6,0.6,0.9,0.8c0.3,0.3,0.7,0.5,1,0.5c0.4,0.1,0.8,0.1,1.2,0c0.4-0.1,0.7-0.2,1.1-0.4
				c0.5-0.3,0.8-0.7,0.9-1.1c0.2-0.5,0.2-1,0.1-1.5c-0.1-0.5-0.2-1-0.5-1.4c-0.4-0.6-0.5-0.6-0.9-1.2c-0.4-0.6-0.4-0.6-0.8-1.3
				c-0.3-0.4-0.9-0.6-1.3-0.3C93.2,430.7,93.3,430.8,92.8,431.1z"/>
		</g>
		<g>
			<path class="st0" d="M117.6,471.1c-0.4,0.2-0.7,0.5-1.1,0.7c-0.4,0.2-0.8,0.3-1.3,0.4c-0.4,0.1-0.9,0.1-1.3,0.2
				c-0.4,0.1-0.9,0.2-1.3,0.2c-0.4,0-0.9-0.2-1.3-0.2c-0.4-0.1-0.7,0.2-0.9,0.5c-0.3,0.5-0.3,0.5-0.6,1c-0.3,0.5-0.3,0.5-0.5,1.1
				c-0.3,0.5-0.2,0.5-0.5,1.1c-0.3,0.5-0.3,0.5-0.6,1c-0.2,0.4-0.5,0.7-0.8,0.9c-0.3,0.2-0.7,0.3-1.1,0.3c-0.4,0-0.8,0-1.2-0.2
				c-0.4-0.2-0.6-0.5-0.8-0.9c-0.2-0.3-0.3-0.8-0.3-1.2c0-0.4,0.1-0.8,0.3-1.2c0.4-0.7,0.5-0.6,0.8-1.2c0.4-0.7,0.3-0.7,0.6-1.4
				c0.4-0.7,0.3-0.7,0.7-1.3c0.2-0.4,0.2-0.8-0.1-1.1c-0.2-0.2-0.3-0.4-0.5-0.6c-0.5-0.6-0.6-0.5-1.1-1.1c-0.5-0.6-0.6-0.6-1.1-1.2
				c-0.3-0.4-0.8-0.4-1.2-0.1c-0.5,0.5-0.6,0.4-1.1,0.9c-0.5,0.5-0.6,0.4-1.1,0.9c-0.3,0.3-0.6,0.6-1,0.6c-0.4,0.1-0.8-0.1-1.2-0.2
				c-0.4-0.1-0.8-0.3-1.1-0.6c-0.3-0.3-0.3-0.8-0.4-1.1c-0.1-0.4-0.1-0.8,0.1-1.2c0.1-0.4,0.2-0.8,0.6-1.1c0.5-0.4,0.5-0.4,1-0.8
				c0.5-0.4,0.6-0.4,1.1-0.8c0.5-0.4,0.5-0.4,1-0.9c0.5-0.4,0.5-0.5,0.9-0.9c0.5-0.4,0.5-0.4,1-0.8c0.5-0.4,0.4-0.5,0.9-0.9
				c0.5-0.4,0.6-0.3,1.1-0.8c0.5-0.4,0.5-0.4,1-0.9c0.5-0.4,0.5-0.5,1-0.9c0.5-0.4,0.5-0.4,1-0.8c0.5-0.4,0.4-0.5,0.9-0.9
				c0.5-0.4,0.5-0.4,1-0.9c0.5-0.4,0.6-0.3,1.1-0.8c0.5-0.4,0.4-0.5,0.9-0.9c0.5-0.4,0.5-0.4,1-0.9c0.4-0.3,0.9-0.6,1.3-0.7
				c0.5-0.1,1,0.1,1.5,0.2c0.4,0.2,0.9,0.4,1.2,0.8c0.5,0.5,0.4,0.6,0.9,1.1c0.5,0.5,0.6,0.5,1,1c0.5,0.5,0.4,0.6,0.8,1.2
				c0.5,0.5,0.5,0.5,0.9,1.1c0.3,0.3,0.6,0.6,0.8,1c0.2,0.4,0.4,0.7,0.6,1.1c0.2,0.4,0.4,0.7,0.6,1.1c0.1,0.4,0.1,0.8,0.2,1.2
				c0.1,0.4,0.2,0.8,0.2,1.2c0,0.4,0.1,0.8,0.1,1.3c0,0.4-0.2,0.8-0.3,1.2c-0.1,0.4-0.1,0.8-0.2,1.2c-0.1,0.4-0.3,0.8-0.4,1.2
				c-0.2,0.4-0.4,0.7-0.7,1.1c-0.2,0.3-0.5,0.6-0.8,1c-0.3,0.3-0.6,0.6-0.9,0.9C118.3,470.7,118,470.9,117.6,471.1z M109.8,467.3
				c0.4,0.2,0.8,0.3,1.2,0.5c0.4,0.1,0.8,0.2,1.3,0.3c0.4,0,0.9,0.1,1.3,0c0.4-0.1,0.8-0.3,1.2-0.5c0.4-0.2,0.7-0.4,1.1-0.7
				c0.3-0.3,0.6-0.6,0.8-1c0.2-0.4,0.5-0.7,0.7-1.1c0.1-0.4,0.2-0.8,0.2-1.3c0-0.4,0-0.9,0-1.3c-0.1-0.4-0.3-0.8-0.5-1.2
				c-0.2-0.4-0.3-0.8-0.6-1.1c-0.4-0.5-0.4-0.5-0.9-1c-0.5-0.5-1.1-1.6-2-1.6c-0.4,0-0.6,0.4-0.9,0.6c-0.3,0.2-0.6,0.4-0.9,0.6
				c-0.5,0.4-0.5,0.5-0.9,0.9s-0.4,0.5-0.9,0.9s-0.6,0.3-1.1,0.7c-0.5,0.4-0.4,0.5-0.9,0.9c-0.5,0.4-0.5,0.4-0.9,0.9
				c-0.4,0.3-0.5,0.8-0.1,1.2c0.5,0.6,0.5,0.6,1,1.2c0.5,0.6,0.5,0.6,1.1,1.2C109.1,466.8,109.4,467.1,109.8,467.3z"/>
		</g>
		<g>
			<path class="st0" d="M138.7,477.3c0.1,0.4,0.1,0.8,0,1.3c-0.1,0.4-0.3,0.8-0.6,1.1c-0.5,0.5-0.3,0.6-0.8,1.1
				c-0.5,0.5-0.6,0.4-1,0.9c-0.5,0.5-0.4,0.6-0.8,1.1c-0.5,0.5-0.4,0.5-0.9,1c-0.5,0.5-0.5,0.4-1,0.9c-0.5,0.5-0.4,0.5-0.9,1
				c-0.5,0.5-0.4,0.5-0.9,1c-0.5,0.5-0.5,0.5-0.9,0.9c-0.5,0.5-0.4,0.6-0.8,1.1c-0.5,0.5-0.5,0.5-0.9,1c-0.5,0.5-0.5,0.4-1,0.9
				c-0.5,0.5-0.3,0.6-0.8,1.1c-0.5,0.5-0.5,0.4-1,0.9c-0.5,0.5-0.4,0.5-0.9,1c-0.5,0.5-0.5,0.5-0.9,0.9c-0.3,0.3-0.7,0.5-1.1,0.7
				c-0.4,0.1-0.8,0.1-1.2,0c-0.4-0.1-0.9-0.1-1.2-0.4c-0.3-0.3-0.5-0.8-0.6-1.2c-0.1-0.4-0.1-0.8,0-1.3c0.1-0.4,0.1-0.9,0.4-1.2
				c0.5-0.5,0.5-0.5,0.9-1c0.5-0.5,0.5-0.5,0.9-1s0.4-0.5,0.9-1c0.5-0.5,0.5-0.5,0.9-1c0.5-0.5,0.5-0.5,0.9-0.9
				c0.5-0.5,0.5-0.4,1-0.9s0.5-0.5,0.9-1c0.5-0.5,0.5-0.5,0.9-1c0.5-0.5,0.4-0.6,0.8-1c0.5-0.5,0.5-0.5,0.9-1c0.5-0.5,0.4-0.5,0.9-1
				c0.5-0.5,0.5-0.5,0.9-1c0.5-0.5,0.5-0.4,1-0.9c0.5-0.5,0.4-0.5,0.9-1c0.5-0.5,0.5-0.5,0.9-1c0.3-0.3,0.6-0.6,1.1-0.7
				c0.4-0.1,0.8-0.1,1.3,0c0.4,0.1,0.8,0.2,1.2,0.5C138.4,476.5,138.6,476.8,138.7,477.3z"/>
		</g>
		<g>
			<path class="st0" d="M165.8,498.9c0.2,0.4,0.2,0.8,0.2,1.2c0,0.4-0.1,0.8-0.4,1.2c-0.4,0.5-0.4,0.6-0.8,1.1
				c-0.4,0.5-0.4,0.6-0.8,1.1c-0.4,0.5-0.4,0.5-0.8,1.1c-0.4,0.5-0.3,0.6-0.7,1.1c-0.4,0.5-0.5,0.5-0.9,1c-0.4,0.5-0.4,0.5-0.8,1.1
				c-0.4,0.5-0.3,0.6-0.7,1.1c-0.4,0.5-0.5,0.4-0.9,1c-0.4,0.5-0.3,0.6-0.6,1.2c-0.4,0.5-0.5,0.5-0.9,1c-0.4,0.5-0.4,0.5-0.8,1.1
				c-0.4,0.5-0.4,0.5-0.8,1.1c-0.4,0.5-0.3,0.6-0.7,1.1c-0.4,0.5-0.4,0.5-0.8,1.1c-0.4,0.5-0.4,0.5-0.8,1.1c-0.3,0.4-0.6,0.6-1,0.8
				c-0.4,0.2-0.8,0.2-1.2,0.2c-0.4,0-0.8-0.1-1.2-0.4c-0.3-0.2-0.5-0.6-0.7-1c-0.2-0.4-0.3-0.7-0.3-1.1c0-0.6-0.1-0.6-0.1-1.3
				c0-0.6,0.1-0.6,0.1-1.3c0-0.6-0.1-0.6-0.1-1.3c0-0.6,0.1-0.6,0.1-1.3c0-0.6-0.1-0.6-0.1-1.3c0-0.6,0-0.6,0-1.3
				c0-0.6,0.1-0.6,0.1-1.3c0-0.6-0.2-0.6-0.2-1.3c0-0.6,0.2-0.6,0.2-1.3c0-0.6,0-0.6,0-1.3c0-0.6-0.1-0.6-0.1-1.3s-0.1-0.6-0.1-1.3
				c0-0.4-0.3-0.7-0.6-0.8c-0.3-0.1-0.8-0.1-1,0.2c-0.4,0.5-0.4,0.5-0.7,1.1c-0.4,0.5-0.3,0.6-0.7,1.1c-0.4,0.5-0.4,0.5-0.8,1
				c-0.4,0.5-0.3,0.6-0.7,1.1c-0.4,0.5-0.5,0.5-0.8,1c-0.4,0.5-0.4,0.5-0.8,1c-0.4,0.5-0.3,0.6-0.7,1.1c-0.4,0.5-0.4,0.5-0.8,1
				c-0.3,0.4-0.6,0.7-1,0.8c-0.4,0.2-0.8,0.2-1.3,0.1c-0.4-0.1-0.8-0.2-1.1-0.5c-0.3-0.3-0.7-0.5-0.9-0.9c-0.2-0.4-0.1-0.8,0-1.2
				c0.1-0.4,0.1-0.8,0.4-1.2c0.4-0.5,0.5-0.5,0.9-1c0.4-0.5,0.4-0.5,0.8-1.1c0.4-0.5,0.3-0.6,0.7-1.1c0.4-0.5,0.4-0.5,0.8-1.1
				c0.4-0.5,0.4-0.5,0.8-1.1c0.4-0.5,0.4-0.6,0.8-1.1c0.4-0.5,0.4-0.5,0.8-1.1c0.4-0.5,0.4-0.5,0.8-1c0.4-0.5,0.3-0.6,0.7-1.1
				c0.4-0.5,0.5-0.5,0.9-1c0.4-0.5,0.3-0.6,0.7-1.1c0.4-0.5,0.4-0.5,0.8-1.1c0.4-0.5,0.3-0.6,0.7-1.1c0.4-0.5,0.4-0.5,0.8-1
				s0.4-0.5,0.8-1.1c0.3-0.3,0.6-0.6,1-0.8c0.4-0.2,0.8-0.3,1.2-0.3c0.4,0,0.8,0.3,1.1,0.5c0.3,0.2,0.6,0.5,0.8,0.8
				c0.5,1,0.4,2.5,0.4,3.7c0,0.6,0,0.6,0,1.3c0,0.6,0,0.6,0,1.3c0,0.6-0.1,0.6-0.1,1.3c0,0.6,0.1,0.6,0.1,1.3c0,0.6-0.1,0.6-0.1,1.3
				s0.1,0.6,0.1,1.3c0,0.6-0.1,0.6-0.1,1.3c0,0.6,0.1,0.6,0.1,1.3c0,0.6,0,0.6,0.1,1.3c0,0.6-0.1,0.6-0.1,1.3c0,0.4,0.4,0.7,0.7,0.8
				c0.3,0.1,0.7,0.1,1-0.2c0.4-0.5,0.4-0.5,0.8-1c0.4-0.5,0.3-0.6,0.7-1.1c0.4-0.5,0.3-0.5,0.7-1.1s0.5-0.5,0.8-1
				c0.4-0.5,0.4-0.5,0.7-1c0.4-0.5,0.3-0.6,0.7-1.1c0.4-0.5,0.5-0.4,0.9-1c0.4-0.5,0.3-0.5,0.7-1.1c0.3-0.3,0.6-0.7,0.9-0.8
				c0.4-0.2,0.8-0.2,1.2-0.1c0.4,0,0.8,0.1,1.2,0.3C165.4,498.1,165.6,498.5,165.8,498.9z"/>
		</g>
		<g>
			<path class="st0" d="M193.1,529.3c0.1,0.3,0.1,0.7-0.1,1c-0.3,0.5-0.3,0.5-0.6,1.1c-0.3,0.5-0.3,0.5-0.6,1.1s-0.2,0.6-0.5,1.1
				c-0.3,0.5-0.3,0.5-0.6,1.1c-0.3,0.5-0.2,0.6-0.5,1.1c-0.3,0.5-0.4,0.5-0.7,1c-0.3,0.5-0.2,0.6-0.5,1.1c-0.2,0.4-0.4,0.7-0.8,0.9
				c-0.3,0.2-0.7,0.3-1.1,0.3c-0.4,0-0.7-0.2-1.1-0.3c-0.4-0.2-0.7-0.4-0.9-0.8c-0.2-0.3-0.3-0.8-0.3-1.2c0-0.4-0.3-0.7-0.8-0.7
				c-0.4,0-0.8,0.1-1.2,0.1c-0.4,0-0.8-0.2-1.2-0.2c-0.4-0.1-0.8,0-1.2-0.1c-0.4-0.1-0.8-0.2-1.2-0.4c-0.4-0.1-0.7-0.3-1.1-0.5
				c-0.4-0.2-0.8-0.4-1.1-0.7c-0.4-0.2-0.7-0.5-1-0.8c-0.3-0.3-0.7-0.6-1-0.9c-0.3-0.3-0.5-0.7-0.8-1c-0.3-0.3-0.6-0.6-0.8-1
				c-0.2-0.4-0.3-0.8-0.5-1.2c-0.2-0.4-0.4-0.8-0.5-1.2c-0.1-0.4-0.3-0.8-0.4-1.2c-0.1-0.4-0.2-0.8-0.2-1.3
				c-0.1-0.4-0.2-0.8-0.2-1.3c0-0.4,0.1-0.9,0.1-1.3c0-0.4,0-0.9,0.1-1.3c0.1-0.4,0.2-0.8,0.3-1.3c0.1-0.4,0.2-0.8,0.4-1.2
				c0.2-0.4,0.5-0.7,0.7-1.1c0.2-0.4,0.3-0.8,0.6-1.2c0.2-0.4,0.5-0.7,0.7-1.1c0.3-0.3,0.6-0.6,0.9-0.9c0.3-0.3,0.7-0.5,1-0.8
				c0.3-0.3,0.7-0.5,1-0.8c0.4-0.2,0.8-0.4,1.1-0.6c0.4-0.2,0.7-0.4,1.1-0.6c0.4-0.2,0.8-0.2,1.2-0.3c0.4-0.1,0.8-0.3,1.2-0.4
				c0.4-0.1,0.9,0,1.3-0.1c0.4,0,0.9,0,1.3,0c0.4,0,0.9,0,1.3,0.1c0.4,0.1,0.8,0.2,1.3,0.3c0.4,0.1,0.8,0.2,1.2,0.4
				c0.4,0.2,0.7,0.4,1.1,0.6c0.4,0.2,0.9,0.4,1.3,0.7c0.4,0.3,0.8,0.6,1.1,0.9c0.4,0.3,0.8,0.5,1.2,0.8c0.3,0.3,0.6,0.7,0.9,1.1
				c0.3,0.4,0.6,0.8,0.8,1.2c0.2,0.3,0.3,0.7,0.3,1.1c0,0.4-0.1,0.7-0.3,1.1c-0.2,0.4-0.5,0.7-0.8,0.9c-0.3,0.2-0.7,0.4-1.1,0.4
				c-0.4,0-0.8-0.1-1.2-0.3c-0.4-0.2-0.8-0.6-0.9-1c-0.3-0.4-0.6-0.7-0.9-1.1c-0.3-0.3-0.6-0.7-1-1c-0.4-0.3-0.8-0.5-1.2-0.7
				c-0.4-0.2-0.7-0.5-1.2-0.6c-0.4-0.1-0.9-0.2-1.3-0.2c-0.4,0-0.9,0-1.3,0.1c-0.4,0-0.9,0.1-1.3,0.2c-0.4,0.1-0.8,0.3-1.2,0.5
				c-0.4,0.2-0.8,0.3-1.2,0.6c-0.4,0.2-0.7,0.5-1,0.8c-0.3,0.3-0.6,0.7-0.8,1c-0.3,0.3-0.6,0.7-0.8,1.1c-0.2,0.4-0.3,0.8-0.4,1.2
				c-0.1,0.4-0.3,0.8-0.4,1.3c-0.1,0.4,0,0.9,0,1.3c0,0.4,0.1,0.9,0.2,1.3c0.1,0.4,0.2,0.8,0.3,1.3c0.1,0.4,0.3,0.8,0.5,1.2
				c0.2,0.4,0.4,0.8,0.7,1.1c0.3,0.4,0.6,0.7,0.9,0.9c0.3,0.3,0.7,0.6,1,0.8c0.4,0.2,0.8,0.3,1.3,0.4c0.4,0.1,0.9,0.3,1.3,0.3
				c0.4,0,0.9-0.2,1.3-0.2c0.4-0.1,0.8-0.2,1.3-0.3c0.6-0.2,0.6-0.9,0.1-1.2l0,0c-0.3-0.2-0.6-0.5-0.8-0.8c-0.2-0.3-0.2-0.7-0.3-1.1
				c0-0.4,0-0.7,0.2-1.1s0.4-0.7,0.7-0.9c0.3-0.2,0.7-0.3,1.1-0.3c0.4,0,0.8,0.1,1.1,0.2c0.5,0.3,0.6,0.2,1.1,0.5
				c0.5,0.3,0.5,0.4,1,0.7l0,0c0.7,0.3,0.7,0.3,1.3,0.7c0.7,0.3,0.7,0.3,1.3,0.7C192.8,528.7,193,529,193.1,529.3z"/>
		</g>
		<g>
			<path class="st0" d="M254.1,536c0.3,0.3,0.5,0.6,0.6,0.9c0.1,0.4,0.2,0.7,0.1,1.1c-0.1,0.5-0.3,0.9-0.7,1.2
				c-0.5,0.4-0.6,0.4-1.1,0.8c-0.5,0.4-0.6,0.4-1.1,0.8c-0.5,0.4-0.4,0.6-0.9,1c-0.5,0.4-0.6,0.4-1.1,0.8c-0.5,0.4-0.5,0.5-1,0.9
				c-0.5,0.4-0.5,0.5-1,0.9c-0.5,0.4-0.5,0.5-1,0.9c-0.5,0.4-0.6,0.4-1.1,0.8c-0.5,0.4-0.5,0.5-1,1c-0.1,0.1-0.2,0.3-0.2,0.5
				c-0.1,0.6-0.1,0.6-0.3,1.2c-0.1,0.6-0.3,0.6-0.4,1.2c-0.1,0.6,0,0.6-0.2,1.2c-0.1,0.6-0.1,0.6-0.3,1.2c-0.1,0.6-0.2,0.6-0.4,1.2
				c-0.1,0.6-0.1,0.6-0.3,1.2c-0.1,0.6,0,0.6-0.2,1.2c-0.1,0.4-0.4,0.7-0.7,1c-0.3,0.3-0.6,0.6-1,0.7c-0.4,0.1-0.8,0.1-1.2,0
				c-0.4-0.1-0.7-0.3-1-0.6c-0.3-0.3-0.6-0.6-0.8-1c-0.1-0.4,0-0.8,0.1-1.2c0.1-0.6,0.1-0.6,0.3-1.2c0.1-0.6,0.2-0.6,0.3-1.2
				s0.1-0.6,0.2-1.2c0.1-0.6,0.2-0.6,0.3-1.2c0.1-0.6,0.2-0.6,0.4-1.2s0.1-0.6,0.2-1.2c0.1-0.6,0.1-0.6,0.3-1.2c0-0.2,0.1-0.4,0-0.5
				c-0.3-0.6-0.2-0.7-0.5-1.3c-0.3-0.6-0.3-0.6-0.6-1.2c-0.3-0.6-0.3-0.6-0.6-1.2c-0.3-0.6-0.2-0.6-0.5-1.3
				c-0.3-0.6-0.3-0.6-0.6-1.2c-0.3-0.6-0.2-0.6-0.5-1.3c-0.3-0.6-0.3-0.6-0.6-1.2c-0.3-0.6-0.1-0.7-0.4-1.3
				c-0.3-0.6-0.4-0.6-0.6-1.2c-0.2-0.4-0.1-0.9,0-1.4c0.1-0.4,0.3-0.7,0.5-1c0.3-0.3,0.6-0.6,0.9-0.7c0.4-0.1,0.8,0,1.1,0.1
				c0.4,0.1,0.7,0.2,1,0.4c0.3,0.2,0.5,0.5,0.6,0.9c0.3,0.6,0.3,0.6,0.6,1.2c0.3,0.6,0.3,0.6,0.5,1.2c0.3,0.6,0.2,0.6,0.4,1.2
				c0.3,0.6,0.3,0.6,0.6,1.2c0.3,0.6,0.2,0.6,0.4,1.2c0.3,0.6,0.3,0.6,0.5,1.2c0.3,0.6,0.2,0.6,0.5,1.2c0.2,0.6,0.9,0.6,1.4,0.3
				c0.5-0.4,0.6-0.3,1.1-0.7c0.5-0.4,0.5-0.4,1-0.9c0.5-0.4,0.5-0.5,1-0.9c0.5-0.4,0.6-0.3,1.1-0.7c0.5-0.4,0.5-0.5,1-0.9
				c0.5-0.4,0.5-0.5,1-0.9c0.5-0.4,0.5-0.4,1-0.8c0.3-0.3,0.6-0.4,1-0.5c0.3-0.1,0.7,0,1.1,0.1C253.5,535.6,253.9,535.8,254.1,536z"
				/>
		</g>
		<g>
			<path class="st0" d="M282.8,539.5c0.4,0.1,0.9,0.1,1.3,0.3c0.4,0.1,0.8,0.4,1.2,0.6c0.4,0.2,0.8,0.3,1.2,0.5
				c0.4,0.2,0.7,0.5,1.1,0.7c0.4,0.3,0.7,0.5,1,0.8c0.3,0.3,0.7,0.5,1,0.9c0.3,0.3,0.6,0.7,0.8,1c0.3,0.3,0.5,0.7,0.7,1.1
				c0.2,0.4,0.4,0.8,0.6,1.2c0.2,0.4,0.4,0.8,0.5,1.2c0.1,0.4,0.2,0.8,0.3,1.3c0.1,0.4,0.2,0.8,0.2,1.3c0.1,0.4,0,0.9,0,1.3
				c0,0.4,0.1,0.9,0.1,1.3c0,0.4-0.1,0.9-0.2,1.3c-0.1,0.4-0.2,0.8-0.3,1.3c-0.1,0.4-0.3,0.8-0.4,1.2c-0.2,0.4-0.4,0.8-0.6,1.2
				c-0.2,0.4-0.4,0.8-0.6,1.1c-0.2,0.4-0.5,0.7-0.7,1.1c-0.3,0.3-0.7,0.6-1,0.8c-0.3,0.3-0.5,0.7-0.9,1c-0.3,0.3-0.8,0.4-1.1,0.7
				c-0.4,0.2-0.7,0.5-1.1,0.7c-0.4,0.2-0.8,0.4-1.2,0.5c-0.4,0.2-0.8,0.2-1.3,0.3c-0.4,0.1-0.8,0.2-1.3,0.2
				c-0.4,0.1-0.9,0.2-1.3,0.2s-0.9,0.1-1.3,0.1c-0.4,0-0.9-0.2-1.3-0.3c-0.4-0.1-0.8-0.2-1.2-0.3c-0.4-0.1-0.8-0.2-1.2-0.4
				c-0.4-0.2-0.8-0.3-1.2-0.5c-0.4-0.2-0.7-0.5-1.1-0.8c-0.4-0.3-0.6-0.6-1-0.9c-0.3-0.3-0.7-0.6-1-0.9c-0.3-0.3-0.6-0.6-0.9-0.9
				c-0.3-0.3-0.5-0.7-0.7-1.1c-0.2-0.4-0.4-0.8-0.5-1.2c-0.2-0.4-0.4-0.8-0.5-1.2c-0.1-0.4-0.2-0.8-0.3-1.3
				c-0.1-0.4-0.3-0.8-0.3-1.3c-0.1-0.4,0-0.9,0-1.3c0-0.4-0.1-0.9,0-1.3c0-0.4,0-0.9,0.1-1.3c0.1-0.4,0.2-0.8,0.3-1.3
				c0.1-0.4,0.2-0.8,0.4-1.2c0.2-0.4,0.3-0.8,0.5-1.2c0.2-0.4,0.5-0.7,0.7-1.1c0.2-0.4,0.5-0.7,0.8-1c0.3-0.3,0.5-0.7,0.9-1
				c0.3-0.3,0.7-0.5,1.1-0.8c0.3-0.3,0.6-0.6,1-0.8c0.4-0.2,0.8-0.4,1.2-0.6c0.4-0.2,0.8-0.3,1.2-0.4c0.4-0.2,0.8-0.3,1.2-0.4
				c0.4-0.1,0.8-0.3,1.2-0.4c0.4-0.1,0.9,0.1,1.3,0c0.4,0,0.9-0.1,1.3,0C281.9,539.3,282.3,539.4,282.8,539.5z M281.2,559.8
				c0.4-0.1,0.9-0.2,1.3-0.3c0.4-0.1,0.9-0.2,1.3-0.5c0.4-0.2,0.8-0.4,1.1-0.7c0.3-0.3,0.6-0.6,0.9-1c0.3-0.3,0.5-0.7,0.7-1.1
				c0.2-0.4,0.5-0.7,0.7-1.1c0.2-0.4,0.3-0.8,0.4-1.3c0.1-0.4,0.1-0.9,0.2-1.3c0-0.5,0-0.9-0.1-1.3c0-0.5,0-0.9-0.1-1.3
				c-0.1-0.4-0.1-0.9-0.3-1.3c-0.2-0.4-0.4-0.8-0.6-1.2c-0.2-0.4-0.6-0.7-0.9-1c-0.3-0.3-0.6-0.6-1-0.9c-0.4-0.3-0.7-0.6-1.1-0.8
				c-0.4-0.2-0.8-0.3-1.3-0.5c-0.4-0.1-0.9-0.3-1.3-0.3c-0.4,0-0.9,0.1-1.3,0.1c-0.4,0.1-0.9,0-1.3,0.2c-0.4,0.1-0.8,0.4-1.2,0.6
				c-0.4,0.2-0.7,0.5-1.1,0.8c-0.3,0.3-0.7,0.6-1,0.9c-0.3,0.3-0.5,0.7-0.7,1.1c-0.2,0.4-0.4,0.8-0.5,1.2c-0.2,0.4-0.3,0.8-0.4,1.3
				c-0.1,0.4-0.2,0.9-0.2,1.3c0,0.5,0,0.9,0,1.3c0,0.5,0,0.9,0.1,1.3c0.1,0.4,0.3,0.8,0.5,1.2c0.2,0.4,0.3,0.8,0.5,1.2
				c0.2,0.4,0.4,0.8,0.7,1.1c0.3,0.3,0.6,0.6,1,0.9c0.4,0.3,0.8,0.4,1.2,0.6s0.7,0.5,1.2,0.6c0.4,0.1,0.9,0.2,1.3,0.2
				C280.3,559.9,280.7,559.8,281.2,559.8z"/>
		</g>
		<g>
			<path class="st0" d="M326.5,539.3c0.4,0.2,0.7,0.5,0.9,0.8c0.2,0.3,0.4,0.7,0.5,1.2c0,0.6,0,0.6,0,1.3c0,0.6,0.1,0.6,0.1,1.3
				c0,0.6,0.1,0.6,0.1,1.3c0,0.6,0,0.6,0,1.3c0,0.6,0,0.6,0,1.3c0,0.6,0.2,0.6,0.2,1.3c0,0.6-0.1,0.6,0,1.3c0,0.6,0,0.6,0.1,1.3
				c0,0.6,0.2,0.6,0.2,1.3c0,0.6-0.1,0.6,0,1.3c0,0.5,0.1,0.9,0,1.3c0,0.4-0.1,0.9-0.2,1.3c-0.1,0.4-0.1,0.9-0.3,1.3
				c-0.1,0.4-0.4,0.8-0.6,1.2c-0.2,0.4-0.4,0.8-0.7,1.1c-0.3,0.4-0.4,0.8-0.7,1.1c-0.3,0.3-0.6,0.7-1,0.9c-0.3,0.3-0.8,0.4-1.2,0.6
				c-0.4,0.2-0.7,0.5-1.1,0.7c-0.4,0.2-0.9,0.2-1.3,0.4c-0.4,0.1-0.8,0.3-1.3,0.3c-0.4,0.1-0.9,0.1-1.3,0.1c-0.4,0-0.9,0.1-1.3,0
				c-0.4,0-0.8-0.1-1.3-0.2c-0.4-0.1-0.8-0.3-1.2-0.4c-0.4-0.2-0.8-0.3-1.1-0.5c-0.4-0.2-0.7-0.4-1.1-0.7c-0.3-0.3-0.7-0.5-1-0.8
				c-0.3-0.3-0.5-0.7-0.7-1c-0.3-0.3-0.6-0.6-0.8-1c-0.2-0.4-0.4-0.7-0.6-1.1c-0.2-0.4-0.3-0.8-0.4-1.2c-0.1-0.4-0.2-0.8-0.3-1.2
				c-0.1-0.4-0.2-0.8-0.2-1.2c0-0.6-0.1-0.6-0.2-1.2c0-0.6,0-0.6-0.1-1.2c0-0.6,0-0.6,0-1.2c0-0.6-0.1-0.6-0.2-1.2
				c0-0.6,0.1-0.6,0-1.2c0-0.6-0.1-0.6-0.2-1.2c0-0.6,0-0.6,0-1.2s0-0.6-0.1-1.2c0-0.6-0.2-0.6-0.2-1.2c0-0.6,0.1-0.6,0-1.2
				c0-0.4,0-0.8,0.2-1.2c0.2-0.4,0.4-0.7,0.8-1c0.3-0.2,0.8-0.3,1.2-0.4c0.4,0,0.8,0.1,1.2,0.3c0.4,0.2,0.7,0.4,0.9,0.8
				c0.2,0.3,0.4,0.7,0.4,1.1c0,0.6,0.1,0.6,0.1,1.2c0,0.6,0.1,0.6,0.1,1.2c0,0.6,0,0.6,0.1,1.3c0,0.6,0,0.6,0.1,1.2
				c0,0.6,0,0.6,0.1,1.2c0,0.6,0.1,0.6,0.2,1.2c0,0.6,0,0.6,0,1.3c0,0.6,0,0.6,0,1.3c0,0.6,0,0.6,0.1,1.2c0,0.6,0.1,0.6,0.2,1.2
				c0,0.4,0.1,0.8,0.2,1.2c0.1,0.4,0.3,0.8,0.5,1.1c0.2,0.4,0.3,0.8,0.6,1.1c0.3,0.3,0.7,0.4,1.1,0.6c0.3,0.2,0.7,0.4,1.1,0.5
				c0.4,0.1,0.8,0.3,1.2,0.3c0.4,0,0.8,0,1.2-0.1c0.4-0.1,0.8-0.1,1.2-0.3c0.4-0.2,0.7-0.5,1-0.7c0.3-0.3,0.7-0.5,0.9-0.8
				c0.2-0.3,0.4-0.7,0.6-1.1c0.2-0.4,0.4-0.8,0.4-1.2c0.1-0.4,0.1-0.8,0.1-1.2c0-0.6-0.2-0.6-0.3-1.3c0-0.6,0-0.6,0-1.3
				c0-0.6-0.1-0.6-0.2-1.3c0-0.6,0.1-0.6,0-1.3c0-0.6,0-0.6-0.1-1.3c0-0.6-0.1-0.6-0.1-1.3c0-0.6-0.1-0.6-0.1-1.3c0-0.6,0-0.6,0-1.3
				c0-0.6-0.1-0.6-0.1-1.3c0-0.6-0.1-0.6-0.1-1.3c0-0.4,0-0.9,0.2-1.2c0.2-0.4,0.5-0.7,0.8-1c0.3-0.2,0.8-0.3,1.2-0.4
				C325.7,539.1,326.1,539.1,326.5,539.3z"/>
		</g>
		<g>
			<path class="st0" d="M382.8,526.2c0.4,0.1,0.8,0.3,1.1,0.6c0.3,0.3,0.6,0.7,0.7,1.1c0.1,0.4,0.1,0.9,0,1.3
				c-0.1,0.4-0.3,0.8-0.6,1.1c-0.3,0.3-0.7,0.5-1.1,0.6c-0.6,0.2-0.6,0.2-1.3,0.4c-0.6,0.2-0.7,0.1-1.3,0.3
				c-0.6,0.2-0.6,0.2-1.2,0.4c-0.5,0.2-0.7,0.7-0.5,1.1c0.2,0.6,0.2,0.6,0.4,1.2c0.2,0.6,0.2,0.6,0.4,1.2c0.2,0.6,0.2,0.6,0.4,1.2
				c0.2,0.6,0.2,0.6,0.4,1.2c0.2,0.6,0.1,0.6,0.3,1.3c0.2,0.6,0.3,0.6,0.5,1.2c0.2,0.6,0.1,0.6,0.3,1.3c0.2,0.6,0.2,0.6,0.4,1.2
				c0.2,0.6,0.2,0.6,0.4,1.2c0.2,0.6,0.3,0.6,0.5,1.2c0.2,0.6,0.1,0.7,0.3,1.3c0.2,0.6,0.2,0.6,0.4,1.2c0.2,0.6,0.3,0.6,0.5,1.2
				c0.1,0.4,0.2,0.9,0.1,1.3c-0.1,0.4-0.3,0.8-0.6,1.1c-0.3,0.3-0.6,0.6-1.1,0.7c-0.4,0.1-0.9,0-1.2-0.1c-0.4-0.1-0.7-0.3-1-0.6
				c-0.3-0.3-0.6-0.6-0.8-1c-0.2-0.6-0.1-0.6-0.3-1.3c-0.2-0.6-0.3-0.6-0.5-1.2c-0.2-0.6-0.2-0.6-0.4-1.2c-0.2-0.6-0.1-0.6-0.3-1.3
				c-0.2-0.6-0.3-0.6-0.5-1.2c-0.2-0.6-0.2-0.6-0.4-1.2c-0.2-0.6-0.1-0.6-0.3-1.2c-0.2-0.6-0.2-0.6-0.4-1.2
				c-0.2-0.6-0.2-0.6-0.4-1.2c-0.2-0.6-0.2-0.6-0.4-1.2c-0.2-0.6-0.2-0.6-0.4-1.2c-0.2-0.6-0.2-0.6-0.4-1.2
				c-0.2-0.6-0.3-0.6-0.5-1.2c-0.2-0.5-0.7-0.8-1.1-0.6c-0.6,0.2-0.6,0.3-1.3,0.5c-0.6,0.2-0.6,0.2-1.3,0.4
				c-0.6,0.2-0.6,0.2-1.3,0.4c-0.4,0.1-0.9,0.1-1.3,0c-0.4-0.1-0.9-0.2-1.2-0.5c-0.3-0.3-0.5-0.7-0.7-1.1c-0.1-0.4-0.1-0.8,0-1.2
				c0.1-0.4,0.3-0.8,0.6-1.1c0.3-0.3,0.6-0.5,1-0.7c0.6-0.2,0.6-0.3,1.2-0.5c0.6-0.2,0.6-0.2,1.3-0.4c0.6-0.2,0.6-0.2,1.3-0.4
				c0.6-0.2,0.7-0.1,1.3-0.4c0.6-0.2,0.6-0.3,1.2-0.5c0.6-0.2,0.7-0.1,1.3-0.3c0.6-0.2,0.6-0.2,1.3-0.4c0.6-0.2,0.6-0.2,1.3-0.4
				c0.6-0.2,0.6-0.2,1.3-0.4c0.6-0.2,0.6-0.2,1.3-0.4c0.6-0.2,0.6-0.3,1.2-0.5C381.9,526.1,382.4,526.1,382.8,526.2z"/>
		</g>
		<g>
			<path class="st0" d="M415,512c0.4,0,0.8,0.1,1.2,0.4c0.3,0.2,0.7,0.5,0.9,0.9c0.3,0.6,0.3,0.6,0.6,1.2c0.3,0.6,0.2,0.6,0.5,1.2
				c0.3,0.6,0.3,0.6,0.6,1.2c0.3,0.6,0.3,0.6,0.6,1.2c0.3,0.6,0.2,0.6,0.5,1.2c0.3,0.6,0.3,0.6,0.6,1.2c0.3,0.6,0.2,0.6,0.5,1.2
				c0.3,0.6,0.4,0.6,0.7,1.2c0.3,0.6,0.3,0.6,0.6,1.2c0.3,0.6,0.3,0.6,0.6,1.2c0.3,0.6,0.2,0.6,0.5,1.2c0.3,0.6,0.3,0.6,0.6,1.2
				c0.3,0.6,0.3,0.6,0.6,1.2c0.3,0.6,0.2,0.7,0.5,1.3c0.3,0.6,0.3,0.6,0.6,1.2c0.2,0.4,0.3,0.8,0.2,1.2c0,0.4-0.1,0.8-0.4,1.2
				c-0.2,0.3-0.5,0.7-0.9,0.9c-0.4,0.2-0.9,0.2-1.3,0.2c-0.4,0-0.8-0.1-1.2-0.4c-0.4-0.2-0.6-0.6-0.8-1c-0.3-0.7-0.3-0.7-0.6-1.3
				c-0.3-0.7-0.3-0.6-0.7-1.3c-0.2-0.4-0.8-0.5-1.2-0.3c-0.6,0.3-0.6,0.3-1.2,0.6c-0.6,0.3-0.6,0.3-1.2,0.6
				c-0.6,0.3-0.6,0.2-1.2,0.5c-0.6,0.3-0.6,0.3-1.2,0.6c-0.6,0.3-0.6,0.4-1.2,0.7c-0.6,0.3-0.6,0.3-1.2,0.6
				c-0.6,0.3-0.6,0.4-1.2,0.6c-0.4,0.2-0.7,0.7-0.5,1.2c0.3,0.6,0.3,0.7,0.6,1.3s0.5,0.6,0.8,1.2c0.2,0.4,0.2,0.8,0.1,1.3
				c0,0.4-0.2,0.8-0.4,1.1c-0.2,0.3-0.5,0.7-0.8,0.9c-0.4,0.2-0.8,0.1-1.3,0.1c-0.4,0-0.8-0.1-1.2-0.4c-0.3-0.2-0.7-0.5-0.9-0.9
				c-0.3-0.6-0.2-0.6-0.5-1.2c-0.3-0.6-0.3-0.6-0.6-1.2c-0.3-0.6-0.3-0.6-0.6-1.2c-0.3-0.6-0.4-0.6-0.7-1.2
				c-0.3-0.6-0.2-0.7-0.5-1.3c-0.3-0.6-0.4-0.5-0.7-1.1c-0.3-0.6-0.3-0.6-0.6-1.2c-0.3-0.6-0.3-0.6-0.6-1.2
				c-0.3-0.6-0.3-0.6-0.6-1.2c-0.3-0.6-0.3-0.6-0.6-1.2c-0.3-0.6-0.3-0.6-0.6-1.2c-0.3-0.6-0.2-0.6-0.5-1.2
				c-0.3-0.6-0.4-0.6-0.7-1.2c-0.3-0.6-0.2-0.7-0.5-1.3c-0.3-0.6-0.3-0.6-0.6-1.2c-0.2-0.4-0.4-0.8-0.3-1.2c0-0.4,0.2-0.9,0.4-1.2
				c0.2-0.3,0.6-0.5,1-0.7c0.4-0.2,0.8-0.3,1.2-0.3c0.4,0,0.9,0.1,1.2,0.3c0.3,0.2,0.6,0.6,0.8,1c0.3,0.6,0.3,0.6,0.6,1.1
				c0.3,0.6,0.3,0.5,0.6,1.1c0.3,0.6,0.2,0.6,0.5,1.1c0.3,0.6,0.3,0.6,0.6,1.1c0.3,0.6,0.2,0.6,0.5,1.1c0.3,0.6,0.2,0.6,0.5,1.1
				c0.3,0.6,0.3,0.5,0.6,1.1c0.3,0.6,0.3,0.6,0.5,1.1c0.3,0.6,0.3,0.5,0.6,1.1c0.2,0.4,0.7,0.6,1.2,0.4c0.6-0.3,0.6-0.4,1.2-0.7
				c0.6-0.3,0.6-0.2,1.2-0.5c0.6-0.3,0.6-0.3,1.2-0.6c0.6-0.3,0.7-0.2,1.3-0.5c0.6-0.3,0.6-0.4,1.1-0.7c0.6-0.3,0.6-0.2,1.2-0.5
				c0.6-0.3,0.6-0.3,1.2-0.6c0.4-0.2,0.7-0.8,0.4-1.3c-0.3-0.6-0.4-0.5-0.6-1.1c-0.3-0.6-0.2-0.6-0.4-1.2s-0.3-0.5-0.6-1.1
				c-0.3-0.6-0.2-0.6-0.5-1.1c-0.3-0.6-0.4-0.5-0.6-1.1c-0.3-0.6-0.3-0.5-0.6-1.1c-0.3-0.6-0.2-0.6-0.5-1.2
				c-0.3-0.6-0.3-0.5-0.6-1.1c-0.3-0.6-0.3-0.5-0.6-1.1c-0.2-0.4-0.2-0.8-0.1-1.3c0-0.4,0.1-0.9,0.3-1.2c0.2-0.3,0.6-0.6,1-0.8
				C414.2,512,414.6,511.9,415,512z"/>
		</g>
		<g>
			<path class="st0" d="M453.4,512c0.4,0,0.8,0.1,1.1,0.2c0.3,0.2,0.6,0.4,0.8,0.8c0.2,0.3,0.4,0.7,0.4,1c0,0.4,0,0.8-0.2,1.1
				c-0.2,0.3-0.4,0.7-0.7,0.9c-0.5,0.3-0.5,0.3-1.1,0.6c-0.5,0.3-0.6,0.3-1.1,0.6c-0.5,0.3-0.5,0.4-1,0.7c-0.5,0.3-0.5,0.4-1,0.7
				c-0.5,0.3-0.5,0.4-1,0.8c-0.5,0.3-0.5,0.3-1.1,0.7c-0.5,0.3-0.5,0.4-1,0.8c-0.5,0.3-0.5,0.3-1.1,0.7c-0.5,0.3-0.5,0.3-1.1,0.6
				c-0.5,0.3-0.5,0.3-1.1,0.7c-0.4,0.3-0.8,0.4-1.3,0.5c-0.5,0-0.9,0-1.3-0.3c-0.4-0.2-0.7-0.5-1-0.9c-0.4-0.5-0.4-0.6-0.7-1.1
				c-0.4-0.5-0.5-0.5-0.8-1c-0.4-0.5-0.3-0.6-0.6-1.1c-0.4-0.5-0.5-0.5-0.8-1c-0.4-0.5-0.3-0.6-0.7-1.1c-0.4-0.5-0.4-0.5-0.8-1.1
				c-0.4-0.5-0.4-0.5-0.8-1.1c-0.4-0.5-0.3-0.6-0.7-1.1c-0.4-0.5-0.4-0.5-0.7-1.1c-0.4-0.5-0.4-0.5-0.8-1.1
				c-0.4-0.5-0.3-0.6-0.7-1.1c-0.4-0.5-0.4-0.5-0.8-1c-0.4-0.5-0.3-0.6-0.7-1.1c-0.4-0.5-0.4-0.5-0.7-1.1c-0.4-0.5-0.4-0.5-0.7-1.1
				c-0.3-0.4-0.5-0.8-0.5-1.3c0-0.5,0-1,0.2-1.4c0.2-0.4,0.5-0.7,1-1c0.6-0.4,0.5-0.4,1.1-0.8c0.6-0.4,0.5-0.4,1.1-0.8
				c0.6-0.4,0.6-0.3,1.2-0.7c0.6-0.4,0.5-0.5,1-0.9c0.6-0.4,0.6-0.3,1.1-0.7s0.5-0.5,1-0.8c0.6-0.4,0.6-0.3,1.2-0.7
				c0.6-0.4,0.6-0.4,1.1-0.8c0.6-0.4,0.6-0.3,1.1-0.7c0.3-0.2,0.6-0.4,1-0.4c0.4,0,0.8,0,1.1,0.1c0.3,0.2,0.6,0.4,0.8,0.8
				c0.2,0.3,0.4,0.7,0.4,1c0,0.4,0,0.8-0.2,1.1c-0.2,0.3-0.4,0.6-0.7,0.8c-0.5,0.4-0.6,0.3-1.1,0.7c-0.5,0.4-0.5,0.4-1,0.8
				c-0.5,0.4-0.5,0.3-1.1,0.7c-0.5,0.4-0.5,0.4-1,0.8c-0.5,0.4-0.5,0.4-1,0.7c-0.5,0.4-0.6,0.3-1.1,0.7c-0.5,0.4-0.5,0.4-1,0.7
				c-0.4,0.3-0.6,0.8-0.3,1.3c0.3,0.5,0.5,0.4,0.8,0.9c0.3,0.5,0.3,0.6,0.6,1.1s0.4,0.5,0.7,1c0.3,0.5,0.3,0.5,0.6,1
				c0.3,0.4,0.8,0.5,1.2,0.2c0.5-0.3,0.5-0.3,1-0.6c0.5-0.3,0.5-0.3,1-0.7c0.5-0.3,0.5-0.3,1-0.6c0.5-0.3,0.4-0.4,0.9-0.8
				c0.5-0.3,0.5-0.3,1-0.7c0.3-0.2,0.7-0.4,1.1-0.4c0.4,0,0.8,0.1,1.1,0.2c0.3,0.2,0.6,0.4,0.8,0.7c0.2,0.3,0.4,0.7,0.4,1
				c0,0.4-0.1,0.8-0.3,1.1c-0.2,0.3-0.4,0.6-0.7,0.9c-0.5,0.3-0.5,0.3-1,0.6c-0.5,0.3-0.5,0.4-1,0.7c-0.5,0.3-0.5,0.4-1,0.7
				c-0.5,0.3-0.5,0.4-1,0.7c-0.5,0.3-0.5,0.3-1,0.7c-0.4,0.3-0.5,0.7-0.2,1.2c0.3,0.5,0.3,0.6,0.6,1c0.3,0.5,0.3,0.5,0.6,1
				c0.3,0.5,0.5,0.4,0.8,0.9c0.3,0.4,0.8,0.6,1.2,0.3c0.5-0.4,0.5-0.5,1-0.8c0.5-0.4,0.6-0.2,1.2-0.6c0.5-0.4,0.5-0.4,1.1-0.7
				c0.5-0.4,0.5-0.4,1.1-0.7c0.5-0.4,0.5-0.4,1.1-0.8c0.5-0.4,0.5-0.4,1.1-0.7c0.5-0.4,0.5-0.4,1.1-0.7
				C452.8,512.2,453.1,512,453.4,512z"/>
		</g>
		<g>
			<path class="st0" d="M496.6,461c0.4,0,0.7,0,1,0.3c0.5,0.4,0.5,0.4,0.9,0.8c0.5,0.4,0.4,0.4,0.9,0.8c0.5,0.4,0.5,0.3,1,0.7
				c0.5,0.4,0.4,0.5,0.9,0.9c0.5,0.4,0.5,0.3,1,0.8c0.5,0.4,0.4,0.5,0.8,0.9c0.5,0.4,0.5,0.3,1,0.7c0.3,0.3,0.6,0.6,0.7,0.9
				c0.1,0.4,0.1,0.8,0,1.2c-0.1,0.4-0.3,0.7-0.6,1c-0.3,0.3-0.6,0.6-1,0.7c-0.4,0.1-0.8,0.1-1.2,0c-0.4-0.1-0.8,0.2-0.9,0.6
				c-0.1,0.4-0.1,0.8-0.2,1.2c-0.1,0.4-0.4,0.7-0.5,1.1c-0.2,0.4-0.2,0.8-0.4,1.2c-0.2,0.4-0.4,0.7-0.7,1c-0.2,0.3-0.5,0.6-0.8,0.9
				c-0.3,0.3-0.6,0.6-0.9,0.9c-0.3,0.3-0.7,0.5-1,0.8c-0.3,0.2-0.7,0.5-1.1,0.7c-0.4,0.2-0.8,0.3-1.2,0.5c-0.4,0.2-0.8,0.4-1.2,0.5
				c-0.4,0.1-0.9,0.1-1.3,0.2c-0.4,0.1-0.8,0.1-1.3,0.2c-0.4,0-0.9,0.1-1.3,0.1c-0.4,0-0.9,0-1.3-0.1c-0.4,0-0.9,0-1.3-0.1
				c-0.4-0.1-0.8-0.3-1.2-0.4c-0.4-0.1-0.8-0.2-1.2-0.4c-0.4-0.2-0.8-0.4-1.1-0.6c-0.4-0.2-0.8-0.4-1.1-0.7
				c-0.3-0.2-0.6-0.6-0.9-0.9c-0.3-0.3-0.7-0.5-1-0.8c-0.3-0.3-0.6-0.6-0.9-1c-0.3-0.3-0.5-0.7-0.7-1.1c-0.2-0.4-0.3-0.8-0.5-1.2
				c-0.2-0.4-0.4-0.8-0.5-1.2c-0.1-0.4-0.2-0.8-0.3-1.2c-0.1-0.4-0.3-0.8-0.3-1.3c0-0.4,0-0.9,0-1.3c0-0.4-0.1-0.9-0.1-1.3
				c0-0.4,0.2-0.8,0.3-1.3c0.1-0.4,0.2-0.8,0.3-1.2c0.1-0.4,0.2-0.8,0.4-1.2c0.2-0.4,0.4-0.8,0.6-1.2c0.2-0.4,0.4-0.8,0.6-1.1
				c0.2-0.4,0.6-0.6,0.9-0.9c0.3-0.4,0.6-0.8,0.9-1.1c0.4-0.3,0.8-0.6,1.1-0.9c0.4-0.3,0.7-0.7,1.1-0.9c0.4-0.3,0.9-0.5,1.3-0.6
				c0.4-0.2,0.9-0.4,1.3-0.5c0.4-0.1,0.8-0.1,1.1,0c0.4,0.1,0.7,0.3,1,0.6c0.3,0.3,0.5,0.6,0.6,1c0.1,0.4,0.2,0.8,0.1,1.2
				c-0.1,0.4-0.3,0.8-0.5,1.1c-0.3,0.3-0.8,0.6-1.2,0.7c-0.4,0.2-0.8,0.4-1.3,0.7c-0.4,0.2-0.8,0.5-1.2,0.8c-0.4,0.3-0.7,0.7-1,1
				c-0.3,0.3-0.6,0.6-0.8,1c-0.2,0.4-0.4,0.8-0.5,1.2c-0.1,0.4-0.2,0.9-0.3,1.3c-0.1,0.4-0.1,0.9-0.1,1.3c0,0.4,0.1,0.9,0.2,1.3
				c0.1,0.4,0.1,0.9,0.2,1.3c0.1,0.4,0.4,0.8,0.6,1.2c0.2,0.4,0.5,0.7,0.8,1.1c0.3,0.3,0.5,0.7,0.9,1c0.3,0.3,0.7,0.5,1.1,0.7
				c0.4,0.2,0.7,0.5,1.1,0.7c0.4,0.2,0.9,0.2,1.3,0.3c0.4,0.1,0.9,0.1,1.3,0.1c0.4,0,0.9,0,1.3,0c0.4,0,0.9-0.1,1.3-0.2
				c0.4-0.1,0.9-0.2,1.3-0.4c0.4-0.2,0.8-0.4,1.1-0.7c0.4-0.3,0.8-0.5,1.1-0.8c0.3-0.3,0.5-0.8,0.7-1.1c0.2-0.4,0.5-0.8,0.6-1.2
				c0.1-0.4,0-0.9,0.1-1.3c0-0.4,0-0.9,0-1.3c-0.1-0.6-0.7-0.8-1.1-0.4l0,0c-0.3,0.3-0.6,0.5-1,0.6c-0.4,0.1-0.7,0.1-1.1,0
				c-0.4-0.1-0.7-0.2-1-0.5c-0.3-0.3-0.5-0.5-0.7-0.9c-0.1-0.4-0.1-0.8-0.1-1.1c0.1-0.4,0.2-0.7,0.5-1c0.4-0.5,0.4-0.5,0.8-0.9
				c0.4-0.5,0.5-0.4,0.9-0.8l0,0c0.5-0.6,0.5-0.6,1-1.1c0.5-0.6,0.5-0.6,1-1.1C495.9,461.2,496.2,461.1,496.6,461z"/>
		</g>
		<g>
			<path class="st0" d="M502.9,429.3c0.3-0.3,0.5-0.7,0.8-1c0.3-0.3,0.7-0.5,1-0.8c0.3-0.3,0.6-0.6,1-0.9c0.4-0.2,0.8-0.4,1.2-0.6
				c0.4-0.2,0.8-0.4,1.2-0.5c0.4-0.2,0.8-0.3,1.2-0.5c0.4-0.1,0.9-0.2,1.3-0.3c0.4-0.1,0.9-0.1,1.3-0.1c0.4,0,0.9,0,1.3,0
				c0.4,0,0.9,0.1,1.3,0.1c0.4,0.1,0.8,0.2,1.3,0.3c0.4,0.1,0.8,0.2,1.2,0.4c0.4,0.2,0.8,0.4,1.2,0.6c0.4,0.2,0.8,0.3,1.2,0.5
				c0.4,0.2,0.7,0.5,1,0.8c0.3,0.3,0.7,0.6,1,0.9c0.3,0.3,0.6,0.6,0.9,0.9c0.3,0.3,0.5,0.7,0.7,1.1c0.2,0.4,0.5,0.7,0.7,1.1
				c0.2,0.4,0.4,0.8,0.6,1.2c0.2,0.4,0.2,0.9,0.3,1.3c0.1,0.4,0.4,0.8,0.4,1.2c0.1,0.4,0,0.9,0,1.3c0,0.4,0.1,0.9,0.1,1.3
				c0,0.4,0,0.9-0.1,1.3c-0.1,0.4-0.2,0.8-0.3,1.3c-0.1,0.4-0.3,0.8-0.4,1.2c-0.1,0.4-0.2,0.8-0.4,1.2c-0.2,0.4-0.3,0.8-0.6,1.2
				c-0.2,0.4-0.6,0.7-0.8,1c-0.3,0.3-0.6,0.6-0.9,0.9c-0.3,0.3-0.6,0.6-0.9,0.9c-0.3,0.3-0.7,0.6-1,0.8c-0.4,0.2-0.8,0.4-1.2,0.6
				c-0.4,0.2-0.8,0.3-1.2,0.4c-0.4,0.2-0.8,0.3-1.2,0.4c-0.4,0.1-0.8,0.3-1.3,0.4c-0.4,0.1-0.9,0.1-1.3,0.1c-0.4,0-0.9-0.1-1.3-0.1
				c-0.4,0-0.9,0-1.3-0.1c-0.4-0.1-0.8-0.2-1.3-0.3c-0.4-0.1-0.9-0.2-1.3-0.3c-0.4-0.2-0.7-0.4-1.1-0.6c-0.4-0.2-0.8-0.4-1.2-0.6
				c-0.4-0.2-0.8-0.4-1.1-0.7c-0.3-0.3-0.6-0.6-0.9-0.9c-0.3-0.3-0.6-0.6-0.9-0.9c-0.3-0.3-0.6-0.6-0.8-1c-0.2-0.4-0.4-0.8-0.6-1.1
				c-0.2-0.4-0.4-0.8-0.5-1.2c-0.2-0.4-0.3-0.8-0.5-1.2c-0.1-0.4-0.1-0.9-0.2-1.3c-0.1-0.4-0.2-0.8-0.3-1.3c0-0.4,0-0.9,0-1.3
				c0-0.4,0.1-0.9,0.2-1.3c0.1-0.4,0.1-0.9,0.2-1.3c0.1-0.4,0.1-0.9,0.2-1.3c0.1-0.4,0.5-0.7,0.7-1.1c0.2-0.4,0.4-0.8,0.6-1.2
				C502.4,430,502.6,429.6,502.9,429.3z M520.1,440.2c0.2-0.4,0.3-0.8,0.3-1.3c0.1-0.4,0.2-0.9,0.2-1.3c0-0.4,0-0.9-0.1-1.3
				c-0.1-0.4-0.3-0.8-0.5-1.3c-0.2-0.4-0.4-0.8-0.7-1.1c-0.2-0.4-0.4-0.8-0.7-1.1c-0.3-0.3-0.6-0.7-0.9-1c-0.3-0.3-0.7-0.5-1.1-0.8
				c-0.4-0.2-0.8-0.4-1.2-0.6c-0.4-0.2-0.8-0.4-1.2-0.5c-0.4-0.1-0.9-0.3-1.3-0.4c-0.4-0.1-0.9,0-1.3,0c-0.5,0-0.9,0.2-1.3,0.3
				c-0.4,0.1-0.8,0.2-1.2,0.4c-0.4,0.2-0.8,0.3-1.2,0.6c-0.4,0.3-0.7,0.6-1,0.9c-0.3,0.3-0.6,0.6-0.9,1c-0.2,0.4-0.4,0.8-0.5,1.2
				c-0.2,0.4-0.4,0.8-0.5,1.2c-0.1,0.4-0.1,0.9,0,1.3c0,0.4,0.1,0.9,0.2,1.3c0.1,0.4,0.2,0.9,0.3,1.3c0.2,0.4,0.4,0.8,0.6,1.2
				c0.2,0.4,0.5,0.7,0.8,1c0.3,0.3,0.6,0.7,0.9,1c0.3,0.3,0.7,0.6,1.1,0.8c0.4,0.2,0.8,0.4,1.2,0.6c0.4,0.2,0.8,0.5,1.2,0.6
				c0.4,0.1,0.9,0.1,1.3,0.1c0.4,0.1,0.9,0.1,1.3,0.1c0.4,0,0.9,0,1.3-0.1c0.4-0.1,0.9-0.3,1.3-0.4c0.4-0.2,0.7-0.5,1.1-0.8
				c0.4-0.3,0.8-0.4,1.1-0.7c0.3-0.3,0.5-0.7,0.8-1.1C519.8,441.1,519.9,440.6,520.1,440.2z"/>
		</g>
		<g>
			<path class="st0" d="M520.9,395.2c0.2-0.4,0.4-0.8,0.7-1.1c0.3-0.4,0.6-0.6,0.9-0.9c0.3-0.3,0.5-0.7,0.8-1
				c0.3-0.3,0.7-0.5,1.1-0.8c0.4-0.3,0.7-0.5,1.1-0.7c0.4-0.2,0.7-0.5,1.1-0.6c0.4-0.2,0.8-0.3,1.2-0.5c0.4-0.1,0.8-0.2,1.3-0.3
				c0.4-0.1,0.9-0.2,1.3-0.2c0.4,0,0.9-0.1,1.3-0.1c0.4,0,0.9,0.1,1.3,0.1c0.4,0,0.9,0.1,1.3,0.2c0.4,0.1,0.8,0.3,1.2,0.4
				c0.4,0.1,0.9,0.2,1.3,0.3c0.4,0.2,0.8,0.4,1.2,0.6c0.4,0.2,0.7,0.5,1.1,0.7c0.4,0.3,0.7,0.5,1,0.8c0.3,0.3,0.6,0.6,0.9,0.9
				c0.3,0.3,0.6,0.6,0.9,1c0.3,0.3,0.6,0.7,0.8,1c0.2,0.4,0.3,0.8,0.5,1.2c0.2,0.4,0.5,0.7,0.6,1.1c0.1,0.4,0.2,0.9,0.3,1.3
				c0.1,0.4,0.2,0.8,0.3,1.3c0.1,0.4,0.1,0.9,0.1,1.3c0,0.4-0.1,0.9-0.1,1.3c0,0.4-0.1,0.9-0.2,1.3c-0.1,0.4-0.1,0.9-0.2,1.3
				c-0.1,0.4-0.2,0.9-0.4,1.3c-0.2,0.4-0.5,0.7-0.7,1.1c-0.2,0.4-0.5,0.7-0.7,1.1c-0.3,0.3-0.5,0.7-0.8,1c-0.3,0.3-0.5,0.7-0.9,1
				c-0.3,0.3-0.7,0.5-1.1,0.8c-0.4,0.3-0.8,0.4-1.1,0.6c-0.4,0.2-0.7,0.4-1.1,0.6c-0.4,0.2-0.8,0.4-1.2,0.6
				c-0.4,0.1-0.8,0.2-1.3,0.3c-0.4,0.1-0.9,0.1-1.3,0.1c-0.4,0-0.9,0.1-1.3,0.1c-0.4,0-0.9-0.1-1.3-0.1c-0.4,0-0.9,0-1.3-0.1
				c-0.4-0.1-0.8-0.3-1.2-0.5c-0.4-0.1-0.8-0.2-1.2-0.4c-0.4-0.2-0.8-0.3-1.2-0.5c-0.4-0.2-0.7-0.5-1.1-0.7c-0.4-0.3-0.7-0.5-1-0.8
				c-0.3-0.3-0.7-0.5-1-0.9c-0.3-0.3-0.6-0.7-0.8-1c-0.3-0.3-0.5-0.7-0.7-1.1c-0.2-0.4-0.5-0.7-0.7-1.1c-0.2-0.4-0.2-0.8-0.4-1.2
				c-0.1-0.4-0.4-0.8-0.5-1.2c-0.1-0.4-0.1-0.9-0.2-1.3c-0.1-0.4,0-0.9,0-1.3c0-0.4,0-0.9,0-1.3c0-0.4-0.1-0.9,0-1.3
				c0.1-0.4,0.3-0.8,0.5-1.2c0.1-0.4,0.2-0.8,0.4-1.2C520.5,395.9,520.7,395.5,520.9,395.2z M539.6,403.2c0.1-0.4,0.1-0.9,0.1-1.3
				c0-0.4,0-0.9,0-1.3c-0.1-0.4-0.2-0.9-0.3-1.3c-0.2-0.4-0.4-0.8-0.6-1.2c-0.2-0.4-0.6-0.7-0.9-1c-0.3-0.3-0.5-0.7-0.9-1
				c-0.3-0.3-0.7-0.6-1.1-0.8c-0.4-0.2-0.8-0.4-1.2-0.6c-0.4-0.2-0.9-0.3-1.3-0.4c-0.4-0.1-0.9-0.3-1.3-0.3
				c-0.5-0.1-0.9-0.2-1.3-0.1c-0.5,0-0.9,0.1-1.3,0.2c-0.4,0.1-0.8,0.3-1.2,0.5c-0.4,0.2-0.8,0.4-1.2,0.6c-0.4,0.2-0.8,0.5-1.1,0.8
				c-0.3,0.3-0.6,0.7-0.8,1c-0.2,0.4-0.5,0.7-0.7,1.1c-0.2,0.4-0.2,0.9-0.3,1.3c-0.1,0.4-0.3,0.9-0.3,1.3c0,0.4,0.1,0.9,0.2,1.3
				c0.1,0.4,0.2,0.8,0.4,1.3c0.2,0.4,0.3,0.8,0.5,1.2c0.2,0.4,0.5,0.7,0.8,1.1c0.3,0.3,0.6,0.6,1,0.9c0.3,0.3,0.7,0.6,1.1,0.8
				c0.4,0.2,0.8,0.4,1.2,0.6c0.4,0.2,0.8,0.3,1.3,0.4c0.4,0.1,0.9,0.3,1.3,0.4c0.5,0.1,0.9,0,1.3-0.1c0.5,0,0.9,0,1.3-0.1
				c0.4-0.1,0.9-0.2,1.3-0.3c0.4-0.2,0.8-0.4,1.2-0.6c0.4-0.2,0.6-0.6,0.9-1c0.3-0.3,0.7-0.5,1-0.9c0.3-0.4,0.4-0.8,0.6-1.2
				C539.4,404.1,539.5,403.6,539.6,403.2z"/>
		</g>
		<g>
			<path class="st0" d="M532.4,362.1c0.2-0.4,0.4-0.8,0.6-1.2c0.2-0.4,0.4-0.8,0.6-1.1c0.2-0.4,0.5-0.7,0.7-1.1
				c0.3-0.3,0.6-0.6,0.9-0.9c0.3-0.3,0.5-0.7,0.9-1c0.3-0.3,0.7-0.5,1.1-0.7c0.4-0.2,0.7-0.5,1.1-0.7c0.4-0.2,0.8-0.3,1.2-0.5
				c0.4-0.2,0.8-0.4,1.2-0.5c0.4-0.1,0.9-0.1,1.3-0.2c0.4-0.1,0.8-0.2,1.3-0.3c0.4,0,0.9,0,1.3,0c0.4,0,0.8,0.2,1.3,0.2
				c0.4,0.1,0.9,0.1,1.3,0.2c0.4,0.1,0.8,0.3,1.2,0.5c0.4,0.2,0.8,0.3,1.2,0.5c0.4,0.2,0.8,0.4,1.1,0.6c0.4,0.2,0.7,0.5,1.1,0.7
				c0.3,0.3,0.7,0.5,1,0.8c0.3,0.3,0.7,0.6,0.9,0.9c0.3,0.3,0.5,0.7,0.8,1.1c0.2,0.4,0.4,0.8,0.6,1.2c0.2,0.4,0.5,0.8,0.6,1.2
				c0.2,0.4,0.2,0.8,0.4,1.3c0.1,0.4,0.2,0.8,0.3,1.3c0.1,0.4,0.2,0.9,0.2,1.3c0,0.4,0,0.9-0.1,1.3c0,0.4,0.1,0.9,0,1.3
				c-0.1,0.4-0.3,0.8-0.4,1.3c-0.2,0.7-0.1,0.7-0.3,1.4c-0.2,0.7-0.2,0.7-0.3,1.4c-0.2,0.7-0.3,0.7-0.5,1.4c-0.2,0.7,0,0.7-0.2,1.5
				c-0.1,0.5-0.5,0.8-0.8,1.2c-0.3,0.3-0.7,0.7-1.2,0.8c-0.4,0.1-0.9,0-1.4-0.1c-0.6-0.2-0.6-0.1-1.3-0.3c-0.6-0.2-0.6-0.2-1.3-0.4
				c-0.6-0.2-0.6-0.1-1.3-0.3c-0.6-0.2-0.6-0.2-1.2-0.4c-0.6-0.2-0.6-0.1-1.3-0.3c-0.6-0.2-0.6-0.2-1.2-0.4
				c-0.6-0.2-0.7-0.1-1.3-0.3c-0.6-0.2-0.6-0.1-1.3-0.3c-0.6-0.2-0.6-0.2-1.3-0.3c-0.6-0.2-0.6-0.2-1.3-0.4
				c-0.6-0.2-0.6-0.3-1.2-0.4c-0.6-0.2-0.7-0.1-1.3-0.2c-0.6-0.2-0.6-0.3-1.2-0.4c-0.6-0.2-0.6-0.1-1.3-0.3
				c-0.6-0.2-0.7-0.1-1.3-0.2c-0.5-0.1-1-0.3-1.3-0.7c-0.4-0.3-0.6-0.8-0.7-1.2c-0.1-0.4,0-0.9,0.1-1.4c0.2-0.7,0.2-0.7,0.4-1.4
				c0.2-0.7,0.2-0.7,0.3-1.4c0.2-0.7,0.1-0.7,0.3-1.4c0.2-0.7,0.1-0.7,0.3-1.4C532.2,362.9,532.3,362.5,532.4,362.1z M552.5,367.4
				c0-0.4,0-0.9-0.1-1.3c0-0.4,0-0.9-0.2-1.3c-0.1-0.4-0.3-0.8-0.5-1.2c-0.2-0.4-0.4-0.7-0.7-1.1c-0.2-0.3-0.5-0.7-0.8-1
				c-0.3-0.3-0.7-0.5-1.1-0.7c-0.3-0.2-0.6-0.6-1-0.8c-0.4-0.2-0.8-0.3-1.2-0.4c-0.4-0.1-0.8-0.3-1.2-0.4c-0.4-0.1-0.8-0.3-1.2-0.4
				c-0.4-0.1-0.8,0.1-1.3,0.1c-0.4,0-0.8-0.1-1.2,0c-0.4,0.1-0.8,0.3-1.2,0.4c-0.4,0.1-0.8,0.2-1.2,0.4c-0.4,0.2-0.7,0.4-1,0.7
				c-0.3,0.2-0.7,0.5-1,0.8c-0.3,0.3-0.5,0.6-0.8,1c-0.2,0.3-0.5,0.7-0.6,1.1c-0.2,0.4-0.3,0.8-0.4,1.2c-0.2,0.7-0.3,0.6-0.4,1.3
				c-0.2,0.7-0.1,0.7-0.3,1.3c-0.1,0.5,0.2,0.9,0.7,1c0.7,0.2,0.7,0.2,1.3,0.3c0.7,0.2,0.6,0.2,1.3,0.4c0.7,0.2,0.6,0.3,1.3,0.4
				c0.7,0.2,0.7,0.1,1.3,0.2c0.7,0.2,0.6,0.3,1.3,0.5c0.7,0.2,0.7,0.1,1.3,0.3c0.7,0.2,0.7,0.1,1.3,0.3c0.7,0.2,0.7,0.1,1.3,0.3
				c0.7,0.2,0.6,0.2,1.3,0.4c0.7,0.2,0.6,0.3,1.3,0.4c0.7,0.2,0.6,0.2,1.3,0.4c0.5,0.1,1.1-0.2,1.2-0.7c0.2-0.7,0.1-0.7,0.3-1.3
				c0.2-0.7,0.1-0.7,0.3-1.3C552.3,368.2,552.5,367.8,552.5,367.4z"/>
		</g>
		<g>
			<path class="st0" d="M549.1,328.2c0.2-0.4,0.4-0.8,0.6-1.2c0.3-0.4,0.5-0.7,0.8-1.1c0.3-0.4,0.5-0.8,0.8-1.1
				c0.3-0.3,0.7-0.6,1-0.9c0.4-0.3,0.8-0.5,1.2-0.7c0.4-0.2,0.9-0.3,1.3-0.4c0.4-0.1,0.9-0.2,1.3-0.3c0.4,0,0.9-0.1,1.3,0
				c0.4,0,0.8,0.2,1.2,0.3c0.4,0.1,0.8,0.3,1.2,0.5c0.4,0.2,0.7,0.4,1,0.7c0.3,0.3,0.5,0.6,0.8,1c0.3,0.3,0.5,0.6,0.7,1
				c0.2,0.4,0.4,0.7,0.6,1.1c0.2,0.4,0.2,0.8,0.3,1.2c0.1,0.4,0.2,0.8,0.2,1.2c0.1,0.4,0.2,0.8,0.3,1.2c0,0.4-0.1,0.9-0.1,1.3
				c0,0.4-0.1,0.9-0.2,1.3c-0.1,0.4-0.3,0.8-0.5,1.2c-0.1,0.4-0.3,0.8-0.5,1.2c-0.2,0.4-0.4,0.8-0.7,1.1c-0.2,0.3-0.6,0.6-0.9,0.9
				c-0.3,0.3-0.6,0.6-0.9,0.9c-0.3,0.3-0.6,0.6-1,0.8c-0.4,0.2-0.9,0.3-1.3,0.3c-0.4,0-0.8-0.2-1.1-0.4c-0.3-0.2-0.6-0.6-0.7-0.9
				c-0.2-0.3-0.2-0.7-0.2-1.1c0-0.4,0.2-0.7,0.4-0.9c0.2-0.3,0.4-0.6,0.7-0.8c0.3-0.2,0.7-0.4,1-0.7c0.3-0.3,0.6-0.6,0.8-0.9
				c0.2-0.3,0.4-0.7,0.5-1.1c0.1-0.4,0.3-0.8,0.3-1.2c0.1-0.4,0.1-0.9,0-1.4c-0.1-0.5-0.3-0.9-0.5-1.3c-0.2-0.4-0.5-0.7-0.9-1
				c-0.3-0.2-0.7-0.5-1.2-0.6c-0.4-0.1-0.9,0-1.2,0.1c-0.4,0.1-0.7,0.4-1.1,0.6c-0.3,0.2-0.6,0.5-0.8,0.9c-0.2,0.3-0.5,0.6-0.7,1
				c-0.2,0.3-0.4,0.7-0.5,1.1c-0.2,0.5-0.3,0.5-0.5,1c-0.2,0.4-0.4,0.8-0.6,1.2c-0.2,0.4-0.4,0.8-0.6,1.2c-0.2,0.4-0.5,0.7-0.8,1.1
				c-0.3,0.4-0.6,0.7-0.9,1c-0.3,0.3-0.7,0.6-1,0.8c-0.4,0.2-0.8,0.4-1.2,0.6c-0.4,0.1-0.9,0.1-1.3,0.1c-0.4,0-0.9,0.1-1.3,0
				c-0.4-0.1-0.8-0.2-1.2-0.4c-0.4-0.1-0.8-0.3-1.2-0.5c-0.4-0.2-0.7-0.5-1-0.8c-0.3-0.3-0.6-0.6-0.8-1c-0.2-0.4-0.5-0.7-0.7-1.1
				c-0.2-0.4-0.2-0.8-0.3-1.2c-0.1-0.4-0.2-0.8-0.3-1.2c-0.1-0.4-0.1-0.8-0.1-1.3c0-0.4-0.1-0.9-0.1-1.3c0-0.4,0.2-0.8,0.2-1.2
				c0.1-0.4,0.3-0.8,0.5-1.2c0.1-0.4,0.2-0.8,0.4-1.2c0.2-0.4,0.5-0.7,0.7-1c0.2-0.3,0.5-0.6,0.8-0.9c0.3-0.3,0.6-0.5,1-0.8
				c0.4-0.3,0.8-0.3,1.4-0.3c0.6,0.1,1.1,0.2,1.5,0.6c0.3,0.4,0.5,1,0.4,1.6c0,0.3-0.2,0.7-0.3,0.9c-0.2,0.3-0.4,0.5-0.7,0.7
				c-0.3,0.3-0.6,0.6-0.8,0.9c-0.2,0.3-0.5,0.7-0.6,1.1c-0.1,0.4-0.1,0.8-0.2,1.2c-0.1,0.5,0,1,0.1,1.5c0.1,0.5,0.3,1,0.7,1.3
				c0.3,0.4,0.7,0.6,1.3,0.7c0.4,0.1,0.8,0,1.1-0.2c0.3-0.1,0.7-0.2,1-0.6c0.2-0.2,0.4-0.6,0.6-1c0.2-0.3,0.3-0.7,0.5-1.1
				c0.2-0.5,0.3-0.5,0.5-1C548.7,328.9,548.9,328.5,549.1,328.2z"/>
		</g>
	</g>
	<g>
		<g>
			<path class="st0" d="M47.9,310.7c-0.8,0-1.6-0.2-2.3-0.6c-0.7-0.4-1.2-1-1.6-1.6c-0.4-0.7-0.6-1.4-0.6-2.3c0-0.8,0.2-1.6,0.6-2.3
				c0.4-0.7,0.9-1.2,1.6-1.6c0.7-0.4,1.4-0.6,2.3-0.6c0.8,0,1.6,0.2,2.3,0.6c0.7,0.4,1.2,1,1.6,1.6c0.4,0.7,0.6,1.4,0.6,2.3
				c0,0.8-0.2,1.6-0.6,2.3c-0.4,0.7-0.9,1.2-1.6,1.6C49.5,310.5,48.8,310.7,47.9,310.7z"/>
		</g>
	</g>
	<g>
		<g>
			<path class="st0" d="M554.5,303.6c-0.8,0-1.6-0.2-2.3-0.6c-0.7-0.4-1.2-1-1.6-1.6c-0.4-0.7-0.6-1.4-0.6-2.3
				c0-0.8,0.2-1.6,0.6-2.3c0.4-0.7,0.9-1.2,1.6-1.6c0.7-0.4,1.4-0.6,2.3-0.6c0.8,0,1.6,0.2,2.3,0.6c0.7,0.4,1.2,1,1.6,1.6
				c0.4,0.7,0.6,1.4,0.6,2.3c0,0.8-0.2,1.6-0.6,2.3c-0.4,0.7-0.9,1.2-1.6,1.6C556.1,303.4,555.4,303.6,554.5,303.6z"/>
		</g>
	</g>
	<g>
		<g>
			<path class="st0" d="M444.9,305.4c-2.5,0-4.5-2-4.5-4.5v-48.3c0-1.3,0.5-2.5,1.5-3.4c0.9-0.9,2.2-1.3,3.5-1.2
				c0.2,0,15.7,1.3,23.9-10.1c7-9.7,5.6-24.1-3.1-32.9c-7.1-7.2-18.2-9.5-28.3-5.9c-1.5,0.5-3.2,0.2-4.4-0.8c-1.2-1-1.8-2.6-1.6-4.2
				c0.6-3.7,0.5-7.3,0-10.9c-0.9-5.3-3.6-15.2-12.6-21.9c-5.5-4.1-15.1-8.2-29.9-4.7c-10,2.4-16.9,8.1-20.9,12.4
				c-1,1.1-2.5,1.6-4,1.4c-1.5-0.2-2.8-1.2-3.4-2.5c-2.4-4.9-5.9-9.2-10.2-12.4c-2.5-1.9-10.2-7.6-20.5-6.6
				c-13.6,1.4-20.7,13.6-22,16c-1.6,3-2.7,6.4-3.1,9.9c-0.2,1.5-1.2,2.9-2.6,3.5c-1.4,0.6-3.1,0.5-4.4-0.3
				c-10.7-7-24.6-6.5-33.8,1.3c-8.6,7.2-11.9,19.7-8.1,29.6c3,7.8,9.8,11.7,12.3,13.1c6.8,3.9,14.5,5.1,22.2,3.4
				c1.3-0.3,2.7,0,3.8,0.9c1.1,0.9,1.7,2.2,1.7,3.5v10.2c0,2.5-2,4.5-4.5,4.5c-2.5,0-4.5-2-4.5-4.5v-4.9c-8.1,0.7-16-1.1-23.1-5.2
				c-3-1.7-12.1-6.9-16.3-17.7c-5.2-13.5-0.8-30.2,10.7-39.9c10.7-9,26-10.8,39.1-5c0.7-2.3,1.6-4.5,2.7-6.6
				c1.7-3.1,10.8-18.9,29.1-20.8c9.2-1,18.2,1.8,26.9,8.3c3.8,2.8,7.2,6.4,9.9,10.4c5-4.3,12-8.7,21.1-10.9
				c18.2-4.3,30.4,1,37.4,6.3c11.5,8.6,15,21.1,16.1,27.7c0.4,2.3,0.6,4.7,0.6,7.1c11.5-1.9,23.2,1.6,31.3,9.8
				c11.9,12,13.6,31.2,4,44.6c-8,11.1-20.3,13.5-27.2,13.9v43.7C449.5,303.3,447.4,305.4,444.9,305.4z"/>
		</g>
	</g>
	<g>
		<g>
			<path class="st0" d="M424.3,251c-0.8,0-1.6-0.2-2.3-0.6c-43.5-25.9-108.1-17.1-108.8-17.1c-2.5,0.3-4.8-1.4-5.1-3.9
				c-0.4-2.5,1.4-4.8,3.9-5.1c2.8-0.4,68.4-9.3,114.7,18.2c2.2,1.3,2.9,4.1,1.6,6.2C427.4,250.2,425.9,251,424.3,251z"/>
		</g>
	</g>
	<g>
		<g>
			<path class="st0" d="M324.5,231c-0.7,0-1.4-0.2-2.1-0.5c-1.1-0.6-10.7-5.7-13-14.6c-0.6-2.4,0.8-4.9,3.2-5.6
				c2.4-0.6,4.9,0.8,5.6,3.2c1.1,4.2,6.6,7.9,8.4,8.8c2.2,1.1,3.1,3.9,2,6.1C327.7,230.1,326.1,231,324.5,231z"/>
		</g>
	</g>
	<g>
		<g>
			<path class="st0" d="M395.4,238.1c-2,0-3.9-1.4-4.4-3.4c-0.6-2.4,0.8-4.9,3.3-5.5l0,0c3.9-1,10.5-3.8,12.2-6.4
				c1.3-2.1,4.1-2.8,6.3-1.4c2.1,1.3,2.8,4.1,1.4,6.3c-4.1,6.6-15.4,9.8-17.6,10.4C396.2,238,395.8,238.1,395.4,238.1z"/>
		</g>
	</g>
	<g>
		<g>
			<path class="st0" d="M346.3,231.8c-1.8,0-3.6-1.1-4.2-2.9c-0.9-2.3,0.3-5,2.6-5.9c2.5-0.9,7.1-3.3,10.4-8.2
				c1.8-2.7,3-5.8,3.5-9.1c0.4-2.5,2.7-4.2,5.1-3.9c2.5,0.4,4.2,2.7,3.9,5.1c-0.7,4.6-2.4,9.1-4.9,12.9c-3.5,5.2-8.7,9.3-14.7,11.6
				C347.4,231.7,346.8,231.8,346.3,231.8z"/>
		</g>
	</g>
	<g>
		<g>
			<path class="st0" d="M107.9,309.4c-0.9,0-1.8-0.3-2.5-0.9c-7.3-5.6-10.1-14.8-7-23c3-8,10.3-12.9,21.5-14.6
				c5.7-0.8,9.9-1.4,14.4-1.4c1,0,24.3-0.3,45.6-7.7c2.5-0.9,6.4-3.1,10.9-5.6c1.8-1,3.8-2.1,5.8-3.2c2-1.1,4.5-0.4,5.6,1.6
				c1.1,2,0.4,4.5-1.6,5.6c-2,1.1-3.9,2.2-5.7,3.2c-4.9,2.8-9.1,5.1-12.3,6.3c-22.1,7.6-45.6,8.1-48.2,8.1c-4.1,0-7.9,0.6-13.3,1.3
				c-8.3,1.2-13,4.1-15,9.3c-1.8,4.8-0.1,10.1,4.3,13.5c1.8,1.4,2.2,4,0.8,5.8C110.4,308.8,109.2,309.4,107.9,309.4z"/>
		</g>
	</g>
</g>
</svg>
