<?xml version="1.0" encoding="utf-8"?>
<!-- Generator: Adobe Illustrator 21.1.0, SVG Export Plug-In . SVG Version: 6.00 Build 0)  -->
<svg version="1.1" id="Guides" xmlns="http://www.w3.org/2000/svg" xmlns:xlink="http://www.w3.org/1999/xlink" x="0px" y="0px"
	 viewBox="0 0 100 100" style="enable-background:new 0 0 100 100;" xml:space="preserve">
<style type="text/css">
	.st0{fill:#d4a281;}
</style>
<g>
	<g>
		<g>
			<path class="st0" d="M1.9,71.2v-2.5H1v2.5H0v-5.4h1v2.1h0.9v-2.1h1v5.4H1.9z"/>
			<path class="st0" d="M7.3,71.2l-0.1-0.9H6.2l-0.1,0.9h-1l1.1-5.4h1.1l1,5.4H7.3z M6.7,67.1l-0.4,2.3h0.7L6.7,67.1z"/>
			<path class="st0" d="M12.3,71.2l-1-4.1l0.1,4.1h-0.9v-5.4h1.3l1,4l-0.1-4h0.9v5.4H12.3z"/>
			<path class="st0" d="M19,70c0,0.6-0.3,0.9-0.5,1c-0.3,0.2-0.6,0.2-0.9,0.2h-1.6v-5.4h1.8c0.1,0,0.5,0,0.7,0.3
				c0.4,0.3,0.4,0.7,0.4,1.2v2.5C19,69.8,19,69.9,19,70z M18,67.1c0-0.2,0-0.3-0.1-0.5c-0.1-0.1-0.3-0.1-0.5-0.1h-0.4v3.8h0.4
				c0.1,0,0.2,0,0.3,0C18,70.3,18,70,18,69.8V67.1z"/>
			<path class="st0" d="M25,71.2l0.1-4.7l-0.9,4.7h-0.9l-0.9-4.7l0.1,4.7h-1v-5.4h1.6l0.6,3.8l0.6-3.8H26v5.4H25z"/>
			<path class="st0" d="M30.2,71.2l-0.1-0.9h-0.9L29,71.2h-1l1.1-5.4h1.1l1,5.4H30.2z M29.7,67.1l-0.4,2.3H30L29.7,67.1z"/>
			<path class="st0" d="M36.4,70c0,0.6-0.3,0.9-0.5,1c-0.3,0.2-0.6,0.2-0.9,0.2h-1.6v-5.4h1.8c0.1,0,0.5,0,0.7,0.3
				c0.4,0.3,0.4,0.7,0.4,1.2v2.5C36.4,69.8,36.4,69.9,36.4,70z M35.4,67.1c0-0.2,0-0.3-0.1-0.5c-0.1-0.1-0.3-0.1-0.5-0.1h-0.4v3.8
				h0.4c0.1,0,0.2,0,0.3,0c0.3-0.1,0.3-0.3,0.3-0.6V67.1z"/>
			<path class="st0" d="M38.8,71.2v-5.4h2.6v0.8h-1.6v1.3h1.5v0.8h-1.5v1.7h1.7v0.8H38.8z"/>
			<path class="st0" d="M50.7,70.5c-0.3,0.8-1.3,0.7-1.4,0.7c-0.2,0-0.4,0-0.5-0.1c-0.4-0.1-0.8-0.3-0.9-0.6
				c-0.1-0.2-0.1-0.4-0.1-0.6v-3c0-0.1,0-0.2,0-0.3c0-0.3,0.1-0.6,0.4-0.8c0.2-0.2,0.5-0.3,1.1-0.3c0.3,0,0.7,0,1,0.2
				c0.1,0.1,0.3,0.2,0.3,0.4c0.1,0.2,0.1,0.3,0.1,0.6v0.8h-1V67c0-0.4-0.1-0.6-0.5-0.6c-0.4,0-0.5,0.2-0.5,0.6v2.9
				c0,0.4,0.1,0.6,0.5,0.6c0.4,0,0.5-0.3,0.5-0.7v-0.7h1v0.8C50.8,70.1,50.7,70.3,50.7,70.5z"/>
			<path class="st0" d="M55.7,70.9c-0.3,0.3-0.8,0.4-1.2,0.4c-0.4,0-0.8-0.1-1.1-0.3c-0.2-0.1-0.2-0.3-0.3-0.3
				C53.1,70.4,53,70.2,53,70v-3c0-0.1,0-0.7,0.3-1c0.2-0.2,0.6-0.4,1.2-0.4c0.8,0,1.2,0.3,1.4,0.6C56,66.4,56,66.6,56,67v3
				C56,70.3,56,70.7,55.7,70.9z M55,67c0,0,0-0.3-0.1-0.4c0-0.1-0.2-0.2-0.4-0.2c-0.1,0-0.2,0-0.3,0.1C54,66.6,54,66.9,54,67.1v2.7
				c0,0.2,0,0.4,0.1,0.5c0.1,0.2,0.4,0.2,0.4,0.2s0.2,0,0.3-0.1C55,70.3,55,70,55,69.8V67z"/>
			<path class="st0" d="M58.5,71.2v-5.4h1v4.6H61v0.8H58.5z"/>
			<path class="st0" d="M63.1,71.2v-5.4h1v4.6h1.5v0.8H63.1z"/>
			<path class="st0" d="M67.7,71.2v-5.4h2.6v0.8h-1.6v1.3h1.5v0.8h-1.5v1.7h1.7v0.8H67.7z"/>
			<path class="st0" d="M75.5,70.5c-0.3,0.8-1.3,0.7-1.4,0.7c-0.2,0-0.4,0-0.5-0.1c-0.4-0.1-0.8-0.3-0.9-0.6
				c-0.1-0.2-0.1-0.4-0.1-0.6v-3c0-0.1,0-0.2,0-0.3c0-0.3,0.1-0.6,0.4-0.8c0.2-0.2,0.5-0.3,1.1-0.3c0.3,0,0.7,0,1,0.2
				c0.1,0.1,0.3,0.2,0.3,0.4c0.1,0.2,0.1,0.3,0.1,0.6v0.8h-1V67c0-0.4-0.1-0.6-0.5-0.6c-0.4,0-0.5,0.2-0.5,0.6v2.9
				c0,0.4,0.1,0.6,0.5,0.6c0.4,0,0.5-0.3,0.5-0.7v-0.7h1v0.8C75.6,70.1,75.6,70.3,75.5,70.5z"/>
			<path class="st0" d="M79.5,66.5v4.6h-1v-4.6h-1v-0.8h3v0.8H79.5z"/>
			<path class="st0" d="M82.7,71.2v-5.4h1v5.4H82.7z"/>
			<path class="st0" d="M88.8,70.9c-0.3,0.3-0.8,0.4-1.2,0.4c-0.4,0-0.8-0.1-1.1-0.3c-0.2-0.1-0.2-0.3-0.3-0.3
				c-0.1-0.2-0.1-0.4-0.1-0.6v-3c0-0.1,0-0.7,0.3-1c0.2-0.2,0.6-0.4,1.2-0.4c0.8,0,1.2,0.3,1.4,0.6c0.1,0.2,0.1,0.3,0.1,0.7v3
				C89.1,70.3,89.1,70.7,88.8,70.9z M88.1,67c0,0,0-0.3-0.1-0.4c0-0.1-0.2-0.2-0.4-0.2c-0.1,0-0.2,0-0.3,0.1
				c-0.2,0.2-0.2,0.4-0.2,0.6v2.7c0,0.2,0,0.4,0.1,0.5c0.1,0.2,0.4,0.2,0.4,0.2s0.2,0,0.3-0.1c0.2-0.1,0.2-0.3,0.2-0.5V67z"/>
			<path class="st0" d="M93.4,71.2l-1-4.1l0.1,4.1h-0.9v-5.4h1.3l1,4l-0.1-4h0.9v5.4H93.4z"/>
			<path class="st0" d="M99.9,70.4c-0.1,0.4-0.5,0.8-1.4,0.8c-0.4,0-0.8-0.1-1.1-0.3c-0.2-0.1-0.2-0.3-0.3-0.4
				C97.1,70.4,97,70.3,97,70v-0.8h1v0.6c0,0.2,0,0.4,0.2,0.6c0.1,0,0.2,0.1,0.3,0.1c0.2,0,0.3,0,0.3-0.1C99,70.3,99,70,99,69.7
				c0-0.1,0-0.3-0.1-0.5c-0.1-0.1-0.2-0.2-0.2-0.2l-0.9-0.6c-0.2-0.1-0.3-0.2-0.5-0.4c-0.1-0.2-0.2-0.4-0.2-0.9c0-0.1,0-0.5,0.1-0.7
				c0.3-0.7,1.2-0.7,1.3-0.7c0.2,0,1,0,1.3,0.7c0.1,0.1,0.1,0.2,0.1,0.5v0.5h-1v-0.6c0-0.2-0.1-0.4-0.4-0.4c-0.2,0-0.4,0.1-0.4,0.5
				c0,0,0,0.3,0.1,0.5c0,0,0.1,0.1,0.2,0.2l1,0.7c0.1,0,0.3,0.2,0.4,0.4c0.2,0.3,0.2,0.6,0.2,0.9C100,70.1,100,70.2,99.9,70.4z"/>
		</g>
		<g>
			<path class="st0" d="M28,35.7c2,0,3.6-1.3,3.6-3.5c0-2.2-1.6-3.5-3.6-3.5c-2,0-3.6,1.3-3.6,3.5C24.3,34.5,26,35.7,28,35.7z"/>
			<path class="st0" d="M99.5,55.3c-0.7,0.7-2.1,0.6-2.1-1v-9.2c0-5.9-4.9-7.3-8.7-7.3c-2.7,0-5.9,0.5-7,3c-0.8,1.7-0.2,3.1,1.2,3.5
				c1.4,0.5,3.3-0.3,3.1-2.9c-0.1-1.9,1.6-2.4,2.8-2.3c2.1,0.2,2.7,1.9,2.7,5c0,0,0,0.7,0,1.7c-1,0.1-2.5,0.2-4.4,0.4
				c-3.6,0.3-7.3,1.6-7.9,5.5c-0.2,0.9-0.2,2,0.1,3.1c0.1,0.4,0.5,1.5,1.2,2.2h-0.9v0c-1.5-0.1-1.9-1.3-1.9-2.9v-8.1
				c0-4.6-2.3-7.9-7.7-7.9c-2.5,0-4.7,0.9-6.2,2.9v-2.9h-1l-6.5,1.6V41c1.5,0.1,1.9,0.9,1.9,2.6v10.6c0,1.6-0.4,2.5-1.9,2.6
				c-1.5-0.1-1.9-1-1.9-2.6v-8.1c0-4.6-2.3-7.9-7.7-7.9c-2.5,0-4.7,0.9-6.2,2.9v-2.9h-1L33,39.7V41c1.5,0.1,1.9,0.9,1.9,2.6v10.6
				c0,1.6-0.4,2.5-1.9,2.6c-1.5-0.1-1.9-1-1.9-2.6v-16h-1l-6.8,1.6V41c1.6,0.1,2,0.9,2,2.6v10.6c0,1.6-0.4,2.5-1.9,2.6
				c-1.5-0.1-1.9-1-1.9-2.6v-8.1c0-4.6-2.3-7.9-7.7-7.9c-2.5,0-4.7,0.9-6.2,2.9v-2.9h-1L0,39.7V41c1.5,0.1,1.9,0.9,1.9,2.6v10.6
				c0,1.6-0.4,2.5-1.9,2.6v1.3h9.7v-1.3c-1.5-0.1-1.9-1-1.9-2.6v-8.9c0-2.8,1.4-5,4-5c2.7,0,3.8,2.1,3.8,5.2v8.7
				c0,1.6-0.4,2.5-1.9,2.6v1.3h9.7h0.1H33h0.1h9.7v-1.3c-1.5-0.1-1.9-1-1.9-2.6v-8.9c0-2.8,1.4-5,4-5c2.7,0,3.8,2.1,3.8,5.2v8.7
				c0,1.6-0.4,2.5-1.9,2.6v1.3h9.7h0.1H66v-1.3c-1.5-0.1-1.9-1-1.9-2.6v-8.9c0-2.8,1.4-5,4-5c2.7,0,3.8,2.1,3.8,5.2v8.7
				c0,1.6-0.4,2.5-1.9,2.6v1.3h9.7h0h6.7v0c2.1,0,4.4-0.9,5.4-3.3c0.2,2.4,2.8,3.3,4.5,3.3c1.6,0,3.1-1,3.6-1.8L99.5,55.3z
				 M91.6,50.5c0,2.8-1,5.4-3.3,5.4c-1.8,0-3.3-1.1-3.2-3.8c0.1-2.6,1.3-4.2,4.3-4.6c0.9-0.1,1.7-0.2,2.3-0.3
				C91.6,48.2,91.6,49.4,91.6,50.5z"/>
		</g>
		<circle class="st0" cx="44.7" cy="68.4" r="0.9"/>
	</g>
</g>
</svg>
