<?xml version="1.0" encoding="utf-8"?>
<!-- Generator: Adobe Illustrator 21.1.0, SVG Export Plug-In . SVG Version: 6.00 Build 0)  -->
<svg version="1.1" id="Guides" xmlns="http://www.w3.org/2000/svg" xmlns:xlink="http://www.w3.org/1999/xlink" x="0px" y="0px"
	 viewBox="0 0 100 100" style="enable-background:new 0 0 100 100;" xml:space="preserve">
<style type="text/css">
	.st0{fill:#FFFFFF;}
</style>
<g>
	<path class="st0" d="M100,50c0,27.5-22.4,49.9-50,49.9c-27.6,0-50-22.4-50-50C0,22.4,22.3,0.2,49.6,0.1C77.5-0.1,100.1,22.4,100,50
		z M50,99.2c27.4,0,49.6-22.5,49.3-49.9C99,22.6,77.1,0.7,49.9,0.7C22.8,0.8,0.7,22.9,0.7,50C0.8,77.1,22.9,99.3,50,99.2z"/>
	<path class="st0" d="M50.2,85.9C30.8,85.9,15,70,15.1,50.6c0-19.4,15.8-35.2,35.2-35.1c19.5,0,35.2,15.8,35.2,35.3
		C85.4,70.2,69.7,85.9,50.2,85.9z M50.3,85.1C69.4,85,84.8,69.7,84.7,50.6c0-19-15.5-34.4-34.6-34.3c-18.8,0-34.3,15.5-34.3,34.4
		C15.8,69.7,31.3,85.2,50.3,85.1z"/>
	<path class="st0" d="M13.8,70.9c0.2-0.1,0.3-0.2,0.4-0.2c0.2,0,0.4,0,0.6,0.1c-0.1,0.2-0.1,0.5-0.1,0.6c-0.4,0.3-0.7,0.6-1.2,0.8
		c-0.2,0.1-0.4,0.1-0.7,0.1c0.1-0.2,0.1-0.5,0.2-0.7c0-0.1,0.1-0.1,0.2-0.1C9.4,64.7,7.5,57.6,7.5,50s1.9-14.7,5.7-21.3
		c0-0.1,0-0.1-0.1-0.1c-0.2-0.2-0.7-0.4-0.4-0.8c0.4-0.4,0.7,0,0.9,0.2c0.3,0.1,0.6,0.4,0.8,0.6c0.1,0.1,0.4,0.5,0.3,0.7
		c-0.1,0.4-0.4,0.2-0.7,0.1c-0.1-0.1-0.1-0.1-0.3-0.1c-3.6,6.3-5.6,13.1-5.6,20.4C8.1,57,10,64.2,13.8,70.9z"/>
	<path class="st0" d="M86.3,29.4c-0.4-0.1-1,0-1-0.1c-0.3-0.4,0.2-0.6,0.5-0.8c0.3-0.2,0.5-0.4,0.8-0.6c0.2-0.1,0.4-0.1,0.7-0.1
		c-0.1,0.2-0.1,0.5-0.2,0.7c0,0.1-0.1,0.1-0.1,0.1c7.5,14.3,7.5,28.5-0.1,42.8c0.1,0.1,0.4,0.2,0.4,0.4c0.1,0.1,0.1,0.4,0.1,0.5
		s-0.4,0.2-0.5,0.1c-0.4-0.2-0.9-0.5-1.3-0.9c-0.1-0.1-0.2-0.4-0.3-0.7c0.2,0,0.4,0,0.7-0.1c0.1,0,0.1,0,0.1,0.1
		C93.7,58.6,93.7,41.5,86.3,29.4z"/>
	<path class="st0" d="M71.2,12.2c0,2-1.6,3.6-3.6,3.6c-2.1,0-3.8-1.7-3.8-3.7c0.1-2,1.6-3.6,3.6-3.6C69.6,8.6,71.2,10.2,71.2,12.2z
		 M65.1,12.4c0,1.2,1,2.2,2.2,2.3c1.3,0,2.5-1.3,2.5-2.8c0-1.3-1-2.2-2.2-2.2C66.3,9.6,65.2,11,65.1,12.4z"/>
	<path class="st0" d="M78.2,14.5c0.4,0.2,0.7,0.4,1,0.7c-1.3,1.9-2.6,3.6-3.8,5.5c-0.6-0.2-0.8-0.5-0.9-1.2
		c-0.1-1.6-0.1-3.2-0.4-4.9c-0.8,1.2-1.6,2.3-2.5,3.5c-0.3-0.2-0.7-0.4-1-0.7c1.3-1.9,2.6-3.6,3.8-5.5c0.6,0.1,0.8,0.5,0.9,1.2
		c0.1,1.6,0.1,3.2,0.2,4.8c0.1,0,0.1,0.1,0.1,0.1C76.5,16.9,77.3,15.7,78.2,14.5z"/>
	<path class="st0" d="M30.6,14.3c0.4,0.8,0.7,1.6,1.2,2.4c-0.4,0.2-0.7,0.4-1.2,0.6c-1-2-2-4-3-6.1c1-0.4,1.9-1,2.9-1.3
		c0.9-0.4,1.7-0.1,2.2,0.7c0.6,0.8,0.6,1.7,0,2.5c-0.1,0.1-0.1,0.1-0.1,0.2c1,1,1.8,1.3,2.7,0.9c0.1,0.2,0.2,0.4,0.3,0.7
		c-0.8,0.8-1.7,1-2.6,0.4c-0.4-0.2-0.7-0.5-1.1-0.8C31.2,13.8,31.2,13.8,30.6,14.3z M29.2,11.5c0.4,0.7,0.7,1.3,1,1.9
		c0.4-0.2,0.7-0.4,1.1-0.6c0.6-0.4,0.7-0.8,0.4-1.4s-0.7-0.7-1.4-0.5C29.9,11,29.6,11.3,29.2,11.5z"/>
	<path class="st0" d="M57.1,12.5c-0.4-0.1-0.8-0.2-1.3-0.3c0.4-2.2,0.9-4.4,1.4-6.6c0.4,0.1,0.8,0.1,1.3,0.2
		c-0.1,0.9-0.3,1.7-0.5,2.6c1,0.2,2.1,0.4,3.2,0.7c0.2-0.9,0.4-1.7,0.6-2.6c0.4,0.1,0.8,0.1,1.3,0.3c-0.4,2.2-0.9,4.4-1.4,6.6
		c-0.4-0.1-0.8-0.1-1.3-0.2c0.2-1,0.4-1.9,0.6-3c-1-0.2-2-0.4-3-0.7c-0.1,0-0.3,0.3-0.3,0.4C57.4,10.8,57.2,11.6,57.1,12.5z"/>
	<path class="st0" d="M82.5,21.9c-0.3,0.3-0.5,0.5-0.9,0.9c-0.6-0.7-1.1-1.3-1.7-1.9c-0.4,0.5-0.9,1-1.3,1.6
		c0.7,0.6,1.4,1.2,2.2,1.9c-0.4,0.4-0.7,0.6-0.9,0.8c-1-1-2.1-2-3-3c1.6-1.6,3.1-3.3,4.7-4.8c1,1,2.1,2,3.2,3.1
		c-0.2,0.2-0.4,0.4-0.7,0.7c-0.7-0.8-1.4-1.5-2.1-2.3c-0.4,0.4-0.8,0.8-1.3,1.3C81.3,20.9,81.9,21.4,82.5,21.9z"/>
	<path class="st0" d="M28.3,17.4c0.2,0.3,0.4,0.5,0.6,0.8c-1.2,0.9-2.4,1.7-3.6,2.6c-1.3-1.9-2.7-3.6-4-5.5c1.2-0.9,2.3-1.7,3.6-2.6
		c0.2,0.3,0.4,0.5,0.6,0.8c-0.8,0.6-1.6,1.2-2.4,1.9c0.3,0.4,0.6,0.9,1,1.3c0.7-0.4,1.3-1,2-1.4c0.2,0.2,0.4,0.5,0.6,0.8
		c-0.7,0.5-1.3,1-2,1.5c0.4,0.5,0.7,1,1.2,1.6C26.6,18.6,27.5,18.1,28.3,17.4z"/>
	<path class="st0" d="M47.3,11c0.1,0.4,0.1,0.7,0.1,1c-0.7,0.1-1.5,0.2-2.2,0.3c-0.7,0.1-1.4,0.1-2.1,0.3c-0.3-2.2-0.6-4.4-0.9-6.7
		c1.5-0.2,2.9-0.4,4.3-0.6c0.1,0.4,0.1,0.7,0.1,1c-0.9,0.1-1.6,0.3-2.4,0.4c-0.4,0.1-0.6,0.2-0.5,0.7c0.2,1-0.1,1.1,1.2,0.9
		C45.3,8.1,45.7,8,46.3,8c0.1,0.3,0.1,0.6,0.1,1c-0.7,0.1-1.3,0.2-2,0.3C44,9.3,44,9.5,44,9.8c0.1,1.6,0.1,1.6,1.6,1.3
		C46.2,11.1,46.7,11,47.3,11z"/>
	<path class="st0" d="M20,22.7c0.6,0.5,1.2,1.1,1.8,1.6c-0.3,0.4-0.6,0.7-1,1c-1.6-1.7-3-3.3-4.6-5c0.7-0.6,1.4-1.5,2.3-2.1
		c0.7-0.6,1.8-0.3,2.5,0.4c0.7,0.7,0.9,1.7,0.3,2.5C20.9,21.7,20.5,22.1,20,22.7z M19.3,21.9c0.4-0.6,1.3-0.9,1-1.8
		c-0.1-0.5-0.5-0.9-1-1c-0.9-0.1-1.2,0.7-1.7,1C18.2,20.8,18.7,21.3,19.3,21.9z"/>
	<path class="st0" d="M50.7,9.5c0,0.8,0,1.6,0,2.4c-0.5,0-0.9,0-1.3,0c0.1-2.2,0.1-4.4,0.2-6.8c1.2,0.1,2.3,0.1,3.3,0.3
		c1,0.1,1.5,1,1.5,2.1s-0.6,1.8-1.6,1.9C52.1,9.5,51.4,9.5,50.7,9.5z M50.8,7.3L50.8,7.3c0,0.1,0,0.3,0,0.4c0,0.8,0,0.8,0.8,0.8
		c0.1,0,0.1,0,0.2,0c0.8,0,1.2-0.4,1.2-1.2c0-0.9-0.4-1.2-1.6-1.3C50.5,6.1,50.9,6.8,50.8,7.3L50.8,7.3z"/>
	<path class="st0" d="M36.6,12.9c0.7,0,1.5,0.1,2.1,0c0.5-0.1,1-0.4,1-1c0-0.5-0.4-0.9-1.2-0.9c-0.4,0-0.9,0-1.4,0
		c-1-0.1-1.6-0.7-1.8-1.5c-0.1-0.9,0.1-1.6,1-2.1C36.9,7.2,37.6,7,38.2,7c0.9-0.1,1,0.1,0.8,1c-0.5,0-1-0.1-1.6,0
		c-0.7,0.1-1.1,0.5-1,1c0.1,0.7,0.7,0.7,1.2,0.7c0.6,0,1.2,0,1.8,0.1c0.9,0.2,1.3,0.9,1.4,1.7c0.1,0.8-0.2,1.4-0.9,1.9
		c-0.8,0.5-1.6,0.7-2.6,0.6C36.5,13.8,36.4,13.7,36.6,12.9z"/>
	<path class="st0" d="M40.9,90.7c0,1-0.7,1.6-1.6,1.6c-1,0-1.8-0.7-1.8-1.6c0-1,0.7-1.7,1.6-1.6C40,89.1,40.9,89.9,40.9,90.7z
		 M38.3,90.9c0,0.5,0.4,0.9,0.8,0.9c0.4,0,1-0.6,1-1.2c0-0.5-0.4-0.9-0.9-0.9C38.7,89.8,38.3,90.3,38.3,90.9z"/>
	<path class="st0" d="M73.9,86.5c-0.2-0.4-0.4-0.7-0.7-1c-0.4,0.2-0.7,0.4-1,0.7c0.2,0.4,0.4,0.7,0.7,1.1c-0.2,0.1-0.4,0.3-0.7,0.4
		c-0.6-0.9-1.1-1.7-1.7-2.6c0.2-0.1,0.4-0.3,0.7-0.4c0.2,0.3,0.4,0.6,0.7,0.9c0.4-0.2,0.7-0.4,1-0.7c-0.2-0.3-0.4-0.6-0.5-1
		c0.2-0.1,0.4-0.3,0.6-0.4c0.6,0.9,1.1,1.7,1.7,2.6C74.3,86.2,74.1,86.4,73.9,86.5z"/>
	<path class="st0" d="M44.5,91.9c0.1-0.5,0.1-1,0.3-1.6c0.2,0,0.4,0.1,0.7,0.1c-0.1,1-0.3,2-0.4,3c-1.2-0.1-1-1.4-1.8-1.9
		c-0.1,0.5-0.1,1-0.3,1.6c-0.2,0-0.4-0.1-0.7-0.1c0.1-1,0.3-2,0.4-3C43.8,90.2,43.7,91.3,44.5,91.9z"/>
	<path class="st0" d="M81.1,80.5c-0.8,0.7-1.7-0.1-2.7,0.2c0.5,0.4,1,0.7,1.4,1c-0.3,0.3-0.4,0.4-0.5,0.6c-0.7-0.7-1.5-1.5-2.2-2.1
		c0.3-0.6,0.8-0.3,1.2-0.3c0.4,0,0.9,0.1,1.5,0.1c-0.5-0.5-0.9-0.9-1.3-1.3c0.1-0.1,0.3-0.3,0.4-0.4C79.6,79,80.3,79.6,81.1,80.5z"
		/>
	<path class="st0" d="M60.2,92.5c-1,0.7-1.4-0.4-2.2-0.7c0,0.2-0.1,0.4-0.1,0.7c0.2,0.6-0.1,0.7-0.7,0.7c-0.2-1-0.4-1.9-0.6-3
		c0.3-0.1,0.5-0.1,0.7-0.1c0.1,0.4,0.1,0.7,0.2,1.1c0.7-0.4,0.6-1.6,1.7-1.5c-0.2,0.4-0.5,0.7-0.7,1.2c-0.1,0.1,0,0.5,0.1,0.6
		C59.2,91.8,59.7,92.1,60.2,92.5z"/>
	<path class="st0" d="M32.1,89.8c-0.5-0.1-0.7-0.2-0.7-0.7c0-0.4-0.9-0.9-1.3-0.6c-0.4,0.2-0.4,0.2-0.9-0.1c0.7-0.7,1.6-1.3,2.3-1.9
		c0.3-0.3,0.8-0.1,0.8,0.4C32.2,87.7,32.1,88.7,32.1,89.8z M31.5,87.3c-0.1,0-0.1,0-0.1-0.1c-0.2,0.1-0.4,0.4-0.7,0.6
		c0.3,0.1,0.4,0.2,0.7,0.4C31.5,87.9,31.5,87.6,31.5,87.3z"/>
	<path class="st0" d="M28.1,87c-0.1,0.1-0.2,0.3-0.4,0.4c-0.6-0.4-1.2-0.7-1.8-1.1c0.6-0.9,1.1-1.7,1.7-2.6c0.6,0.4,1.2,0.7,1.8,1.1
		c-0.1,0.1-0.2,0.3-0.3,0.5c-0.4-0.2-0.7-0.4-1.1-0.7c-0.5,0.7,0.4,0.7,0.5,1.1c-0.1,0.1-0.1,0.2-0.2,0.4c-0.3-0.1-0.6-0.3-0.9-0.5
		c-0.1,0.2-0.2,0.4-0.4,0.6C27.3,86.6,27.7,86.8,28.1,87z"/>
	<path class="st0" d="M74.1,82.5c0.6-0.5,1.1-0.9,1.6-1.3c0.1,0.1,0.3,0.3,0.4,0.4c-0.4,0.3-0.7,0.5-1,0.8c0.1,0.6,0.4,0.4,0.7,0.1
		c0.3-0.2,0.5-0.4,0.7,0.1c-0.2,0.2-0.4,0.4-0.7,0.7c0.1,0.1,0.3,0.4,0.4,0.5c0.4-0.3,0.7-0.5,1-0.7c0.1,0.1,0.2,0.2,0.4,0.4
		c-0.6,0.4-1.1,0.9-1.6,1.3C75.4,84.1,74.8,83.3,74.1,82.5z"/>
	<path class="st0" d="M46.6,93.6c0.4-1,0.8-1.9,1.3-2.7c0.1-0.4,0.7-0.3,0.9,0.1c0.4,0.9,0.7,1.9,1,2.8c-0.4,0.1-0.7,0.1-0.9-0.4
		c-0.1-0.4-1.2-0.4-1.4,0C47.4,93.8,47.1,93.8,46.6,93.6z M48.4,91.7c-0.1,0-0.1,0-0.1,0c-0.1,0.2-0.2,0.5-0.4,0.8
		c0.3,0,0.5,0,0.7,0C48.6,92.2,48.5,92,48.4,91.7z"/>
	<path class="st0" d="M20.1,81.6c-0.4-0.2-0.7-0.4-0.4-0.9c0.2-0.4-0.5-1-1-1c-0.3,0-0.5-0.1-0.8-0.1c0-0.1,0-0.1,0-0.2
		c1-0.4,1.9-0.7,2.9-1.1c0.3-0.1,0.7,0.3,0.5,0.7C20.9,79.7,20.5,80.6,20.1,81.6z M20.5,79.1c0-0.1-0.1-0.1-0.1-0.1
		c-0.2,0.1-0.5,0.2-0.9,0.4c0.2,0.2,0.4,0.4,0.6,0.6C20.2,79.6,20.4,79.3,20.5,79.1z"/>
	<path class="st0" d="M25.9,83.4c-0.3-0.4-0.5-0.6-0.7-0.8c-0.1-0.1-0.2,0-0.4,0c0,0.1-0.1,0.3,0,0.4c0.1,0.2,0.4,0.4,0.4,0.7
		c0,0.4,0.1,0.8-0.1,1c-0.2,0.2-0.7,0.4-1,0.2c-0.4-0.1-0.7-0.5-1-0.8c-0.2-0.3-0.1-0.5,0.2-0.7c0.2,0.3,0.4,0.6,0.6,0.8
		c0.1,0.1,0.4,0.1,0.5,0.1c0-0.1,0-0.4,0-0.5c0-0.1-0.1-0.1-0.1-0.2c-0.3-0.4-0.5-0.8-0.1-1.3c0.1-0.2,0.6-0.4,0.8-0.4
		c0.4,0.2,0.8,0.6,1.2,0.9C26.1,82.9,26,83.2,25.9,83.4z"/>
	<path class="st0" d="M36.1,88.9c-0.2-0.1-0.4-0.3-0.7-0.4c-0.1-0.1-0.3,0-0.4,0.1c0,0.1,0,0.3,0.1,0.4c0.1,0.2,0.4,0.3,0.6,0.5
		c0.4,0.4,0.4,0.8,0.1,1.1C35.7,90.7,35.3,91,35,91c-0.4,0-0.7-0.3-1.1-0.4c-0.4-0.2-0.4-0.5,0-0.7c0.2,0.2,0.4,0.4,0.7,0.5
		c0.1,0.1,0.4,0,0.6,0c-0.1-0.2-0.1-0.4-0.2-0.6c-0.1-0.1-0.4-0.3-0.4-0.4c-0.1-0.3-0.2-0.7-0.1-1c0.1-0.2,0.6-0.4,0.9-0.4
		s0.7,0.2,1,0.4c0.1,0.1,0.1,0.4,0.1,0.6C36.3,88.9,36.2,88.9,36.1,88.9z"/>
	<path class="st0" d="M70,87.9c0.4,0.4,0.3,0.7-0.1,1c-0.6,0.4-1.5,0.6-2.1,0.3c-0.6-0.4-1-1.1-0.7-1.8c0.1-0.7,0.8-1.2,1.6-1.3
		c0.4-0.1,0.4,0,0.7,0.5c-0.6,0.1-1.3,0.1-1.4,1c0,0.4,0.3,0.9,0.6,1C69.2,88.9,69.6,88.4,70,87.9z"/>
	<path class="st0" d="M65.5,87.6c0.1,0.1,0.1,0.3,0.2,0.5c-0.3,0.1-0.5,0.3-0.9,0.4c0.3,0.7,0.6,1.5,0.9,2.3
		c-0.3,0.1-0.4,0.1-0.7,0.3c-0.2-0.6-0.5-1.1-0.7-1.7c-0.1-0.6-0.4-0.7-1-0.4C63.3,89,63.2,89,63.1,89c-0.1-0.1-0.1-0.3-0.1-0.5
		C63.8,88.2,64.7,87.9,65.5,87.6z"/>
	<path class="st0" d="M53.7,93.3c-0.1,0.1-0.3,0.3-0.4,0.4h-0.1c-1.7,0.1-1.7,0.1-1.8-1.5c0-0.4-0.1-0.9-0.1-1.5
		c0.2,0,0.4-0.1,0.7-0.1c0,0.6,0.1,1.2,0.1,1.8c0,0.6,0.1,0.9,0.8,0.7c0.1,0,0.4,0,0.5,0C53.6,93.2,53.6,93.2,53.7,93.3z"/>
	<path class="st0" d="M61.8,92.1c-0.3-1-0.6-1.9-0.9-3c0.2-0.1,0.4-0.1,0.7-0.3c0.3,1,0.6,1.9,0.9,3C62.3,91.9,62.1,92,61.8,92.1z"
		/>
	<path class="st0" d="M48.4,91.7c0.1,0.3,0.1,0.5,0.2,0.8c-0.3,0-0.4,0-0.7,0c0.1-0.3,0.2-0.6,0.4-0.8
		C48.3,91.7,48.3,91.7,48.4,91.7z"/>
	<path class="st0" d="M64.8,50.9c0.1,0.1,0.1,0.3,0.2,0.4c1.3,1.7,0.2,3.9-1.6,4.5c-0.9,0.3-1.8,0.4-2.7,0.5c-2,0.2-2.4,0.4-2.7,2.4
		c-0.2,1.6-0.3,3.2-0.4,4.8c0,0.2,0.2,0.5,0.4,0.7c2,1,3.9,2.1,5.9,3.1c1.1,0.6,2.3,1.1,3.5,1.6c0.4,0.2,0.5,0.5,0.4,1
		c-0.3,1.3-0.9,2.4-1.7,3.5c-2.9,3.8-6.7,6-11.3,6.9c-8.6,1.6-15.8-1.2-22-7c-0.7-0.7-1.2-1.5-1.7-2.3c-0.3-0.5-0.2-1,0.4-1.3
		c0.4-0.2,0.7-0.5,1.1-0.8c0.4-0.3,0.7-0.5,0.6-1.1c-0.1-0.2,0.3-0.7,0.6-1c0.5-0.4,1.1-0.7,1.7-1.1c-0.3-0.7-0.7-1.3-1-2.1
		c-0.4-1.3-0.6-2.5-0.4-3.8c0.1-0.4-0.1-0.7-0.4-1c-1.9-2.1-2.4-4.5-2.2-7.2c0.1-1.1,0.4-2.1,0.6-3.2c0.1-0.2,0.1-0.6-0.1-0.7
		c-2-3.6-2.4-7.4-2-11.5c0.4-2.7,1-5.3,2.4-7.7c1.8-3.1,4.4-5.3,7.8-6.5c4.5-1.6,9.1-2.1,13.8-0.7c1.6,0.4,3.2,1.3,4.8,2
		c0.5,0.2,1.1,0.4,1.7,0.6c1.6,0.3,3,0.7,4.3,1.6c2.5,1.6,3.3,4.1,3.1,7c-0.1,2-0.8,3.8-2.4,5c-0.1,0.1-0.2,0.5-0.1,0.7
		c0.7,1.6,1.3,3,2,4.5c0.1,0.4,0.3,0.7,0.4,1.2c0.2,1-0.1,1.7-1.1,2.1c-0.1,0-0.1,0.1-0.2,0.1c-1.2,0.4-1.1,0.3-0.7,1.5
		c0.1,0.4-0.2,0.9-0.3,1.3c-0.1,0.2-0.1,0.4-0.1,0.7c0.1,0.7,0,1-0.6,1.4C65.1,50.7,65.1,50.8,64.8,50.9z M54.3,36.6
		c1.2,0,2.3-0.1,3.3-0.9c0.1-0.1,0.4-0.1,0.6-0.1c-0.1,0.2-0.1,0.4-0.3,0.6c-0.4,0.3-1,0.6-1.4,0.9c0.1,0.2,0.3,0.4,0.4,0.6
		c4.4-1.4,7.5-5.5,7-10.3c0-0.2,0.1-0.4,0.2-0.7c0.1,0.2,0.4,0.4,0.4,0.6c0.2,1.3,0.1,2.5-0.1,3.8c-0.1,0.2-0.1,0.4-0.1,0.7
		c0.5,1.3,1,2.7,1.6,4.1c0.5-1.8,0.6-3.5-0.1-5.2c-0.1-0.2,0-0.4,0-0.7c0.2,0.1,0.4,0.2,0.6,0.4c0.6,1.2,0.6,2.4,0.5,3.8
		c-0.1,0.5-0.1,1.1-0.2,1.7c0.1-0.1,0.1-0.1,0.2-0.1c1.5-2,1.8-6.6-0.8-9c-1.6-1.4-3.4-2-5.3-2.3c-0.8-0.1-1.6-0.1-2.4-0.2
		c-0.1,0-0.3-0.2-0.4-0.3c0.1-0.1,0.2-0.2,0.4-0.4c0.1-0.1,0.1-0.1,0.3-0.1c-0.1-0.1-0.1-0.1-0.2-0.2c-1.5-0.5-2.9-1.2-4.4-1.6
		c-3.2-0.9-6.4-0.6-9.6,0.1c-3.5,0.7-6.6,2.1-8.9,5c-3.6,4.3-4.5,9.3-3.9,14.7c0.4,4.4,2.8,8,6.1,10.9c1.1,1,2.3,1.8,3.6,2.7
		c0.2-0.6,0.4-1,0.6-1.3c0.1-0.4,0.4-0.8,0.5-1.1c-0.1-0.1-0.1-0.1-0.1-0.1c-0.3-0.1-0.6-0.3-0.8-0.4c-6.2-3.1-9.1-8.2-9.1-15
		c0-0.3-0.2-0.7,0.3-0.8c0.1,0,0.2,0.5,0.2,0.8c-0.1,4.7,1.4,8.9,5.1,12.1c1.4,1.3,3,2.1,4.7,2.9c0.4-0.7,0.7-1.3,1.1-1.9
		c-0.1-0.1-0.3-0.2-0.4-0.2c-4.6-2.1-7.3-5.7-8.5-10.6c-0.7-2.9-0.4-5.8,0.5-8.6c0.1-0.2,0.1-0.6,0.5-0.3c0.1,0.1,0,0.4-0.1,0.6
		c-0.7,2.3-1.1,4.6-0.7,7c0.7,4.4,2.7,8,6.6,10.4c0.7,0.4,1.5,0.8,2.2,1.2c0.1-0.1,0.1-0.1,0.1-0.1c-1-0.5-1.5-1.3-1.4-2.3
		c0-0.1-0.3-0.3-0.4-0.3c-1.3-0.3-2-1.4-1.8-2.7c0.1-0.2-0.1-0.5-0.2-0.7c-0.7-0.9-1.5-1.8-1.9-2.7c-2.1-5-1-9.5,2-13.8
		c0.1-0.1,0.4-0.1,0.5-0.3c0,0.2,0,0.4-0.1,0.6c-0.5,0.9-1.1,1.7-1.6,2.7c-1.5,3.2-1.9,6.4-0.7,9.8c0.5,1.4,1.3,2.7,2.4,3.6
		c0.4-0.2,0.7-0.4,1-0.5c0.3-0.1,0.7-0.2,1.1-0.4c-0.5-0.1-1-0.1-1.4-0.3c-1.5-0.4-2-1.7-1.3-3.1c0.1-0.2,0.1-0.5,0.1-0.7
		c-0.4-1.3-0.5-2.7-0.3-4.1c0.4-2.7,1.7-5.2,3.3-7.4c0.1-0.2,0.4-0.3,0.7-0.4c-0.1,0.3-0.1,0.6-0.2,0.8c-1.6,2.3-2.9,4.7-3.3,7.5
		c-0.1,1.3-0.1,2.4,0.4,3.6c0.6-0.1,1-0.2,0.8-1c-0.1-0.7,0.2-1.4,0.8-1.9c0.1-0.1,0.3-0.4,0.3-0.6c0.1-0.9,0.1-1.8,0.4-2.6
		c0.5-1.1,1.2-2.1,1.9-3.3c0.1-0.1,0.4-0.1,0.5-0.2c0,0.1,0,0.4-0.1,0.5c-0.1,0.1-0.1,0.2-0.2,0.4c-0.5,1-1.2,1.9-1.6,3
		c-0.3,0.7-0.3,1.5-0.4,2.2c0.7,0.1,1.2,0.3,1.7,0.4c0-0.1,0.1-0.3,0.1-0.4c0-1.6,0.7-3,1.6-4.2c0.1-0.1,0.4-0.2,0.6-0.3
		c-0.1,0.2-0.1,0.4-0.1,0.6c0,0.1-0.1,0.1-0.1,0.2c-0.9,1.3-1.6,2.7-1.3,4.4c0.1,0.4,0.3,0.7,0.4,1.1c0.1,0,0.1-0.1,0.1-0.1
		c-0.1-0.3-0.1-0.6-0.1-0.8c-0.2-1.6,0.5-2.7,1.9-2.7c0.5,0,0.8-0.2,1-0.7c0.5-1.2,1.1-2.3,1.6-3.5c0.1-0.1,0.3-0.2,0.4-0.4
		c0,0.2,0.1,0.4,0.1,0.6c0,0.1-0.1,0.2-0.1,0.4c-0.6,1.3-1.2,2.5-1.8,3.8c0.1,0.1,0.4,0.4,0.7,0.7c0.5-0.7,1-1.3,1.4-1.9
		c0.7-1.4,1.2-2.8,1.8-4.2c0.1-0.1,0.3-0.3,0.4-0.4c0.1,0.2,0.1,0.4,0.1,0.7c-0.5,1.9-1.3,3.6-2.4,5.3c-0.1,0.1-0.1,0.2-0.2,0.4
		c0.4,0,0.7,0,0.9,0.1c0.5,0.2,0.8,0,1.2-0.4c1.6-1.7,2.5-3.7,3.2-5.9c0.1-0.2,0.3-0.4,0.4-0.5c0.1,0.2,0.2,0.4,0.1,0.7
		c-0.6,2.3-1.6,4.3-3.2,6.1c-0.5,0.6-0.5,1,0.1,1.7c1-0.8,2-1.6,3-2.4c0.1-0.1,0.4-0.1,0.6-0.2c-0.1,0.2-0.1,0.5-0.2,0.6
		c-1,0.9-2.1,1.7-3.2,2.5c-0.3,0.2-0.6,0.4-0.4,1c0.9-0.4,1.8-0.8,2.6-1.3c2.1-1.2,3.7-2.9,4.8-5c0.1-0.2,0.4-0.4,0.6-0.4
		c0.4,0.1,0.1,0.4,0.1,0.7c-0.1,0.2-0.2,0.4-0.3,0.6c-1.5,2.5-3.6,4.3-6.1,5.5C54.6,36.3,54.5,36.4,54.3,36.6c-0.9-0.1-1.7,0.4-2,1
		C53,37.2,53.7,36.9,54.3,36.6z M63.8,32.6c-0.1,0-0.1,0-0.1,0c-1.3,2.7-3.6,4.5-6.4,5.6c-0.1,0.1-0.3,0.2-0.3,0.4
		c-0.1,0.5-0.3,1-0.4,1.6c1,0.7,1.4,1.6,0.9,2.8c-0.7,1.6-2.1,1.2-3.6,1c0.4,0.4,0.7,0.7,1.1,1c0.7,0.8,0.9,1.7,0.4,2.4
		c-0.4,0.8-1.3,1.2-2.3,1c-0.4-0.1-0.5,0.1-0.6,0.4c-0.4,1-1.2,1.5-2.2,1.5c-0.1,0-0.3,0-0.4,0c-0.1,0.1-0.1,0.1-0.1,0.1
		c-0.1,2.2-0.8,4.3-1.9,6.2c-0.1,0.1-0.1,0.4,0,0.6c1,2.1,1.1,4.2,0.2,6.4c-0.1,0.1-0.1,0.4,0,0.7c1,1.9,1.4,3.8,1.1,5.9
		c-0.1,0.7,0.7,2,1.3,2.1c2.2,0.7,4.4,1.4,6.7,1.9c2.3,0.5,4.7,0.6,7,0.2c0.2,0,0.5-0.1,0.6-0.2c1-1.2,1.9-2.4,2.4-3.9
		c0.1-0.5,0-0.7-0.4-0.9c-2.6-1.2-5.2-2.4-7.8-3.7c-0.4-0.2-0.8-0.4-1.3-0.7c0,0.4,0.1,0.7,0,1c0,0.1-0.2,0.4-0.3,0.5
		c-0.1-0.1-0.3-0.3-0.3-0.4c-0.1-0.8-0.1-1.6-0.1-2.4c0-2.1,0.1-4.1,0.7-6.1c0.3-1,0.9-1.6,1.9-1.7c0.5-0.1,1-0.1,1.6-0.2
		c0.7-0.1,1.6-0.3,2.3-0.6c1.4-0.7,1.8-2.1,0.9-3.4c-0.5-0.7-0.4-1,0.4-1.6c0.1-0.1,0.4-0.4,0.3-0.5c-0.1-0.1-0.4-0.4-0.5-0.4
		c-0.4-0.1-1,0-1.4,0c-0.2,0-0.4-0.1-0.6-0.2c0.6-0.2,1.1-0.3,1.6-0.5c0.5-0.2,1-0.5,1.5-0.7c-0.1-0.1-0.1-0.2-0.1-0.3
		c-0.6-1.2-0.3-1.9,1-2.1c0.2-0.1,0.4-0.1,0.7-0.2c0.4-0.2,0.7-0.7,0.5-1.2c-0.1-0.2-0.1-0.5-0.3-0.7c-0.7-1.5-1.4-3-2-4.5
		c-0.4-0.8-0.7-1.6-0.4-2.6c0.1-0.1,0-0.3-0.1-0.4C64.5,34.6,64.2,33.6,63.8,32.6z M34,68.8c-0.4,0.3-0.8,0.6-1.1,0.9
		c-1,0.8-1.1,0.9-0.2,1.9c2.1,2.6,4.8,4.4,7.8,5.9c1,0.4,1.9,0.8,2.8,1.3c-0.6-0.9-1.1-1.9-1.7-2.7c-0.1-0.1-0.3-0.3-0.4-0.4
		c-2-1.3-3.8-2.8-5.3-4.6C35.3,70.2,34.7,69.5,34,68.8z M41.5,62.7c0.1,0,0.1,0.1,0.1,0.1c0-0.1,0.1-0.1,0.1-0.1
		c0.4-2.5,1.8-4.4,3.2-6.4c0.9-1.3,1.7-2.5,2.3-3.8c1-1.9,1.4-3.9,1-6.1c0-0.1-0.1-0.3-0.1-0.4c-0.2,0.1-0.4,0.4-0.4,0.6
		c-0.3,0.8-0.6,1.6-1,2.4c-1.1,2.4-2.4,4.8-3.5,7.3c-0.9,1.9-1.6,3.9-1.7,6.1C41.4,62.3,41.5,62.5,41.5,62.7z M50,44.3
		c-0.4,0.4-0.7,0.7-1,1.2c-0.1,0.1-0.2,0.2-0.1,0.4c0.1,0.9,0.1,1.8,0.4,2.7c0.2,0.7,0.7,1.1,1.3,1c0.7-0.1,1.3-0.5,1.4-1.3
		c0.1-0.3,0.1-0.7,0.1-1c0.2,0.1,0.4,0.1,0.5,0.2c1,0.4,1.8,0.3,2.2-0.4c0.4-0.6,0.2-1.3-0.6-2c-0.7-0.5-1.4-1-2.1-1.5
		c-0.1-0.1-0.3-0.1-0.4-0.1c-0.4,0.1-0.9,0.3-1.3,0.4c0.3,0.5,0.6,1,0.9,1.6c0.1,0.1,0,0.3,0,0.4c-0.1-0.1-0.3-0.1-0.4-0.2
		C50.6,45.2,50.3,44.8,50,44.3z M50.7,39.7c0.5,0.3,1,0.7,1.5,0.8c0.5,0.1,1-0.1,1.6-0.1c0,0.1,0,0.1,0.1,0.3
		c-0.2,0.1-0.4,0.1-0.6,0.2c-0.2,0.1-0.4,0.1-0.7,0.1c0,0.6-0.1,1.1-0.1,1.8c1,0.2,2.1,0.4,3.1,0.5c0.6,0.1,1.1-0.2,1.3-0.9
		c0.1-0.6-0.1-1.3-0.6-1.6c-0.3-0.2-0.7-0.4-1-0.6c0.2-0.2,0.4-0.4,0.5-0.5c0.6-0.7,0.7-1.4,0.2-2.1c-0.4-0.6-1.1-0.7-1.9-0.3
		C52.9,38,51.8,38.9,50.7,39.7z M46.7,39.2c0-0.3,0-0.6-0.1-0.7c-0.7-1-1.3-1.9-2.1-2.7c-0.6-0.7-1.3-0.7-1.9-0.4
		c-0.7,0.4-0.8,1.2-0.4,2c0.1,0.2,0.2,0.4,0.3,0.7c-0.4,0.1-0.7,0.1-1.1,0.1c-0.7,0.1-1.1,0.8-1.1,1.4c0,0.7,0.4,1.1,1,1.3
		c0.9,0.2,1.8,0.3,2.6,0.4c0.3-0.7,0.5-1.2,0.8-1.8c-0.1-0.1-0.4-0.1-0.5-0.3c-0.1-0.1-0.1-0.3-0.2-0.4c0.1,0,0.4-0.1,0.4,0
		C45.1,39.4,45.8,39.3,46.7,39.2z M45.8,43.2c-0.5-0.3-0.9-0.6-1.3-0.8c-0.1-0.1-0.2-0.1-0.3-0.1c-0.9,0.3-1.8,0.5-2.7,0.9
		c-0.7,0.3-0.9,0.9-0.7,1.5c0.1,0.6,0.7,1.1,1.3,1.2c0.4,0,0.7,0,1.2,0c-0.1,0.3-0.1,0.5-0.2,0.8c-0.1,0.8,0.1,1.5,0.8,1.8
		c0.6,0.3,1.3,0.1,1.7-0.6c0.4-0.7,0.7-1.3,1-2.1c0.1-0.1,0.1-0.2,0-0.4c-0.3-0.4-0.6-1-0.9-1.4c-0.3,0.2-0.6,0.5-0.9,0.7
		c-0.1,0.1-0.3,0.1-0.4,0.1c0.1-0.1,0-0.4,0.1-0.4C45,43.9,45.4,43.6,45.8,43.2z M49.2,36.1c0.1,0,0.1,0,0.2,0c0,0.2,0,0.4,0,0.7
		c0,0.1,0,0.4,0.1,0.5c0.4,0.4,0.7,0.8,1.2,1.3c0.6-1,1.3-1.9,1.8-3c0.4-0.7,0.1-1.3-0.4-1.6c-0.5-0.4-1.3-0.4-1.8,0
		c-0.3,0.2-0.5,0.4-0.8,0.7c-0.1-0.3-0.3-0.5-0.4-0.7c-0.4-0.7-1.1-1-1.8-0.8c-0.7,0.1-1,0.7-0.9,1.6c0.1,1,0.4,2,0.7,3
		c0.4-0.2,0.7-0.4,1-0.4c0.5-0.1,0.9-0.2,0.9-0.8C49,36.3,49.1,36.2,49.2,36.1z M50.3,76.1c0.4,0.8,0.7,1.5,1.1,2.1
		c0.1,0.1,0.3,0.2,0.4,0.2c3.2,0.4,6.3,0,9.2-1.6c0.4-0.2,0.7-0.4,1.2-0.7c0-0.1-0.1-0.1-0.1-0.1C58.3,76.8,54.4,77,50.3,76.1z
		 M50.4,72.9c0.1,0.7,0.1,1.2,0.1,1.7c-0.1,0.7,0.2,0.8,0.7,0.9c2.7,0.5,5.5,0.5,8.2,0.1c0.7-0.1,1.4-0.2,2.1-0.4c0-0.1,0-0.1,0-0.1
		C57.7,75.3,54.1,74.3,50.4,72.9z M42.2,62.6c0.9-1.1,1.6-2.1,2.4-3.1c0.6-0.7,1.2-1.4,1.8-2.1c1.6-2.1,2.5-4.4,2.6-7
		c0-0.3-0.1-0.6-0.1-0.9c-0.1,0-0.1,0-0.2,0c-0.1,0.6-0.3,1.2-0.5,1.8c-0.7,2.1-1.9,3.8-3.1,5.6c-0.9,1.3-1.6,2.6-2.4,4
		C42.5,61.3,42.4,61.9,42.2,62.6z M33.6,49.2c0.6,3.3,3.8,7.2,6.6,8.1c0.1-0.4,0.1-0.8,0.3-1.2c0.1-0.4,0.1-0.7-0.3-0.9
		c-2-1.3-3.8-2.7-5.5-4.6C34.4,50.2,34,49.7,33.6,49.2z M35.7,66.5c-0.3,0.2-0.7,0.4-1,0.6c-0.5,0.3-0.6,0.7-0.2,1.1
		c1.4,1.6,2.7,3.1,4.1,4.6c0.7,0.8,1.7,1.4,2.6,2.1c0.1-0.1,0.1-0.1,0.2-0.2c-0.1-0.2-0.2-0.4-0.4-0.6c-1.6-1.2-2.7-2.7-3-4.7
		c0-0.1-0.1-0.3-0.1-0.4C37.2,68.2,36.4,67.4,35.7,66.5z M40.8,62.2c0.1-0.7,0.2-1.4,0.4-2.1c0.6-2.8,1.9-5.3,3.2-7.9
		c0.6-1.2,1.2-2.4,1.7-3.5c-1.4,0.1-1.8,1.3-2.4,2.3c-1.1,1.9-2,3.7-2.5,5.8C40.6,58.5,40.4,60.3,40.8,62.2z M33.5,50.9
		c0,3.5,3.6,8.4,6.4,9C40,59.4,40,59,40,58.6c0.1-0.4,0-0.7-0.4-0.9c-2.3-1.1-4-2.8-5.3-5C34,52.1,33.8,51.5,33.5,50.9z M32.8,51.1
		c-0.1,0.1-0.1,0.1-0.1,0.1c-0.2,2.9,0.4,5.5,2.6,7.4c1.3,1.2,3,2.1,4.4,3c0.1,0,0.1,0,0.1,0c0.1-1,0.1-1-0.4-1.3
		c-3.4-1.7-5.6-4.4-6.4-8.2C32.9,51.8,32.9,51.4,32.8,51.1z M43.2,69.3c0.1,0,0.1,0,0.2,0c0-0.1,0.1-0.1,0.1-0.3
		c0-2.1,0.9-3.8,2.1-5.3c0.6-0.8,1.2-1.7,1.6-2.6c0.4-0.7,0.6-1.5,0.3-2.4c-1,1.5-1.9,2.9-2.8,4.3c-1,1.7-1.6,3.6-1.6,5.6
		C43.2,68.8,43.2,69.1,43.2,69.3z M45.6,75.1c1.3-3,1.9-6.1,2-9.5C46.5,67.3,45.2,73.3,45.6,75.1z M42.5,68c0-0.1,0.1-0.1,0.1-0.2
		c0.1-1.6,0.6-3.2,1.4-4.6c0.8-1.4,1.7-2.7,2.6-4.1c0.2-0.3,0.3-0.7,0.4-1c-0.1,0-0.1-0.1-0.1-0.1c-1,1.1-1.9,2.1-2.8,3.3
		c-0.9,1-1.5,2.3-1.7,3.6C42.2,66,42.2,67,42.5,68z M36,61.3c0.4,2.2,3.6,5.1,5.6,5.6c0-0.2,0-0.4,0-0.7c0.1-0.6-0.1-0.9-0.7-1.1
		c-0.8-0.4-1.6-0.9-2.3-1.4C37.7,62.8,36.9,62,36,61.3z M41.7,68.6c0-0.7-0.2-1-0.8-1.3c-2.2-1-3.9-2.6-5-4.7
		c-0.2-0.4-0.4-0.8-0.7-1.3C35.4,64.6,37.6,67,41.7,68.6z M49.5,72.7c-0.5,1.6-1,3.3-1.4,4.9c-0.1,0.6-0.2,1.2-0.2,1.7
		c0,0.1,0.2,0.4,0.3,0.5c0.1-0.1,0.4-0.2,0.4-0.4c0.4-1.1,0.8-2.2,1.1-3.3C50,75,50,73.9,49.5,72.7z M48,61.1
		c-0.8,1.2-1.6,2.2-2.2,3.3c-0.5,0.9-1,1.8-1.4,2.7c-0.3,0.7-0.4,1.6-0.3,2.6c0.1-0.1,0.1-0.2,0.1-0.3c0.4-1.7,1.2-3.3,2.3-4.7
		C47.4,63.7,47.9,62.5,48,61.1z M46.3,75.4c1.7-1.1,3-7.4,1.8-9C48,69.6,47.3,72.5,46.3,75.4z M41.6,64.7c0.4-0.6,0.3-0.9-0.3-1.3
		c-1.6-0.9-3.1-1.9-4.6-2.7c-0.1-0.1-0.2-0.1-0.3-0.1C37.7,62.3,39.5,63.8,41.6,64.7z M43.7,74.6c0.1-0.4,0.1-0.7-0.4-0.9
		c-1.8-0.9-3.2-2.2-4.2-3.9c-0.1-0.1-0.1-0.2-0.3-0.4C38.9,71.5,41.2,73.9,43.7,74.6z M47.1,79.6c0.3-1.3,0.5-2.4,0.9-3.6
		c0.3-1.2,0.8-2.3,0.8-3.6c-0.5,1.1-1.1,2.2-1.6,3.3c-0.4,1-0.5,2.1-0.7,3.1C46.5,79.3,46.7,79.6,47.1,79.6z M48.3,42.7
		c0.7,0,1.3-0.6,1.2-1.3c0-0.7-0.6-1.3-1.3-1.3c-0.7,0-1.3,0.6-1.3,1.3C47.1,42.2,47.7,42.7,48.3,42.7z M46.6,66
		c-1.6,1.7-2.7,7.5-1.8,9C45.1,71.9,45.5,68.9,46.6,66z M46.9,43.2c-0.2,0.3-0.3,0.8,0,1.3c0.3,0.4,0.7,0.7,1.3,0.5
		c0.5-0.1,0.9-0.5,1-1.1c0-0.3,0.1-0.6-0.4-0.6C48.3,43.3,47.6,43.2,46.9,43.2z M47.5,39.5c0.7,0.1,1.4,0.2,2.1,0.3
		c0.4-0.5,0.4-1.1-0.1-1.6c-0.4-0.4-1-0.5-1.6-0.1C47.4,38.4,47.3,38.9,47.5,39.5z M40,69.8c1,1.5,2.1,2.6,3.8,3.3
		c0.2-1.3,0.2-1.2-0.8-1.6c-0.4-0.1-0.7-0.3-1-0.5C41.3,70.6,40.6,70.2,40,69.8z M50,42.8c0.5,0.4,1,0.3,1.5-0.2
		c0.4-0.4,0.4-1.1,0.1-1.6c-0.4-0.5-0.9-0.6-1.3-0.4C50.2,41.4,50.1,42,50,42.8z M46.3,76.2c-1.3-0.4-2.4-0.8-3.7-1.2
		c1,1.2,2,2,3.4,2.5C46.1,77.1,46.2,76.7,46.3,76.2z M46.6,40.1c-0.4-0.3-1-0.3-1.4,0.1c-0.4,0.4-0.5,1-0.2,1.6
		c0.3,0.5,0.8,0.7,1.3,0.5C46.4,41.6,46.5,40.9,46.6,40.1z M43.9,71.3c0-0.4,0.4-0.8-0.1-1c-1.5-0.6-2.9-1.3-4.5-1.9
		C40.7,69.7,42.2,70.6,43.9,71.3z M42.3,75.6c0.4,1.6,2.2,3.3,3.6,3.4c-0.1-0.4-0.1-0.9-0.3-1C44.4,77.5,43.3,76.8,42.3,75.6z
		 M51.7,80c1.6-0.2,3-0.4,4.6-0.7c0-0.1,0-0.1,0-0.1c-1.5,0-3,0-4.6,0C51.7,79.4,51.7,79.6,51.7,80z M50,78.3c-0.1,0-0.1,0-0.1,0
		c-0.2,0.5-0.4,1-0.7,1.6c0.6,0.2,0.8,0.1,0.8-0.4C50,79.1,50,78.7,50,78.3z M50.8,78.2c-0.1,0-0.1,0-0.1,0c0,0.4-0.1,1-0.1,1.4
		c0,0.1,0.1,0.1,0.2,0.3c0.1-0.1,0.2-0.1,0.2-0.3C50.9,79.2,50.9,78.8,50.8,78.2z M37.9,68c0.1-0.1,0.1-0.1,0.2-0.1
		c-0.2-0.7-1-1-1.6-1.4C37,66.9,37.5,67.4,37.9,68z"/>
	<path class="st0" d="M58.3,39.2c0.9-0.6,1.8-1.3,2.7-1.7c0.5-0.2,1.2-0.2,1.8-0.2c0.1,0,0.2,0.2,0.3,0.3c-0.1,0.1-0.2,0.1-0.3,0.3
		c-0.1,0.2-0.3,0.4-0.4,0.6c-0.1,0.6-0.4,1.1-1.1,1.4c0-0.4,0-0.6,0-0.8c0-0.7-0.2-0.9-0.9-0.6c-0.4,0.2-0.8,0.4-1.3,0.7
		c-0.3,0.1-0.7,0.1-1,0.2C58.3,39.3,58.3,39.2,58.3,39.2z"/>
	<path class="st0" d="M63.5,43.5c0,0.3-0.1,0.7,0,1c0.1,0.2,0.4,0.5,0.6,0.7c0.1,0.1,0.3-0.3,0.5-0.3c0.4-0.1,0.8-0.2,1.3-0.4
		c0,0.1,0,0.1,0.1,0.1c-0.5,0.3-1,0.7-1.6,0.9c-0.7,0.3-1.4-0.4-1.3-1.3c0.1-0.3,0.2-0.5,0.3-0.8C63.4,43.5,63.4,43.5,63.5,43.5z"/>
</g>
</svg>
